<svg version="1.1" viewBox="0.0 0.0 204.68241469816272 172.95275590551182" fill="none" stroke="none" stroke-linecap="square" stroke-miterlimit="10" xmlns:xlink="http://www.w3.org/1999/xlink" xmlns="http://www.w3.org/2000/svg"><clipPath id="p.0"><path d="m0 0l204.68242 0l0 172.95276l-204.68242 0l0 -172.95276z" clip-rule="nonzero"/></clipPath><g clip-path="url(#p.0)"><path fill="#000000" fill-opacity="0.0" d="m0 0l204.68242 0l0 172.95276l-204.68242 0z" fill-rule="evenodd"/><g filter="url(#shadowFilter-p.1)"><use xlink:href="#p.1" transform="matrix(1.0 0.0 0.0 1.0 0.0 2.0)"/></g><defs><filter id="shadowFilter-p.1" filterUnits="userSpaceOnUse"><feGaussianBlur in="SourceAlpha" stdDeviation="2.0" result="blur"/><feComponentTransfer in="blur" color-interpolation-filters="sRGB"><feFuncR type="linear" slope="0" intercept="0.0"/><feFuncG type="linear" slope="0" intercept="0.0"/><feFuncB type="linear" slope="0" intercept="0.0"/><feFuncA type="linear" slope="0.5" intercept="0"/></feComponentTransfer></filter></defs><g id="p.1"><path fill="#b4a7d6" d="m57.84957 158.78215l-5.507141 -23.74794l0 0c-33.045437 -15.859688 -46.51774 -50.476837 -31.124346 -79.97417c15.393396 -29.497326 54.614708 -44.221283 90.61093 -34.015972c35.996223 10.205307 56.986916 42.000004 48.49369 73.4536c-8.493225 31.453598 -43.690804 52.272316 -81.3151 48.096397z" fill-rule="evenodd"/><path stroke="#b4a7d6" stroke-width="8.0" stroke-linejoin="round" stroke-linecap="butt" d="m57.84957 158.78215l-5.507141 -23.74794l0 0c-33.045437 -15.859688 -46.51774 -50.476837 -31.124346 -79.97417c15.393396 -29.497326 54.614708 -44.221283 90.61093 -34.015972c35.996223 10.205307 56.986916 42.000004 48.49369 73.4536c-8.493225 31.453598 -43.690804 52.272316 -81.3151 48.096397z" fill-rule="evenodd"/></g><g filter="url(#shadowFilter-p.2)"><use xlink:href="#p.2" transform="matrix(1.0 0.0 0.0 1.0 0.0 2.0)"/></g><defs><filter id="shadowFilter-p.2" filterUnits="userSpaceOnUse"><feGaussianBlur in="SourceAlpha" stdDeviation="2.0" result="blur"/><feComponentTransfer in="blur" color-interpolation-filters="sRGB"><feFuncR type="linear" slope="0" intercept="0.0"/><feFuncG type="linear" slope="0" intercept="0.0"/><feFuncB type="linear" slope="0" intercept="0.0"/><feFuncA type="linear" slope="0.5" intercept="0"/></feComponentTransfer></filter></defs><g id="p.2"><path fill="#b6d7a8" d="m154.26854 160.2245l5.507141 -22.768875l0 0c33.04544 -15.205856 46.517746 -48.39586 31.124344 -76.67711c-15.393387 -28.28125 -54.614716 -42.398182 -90.61093 -32.613605c-35.996223 9.784576 -56.986916 40.26848 -48.49369 70.42535c8.493221 30.156868 43.690804 50.117302 81.3151 46.11355z" fill-rule="evenodd"/><path stroke="#b6d7a8" stroke-width="8.0" stroke-linejoin="round" stroke-linecap="butt" d="m154.26854 160.2245l5.507141 -22.768875l0 0c33.04544 -15.205856 46.517746 -48.39586 31.124344 -76.67711c-15.393387 -28.28125 -54.614716 -42.398182 -90.61093 -32.613605c-35.996223 9.784576 -56.986916 40.26848 -48.49369 70.42535c8.493221 30.156868 43.690804 50.117302 81.3151 46.11355z" fill-rule="evenodd"/></g></g></svg>