<svg version="1.1" viewBox="0.0 0.0 483.49081364829397 539.1469816272966" fill="none" stroke="none" stroke-linecap="square" stroke-miterlimit="10" xmlns:xlink="http://www.w3.org/1999/xlink" xmlns="http://www.w3.org/2000/svg"><clipPath id="p.0"><path d="m0 0l483.4908 0l0 539.147l-483.4908 0l0 -539.147z" clip-rule="nonzero"/></clipPath><g clip-path="url(#p.0)"><path fill="#000000" fill-opacity="0.0" d="m0 0l483.4908 0l0 539.147l-483.4908 0z" fill-rule="evenodd"/><path shape-rendering="crispEdges" fill="#38761d" d="m2.6509187 1.7939633l79.698166 0l0 41.19685l-79.698166 0l0 -41.19685z" fill-rule="nonzero"/><path shape-rendering="crispEdges" fill="#38761d" d="m82.34908 1.7939633l79.69816 0l0 41.19685l-79.69816 0l0 -41.19685z" fill-rule="nonzero"/><path shape-rendering="crispEdges" fill="#38761d" d="m162.04724 1.7939633l79.698166 0l0 41.19685l-79.698166 0l0 -41.19685z" fill-rule="nonzero"/><path shape-rendering="crispEdges" fill="#38761d" d="m241.7454 1.7939633l79.698166 0l0 41.19685l-79.698166 0l0 -41.19685z" fill-rule="nonzero"/><path shape-rendering="crispEdges" fill="#38761d" d="m321.44357 1.7939633l79.69815 0l0 41.19685l-79.69815 0l0 -41.19685z" fill-rule="nonzero"/><path shape-rendering="crispEdges" fill="#38761d" d="m401.14172 1.7939633l79.69818 0l0 41.19685l-79.69818 0l0 -41.19685z" fill-rule="nonzero"/><path shape-rendering="crispEdges" fill="#ffffff" d="m2.6509187 42.990814l79.698166 0l0 41.196854l-79.698166 0l0 -41.196854z" fill-rule="nonzero"/><path shape-rendering="crispEdges" fill="#ffffff" d="m82.34908 42.990814l79.69816 0l0 41.196854l-79.69816 0l0 -41.196854z" fill-rule="nonzero"/><path shape-rendering="crispEdges" fill="#ffffff" d="m162.04724 42.990814l79.698166 0l0 41.196854l-79.698166 0l0 -41.196854z" fill-rule="nonzero"/><path shape-rendering="crispEdges" fill="#ffffff" d="m241.7454 42.990814l79.698166 0l0 41.196854l-79.698166 0l0 -41.196854z" fill-rule="nonzero"/><path shape-rendering="crispEdges" fill="#ffffff" d="m321.44357 42.990814l79.69815 0l0 41.196854l-79.69815 0l0 -41.196854z" fill-rule="nonzero"/><path shape-rendering="crispEdges" fill="#ffffff" d="m401.14172 42.990814l79.69818 0l0 41.196854l-79.69818 0l0 -41.196854z" fill-rule="nonzero"/><path shape-rendering="crispEdges" fill="#d9d9d9" d="m2.6509187 84.18767l79.698166 0l0 41.196846l-79.698166 0l0 -41.196846z" fill-rule="nonzero"/><path shape-rendering="crispEdges" fill="#d9d9d9" d="m82.34908 84.18767l79.69816 0l0 41.196846l-79.69816 0l0 -41.196846z" fill-rule="nonzero"/><path shape-rendering="crispEdges" fill="#d9d9d9" d="m162.04724 84.18767l79.698166 0l0 41.196846l-79.698166 0l0 -41.196846z" fill-rule="nonzero"/><path shape-rendering="crispEdges" fill="#d9d9d9" d="m241.7454 84.18767l79.698166 0l0 41.196846l-79.698166 0l0 -41.196846z" fill-rule="nonzero"/><path shape-rendering="crispEdges" fill="#d9d9d9" d="m321.44357 84.18767l79.69815 0l0 41.196846l-79.69815 0l0 -41.196846z" fill-rule="nonzero"/><path shape-rendering="crispEdges" fill="#d9d9d9" d="m401.14172 84.18767l79.69818 0l0 41.196846l-79.69818 0l0 -41.196846z" fill-rule="nonzero"/><path shape-rendering="crispEdges" fill="#ffffff" d="m2.6509187 125.384514l79.698166 0l0 41.196846l-79.698166 0l0 -41.196846z" fill-rule="nonzero"/><path shape-rendering="crispEdges" fill="#ffffff" d="m82.34908 125.384514l79.69816 0l0 41.196846l-79.69816 0l0 -41.196846z" fill-rule="nonzero"/><path shape-rendering="crispEdges" fill="#ffffff" d="m162.04724 125.384514l79.698166 0l0 41.196846l-79.698166 0l0 -41.196846z" fill-rule="nonzero"/><path shape-rendering="crispEdges" fill="#ffffff" d="m241.7454 125.384514l79.698166 0l0 41.196846l-79.698166 0l0 -41.196846z" fill-rule="nonzero"/><path shape-rendering="crispEdges" fill="#ffffff" d="m321.44357 125.384514l79.69815 0l0 41.196846l-79.69815 0l0 -41.196846z" fill-rule="nonzero"/><path shape-rendering="crispEdges" fill="#ffffff" d="m401.14172 125.384514l79.69818 0l0 41.196846l-79.69818 0l0 -41.196846z" fill-rule="nonzero"/><path shape-rendering="crispEdges" fill="#d9d9d9" d="m2.6509187 166.58136l79.698166 0l0 41.196854l-79.698166 0l0 -41.196854z" fill-rule="nonzero"/><path shape-rendering="crispEdges" fill="#d9d9d9" d="m82.34908 166.58136l79.69816 0l0 41.196854l-79.69816 0l0 -41.196854z" fill-rule="nonzero"/><path shape-rendering="crispEdges" fill="#d9d9d9" d="m162.04724 166.58136l79.698166 0l0 41.196854l-79.698166 0l0 -41.196854z" fill-rule="nonzero"/><path shape-rendering="crispEdges" fill="#d9d9d9" d="m241.7454 166.58136l79.698166 0l0 41.196854l-79.698166 0l0 -41.196854z" fill-rule="nonzero"/><path shape-rendering="crispEdges" fill="#d9d9d9" d="m321.44357 166.58136l79.69815 0l0 41.196854l-79.69815 0l0 -41.196854z" fill-rule="nonzero"/><path shape-rendering="crispEdges" fill="#d9d9d9" d="m401.14172 166.58136l79.69818 0l0 41.196854l-79.69818 0l0 -41.196854z" fill-rule="nonzero"/><path shape-rendering="crispEdges" fill="#ffffff" d="m2.6509187 207.77821l79.698166 0l0 41.196854l-79.698166 0l0 -41.196854z" fill-rule="nonzero"/><path shape-rendering="crispEdges" fill="#ffffff" d="m82.34908 207.77821l79.69816 0l0 41.196854l-79.69816 0l0 -41.196854z" fill-rule="nonzero"/><path shape-rendering="crispEdges" fill="#ffffff" d="m162.04724 207.77821l79.698166 0l0 41.196854l-79.698166 0l0 -41.196854z" fill-rule="nonzero"/><path shape-rendering="crispEdges" fill="#ffffff" d="m241.7454 207.77821l79.698166 0l0 41.196854l-79.698166 0l0 -41.196854z" fill-rule="nonzero"/><path shape-rendering="crispEdges" fill="#ffffff" d="m321.44357 207.77821l79.69815 0l0 41.196854l-79.69815 0l0 -41.196854z" fill-rule="nonzero"/><path shape-rendering="crispEdges" fill="#ffffff" d="m401.14172 207.77821l79.69818 0l0 41.196854l-79.69818 0l0 -41.196854z" fill-rule="nonzero"/><path shape-rendering="crispEdges" fill="#d9d9d9" d="m2.6509187 248.97507l79.698166 0l0 41.19684l-79.698166 0l0 -41.19684z" fill-rule="nonzero"/><path shape-rendering="crispEdges" fill="#d9d9d9" d="m82.34908 248.97507l79.69816 0l0 41.19684l-79.69816 0l0 -41.19684z" fill-rule="nonzero"/><path shape-rendering="crispEdges" fill="#d9d9d9" d="m162.04724 248.97507l79.698166 0l0 41.19684l-79.698166 0l0 -41.19684z" fill-rule="nonzero"/><path shape-rendering="crispEdges" fill="#d9d9d9" d="m241.7454 248.97507l79.698166 0l0 41.19684l-79.698166 0l0 -41.19684z" fill-rule="nonzero"/><path shape-rendering="crispEdges" fill="#d9d9d9" d="m321.44357 248.97507l79.69815 0l0 41.19684l-79.69815 0l0 -41.19684z" fill-rule="nonzero"/><path shape-rendering="crispEdges" fill="#d9d9d9" d="m401.14172 248.97507l79.69818 0l0 41.19684l-79.69818 0l0 -41.19684z" fill-rule="nonzero"/><path shape-rendering="crispEdges" fill="#ffffff" d="m2.6509187 290.1719l79.698166 0l0 41.19687l-79.698166 0l0 -41.19687z" fill-rule="nonzero"/><path shape-rendering="crispEdges" fill="#ffffff" d="m82.34908 290.1719l79.69816 0l0 41.19687l-79.69816 0l0 -41.19687z" fill-rule="nonzero"/><path shape-rendering="crispEdges" fill="#ffffff" d="m162.04724 290.1719l79.698166 0l0 41.19687l-79.698166 0l0 -41.19687z" fill-rule="nonzero"/><path shape-rendering="crispEdges" fill="#ffffff" d="m241.7454 290.1719l79.698166 0l0 41.19687l-79.698166 0l0 -41.19687z" fill-rule="nonzero"/><path shape-rendering="crispEdges" fill="#ffffff" d="m321.44357 290.1719l79.69815 0l0 41.19687l-79.69815 0l0 -41.19687z" fill-rule="nonzero"/><path shape-rendering="crispEdges" fill="#ffffff" d="m401.14172 290.1719l79.69818 0l0 41.19687l-79.69818 0l0 -41.19687z" fill-rule="nonzero"/><path shape-rendering="crispEdges" fill="#d9d9d9" d="m2.6509187 331.36877l79.698166 0l0 41.19684l-79.698166 0l0 -41.19684z" fill-rule="nonzero"/><path shape-rendering="crispEdges" fill="#d9d9d9" d="m82.34908 331.36877l79.69816 0l0 41.19684l-79.69816 0l0 -41.19684z" fill-rule="nonzero"/><path shape-rendering="crispEdges" fill="#d9d9d9" d="m162.04724 331.36877l79.698166 0l0 41.19684l-79.698166 0l0 -41.19684z" fill-rule="nonzero"/><path shape-rendering="crispEdges" fill="#d9d9d9" d="m241.7454 331.36877l79.698166 0l0 41.19684l-79.698166 0l0 -41.19684z" fill-rule="nonzero"/><path shape-rendering="crispEdges" fill="#d9d9d9" d="m321.44357 331.36877l79.69815 0l0 41.19684l-79.69815 0l0 -41.19684z" fill-rule="nonzero"/><path shape-rendering="crispEdges" fill="#d9d9d9" d="m401.14172 331.36877l79.69818 0l0 41.19684l-79.69818 0l0 -41.19684z" fill-rule="nonzero"/><path shape-rendering="crispEdges" fill="#ffffff" d="m2.6509187 372.5656l79.698166 0l0 41.19687l-79.698166 0l0 -41.19687z" fill-rule="nonzero"/><path shape-rendering="crispEdges" fill="#ffffff" d="m82.34908 372.5656l79.69816 0l0 41.19687l-79.69816 0l0 -41.19687z" fill-rule="nonzero"/><path shape-rendering="crispEdges" fill="#ffffff" d="m162.04724 372.5656l79.698166 0l0 41.19687l-79.698166 0l0 -41.19687z" fill-rule="nonzero"/><path shape-rendering="crispEdges" fill="#ffffff" d="m241.7454 372.5656l79.698166 0l0 41.19687l-79.698166 0l0 -41.19687z" fill-rule="nonzero"/><path shape-rendering="crispEdges" fill="#ffffff" d="m321.44357 372.5656l79.69815 0l0 41.19687l-79.69815 0l0 -41.19687z" fill-rule="nonzero"/><path shape-rendering="crispEdges" fill="#ffffff" d="m401.14172 372.5656l79.69818 0l0 41.19687l-79.69818 0l0 -41.19687z" fill-rule="nonzero"/><path shape-rendering="crispEdges" fill="#d9d9d9" d="m2.6509187 413.76248l79.698166 0l0 41.19684l-79.698166 0l0 -41.19684z" fill-rule="nonzero"/><path shape-rendering="crispEdges" fill="#d9d9d9" d="m82.34908 413.76248l79.69816 0l0 41.19684l-79.69816 0l0 -41.19684z" fill-rule="nonzero"/><path shape-rendering="crispEdges" fill="#d9d9d9" d="m162.04724 413.76248l79.698166 0l0 41.19684l-79.698166 0l0 -41.19684z" fill-rule="nonzero"/><path shape-rendering="crispEdges" fill="#d9d9d9" d="m241.7454 413.76248l79.698166 0l0 41.19684l-79.698166 0l0 -41.19684z" fill-rule="nonzero"/><path shape-rendering="crispEdges" fill="#d9d9d9" d="m321.44357 413.76248l79.69815 0l0 41.19684l-79.69815 0l0 -41.19684z" fill-rule="nonzero"/><path shape-rendering="crispEdges" fill="#d9d9d9" d="m401.14172 413.76248l79.69818 0l0 41.19684l-79.69818 0l0 -41.19684z" fill-rule="nonzero"/><path shape-rendering="crispEdges" fill="#ffffff" d="m2.6509187 454.95932l79.698166 0l0 41.19684l-79.698166 0l0 -41.19684z" fill-rule="nonzero"/><path shape-rendering="crispEdges" fill="#ffffff" d="m82.34908 454.95932l79.69816 0l0 41.19684l-79.69816 0l0 -41.19684z" fill-rule="nonzero"/><path shape-rendering="crispEdges" fill="#ffffff" d="m162.04724 454.95932l79.698166 0l0 41.19684l-79.698166 0l0 -41.19684z" fill-rule="nonzero"/><path shape-rendering="crispEdges" fill="#ffffff" d="m241.7454 454.95932l79.698166 0l0 41.19684l-79.698166 0l0 -41.19684z" fill-rule="nonzero"/><path shape-rendering="crispEdges" fill="#ffffff" d="m321.44357 454.95932l79.69815 0l0 41.19684l-79.69815 0l0 -41.19684z" fill-rule="nonzero"/><path shape-rendering="crispEdges" fill="#ffffff" d="m401.14172 454.95932l79.69818 0l0 41.19684l-79.69818 0l0 -41.19684z" fill-rule="nonzero"/><path shape-rendering="crispEdges" fill="#d9d9d9" d="m2.6509187 496.15616l79.698166 0l0 41.19687l-79.698166 0l0 -41.19687z" fill-rule="nonzero"/><path shape-rendering="crispEdges" fill="#d9d9d9" d="m82.34908 496.15616l79.69816 0l0 41.19687l-79.69816 0l0 -41.19687z" fill-rule="nonzero"/><path shape-rendering="crispEdges" fill="#d9d9d9" d="m162.04724 496.15616l79.698166 0l0 41.19687l-79.698166 0l0 -41.19687z" fill-rule="nonzero"/><path shape-rendering="crispEdges" fill="#d9d9d9" d="m241.7454 496.15616l79.698166 0l0 41.19687l-79.698166 0l0 -41.19687z" fill-rule="nonzero"/><path shape-rendering="crispEdges" fill="#d9d9d9" d="m321.44357 496.15616l79.69815 0l0 41.19687l-79.69815 0l0 -41.19687z" fill-rule="nonzero"/><path shape-rendering="crispEdges" fill="#d9d9d9" d="m401.14172 496.15616l79.69818 0l0 41.19687l-79.69818 0l0 -41.19687z" fill-rule="nonzero"/><path stroke="#434343" stroke-width="2.0" stroke-linecap="butt" d="m2.6509187 0.79396325l0 537.5591" fill-rule="nonzero"/><path stroke="#434343" stroke-width="2.0" stroke-linecap="butt" d="m82.34908 0.79396325l0 537.5591" fill-rule="nonzero"/><path stroke="#434343" stroke-width="2.0" stroke-linecap="butt" d="m162.04724 0.79396325l0 537.5591" fill-rule="nonzero"/><path stroke="#434343" stroke-width="2.0" stroke-linecap="butt" d="m241.7454 0.79396325l0 537.5591" fill-rule="nonzero"/><path stroke="#434343" stroke-width="2.0" stroke-linecap="butt" d="m321.44357 0.79396325l0 537.5591" fill-rule="nonzero"/><path stroke="#434343" stroke-width="2.0" stroke-linecap="butt" d="m401.14172 0.79396325l0 537.5591" fill-rule="nonzero"/><path stroke="#434343" stroke-width="2.0" stroke-linecap="butt" d="m480.8399 0.79396325l0 537.5591" fill-rule="nonzero"/><path stroke="#434343" stroke-width="2.0" stroke-linecap="butt" d="m1.6509186 1.7939633l480.189 0" fill-rule="nonzero"/><path stroke="#434343" stroke-width="2.0" stroke-linecap="butt" d="m1.6509186 42.990814l480.189 0" fill-rule="nonzero"/><path stroke="#434343" stroke-width="2.0" stroke-linecap="butt" d="m1.6509186 84.18767l480.189 0" fill-rule="nonzero"/><path stroke="#434343" stroke-width="2.0" stroke-linecap="butt" d="m1.6509186 125.384514l480.189 0" fill-rule="nonzero"/><path stroke="#434343" stroke-width="2.0" stroke-linecap="butt" d="m1.6509186 166.58136l480.189 0" fill-rule="nonzero"/><path stroke="#434343" stroke-width="2.0" stroke-linecap="butt" d="m1.6509186 207.77821l480.189 0" fill-rule="nonzero"/><path stroke="#434343" stroke-width="2.0" stroke-linecap="butt" d="m1.6509186 248.97507l480.189 0" fill-rule="nonzero"/><path stroke="#434343" stroke-width="2.0" stroke-linecap="butt" d="m1.6509186 290.1719l480.189 0" fill-rule="nonzero"/><path stroke="#434343" stroke-width="2.0" stroke-linecap="butt" d="m1.6509186 331.36877l480.189 0" fill-rule="nonzero"/><path stroke="#434343" stroke-width="2.0" stroke-linecap="butt" d="m1.6509186 372.5656l480.189 0" fill-rule="nonzero"/><path stroke="#434343" stroke-width="2.0" stroke-linecap="butt" d="m1.6509186 413.76248l480.189 0" fill-rule="nonzero"/><path stroke="#434343" stroke-width="2.0" stroke-linecap="butt" d="m1.6509186 454.95932l480.189 0" fill-rule="nonzero"/><path stroke="#434343" stroke-width="2.0" stroke-linecap="butt" d="m1.6509186 496.15616l480.189 0" fill-rule="nonzero"/><path stroke="#434343" stroke-width="2.0" stroke-linecap="butt" d="m1.6509186 537.353l480.189 0" fill-rule="nonzero"/><path fill="#ffffff" d="m21.65567 28.71396l0 -13.249999l2.6875 0l0 10.999999l6.703125 0l0 2.25l-9.390625 0zm13.208481 -6.71875l-2.328125 -0.421875q0.40625 -1.40625 1.359375 -2.078125q0.953125 -0.671875 2.84375 -0.671875q1.703125 0 2.546875 0.40625q0.84375 0.40625 1.171875 1.03125q0.34375 0.625 0.34375 2.28125l-0.015625 3.0q0 1.265625 0.109375 1.875q0.125 0.609375 0.46875 1.296875l-2.53125 0q-0.109375 -0.25 -0.25 -0.75q-0.0625 -0.234375 -0.09375 -0.3125q-0.65625 0.640625 -1.40625 0.96875q-0.734375 0.3125 -1.59375 0.3125q-1.484375 0 -2.34375 -0.8125q-0.859375 -0.8125 -0.859375 -2.046875q0 -0.828125 0.390625 -1.46875q0.390625 -0.640625 1.09375 -0.96875q0.703125 -0.34375 2.03125 -0.609375q1.796875 -0.328125 2.484375 -0.625l0 -0.25q0 -0.75 -0.359375 -1.0625q-0.359375 -0.3125 -1.375 -0.3125q-0.6875 0 -1.078125 0.28125q-0.375 0.265625 -0.609375 0.9375zm3.421875 2.078125q-0.484375 0.15625 -1.5625 0.390625q-1.0625 0.21875 -1.390625 0.4375q-0.5 0.359375 -0.5 0.90625q0 0.53125 0.40625 0.9375q0.40625 0.390625 1.015625 0.390625q0.703125 0 1.328125 -0.46875q0.46875 -0.34375 0.609375 -0.84375q0.09375 -0.328125 0.09375 -1.25l0 -0.5zm9.485092 -5.03125l0 2.03125l-1.75 0l0 3.90625q0 1.1875 0.046875 1.390625q0.046875 0.1875 0.21875 0.3125q0.1875 0.125 0.4375 0.125q0.359375 0 1.03125 -0.25l0.21875 2.0q-0.890625 0.375 -2.015625 0.375q-0.703125 0 -1.265625 -0.234375q-0.546875 -0.234375 -0.8125 -0.59375q-0.25 -0.375 -0.34375 -1.0q-0.09375 -0.453125 -0.09375 -1.8125l0 -4.21875l-1.171875 0l0 -2.03125l1.171875 0l0 -1.921875l2.578125 -1.499999l0 3.421874l1.75 0zm1.775177 -1.3125l0 -2.374999l2.5625 0l0 2.374999l-2.5625 0zm0 10.984375l0 -9.671875l2.5625 0l0 9.671875l-2.5625 0zm13.980179 0l-2.5625 0l0 -4.9375q0 -1.5625 -0.171875 -2.015625q-0.15625 -0.46875 -0.53125 -0.71875q-0.359375 -0.265625 -0.875 -0.265625q-0.671875 0 -1.203125 0.375q-0.53125 0.359375 -0.734375 0.96875q-0.1875 0.59375 -0.1875 2.21875l0 4.375l-2.546875 0l0 -9.671875l2.375 0l0 1.421875q1.265625 -1.640625 3.1875 -1.640625q0.84375 0 1.546875 0.3125q0.703125 0.296875 1.0625 0.78125q0.359375 0.46875 0.5 1.078125q0.140625 0.59375 0.140625 1.703125l0 6.015625z" fill-rule="nonzero"/><path fill="#ffffff" d="m97.982895 24.37021l2.625 -0.25q0.234375 1.3125 0.953125 1.9375q0.734375 0.609375 1.96875 0.609375q1.296875 0 1.953125 -0.546875q0.671875 -0.546875 0.671875 -1.28125q0 -0.484375 -0.28125 -0.8125q-0.28125 -0.328125 -0.96875 -0.578125q-0.484375 -0.15625 -2.171875 -0.578125q-2.15625 -0.546875 -3.03125 -1.328125q-1.234375 -1.09375 -1.234375 -2.6875q0 -1.015625 0.578125 -1.90625q0.578125 -0.890625 1.65625 -1.343749q1.09375 -0.46875 2.640625 -0.46875q2.515625 0 3.78125 1.109374q1.28125 1.09375 1.34375 2.9375l-2.703125 0.109375q-0.171875 -1.03125 -0.75 -1.46875q-0.5625 -0.453125 -1.703125 -0.453125q-1.171875 0 -1.84375 0.46875q-0.421875 0.3125 -0.421875 0.84375q0 0.46875 0.40625 0.796875q0.5 0.4375 2.46875 0.90625q1.96875 0.453125 2.90625 0.953125q0.953125 0.5 1.484375 1.359375q0.53125 0.859375 0.53125 2.125q0 1.15625 -0.640625 2.15625q-0.640625 1.0 -1.8125 1.484375q-1.15625 0.484375 -2.890625 0.484375q-2.53125 0 -3.890625 -1.171875q-1.359375 -1.171875 -1.625 -3.40625zm12.912323 -5.328125l2.359375 0l0 1.3125q1.265625 -1.53125 3.015625 -1.53125q0.9375 0 1.609375 0.390625q0.6875 0.375 1.125 1.140625q0.640625 -0.765625 1.375 -1.140625q0.75 -0.390625 1.578125 -0.390625q1.0625 0 1.796875 0.4375q0.75 0.421875 1.109375 1.265625q0.265625 0.625 0.265625 2.0l0 6.1875l-2.5625 0l0 -5.53125q0 -1.4375 -0.265625 -1.859375q-0.34375 -0.546875 -1.09375 -0.546875q-0.53125 0 -1.015625 0.328125q-0.46875 0.328125 -0.671875 0.96875q-0.203125 0.625 -0.203125 2.0l0 4.640625l-2.5625 0l0 -5.296875q0 -1.421875 -0.140625 -1.828125q-0.140625 -0.40625 -0.421875 -0.609375q-0.28125 -0.203125 -0.78125 -0.203125q-0.59375 0 -1.0625 0.328125q-0.46875 0.3125 -0.6875 0.921875q-0.203125 0.59375 -0.203125 1.984375l0 4.703125l-2.5625 0l0 -9.671875zm18.69777 2.953125l-2.328125 -0.421875q0.40625 -1.40625 1.359375 -2.078125q0.953125 -0.671875 2.84375 -0.671875q1.703125 0 2.546875 0.40625q0.84375 0.40625 1.171875 1.03125q0.34375 0.625 0.34375 2.28125l-0.015625 3.0q0 1.265625 0.109375 1.875q0.125 0.609375 0.46875 1.296875l-2.53125 0q-0.109375 -0.25 -0.25 -0.75q-0.0625 -0.234375 -0.09375 -0.3125q-0.65625 0.640625 -1.40625 0.96875q-0.734375 0.3125 -1.59375 0.3125q-1.484375 0 -2.34375 -0.8125q-0.859375 -0.8125 -0.859375 -2.046875q0 -0.828125 0.390625 -1.46875q0.390625 -0.640625 1.09375 -0.96875q0.703125 -0.34375 2.03125 -0.609375q1.796875 -0.328125 2.484375 -0.625l0 -0.25q0 -0.75 -0.359375 -1.0625q-0.359375 -0.3125 -1.375 -0.3125q-0.6875 0 -1.078125 0.28125q-0.375 0.265625 -0.609375 0.9375zm3.421875 2.078125q-0.484375 0.15625 -1.5625 0.390625q-1.0625 0.21875 -1.390625 0.4375q-0.5 0.359375 -0.5 0.90625q0 0.53125 0.40625 0.9375q0.40625 0.390625 1.015625 0.390625q0.703125 0 1.328125 -0.46875q0.46875 -0.34375 0.609375 -0.84375q0.09375 -0.328125 0.09375 -1.25l0 -0.5zm5.047592 4.640625l0 -13.359374l2.5625 0l0 13.359374l-2.5625 0zm5.183304 0l0 -13.359374l2.5625 0l0 13.359374l-2.5625 0z" fill-rule="nonzero"/><path fill="#ffffff" d="m188.32037 28.71396l0 -13.359374l2.6875 0l0 13.359374l-2.6875 0zm5.261429 0l0 -13.359374l4.328125 0q2.453125 0 3.203125 0.203125q1.140625 0.296875 1.921875 1.312499q0.78125 1.0 0.78125 2.59375q0 1.234375 -0.453125 2.078125q-0.453125 0.828125 -1.140625 1.3125q-0.6875 0.46875 -1.390625 0.625q-0.96875 0.203125 -2.796875 0.203125l-1.765625 0l0 5.03125l-2.6875 0zm2.6875 -11.09375l0 3.78125l1.484375 0q1.59375 0 2.125 -0.203125q0.546875 -0.203125 0.84375 -0.65625q0.3125 -0.453125 0.3125 -1.03125q0 -0.734375 -0.4375 -1.203125q-0.421875 -0.484375 -1.078125 -0.59375q-0.484375 -0.09375 -1.9375 -0.09375l-1.3125 0zm20.417526 11.09375l-2.9375 0l-1.171875 -3.03125l-5.328125 0l-1.109375 3.03125l-2.859375 0l5.203125 -13.359374l2.84375 0l5.359375 13.359374zm-4.96875 -5.28125l-1.84375 -4.953125l-1.796875 4.953125l3.640625 0z" fill-rule="nonzero"/><path fill="#ffffff" d="m260.75015 28.71396l0 -13.249999l2.6875 0l0 10.999999l6.703125 0l0 2.25l-9.390625 0zm13.208496 -6.71875l-2.328125 -0.421875q0.40625 -1.40625 1.359375 -2.078125q0.953125 -0.671875 2.84375 -0.671875q1.703125 0 2.546875 0.40625q0.84375 0.40625 1.171875 1.03125q0.34375 0.625 0.34375 2.28125l-0.015625 3.0q0 1.265625 0.109375 1.875q0.125 0.609375 0.46875 1.296875l-2.53125 0q-0.109375 -0.25 -0.25 -0.75q-0.0625 -0.234375 -0.09375 -0.3125q-0.65625 0.640625 -1.40625 0.96875q-0.734375 0.3125 -1.59375 0.3125q-1.484375 0 -2.34375 -0.8125q-0.859375 -0.8125 -0.859375 -2.046875q0 -0.828125 0.390625 -1.46875q0.390625 -0.640625 1.09375 -0.96875q0.703125 -0.34375 2.03125 -0.609375q1.796875 -0.328125 2.484375 -0.625l0 -0.25q0 -0.75 -0.359375 -1.0625q-0.359375 -0.3125 -1.375 -0.3125q-0.6875 0 -1.078125 0.28125q-0.375 0.265625 -0.609375 0.9375zm3.421875 2.078125q-0.484375 0.15625 -1.5625 0.390625q-1.0625 0.21875 -1.390625 0.4375q-0.5 0.359375 -0.5 0.90625q0 0.53125 0.40625 0.9375q0.40625 0.390625 1.015625 0.390625q0.703125 0 1.328125 -0.46875q0.46875 -0.34375 0.609375 -0.84375q0.09375 -0.328125 0.09375 -1.25l0 -0.5zm9.485077 -5.03125l0 2.03125l-1.75 0l0 3.90625q0 1.1875 0.046875 1.390625q0.046875 0.1875 0.21875 0.3125q0.1875 0.125 0.4375 0.125q0.359375 0 1.03125 -0.25l0.21875 2.0q-0.890625 0.375 -2.015625 0.375q-0.703125 0 -1.265625 -0.234375q-0.546875 -0.234375 -0.8125 -0.59375q-0.25 -0.375 -0.34375 -1.0q-0.09375 -0.453125 -0.09375 -1.8125l0 -4.21875l-1.171875 0l0 -2.03125l1.171875 0l0 -1.921875l2.578125 -1.499999l0 3.421874l1.75 0zm1.775177 -1.3125l0 -2.374999l2.5625 0l0 2.374999l-2.5625 0zm0 10.984375l0 -9.671875l2.5625 0l0 9.671875l-2.5625 0zm13.980194 0l-2.5625 0l0 -4.9375q0 -1.5625 -0.171875 -2.015625q-0.15625 -0.46875 -0.53125 -0.71875q-0.359375 -0.265625 -0.875 -0.265625q-0.671875 0 -1.203125 0.375q-0.53125 0.359375 -0.734375 0.96875q-0.1875 0.59375 -0.1875 2.21875l0 4.375l-2.546875 0l0 -9.671875l2.375 0l0 1.421875q1.265625 -1.640625 3.1875 -1.640625q0.84375 0 1.546875 0.3125q0.703125 0.296875 1.0625 0.78125q0.359375 0.46875 0.5 1.078125q0.140625 0.59375 0.140625 1.703125l0 6.015625z" fill-rule="nonzero"/><path fill="#ffffff" d="m337.0774 24.37021l2.625 -0.25q0.234375 1.3125 0.953125 1.9375q0.734375 0.609375 1.96875 0.609375q1.296875 0 1.953125 -0.546875q0.671875 -0.546875 0.671875 -1.28125q0 -0.484375 -0.28125 -0.8125q-0.28125 -0.328125 -0.96875 -0.578125q-0.484375 -0.15625 -2.171875 -0.578125q-2.15625 -0.546875 -3.03125 -1.328125q-1.234375 -1.09375 -1.234375 -2.6875q0 -1.015625 0.578125 -1.90625q0.578125 -0.890625 1.65625 -1.343749q1.09375 -0.46875 2.640625 -0.46875q2.515625 0 3.78125 1.109374q1.28125 1.09375 1.34375 2.9375l-2.703125 0.109375q-0.171875 -1.03125 -0.75 -1.46875q-0.5625 -0.453125 -1.703125 -0.453125q-1.171875 0 -1.84375 0.46875q-0.421875 0.3125 -0.421875 0.84375q0 0.46875 0.40625 0.796875q0.5 0.4375 2.46875 0.90625q1.96875 0.453125 2.90625 0.953125q0.953125 0.5 1.484375 1.359375q0.53125 0.859375 0.53125 2.125q0 1.15625 -0.640625 2.15625q-0.640625 1.0 -1.8125 1.484375q-1.15625 0.484375 -2.890625 0.484375q-2.53125 0 -3.890625 -1.171875q-1.359375 -1.171875 -1.625 -3.40625zm12.912323 -5.328125l2.359375 0l0 1.3125q1.265625 -1.53125 3.015625 -1.53125q0.9375 0 1.609375 0.390625q0.6875 0.375 1.125 1.140625q0.640625 -0.765625 1.375 -1.140625q0.75 -0.390625 1.578125 -0.390625q1.0625 0 1.796875 0.4375q0.75 0.421875 1.109375 1.265625q0.265625 0.625 0.265625 2.0l0 6.1875l-2.5625 0l0 -5.53125q0 -1.4375 -0.265625 -1.859375q-0.34375 -0.546875 -1.09375 -0.546875q-0.53125 0 -1.015625 0.328125q-0.46875 0.328125 -0.671875 0.96875q-0.203125 0.625 -0.203125 2.0l0 4.640625l-2.5625 0l0 -5.296875q0 -1.421875 -0.140625 -1.828125q-0.140625 -0.40625 -0.421875 -0.609375q-0.28125 -0.203125 -0.78125 -0.203125q-0.59375 0 -1.0625 0.328125q-0.46875 0.3125 -0.6875 0.921875q-0.203125 0.59375 -0.203125 1.984375l0 4.703125l-2.5625 0l0 -9.671875zm18.697754 2.953125l-2.328125 -0.421875q0.40625 -1.40625 1.359375 -2.078125q0.953125 -0.671875 2.84375 -0.671875q1.703125 0 2.546875 0.40625q0.84375 0.40625 1.171875 1.03125q0.34375 0.625 0.34375 2.28125l-0.015625 3.0q0 1.265625 0.109375 1.875q0.125 0.609375 0.46875 1.296875l-2.53125 0q-0.109375 -0.25 -0.25 -0.75q-0.0625 -0.234375 -0.09375 -0.3125q-0.65625 0.640625 -1.40625 0.96875q-0.734375 0.3125 -1.59375 0.3125q-1.484375 0 -2.34375 -0.8125q-0.859375 -0.8125 -0.859375 -2.046875q0 -0.828125 0.390625 -1.46875q0.390625 -0.640625 1.09375 -0.96875q0.703125 -0.34375 2.03125 -0.609375q1.796875 -0.328125 2.484375 -0.625l0 -0.25q0 -0.75 -0.359375 -1.0625q-0.359375 -0.3125 -1.375 -0.3125q-0.6875 0 -1.078125 0.28125q-0.375 0.265625 -0.609375 0.9375zm3.421875 2.078125q-0.484375 0.15625 -1.5625 0.390625q-1.0625 0.21875 -1.390625 0.4375q-0.5 0.359375 -0.5 0.90625q0 0.53125 0.40625 0.9375q0.40625 0.390625 1.015625 0.390625q0.703125 0 1.328125 -0.46875q0.46875 -0.34375 0.609375 -0.84375q0.09375 -0.328125 0.09375 -1.25l0 -0.5zm5.0476074 4.640625l0 -13.359374l2.5625 0l0 13.359374l-2.5625 0zm5.1832886 0l0 -13.359374l2.5625 0l0 13.359374l-2.5625 0z" fill-rule="nonzero"/><path fill="#ffffff" d="m427.41486 28.71396l0 -13.359374l2.6875 0l0 13.359374l-2.6875 0zm5.261444 0l0 -13.359374l4.328125 0q2.453125 0 3.203125 0.203125q1.140625 0.296875 1.921875 1.312499q0.78125 1.0 0.78125 2.59375q0 1.234375 -0.453125 2.078125q-0.453125 0.828125 -1.140625 1.3125q-0.6875 0.46875 -1.390625 0.625q-0.96875 0.203125 -2.796875 0.203125l-1.765625 0l0 5.03125l-2.6875 0zm2.6875 -11.09375l0 3.78125l1.484375 0q1.59375 0 2.125 -0.203125q0.546875 -0.203125 0.84375 -0.65625q0.3125 -0.453125 0.3125 -1.03125q0 -0.734375 -0.4375 -1.203125q-0.421875 -0.484375 -1.078125 -0.59375q-0.484375 -0.09375 -1.9375 -0.09375l-1.3125 0zm20.417511 11.09375l-2.9375 0l-1.171875 -3.03125l-5.328125 0l-1.109375 3.03125l-2.859375 0l5.203125 -13.359374l2.84375 0l5.359375 13.359374zm-4.96875 -5.28125l-1.84375 -4.953125l-1.796875 4.953125l3.640625 0z" fill-rule="nonzero"/><path fill="#000000" d="m49.169777 70.50924l-2.9375 0l-1.171875 -3.03125l-5.328125 0l-1.109375 3.03125l-2.859375 0l5.203125 -13.359379l2.84375 0l5.359375 13.359379zm-4.96875 -5.28125l-1.84375 -4.953129l-1.796875 4.953129l3.640625 0z" fill-rule="nonzero"/><path fill="#000000" d="m120.26031 63.790485l-2.328125 -0.421875q0.40625 -1.40625 1.359375 -2.078125q0.953125 -0.671875 2.84375 -0.671875q1.703125 0 2.546875 0.40625q0.84375 0.40625 1.171875 1.03125q0.34375 0.625 0.34375 2.2812538l-0.015625 3.0q0 1.265625 0.109375 1.875q0.125 0.609375 0.46875 1.296875l-2.53125 0q-0.109375 -0.25 -0.25 -0.75q-0.0625 -0.234375 -0.09375 -0.3125q-0.65625 0.640625 -1.40625 0.96875q-0.734375 0.3125 -1.59375 0.3125q-1.484375 0 -2.34375 -0.8125q-0.859375 -0.8125 -0.859375 -2.046875q0 -0.828125 0.390625 -1.46875q0.390625 -0.640625 1.09375 -0.96875q0.703125 -0.34375 2.03125 -0.609375q1.796875 -0.328125 2.484375 -0.625l0 -0.2500038q0 -0.75 -0.359375 -1.0625q-0.359375 -0.3125 -1.375 -0.3125q-0.6875 0 -1.078125 0.28125q-0.375 0.265625 -0.609375 0.9375zm3.421875 2.0781288q-0.484375 0.15625 -1.5625 0.390625q-1.0625 0.21875 -1.390625 0.4375q-0.5 0.359375 -0.5 0.90625q0 0.53125 0.40625 0.9375q0.40625 0.390625 1.015625 0.390625q0.703125 0 1.328125 -0.46875q0.46875 -0.34375 0.609375 -0.84375q0.09375 -0.328125 0.09375 -1.25l0 -0.5z" fill-rule="nonzero"/><path fill="#000000" d="m191.49391 70.743614l3.3125 -13.812504l1.921875 0l-3.34375 13.812504l-1.890625 0zm8.464554 -6.953129l-2.328125 -0.421875q0.40625 -1.40625 1.359375 -2.078125q0.953125 -0.671875 2.84375 -0.671875q1.703125 0 2.546875 0.40625q0.84375 0.40625 1.171875 1.03125q0.34375 0.625 0.34375 2.2812538l-0.015625 3.0q0 1.265625 0.109375 1.875q0.125 0.609375 0.46875 1.296875l-2.53125 0q-0.109375 -0.25 -0.25 -0.75q-0.0625 -0.234375 -0.09375 -0.3125q-0.65625 0.640625 -1.40625 0.96875q-0.734375 0.3125 -1.59375 0.3125q-1.484375 0 -2.34375 -0.8125q-0.859375 -0.8125 -0.859375 -2.046875q0 -0.828125 0.390625 -1.46875q0.390625 -0.640625 1.09375 -0.96875q0.703125 -0.34375 2.03125 -0.609375q1.796875 -0.328125 2.484375 -0.625l0 -0.2500038q0 -0.75 -0.359375 -1.0625q-0.359375 -0.3125 -1.375 -0.3125q-0.6875 0 -1.078125 0.28125q-0.375 0.265625 -0.609375 0.9375zm3.421875 2.0781288q-0.484375 0.15625 -1.5625 0.390625q-1.0625 0.21875 -1.390625 0.4375q-0.5 0.359375 -0.5 0.90625q0 0.53125 0.40625 0.9375q0.40625 0.390625 1.015625 0.390625q0.703125 0 1.328125 -0.46875q0.46875 -0.34375 0.609375 -0.84375q0.09375 -0.328125 0.09375 -1.25l0 -0.5zm3.6725922 4.875l3.3125 -13.812504l1.921875 0l-3.34375 13.812504l-1.890625 0z" fill-rule="nonzero"/><path fill="#000000" d="m275.15222 70.50924l0 -13.359379l4.03125 0l2.421875 9.109379l2.390625 -9.109379l4.046875 0l0 13.359379l-2.5 0l0 -10.515629l-2.65625 10.515629l-2.59375 0l-2.640625 -10.515629l0 10.515629l-2.5 0z" fill-rule="nonzero"/><path fill="#000000" d="m354.13907 60.83736l2.359375 0l0 1.3125q1.265625 -1.53125 3.015625 -1.53125q0.9375 0 1.609375 0.390625q0.6875 0.375 1.125 1.140625q0.640625 -0.765625 1.375 -1.140625q0.75 -0.390625 1.578125 -0.390625q1.0625 0 1.796875 0.4375q0.75 0.421875 1.109375 1.265625q0.265625 0.625 0.265625 2.0000038l0 6.1875l-2.5625 0l0 -5.53125q0 -1.4375038 -0.265625 -1.8593788q-0.34375 -0.546875 -1.09375 -0.546875q-0.53125 0 -1.015625 0.328125q-0.46875 0.328125 -0.671875 0.96875q-0.203125 0.6250038 -0.203125 2.0000038l0 4.640625l-2.5625 0l0 -5.296875q0 -1.4218788 -0.140625 -1.8281288q-0.140625 -0.40625 -0.421875 -0.609375q-0.28125 -0.203125 -0.78125 -0.203125q-0.59375 0 -1.0625 0.328125q-0.46875 0.3125 -0.6875 0.921875q-0.203125 0.5937538 -0.203125 1.9843788l0 4.703125l-2.5625 0l0 -9.671879z" fill-rule="nonzero"/><path fill="#000000" d="m427.48206 70.743614l3.3125 -13.812504l1.921875 0l-3.34375 13.812504l-1.890625 0zm6.355194 -9.906254l2.359375 0l0 1.3125q1.265625 -1.53125 3.015625 -1.53125q0.9375 0 1.609375 0.390625q0.6875 0.375 1.125 1.140625q0.640625 -0.765625 1.375 -1.140625q0.75 -0.390625 1.578125 -0.390625q1.0625 0 1.796875 0.4375q0.75 0.421875 1.109375 1.265625q0.265625 0.625 0.265625 2.0000038l0 6.1875l-2.5625 0l0 -5.53125q0 -1.4375038 -0.265625 -1.8593788q-0.34375 -0.546875 -1.09375 -0.546875q-0.53125 0 -1.015625 0.328125q-0.46875 0.328125 -0.671875 0.96875q-0.203125 0.6250038 -0.203125 2.0000038l0 4.640625l-2.5625 0l0 -5.296875q0 -1.4218788 -0.140625 -1.8281288q-0.140625 -0.40625 -0.421875 -0.609375q-0.28125 -0.203125 -0.78125 -0.203125q-0.59375 0 -1.0625 0.328125q-0.46875 0.3125 -0.6875 0.921875q-0.203125 0.5937538 -0.203125 1.9843788l0 4.703125l-2.5625 0l0 -9.671879zm15.416504 9.906254l3.3125 -13.812504l1.921875 0l-3.34375 13.812504l-1.890625 0z" fill-rule="nonzero"/><path fill="#000000" d="m37.122902 98.34671l5.34375 0q1.59375 0 2.359375 0.140625q0.78125 0.125 1.390625 0.546875q0.625 0.421875 1.03125 1.125q0.40625 0.6875 0.40625 1.546875q0 0.9375 -0.5 1.734375q-0.5 0.78125 -1.375 1.171875q1.21875 0.359375 1.875 1.21875q0.65625 0.84375 0.65625 2.0q0 0.921875 -0.421875 1.78125q-0.421875 0.859375 -1.15625 1.375q-0.734375 0.515625 -1.796875 0.625q-0.6875 0.078125 -3.265625 0.09375l-4.546875 0l0 -13.359375zm2.703125 2.234375l0 3.078125l1.765625 0q1.578125 0 1.953125 -0.046875q0.703125 -0.078125 1.09375 -0.46875q0.40625 -0.40625 0.40625 -1.046875q0 -0.625 -0.34375 -1.0q-0.34375 -0.390625 -1.015625 -0.484375q-0.40625 -0.03125 -2.3125 -0.03125l-1.546875 0zm0 5.296875l0 3.578125l2.5 0q1.453125 0 1.84375 -0.078125q0.609375 -0.109375 0.984375 -0.53125q0.375 -0.421875 0.375 -1.140625q0 -0.59375 -0.296875 -1.015625q-0.28125 -0.421875 -0.84375 -0.609375q-0.546875 -0.203125 -2.390625 -0.203125l-2.171875 0z" fill-rule="nonzero"/><path fill="#000000" d="m117.73455 111.706085l0 -13.359375l2.5625 0l0 4.8125q1.171875 -1.34375 2.796875 -1.34375q1.765625 0 2.921875 1.28125q1.15625 1.28125 1.15625 3.671875q0 2.484375 -1.1875 3.828125q-1.171875 1.328125 -2.859375 1.328125q-0.828125 0 -1.640625 -0.40625q-0.796875 -0.421875 -1.375 -1.234375l0 1.421875l-2.375 0zm2.53125 -5.046875q0 1.5 0.484375 2.21875q0.65625 1.03125 1.765625 1.03125q0.84375 0 1.4375 -0.71875q0.59375 -0.734375 0.59375 -2.296875q0 -1.65625 -0.609375 -2.390625q-0.59375 -0.734375 -1.53125 -0.734375q-0.921875 0 -1.53125 0.71875q-0.609375 0.71875 -0.609375 2.171875z" fill-rule="nonzero"/><path fill="#000000" d="m190.98378 111.94046l3.3125 -13.8125l1.921875 0l-3.34375 13.8125l-1.890625 0zm6.448929 -0.234375l0 -13.359375l2.5625 0l0 4.8125q1.171875 -1.34375 2.796875 -1.34375q1.765625 0 2.921875 1.28125q1.15625 1.28125 1.15625 3.671875q0 2.484375 -1.1875 3.828125q-1.171875 1.328125 -2.859375 1.328125q-0.828125 0 -1.640625 -0.40625q-0.796875 -0.421875 -1.375 -1.234375l0 1.421875l-2.375 0zm2.53125 -5.046875q0 1.5 0.484375 2.21875q0.65625 1.03125 1.765625 1.03125q0.84375 0 1.4375 -0.71875q0.59375 -0.734375 0.59375 -2.296875q0 -1.65625 -0.609375 -2.390625q-0.59375 -0.734375 -1.53125 -0.734375q-0.921875 0 -1.53125 0.71875q-0.609375 0.71875 -0.609375 2.171875zm7.599106 5.28125l3.3125 -13.8125l1.921875 0l-3.34375 13.8125l-1.890625 0z" fill-rule="nonzero"/><path fill="#000000" d="m276.24863 111.706085l0 -13.359375l2.625 0l5.453125 8.921875l0 -8.921875l2.515625 0l0 13.359375l-2.703125 0l-5.390625 -8.703125l0 8.703125l-2.5 0z" fill-rule="nonzero"/><path fill="#000000" d="m365.7353 111.706085l-2.5625 0l0 -4.9375q0 -1.5625 -0.171875 -2.015625q-0.15625 -0.46875 -0.53125 -0.71875q-0.359375 -0.265625 -0.875 -0.265625q-0.671875 0 -1.203125 0.375q-0.53125 0.359375 -0.734375 0.96875q-0.1875 0.59375 -0.1875 2.21875l0 4.375l-2.546875 0l0 -9.671875l2.375 0l0 1.421875q1.265625 -1.640625 3.1875 -1.640625q0.84375 0 1.546875 0.3125q0.703125 0.296875 1.0625 0.78125q0.359375 0.46875 0.5 1.078125q0.140625 0.59375 0.140625 1.703125l0 6.015625z" fill-rule="nonzero"/><path fill="#000000" d="m430.07828 111.94046l3.3125 -13.8125l1.921875 0l-3.34375 13.8125l-1.890625 0zm15.355164 -0.234375l-2.5625 0l0 -4.9375q0 -1.5625 -0.171875 -2.015625q-0.15625 -0.46875 -0.53125 -0.71875q-0.359375 -0.265625 -0.875 -0.265625q-0.671875 0 -1.203125 0.375q-0.53125 0.359375 -0.734375 0.96875q-0.1875 0.59375 -0.1875 2.21875l0 4.375l-2.546875 0l0 -9.671875l2.375 0l0 1.421875q1.265625 -1.640625 3.1875 -1.640625q0.84375 0 1.546875 0.3125q0.703125 0.296875 1.0625 0.78125q0.359375 0.46875 0.5 1.078125q0.140625 0.59375 0.140625 1.703125l0 6.015625zm1.2241211 0.234375l3.3125 -13.8125l1.921875 0l-3.34375 13.8125l-1.890625 0z" fill-rule="nonzero"/><path fill="#000000" d="m45.669777 147.99669l2.609375 0.828125q-0.59375 2.1875 -2.0 3.25q-1.390625 1.0625 -3.546875 1.0625q-2.65625 0 -4.375 -1.8125q-1.703125 -1.828125 -1.703125 -4.984375q0 -3.328125 1.71875 -5.171875q1.71875 -1.84375 4.515625 -1.84375q2.453125 0 3.984375 1.4375q0.921875 0.859375 1.375 2.46875l-2.671875 0.640625q-0.234375 -1.046875 -0.984375 -1.640625q-0.75 -0.609375 -1.828125 -0.609375q-1.484375 0 -2.421875 1.078125q-0.921875 1.0625 -0.921875 3.4375q0 2.53125 0.90625 3.609375q0.921875 1.078125 2.375 1.078125q1.078125 0 1.84375 -0.671875q0.78125 -0.6875 1.125 -2.15625z" fill-rule="nonzero"/><path fill="#000000" d="m126.79156 146.09044l-2.53125 0.453125q-0.125 -0.75 -0.578125 -1.125q-0.453125 -0.390625 -1.171875 -0.390625q-0.953125 0 -1.53125 0.65625q-0.5625 0.65625 -0.5625 2.203125q0 1.734375 0.578125 2.4375q0.578125 0.703125 1.546875 0.703125q0.734375 0 1.203125 -0.40625q0.46875 -0.421875 0.65625 -1.421875l2.515625 0.421875q-0.390625 1.734375 -1.515625 2.625q-1.109375 0.875 -2.96875 0.875q-2.125 0 -3.390625 -1.328125q-1.25 -1.34375 -1.25 -3.71875q0 -2.390625 1.265625 -3.71875q1.265625 -1.34375 3.421875 -1.34375q1.765625 0 2.796875 0.765625q1.046875 0.75 1.515625 2.3125z" fill-rule="nonzero"/><path fill="#000000" d="m193.57544 153.13731l3.3125 -13.8125l1.921875 0l-3.34375 13.8125l-1.890625 0zm12.339554 -13.484375l-0.34375 1.78125q-0.609375 -0.140625 -1.171875 -0.140625q-0.546875 0 -0.796875 0.265625q-0.234375 0.25 -0.234375 1.0l0 11.078125q0 1.078125 -0.1875 1.609375q-0.25 0.765625 -1.03125 1.1875q-0.703125 0.375 -1.765625 0.375q-1.09375 0 -2.140625 -0.328125l0.34375 -1.78125q0.609375 0.140625 1.171875 0.140625q0.625 0 0.859375 -0.328125q0.1875 -0.265625 0.1875 -0.921875l0 -11.078125q0 -1.078125 0.1875 -1.609375q0.25 -0.796875 1.03125 -1.203125q0.6875 -0.375 1.75 -0.375q1.09375 0 2.140625 0.328125zm-0.943573 13.484375l3.3125 -13.8125l1.921875 0l-3.34375 13.8125l-1.890625 0z" fill-rule="nonzero"/><path fill="#000000" d="m275.15128 146.30919q0 -2.046875 0.609375 -3.421875q0.453125 -1.03125 1.234375 -1.828125q0.796875 -0.8125 1.734375 -1.203125q1.25 -0.53125 2.875 -0.53125q2.953125 0 4.71875 1.828125q1.78125 1.828125 1.78125 5.09375q0 3.234375 -1.765625 5.0625q-1.75 1.828125 -4.6875 1.828125q-2.984375 0 -4.75 -1.8125q-1.75 -1.828125 -1.75 -5.015625zm2.78125 -0.09375q0 2.265625 1.046875 3.4375q1.046875 1.171875 2.65625 1.171875q1.609375 0 2.640625 -1.15625q1.046875 -1.171875 1.046875 -3.484375q0 -2.296875 -1.015625 -3.421875q-1.0 -1.140625 -2.671875 -1.140625q-1.671875 0 -2.6875 1.15625q-1.015625 1.140625 -1.015625 3.4375z" fill-rule="nonzero"/><path fill="#000000" d="m356.34467 147.93419q0 -1.28125 0.625 -2.46875q0.625 -1.203125 1.78125 -1.828125q1.15625 -0.625 2.578125 -0.625q2.1875 0 3.59375 1.421875q1.40625 1.421875 1.40625 3.609375q0 2.1875 -1.421875 3.640625q-1.421875 1.4375 -3.5625 1.4375q-1.328125 0 -2.546875 -0.59375q-1.203125 -0.609375 -1.828125 -1.765625q-0.625 -1.171875 -0.625 -2.828125zm2.625 0.125q0 1.453125 0.671875 2.21875q0.6875 0.75 1.6875 0.75q1.0 0 1.671875 -0.75q0.6875 -0.765625 0.6875 -2.234375q0 -1.421875 -0.6875 -2.1875q-0.671875 -0.765625 -1.671875 -0.765625q-1.0 0 -1.6875 0.765625q-0.671875 0.765625 -0.671875 2.203125z" fill-rule="nonzero"/><path fill="#000000" d="m430.07828 153.13731l3.3125 -13.8125l1.921875 0l-3.34375 13.8125l-1.890625 0zm5.9645386 -5.203125q0 -1.28125 0.625 -2.46875q0.625 -1.203125 1.78125 -1.828125q1.15625 -0.625 2.578125 -0.625q2.1875 0 3.59375 1.421875q1.40625 1.421875 1.40625 3.609375q0 2.1875 -1.421875 3.640625q-1.421875 1.4375 -3.5625 1.4375q-1.328125 0 -2.546875 -0.59375q-1.203125 -0.609375 -1.828125 -1.765625q-0.625 -1.171875 -0.625 -2.828125zm2.625 0.125q0 1.453125 0.671875 2.21875q0.6875 0.75 1.6875 0.75q1.0 0 1.671875 -0.75q0.6875 -0.765625 0.6875 -2.234375q0 -1.421875 -0.6875 -2.1875q-0.671875 -0.765625 -1.671875 -0.765625q-1.0 0 -1.6875 0.765625q-0.671875 0.765625 -0.671875 2.203125zm7.989746 5.078125l3.3125 -13.8125l1.921875 0l-3.34375 13.8125l-1.890625 0z" fill-rule="nonzero"/><path fill="#000000" d="m37.107277 180.74042l4.9375 0q1.65625 0 2.53125 0.265625q1.1875 0.34375 2.015625 1.234375q0.84375 0.875 1.28125 2.15625q0.4375 1.28125 0.4375 3.15625q0 1.640625 -0.40625 2.84375q-0.5 1.453125 -1.4375 2.359375q-0.703125 0.671875 -1.890625 1.0625q-0.890625 0.28125 -2.390625 0.28125l-5.078125 0l0 -13.359375zm2.703125 2.265625l0 8.84375l2.015625 0q1.125 0 1.625 -0.125q0.65625 -0.171875 1.078125 -0.5625q0.4375 -0.390625 0.703125 -1.28125q0.28125 -0.90625 0.28125 -2.453125q0 -1.546875 -0.28125 -2.375q-0.265625 -0.828125 -0.765625 -1.28125q-0.484375 -0.46875 -1.234375 -0.640625q-0.5625 -0.125 -2.21875 -0.125l-1.203125 0z" fill-rule="nonzero"/><path fill="#000000" d="m126.718925 194.0998l-2.390625 0l0 -1.421875q-0.59375 0.828125 -1.40625 1.234375q-0.796875 0.40625 -1.609375 0.40625q-1.671875 0 -2.859375 -1.34375q-1.1875 -1.34375 -1.1875 -3.75q0 -2.453125 1.15625 -3.734375q1.15625 -1.28125 2.921875 -1.28125q1.625 0 2.8125 1.34375l0 -4.8125l2.5625 0l0 13.359375zm-6.84375 -5.046875q0 1.546875 0.4375 2.234375q0.609375 1.015625 1.71875 1.015625q0.890625 0 1.5 -0.75q0.625 -0.765625 0.625 -2.25q0 -1.671875 -0.609375 -2.40625q-0.59375 -0.734375 -1.53125 -0.734375q-0.90625 0 -1.53125 0.734375q-0.609375 0.71875 -0.609375 2.15625z" fill-rule="nonzero"/><path fill="#000000" d="m190.98378 194.33417l3.3125 -13.8125l1.921875 0l-3.34375 13.8125l-1.890625 0zm15.433304 -0.234375l-2.390625 0l0 -1.421875q-0.59375 0.828125 -1.40625 1.234375q-0.796875 0.40625 -1.609375 0.40625q-1.671875 0 -2.859375 -1.34375q-1.1875 -1.34375 -1.1875 -3.75q0 -2.453125 1.15625 -3.734375q1.15625 -1.28125 2.921875 -1.28125q1.625 0 2.8125 1.34375l0 -4.8125l2.5625 0l0 13.359375zm-6.84375 -5.046875q0 1.546875 0.4375 2.234375q0.609375 1.015625 1.71875 1.015625q0.890625 0 1.5 -0.75q0.625 -0.765625 0.625 -2.25q0 -1.671875 -0.609375 -2.40625q-0.59375 -0.734375 -1.53125 -0.734375q-0.90625 0 -1.53125 0.734375q-0.609375 0.71875 -0.609375 2.15625zm7.989731 5.28125l3.3125 -13.8125l1.921875 0l-3.34375 13.8125l-1.890625 0z" fill-rule="nonzero"/><path fill="#000000" d="m276.7321 194.0998l0 -13.359375l4.328125 0q2.453125 0 3.203125 0.203125q1.140625 0.296875 1.921875 1.3125q0.78125 1.0 0.78125 2.59375q0 1.234375 -0.453125 2.078125q-0.453125 0.828125 -1.140625 1.3125q-0.6875 0.46875 -1.390625 0.625q-0.96875 0.203125 -2.796875 0.203125l-1.765625 0l0 5.03125l-2.6875 0zm2.6875 -11.09375l0 3.78125l1.484375 0q1.59375 0 2.125 -0.203125q0.546875 -0.203125 0.84375 -0.65625q0.3125 -0.453125 0.3125 -1.03125q0 -0.734375 -0.4375 -1.203125q-0.421875 -0.484375 -1.078125 -0.59375q-0.484375 -0.09375 -1.9375 -0.09375l-1.3125 0z" fill-rule="nonzero"/><path fill="#000000" d="m356.8603 184.42792l2.390625 0l0 1.421875q0.46875 -0.734375 1.25 -1.1875q0.796875 -0.453125 1.765625 -0.453125q1.6875 0 2.859375 1.328125q1.171875 1.3125 1.171875 3.671875q0 2.421875 -1.1875 3.765625q-1.1875 1.34375 -2.859375 1.34375q-0.8125 0 -1.46875 -0.3125q-0.640625 -0.328125 -1.359375 -1.09375l0 4.875l-2.5625 0l0 -13.359375zm2.53125 4.671875q0 1.625 0.640625 2.40625q0.65625 0.78125 1.578125 0.78125q0.90625 0 1.484375 -0.71875q0.59375 -0.71875 0.59375 -2.34375q0 -1.515625 -0.609375 -2.25q-0.609375 -0.75 -1.515625 -0.75q-0.9375 0 -1.5625 0.734375q-0.609375 0.71875 -0.609375 2.140625z" fill-rule="nonzero"/><path fill="#000000" d="m430.07828 194.33417l3.3125 -13.8125l1.921875 0l-3.34375 13.8125l-1.890625 0zm6.4801636 -9.90625l2.390625 0l0 1.421875q0.46875 -0.734375 1.25 -1.1875q0.796875 -0.453125 1.765625 -0.453125q1.6875 0 2.859375 1.328125q1.171875 1.3125 1.171875 3.671875q0 2.421875 -1.1875 3.765625q-1.1875 1.34375 -2.859375 1.34375q-0.8125 0 -1.46875 -0.3125q-0.640625 -0.328125 -1.359375 -1.09375l0 4.875l-2.5625 0l0 -13.359375zm2.53125 4.671875q0 1.625 0.640625 2.40625q0.65625 0.78125 1.578125 0.78125q0.90625 0 1.484375 -0.71875q0.59375 -0.71875 0.59375 -2.34375q0 -1.515625 -0.609375 -2.25q-0.609375 -0.75 -1.515625 -0.75q-0.9375 0 -1.5625 0.734375q-0.609375 0.71875 -0.609375 2.140625zm7.567871 5.234375l3.3125 -13.8125l1.921875 0l-3.34375 13.8125l-1.890625 0z" fill-rule="nonzero"/><path fill="#000000" d="m38.17701 235.29663l0 -13.359375l9.15625 0l0 2.265625l-6.453125 0l0 3.15625l5.5625 0l0 2.265625l-5.5625 0l0 5.671875l-2.703125 0z" fill-rule="nonzero"/><path fill="#000000" d="m119.31058 225.62476l1.421875 0l0 -0.734375q0 -1.21875 0.25 -1.8125q0.265625 -0.609375 0.953125 -0.984375q0.703125 -0.375 1.78125 -0.375q1.09375 0 2.140625 0.328125l-0.359375 1.78125q-0.609375 -0.140625 -1.171875 -0.140625q-0.546875 0 -0.796875 0.265625q-0.234375 0.25 -0.234375 0.984375l0 0.6875l1.90625 0l0 2.015625l-1.90625 0l0 7.65625l-2.5625 0l0 -7.65625l-1.421875 0l0 -2.015625z" fill-rule="nonzero"/><path fill="#000000" d="m193.57544 235.531l3.3125 -13.8125l1.921875 0l-3.34375 13.8125l-1.890625 0zm5.433304 -9.90625l1.421875 0l0 -0.734375q0 -1.21875 0.25 -1.8125q0.265625 -0.609375 0.953125 -0.984375q0.703125 -0.375 1.78125 -0.375q1.09375 0 2.140625 0.328125l-0.359375 1.78125q-0.609375 -0.140625 -1.171875 -0.140625q-0.546875 0 -0.796875 0.265625q-0.234375 0.25 -0.234375 0.984375l0 0.6875l1.90625 0l0 2.015625l-1.90625 0l0 7.65625l-2.5625 0l0 -7.65625l-1.421875 0l0 -2.015625zm5.962677 9.90625l3.3125 -13.8125l1.921875 0l-3.34375 13.8125l-1.890625 0z" fill-rule="nonzero"/><path fill="#000000" d="m276.21738 235.29663l0 -13.359375l5.6875 0q2.140625 0 3.109375 0.359375q0.96875 0.359375 1.546875 1.28125q0.578125 0.921875 0.578125 2.109375q0 1.5 -0.890625 2.484375q-0.875 0.96875 -2.625 1.234375q0.875 0.5 1.4375 1.125q0.578125 0.609375 1.53125 2.15625l1.640625 2.609375l-3.234375 0l-1.9375 -2.90625q-1.046875 -1.5625 -1.4375 -1.96875q-0.375 -0.40625 -0.8125 -0.546875q-0.421875 -0.15625 -1.34375 -0.15625l-0.546875 0l0 5.578125l-2.703125 0zm2.703125 -7.703125l2.0 0q1.9375 0 2.421875 -0.15625q0.484375 -0.171875 0.75 -0.578125q0.28125 -0.40625 0.28125 -1.0q0 -0.671875 -0.359375 -1.078125q-0.359375 -0.421875 -1.015625 -0.53125q-0.328125 -0.046875 -1.96875 -0.046875l-2.109375 0l0 3.390625z" fill-rule="nonzero"/><path fill="#000000" d="m361.45938 235.29663l-2.5625 0l0 -9.671875l2.375 0l0 1.375q0.609375 -0.984375 1.09375 -1.28125q0.484375 -0.3125 1.109375 -0.3125q0.875 0 1.6875 0.484375l-0.796875 2.234375q-0.640625 -0.421875 -1.203125 -0.421875q-0.53125 0 -0.90625 0.296875q-0.375 0.296875 -0.59375 1.078125q-0.203125 0.765625 -0.203125 3.234375l0 2.984375z" fill-rule="nonzero"/><path fill="#000000" d="m432.14612 235.531l3.3125 -13.8125l1.921875 0l-3.34375 13.8125l-1.890625 0zm9.011444 -0.234375l-2.5625 0l0 -9.671875l2.375 0l0 1.375q0.609375 -0.984375 1.09375 -1.28125q0.484375 -0.3125 1.109375 -0.3125q0.875 0 1.6875 0.484375l-0.796875 2.234375q-0.640625 -0.421875 -1.203125 -0.421875q-0.53125 0 -0.90625 0.296875q-0.375 0.296875 -0.59375 1.078125q-0.203125 0.765625 -0.203125 3.234375l0 2.984375zm3.432129 0.234375l3.3125 -13.8125l1.921875 0l-3.34375 13.8125l-1.890625 0z" fill-rule="nonzero"/><path fill="#000000" d="m42.806786 271.58725l0 -2.25l5.8125 0l0 5.3125q-0.84375 0.828125 -2.453125 1.453125q-1.609375 0.625 -3.25 0.625q-2.09375 0 -3.65625 -0.875q-1.5625 -0.890625 -2.34375 -2.515625q-0.78125 -1.640625 -0.78125 -3.5625q0 -2.09375 0.875 -3.703125q0.875 -1.625 2.5625 -2.5q1.28125 -0.65625 3.203125 -0.65625q2.484375 0 3.875 1.046875q1.40625 1.03125 1.796875 2.875l-2.671875 0.5q-0.28125 -0.984375 -1.0625 -1.546875q-0.78125 -0.578125 -1.9375 -0.578125q-1.78125 0 -2.828125 1.125q-1.03125 1.125 -1.03125 3.328125q0 2.375 1.046875 3.5625q1.0625 1.1875 2.78125 1.1875q0.84375 0 1.6875 -0.328125q0.859375 -0.328125 1.46875 -0.8125l0 -1.6875l-3.09375 0z" fill-rule="nonzero"/><path fill="#000000" d="m117.60955 277.13412l2.921875 0.359375q0.0625 0.5 0.328125 0.6875q0.375 0.28125 1.15625 0.28125q1.0 0 1.5 -0.296875q0.328125 -0.203125 0.515625 -0.65625q0.109375 -0.3125 0.109375 -1.171875l0 -1.40625q-1.140625 1.5625 -2.890625 1.5625q-1.953125 0 -3.09375 -1.65625q-0.890625 -1.296875 -0.890625 -3.234375q0 -2.4375 1.171875 -3.71875q1.171875 -1.28125 2.90625 -1.28125q1.796875 0 2.96875 1.578125l0 -1.359375l2.390625 0l0 8.671875q0 1.71875 -0.28125 2.5625q-0.28125 0.84375 -0.796875 1.328125q-0.5 0.484375 -1.359375 0.75q-0.84375 0.28125 -2.15625 0.28125q-2.453125 0 -3.484375 -0.84375q-1.03125 -0.84375 -1.03125 -2.125q0 -0.140625 0.015625 -0.3125zm2.28125 -5.671875q0 1.53125 0.59375 2.25q0.59375 0.71875 1.46875 0.71875q0.9375 0 1.578125 -0.734375q0.65625 -0.734375 0.65625 -2.171875q0 -1.515625 -0.625 -2.234375q-0.609375 -0.734375 -1.5625 -0.734375q-0.921875 0 -1.515625 0.71875q-0.59375 0.71875 -0.59375 2.1875z" fill-rule="nonzero"/><path fill="#000000" d="m190.98378 276.72787l3.3125 -13.8125l1.921875 0l-3.34375 13.8125l-1.890625 0zm6.323929 0.40625l2.921875 0.359375q0.0625 0.5 0.328125 0.6875q0.375 0.28125 1.15625 0.28125q1.0 0 1.5 -0.296875q0.328125 -0.203125 0.515625 -0.65625q0.109375 -0.3125 0.109375 -1.171875l0 -1.40625q-1.140625 1.5625 -2.890625 1.5625q-1.953125 0 -3.09375 -1.65625q-0.890625 -1.296875 -0.890625 -3.234375q0 -2.4375 1.171875 -3.71875q1.171875 -1.28125 2.90625 -1.28125q1.796875 0 2.96875 1.578125l0 -1.359375l2.390625 0l0 8.671875q0 1.71875 -0.28125 2.5625q-0.28125 0.84375 -0.796875 1.328125q-0.5 0.484375 -1.359375 0.75q-0.84375 0.28125 -2.15625 0.28125q-2.453125 0 -3.484375 -0.84375q-1.03125 -0.84375 -1.03125 -2.125q0 -0.140625 0.015625 -0.3125zm2.28125 -5.671875q0 1.53125 0.59375 2.25q0.59375 0.71875 1.46875 0.71875q0.9375 0 1.578125 -0.734375q0.65625 -0.734375 0.65625 -2.171875q0 -1.515625 -0.625 -2.234375q-0.609375 -0.734375 -1.5625 -0.734375q-0.921875 0 -1.515625 0.71875q-0.59375 0.71875 -0.59375 2.1875zm7.974106 5.265625l3.3125 -13.8125l1.921875 0l-3.34375 13.8125l-1.890625 0z" fill-rule="nonzero"/><path fill="#000000" d="m276.0446 272.14975l2.625 -0.25q0.234375 1.3125 0.953125 1.9375q0.734375 0.609375 1.96875 0.609375q1.296875 0 1.953125 -0.546875q0.671875 -0.546875 0.671875 -1.28125q0 -0.484375 -0.28125 -0.8125q-0.28125 -0.328125 -0.96875 -0.578125q-0.484375 -0.15625 -2.171875 -0.578125q-2.15625 -0.546875 -3.03125 -1.328125q-1.234375 -1.09375 -1.234375 -2.6875q0 -1.015625 0.578125 -1.90625q0.578125 -0.890625 1.65625 -1.34375q1.09375 -0.46875 2.640625 -0.46875q2.515625 0 3.78125 1.109375q1.28125 1.09375 1.34375 2.9375l-2.703125 0.109375q-0.171875 -1.03125 -0.75 -1.46875q-0.5625 -0.453125 -1.703125 -0.453125q-1.171875 0 -1.84375 0.46875q-0.421875 0.3125 -0.421875 0.84375q0 0.46875 0.40625 0.796875q0.5 0.4375 2.46875 0.90625q1.96875 0.453125 2.90625 0.953125q0.953125 0.5 1.484375 1.359375q0.53125 0.859375 0.53125 2.125q0 1.15625 -0.640625 2.15625q-0.640625 1.0 -1.8125 1.484375q-1.15625 0.484375 -2.890625 0.484375q-2.53125 0 -3.890625 -1.171875q-1.359375 -1.171875 -1.625 -3.40625z" fill-rule="nonzero"/><path fill="#000000" d="m356.5423 273.72787l2.5625 -0.390625q0.171875 0.75 0.671875 1.140625q0.5 0.390625 1.40625 0.390625q0.984375 0 1.484375 -0.375q0.34375 -0.25 0.34375 -0.671875q0 -0.296875 -0.1875 -0.484375q-0.1875 -0.1875 -0.859375 -0.34375q-3.09375 -0.6875 -3.921875 -1.25q-1.140625 -0.78125 -1.140625 -2.171875q0 -1.265625 0.984375 -2.109375q1.0 -0.859375 3.078125 -0.859375q1.984375 0 2.953125 0.65625q0.96875 0.640625 1.328125 1.90625l-2.40625 0.4375q-0.15625 -0.5625 -0.59375 -0.859375q-0.421875 -0.296875 -1.234375 -0.296875q-1.0 0 -1.4375 0.28125q-0.296875 0.203125 -0.296875 0.515625q0 0.265625 0.25 0.46875q0.34375 0.25 2.390625 0.71875q2.046875 0.453125 2.859375 1.140625q0.796875 0.671875 0.796875 1.890625q0 1.34375 -1.109375 2.296875q-1.109375 0.953125 -3.28125 0.953125q-1.984375 0 -3.140625 -0.796875q-1.140625 -0.8125 -1.5 -2.1875z" fill-rule="nonzero"/><path fill="#000000" d="m430.5884 276.72787l3.3125 -13.8125l1.921875 0l-3.34375 13.8125l-1.890625 0zm5.6520386 -3.0l2.5625 -0.390625q0.171875 0.75 0.671875 1.140625q0.5 0.390625 1.40625 0.390625q0.984375 0 1.484375 -0.375q0.34375 -0.25 0.34375 -0.671875q0 -0.296875 -0.1875 -0.484375q-0.1875 -0.1875 -0.859375 -0.34375q-3.09375 -0.6875 -3.921875 -1.25q-1.140625 -0.78125 -1.140625 -2.171875q0 -1.265625 0.984375 -2.109375q1.0 -0.859375 3.078125 -0.859375q1.984375 0 2.953125 0.65625q0.96875 0.640625 1.328125 1.90625l-2.40625 0.4375q-0.15625 -0.5625 -0.59375 -0.859375q-0.421875 -0.296875 -1.234375 -0.296875q-1.0 0 -1.4375 0.28125q-0.296875 0.203125 -0.296875 0.515625q0 0.265625 0.25 0.46875q0.34375 0.25 2.390625 0.71875q2.046875 0.453125 2.859375 1.140625q0.796875 0.671875 0.796875 1.890625q0 1.34375 -1.109375 2.296875q-1.109375 0.953125 -3.28125 0.953125q-1.984375 0 -3.140625 -0.796875q-1.140625 -0.8125 -1.5 -2.1875zm9.906982 3.0l3.3125 -13.8125l1.921875 0l-3.34375 13.8125l-1.890625 0z" fill-rule="nonzero"/><path fill="#000000" d="m37.122902 317.69034l0 -13.359375l2.703125 0l0 5.265625l5.28125 0l0 -5.265625l2.703125 0l0 13.359375l-2.703125 0l0 -5.84375l-5.28125 0l0 5.84375l-2.703125 0z" fill-rule="nonzero"/><path fill="#000000" d="m120.3908 304.33096l0 4.921875q1.234375 -1.453125 2.953125 -1.453125q0.890625 0 1.59375 0.328125q0.71875 0.328125 1.078125 0.84375q0.359375 0.5 0.484375 1.125q0.140625 0.609375 0.140625 1.921875l0 5.671875l-2.5625 0l0 -5.109375q0 -1.515625 -0.15625 -1.921875q-0.140625 -0.421875 -0.515625 -0.65625q-0.359375 -0.25 -0.90625 -0.25q-0.640625 0 -1.140625 0.3125q-0.5 0.3125 -0.734375 0.9375q-0.234375 0.625 -0.234375 1.84375l0 4.84375l-2.5625 0l0 -13.359375l2.5625 0z" fill-rule="nonzero"/><path fill="#000000" d="m191.49391 317.9247l3.3125 -13.8125l1.921875 0l-3.34375 13.8125l-1.890625 0zm14.995804 -5.140625q0 2.171875 -1.109375 3.578125q-1.21875 1.546875 -3.328125 1.546875q-2.46875 0 -3.640625 -1.734375q-1.015625 -1.484375 -0.96875 -4.0625l6.421875 0q-0.03125 -1.03125 -0.546875 -1.6875q-0.5625 -0.71875 -1.546875 -0.71875q-1.234375 0 -1.640625 1.390625l-2.546875 -0.421875q1.0 -2.875 4.203125 -2.875q2.53125 0 3.734375 1.640625q0.96875 1.3125 0.96875 3.34375zm-2.671875 0.890625l-3.828125 0q0.03125 0.953125 0.46875 1.578125q0.515625 0.703125 1.4375 0.703125q0.921875 0 1.4375 -0.703125q0.484375 -0.609375 0.484375 -1.578125zm3.2350922 4.25l3.3125 -13.8125l1.921875 0l-3.34375 13.8125l-1.890625 0z" fill-rule="nonzero"/><path fill="#000000" d="m280.25586 317.69034l0 -11.09375l-3.953125 0l0 -2.265625l10.609375 0l0 2.265625l-3.953125 0l0 11.09375l-2.703125 0z" fill-rule="nonzero"/><path fill="#000000" d="m363.96756 308.01846l0 2.03125l-1.75 0l0 3.90625q0 1.1875 0.046875 1.390625q0.046875 0.1875 0.21875 0.3125q0.1875 0.125 0.4375 0.125q0.359375 0 1.03125 -0.25l0.21875 2.0q-0.890625 0.375 -2.015625 0.375q-0.703125 0 -1.265625 -0.234375q-0.546875 -0.234375 -0.8125 -0.59375q-0.25 -0.375 -0.34375 -1.0q-0.09375 -0.453125 -0.09375 -1.8125l0 -4.21875l-1.171875 0l0 -2.03125l1.171875 0l0 -1.921875l2.578125 -1.5l0 3.421875l1.75 0z" fill-rule="nonzero"/><path fill="#000000" d="m432.66992 317.9247l3.3125 -13.8125l1.921875 0l-3.34375 13.8125l-1.890625 0zm10.995819 -9.90625l0 2.03125l-1.75 0l0 3.90625q0 1.1875 0.046875 1.390625q0.046875 0.1875 0.21875 0.3125q0.1875 0.125 0.4375 0.125q0.359375 0 1.03125 -0.25l0.21875 2.0q-0.890625 0.375 -2.015625 0.375q-0.703125 0 -1.265625 -0.234375q-0.546875 -0.234375 -0.8125 -0.59375q-0.25 -0.375 -0.34375 -1.0q-0.09375 -0.453125 -0.09375 -1.8125l0 -4.21875l-1.171875 0l0 -2.03125l1.171875 0l0 -1.921875l2.578125 -1.5l0 3.421875l1.75 0zm0.400177 9.90625l3.3125 -13.8125l1.921875 0l-3.34375 13.8125l-1.890625 0z" fill-rule="nonzero"/><path fill="#000000" d="m37.63759 358.88718l0 -13.359375l9.90625 0l0 2.265625l-7.21875 0l0 2.953125l6.71875 0l0 2.25l-6.71875 0l0 3.640625l7.46875 0l0 2.25l-10.15625 0z" fill-rule="nonzero"/><path fill="#000000" d="m123.94781 355.80905l2.546875 0.421875q-0.484375 1.40625 -1.546875 2.140625q-1.0625 0.734375 -2.65625 0.734375q-2.515625 0 -3.734375 -1.65625q-0.953125 -1.3125 -0.953125 -3.328125q0 -2.40625 1.25 -3.765625q1.265625 -1.359375 3.1875 -1.359375q2.15625 0 3.40625 1.421875q1.25 1.421875 1.1875 4.375l-6.40625 0q0.03125 1.140625 0.609375 1.78125q0.59375 0.625 1.484375 0.625q0.59375 0 1.0 -0.328125q0.421875 -0.328125 0.625 -1.0625zm0.15625 -2.59375q-0.03125 -1.109375 -0.578125 -1.6875q-0.546875 -0.578125 -1.328125 -0.578125q-0.84375 0 -1.390625 0.609375q-0.546875 0.609375 -0.53125 1.65625l3.828125 0z" fill-rule="nonzero"/><path fill="#000000" d="m191.49391 359.12155l3.3125 -13.8125l1.921875 0l-3.34375 13.8125l-1.890625 0zm12.152054 -3.3125l2.546875 0.421875q-0.484375 1.40625 -1.546875 2.140625q-1.0625 0.734375 -2.65625 0.734375q-2.515625 0 -3.734375 -1.65625q-0.953125 -1.3125 -0.953125 -3.328125q0 -2.40625 1.25 -3.765625q1.265625 -1.359375 3.1875 -1.359375q2.15625 0 3.40625 1.421875q1.25 1.421875 1.1875 4.375l-6.40625 0q0.03125 1.140625 0.609375 1.78125q0.59375 0.625 1.484375 0.625q0.59375 0 1.0 -0.328125q0.421875 -0.328125 0.625 -1.0625zm0.15625 -2.59375q-0.03125 -1.109375 -0.578125 -1.6875q-0.546875 -0.578125 -1.328125 -0.578125q-0.84375 0 -1.390625 0.609375q-0.546875 0.609375 -0.53125 1.65625l3.828125 0zm3.2507172 5.90625l3.3125 -13.8125l1.921875 0l-3.34375 13.8125l-1.890625 0z" fill-rule="nonzero"/><path fill="#000000" d="m276.20175 345.5278l2.6875 0l0 7.234375q0 1.71875 0.109375 2.234375q0.171875 0.828125 0.8125 1.328125q0.65625 0.484375 1.78125 0.484375q1.15625 0 1.734375 -0.46875q0.59375 -0.46875 0.703125 -1.140625q0.125 -0.6875 0.125 -2.28125l0 -7.390625l2.6875 0l0 7.015625q0 2.40625 -0.21875 3.40625q-0.21875 0.984375 -0.8125 1.671875q-0.578125 0.6875 -1.5625 1.09375q-0.984375 0.40625 -2.5625 0.40625q-1.921875 0 -2.90625 -0.4375q-0.984375 -0.453125 -1.5625 -1.15625q-0.578125 -0.703125 -0.75 -1.484375q-0.265625 -1.140625 -0.265625 -3.390625l0 -7.125z" fill-rule="nonzero"/><path fill="#000000" d="m363.2978 358.88718l0 -1.453125q-0.53125 0.78125 -1.390625 1.234375q-0.859375 0.4375 -1.8125 0.4375q-0.96875 0 -1.75 -0.421875q-0.765625 -0.4375 -1.125 -1.203125q-0.34375 -0.78125 -0.34375 -2.140625l0 -6.125l2.5625 0l0 4.4375q0 2.046875 0.140625 2.515625q0.140625 0.453125 0.515625 0.71875q0.375 0.265625 0.953125 0.265625q0.65625 0 1.171875 -0.359375q0.515625 -0.359375 0.703125 -0.890625q0.203125 -0.53125 0.203125 -2.609375l0 -4.078125l2.546875 0l0 9.671875l-2.375 0z" fill-rule="nonzero"/><path fill="#000000" d="m430.07828 359.12155l3.3125 -13.8125l1.921875 0l-3.34375 13.8125l-1.890625 0zm12.917664 -0.234375l0 -1.453125q-0.53125 0.78125 -1.390625 1.234375q-0.859375 0.4375 -1.8125 0.4375q-0.96875 0 -1.75 -0.421875q-0.765625 -0.4375 -1.125 -1.203125q-0.34375 -0.78125 -0.34375 -2.140625l0 -6.125l2.5625 0l0 4.4375q0 2.046875 0.140625 2.515625q0.140625 0.453125 0.515625 0.71875q0.375 0.265625 0.953125 0.265625q0.65625 0 1.171875 -0.359375q0.515625 -0.359375 0.703125 -0.890625q0.203125 -0.53125 0.203125 -2.609375l0 -4.078125l2.546875 0l0 9.671875l-2.375 0zm3.661621 0.234375l3.3125 -13.8125l1.921875 0l-3.34375 13.8125l-1.890625 0z" fill-rule="nonzero"/><path fill="#000000" d="m41.189598 400.08405l0 -13.359375l2.6875 0l0 13.359375l-2.6875 0z" fill-rule="nonzero"/><path fill="#000000" d="m120.950264 389.09967l0 -2.375l2.5625 0l0 2.375l-2.5625 0zm0 10.984375l0 -9.671875l2.5625 0l0 9.671875l-2.5625 0z" fill-rule="nonzero"/><path fill="#000000" d="m194.09012 400.31842l3.3125 -13.8125l1.921875 0l-3.34375 13.8125l-1.890625 0zm6.558304 -11.21875l0 -2.375l2.5625 0l0 2.375l-2.5625 0zm0 10.984375l0 -9.671875l2.5625 0l0 9.671875l-2.5625 0zm3.8083038 0.234375l3.3125 -13.8125l1.921875 0l-3.34375 13.8125l-1.890625 0z" fill-rule="nonzero"/><path fill="#000000" d="m280.13834 400.08405l-4.78125 -13.359375l2.9375 0l3.375 9.890625l3.265625 -9.890625l2.859375 0l-4.78125 13.359375l-2.875 0z" fill-rule="nonzero"/><path fill="#000000" d="m360.1048 400.08405l-3.90625 -9.671875l2.6875 0l1.828125 4.9375l0.53125 1.640625q0.203125 -0.625 0.265625 -0.828125q0.125 -0.40625 0.265625 -0.8125l1.84375 -4.9375l2.625 0l-3.84375 9.671875l-2.296875 0z" fill-rule="nonzero"/><path fill="#000000" d="m430.5884 400.31842l3.3125 -13.8125l1.921875 0l-3.34375 13.8125l-1.890625 0zm9.214539 -0.234375l-3.90625 -9.671875l2.6875 0l1.828125 4.9375l0.53125 1.640625q0.203125 -0.625 0.265625 -0.828125q0.125 -0.40625 0.265625 -0.8125l1.84375 -4.9375l2.625 0l-3.84375 9.671875l-2.296875 0zm6.3444824 0.234375l3.3125 -13.8125l1.921875 0l-3.34375 13.8125l-1.890625 0z" fill-rule="nonzero"/><path fill="#000000" d="m43.484016 427.9215l2.6875 0l0 8.453125q0 1.65625 -0.28125 2.5625q-0.390625 1.15625 -1.421875 1.875q-1.03125 0.703125 -2.71875 0.703125q-1.984375 0 -3.046875 -1.109375q-1.0625 -1.109375 -1.078125 -3.25l2.546875 -0.296875q0.046875 1.15625 0.34375 1.625q0.4375 0.71875 1.328125 0.71875q0.890625 0 1.265625 -0.515625q0.375 -0.515625 0.375 -2.140625l0 -8.625z" fill-rule="nonzero"/><path fill="#000000" d="m120.887764 430.2965l0 -2.375l2.5625 0l0 2.375l-2.5625 0zm2.5625 1.3125l0 9.375q0 1.84375 -0.25 2.59375q-0.234375 0.765625 -0.921875 1.1875q-0.6875 0.4375 -1.75 0.4375q-0.390625 0 -0.828125 -0.0625q-0.4375 -0.0625 -0.953125 -0.203125l0.453125 -2.1875q0.171875 0.03125 0.34375 0.046875q0.15625 0.03125 0.296875 0.03125q0.390625 0 0.640625 -0.171875q0.25 -0.15625 0.328125 -0.40625q0.078125 -0.234375 0.078125 -1.421875l0 -9.21875l2.5625 0z" fill-rule="nonzero"/><path fill="#000000" d="m191.77176 441.51526l3.3125 -13.8125l1.921875 0l-3.34375 13.8125l-1.890625 0zm14.652054 -1.078125q0 2.171875 -1.171875 3.4375q-1.234375 1.328125 -3.46875 1.328125q-3.6875 0 -4.484375 -3.5l2.515625 -0.421875q0.34375 1.84375 1.84375 1.84375q2.140625 0 2.140625 -2.8125q0 -1.046875 -0.59375 -1.6875q-0.65625 -0.703125 -1.875 -0.703125l-0.90625 0l0 -1.5l2.671875 -2.75q-0.71875 0.0625 -1.171875 0.0625l-3.78125 0l0 -2.125l8.0 0l0 1.8125l-2.84375 3.0q1.171875 0.171875 1.984375 0.953125q1.140625 1.09375 1.140625 3.0625zm0.35128784 1.078125l3.3125 -13.8125l1.921875 0l-3.34375 13.8125l-1.890625 0z" fill-rule="nonzero"/><path fill="#000000" d="m275.3727 441.28088l4.5625 -6.96875l-4.140625 -6.390625l3.15625 0l2.6875 4.296875l2.609375 -4.296875l3.125 0l-4.140625 6.484375l4.5625 6.875l-3.25 0l-2.96875 -4.625l-2.96875 4.625l-3.234375 0z" fill-rule="nonzero"/><path fill="#000000" d="m356.21417 441.28088l3.484375 -4.984375l-3.34375 -4.6875l3.125 0l1.71875 2.65625l1.796875 -2.65625l3.015625 0l-3.28125 4.578125l3.578125 5.09375l-3.140625 0l-1.96875 -3.0l-1.984375 3.0l-3.0 0z" fill-rule="nonzero"/><path fill="#000000" d="m425.40054 441.51526l3.3125 -13.8125l1.921875 0l-3.34375 13.8125l-1.890625 0zm6.464569 -0.234375l0 -13.359375l2.5625 0l0 7.09375l3.0 -3.40625l3.140625 0l-3.296875 3.53125l3.53125 6.140625l-2.75 0l-2.4375 -4.34375l-1.1875 1.25l0 3.09375l-2.5625 0zm9.563202 -2.765625l2.5625 -0.390625q0.171875 0.75 0.671875 1.140625q0.5 0.390625 1.40625 0.390625q0.984375 0 1.484375 -0.375q0.34375 -0.25 0.34375 -0.671875q0 -0.296875 -0.1875 -0.484375q-0.1875 -0.1875 -0.859375 -0.34375q-3.09375 -0.6875 -3.921875 -1.25q-1.140625 -0.78125 -1.140625 -2.171875q0 -1.265625 0.984375 -2.109375q1.0 -0.859375 3.078125 -0.859375q1.984375 0 2.953125 0.65625q0.96875 0.640625 1.328125 1.90625l-2.40625 0.4375q-0.15625 -0.5625 -0.59375 -0.859375q-0.421875 -0.296875 -1.234375 -0.296875q-1.0 0 -1.4375 0.28125q-0.296875 0.203125 -0.296875 0.515625q0 0.265625 0.25 0.46875q0.34375 0.25 2.390625 0.71875q2.046875 0.453125 2.859375 1.140625q0.796875 0.671875 0.796875 1.890625q0 1.34375 -1.109375 2.296875q-1.109375 0.953125 -3.28125 0.953125q-1.984375 0 -3.140625 -0.796875q-1.140625 -0.8125 -1.5 -2.1875zm9.906982 3.0l3.3125 -13.8125l1.921875 0l-3.34375 13.8125l-1.890625 0z" fill-rule="nonzero"/><path fill="#000000" d="m37.154152 482.47775l0 -13.359375l2.703125 0l0 5.9375l5.4375 -5.9375l3.625 0l-5.015625 5.203125l5.296875 8.15625l-3.484375 0l-3.671875 -6.265625l-2.1875 2.234375l0 4.03125l-2.703125 0z" fill-rule="nonzero"/><path fill="#000000" d="m118.26031 482.47775l0 -13.359375l2.5625 0l0 7.09375l3.0 -3.40625l3.140625 0l-3.296875 3.53125l3.53125 6.140625l-2.75 0l-2.4375 -4.34375l-1.1875 1.25l0 3.09375l-2.5625 0z" fill-rule="nonzero"/><path fill="#000000" d="m191.49391 482.71213l3.3125 -13.8125l1.921875 0l-3.34375 13.8125l-1.890625 0zm6.464554 -0.234375l0 -13.359375l2.5625 0l0 7.09375l3.0 -3.40625l3.140625 0l-3.296875 3.53125l3.53125 6.140625l-2.75 0l-2.4375 -4.34375l-1.1875 1.25l0 3.09375l-2.5625 0zm9.094467 0.234375l3.3125 -13.8125l1.921875 0l-3.34375 13.8125l-1.890625 0z" fill-rule="nonzero"/><path fill="#000000" d="m280.2321 482.47775l0 -5.625l-4.890625 -7.734375l3.171875 0l3.140625 5.28125l3.078125 -5.28125l3.109375 0l-4.921875 7.75l0 5.609375l-2.6875 0z" fill-rule="nonzero"/><path fill="#000000" d="m356.2298 472.80588l2.71875 0l2.328125 6.859375l2.25 -6.859375l2.65625 0l-3.421875 9.3125l-0.609375 1.6875q-0.328125 0.84375 -0.640625 1.28125q-0.3125 0.453125 -0.703125 0.71875q-0.390625 0.28125 -0.96875 0.4375q-0.578125 0.15625 -1.3125 0.15625q-0.734375 0 -1.453125 -0.15625l-0.21875 -2.0q0.59375 0.125 1.078125 0.125q0.890625 0 1.3125 -0.53125q0.4375 -0.515625 0.671875 -1.328125l-3.6875 -9.703125z" fill-rule="nonzero"/><path fill="#24292e" d="m430.5884 480.71213l3.3125 -13.8125l1.921875 0l-3.34375 13.8125l-1.890625 0zm14.995789 -5.0q0 2.03125 -0.96875 3.328125q-1.203125 1.65625 -3.734375 1.65625q-3.203125 0 -4.203125 -2.875l2.546875 -0.421875q0.40625 1.390625 1.640625 1.390625q0.984375 0 1.546875 -0.734375q0.515625 -0.65625 0.546875 -1.671875l-6.421875 0q-0.046875 -2.578125 0.96875 -4.0625q1.171875 -1.734375 3.640625 -1.734375q2.125 0 3.328125 1.53125q1.109375 1.40625 1.109375 3.59375zm-2.671875 -0.90625q0 -0.953125 -0.484375 -1.5625q-0.515625 -0.703125 -1.4375 -0.703125q-0.921875 0 -1.4375 0.703125q-0.4375 0.609375 -0.46875 1.5625l3.828125 0zm3.2351074 5.90625l3.3125 -13.8125l1.921875 0l-3.34375 13.8125l-1.890625 0z" fill-rule="nonzero"/><path fill="#000000" d="m38.23951 523.67456l0 -13.2499695l2.6875 0l0 10.9999695l6.703125 0l0 2.25l-9.390625 0z" fill-rule="nonzero"/><path fill="#000000" d="m120.950264 523.67456l0 -13.3593445l2.5625 0l0 13.3593445l-2.5625 0z" fill-rule="nonzero"/><path fill="#000000" d="m194.09012 523.90894l3.3125 -13.8124695l1.921875 0l-3.34375 13.8124695l-1.890625 0zm6.558304 -0.234375l0 -13.3593445l2.5625 0l0 13.3593445l-2.5625 0zm3.8083038 0.234375l3.3125 -13.8124695l1.921875 0l-3.34375 13.8124695l-1.890625 0z" fill-rule="nonzero"/><path fill="#000000" d="m276.0996 523.67456l0 -2.4375l7.015625 -8.65625l-6.21875 0l0 -2.2655945l9.765625 0l0 2.0937195l-7.3125 9.015625l7.59375 0l0 2.25l-10.84375 0z" fill-rule="nonzero"/><path fill="#000000" d="m356.9411 523.67456l0 -2.0l3.625 -4.15625q0.890625 -1.015625 1.3125 -1.453125q-0.4375 0.03125 -1.171875 0.046875l-3.40625 0.015625l0 -2.125l7.984375 0l0 1.8125l-3.6875 4.265625l-1.3125 1.40625q1.078125 -0.0625 1.328125 -0.0625l3.96875 0l0 2.25l-8.640625 0z" fill-rule="nonzero"/><path fill="#000000" d="m431.1122 523.90894l3.3125 -13.8124695l1.921875 0l-3.34375 13.8124695l-1.890625 0zm5.5270386 -0.234375l0 -2.0l3.625 -4.15625q0.890625 -1.015625 1.3125 -1.453125q-0.4375 0.03125 -1.171875 0.046875l-3.40625 0.015625l0 -2.125l7.984375 0l0 1.8125l-3.6875 4.265625l-1.3125 1.40625q1.078125 -0.0625 1.328125 -0.0625l3.96875 0l0 2.25l-8.640625 0zm8.984375 0.234375l3.3125 -13.8124695l1.921875 0l-3.34375 13.8124695l-1.890625 0z" fill-rule="nonzero"/></g></svg>