<svg version="1.1" viewBox="0.0 0.0 537.1023622047244 229.24409448818898" fill="none" stroke="none" stroke-linecap="square" stroke-miterlimit="10" xmlns:xlink="http://www.w3.org/1999/xlink" xmlns="http://www.w3.org/2000/svg"><clipPath id="p.0"><path d="m0 0l537.10236 0l0 229.2441l-537.10236 0l0 -229.2441z" clip-rule="nonzero"/></clipPath><g clip-path="url(#p.0)"><path fill="#000000" fill-opacity="0.0" d="m0 0l537.10236 0l0 229.2441l-537.10236 0z" fill-rule="evenodd"/><path shape-rendering="crispEdges" fill="#38761d" d="m11.136483 12.759843l100.32809 0l0 41.19685l-100.32809 0l0 -41.19685z" fill-rule="nonzero"/><path shape-rendering="crispEdges" fill="#38761d" d="m111.46457 12.759843l100.68767 0l0 41.19685l-100.68767 0l0 -41.19685z" fill-rule="nonzero"/><path shape-rendering="crispEdges" fill="#38761d" d="m212.15224 12.759843l94.598434 0l0 41.19685l-94.598434 0l0 -41.19685z" fill-rule="nonzero"/><path shape-rendering="crispEdges" fill="#38761d" d="m306.75067 12.759843l103.71652 0l0 41.19685l-103.71652 0l0 -41.19685z" fill-rule="nonzero"/><path shape-rendering="crispEdges" fill="#38761d" d="m410.4672 12.759843l117.67978 0l0 41.19685l-117.67978 0l0 -41.19685z" fill-rule="nonzero"/><path shape-rendering="crispEdges" fill="#ffffff" d="m11.136483 53.95669l100.32809 0l0 41.19685l-100.32809 0l0 -41.19685z" fill-rule="nonzero"/><path shape-rendering="crispEdges" fill="#ffffff" d="m111.46457 53.95669l100.68767 0l0 41.19685l-100.68767 0l0 -41.19685z" fill-rule="nonzero"/><path shape-rendering="crispEdges" fill="#ffffff" d="m212.15224 53.95669l94.598434 0l0 41.19685l-94.598434 0l0 -41.19685z" fill-rule="nonzero"/><path shape-rendering="crispEdges" fill="#ffffff" d="m306.75067 53.95669l103.71652 0l0 41.19685l-103.71652 0l0 -41.19685z" fill-rule="nonzero"/><path shape-rendering="crispEdges" fill="#ffffff" d="m410.4672 53.95669l117.67978 0l0 41.19685l-117.67978 0l0 -41.19685z" fill-rule="nonzero"/><path shape-rendering="crispEdges" fill="#d9d9d9" d="m11.136483 95.15354l100.32809 0l0 41.196846l-100.32809 0l0 -41.196846z" fill-rule="nonzero"/><path shape-rendering="crispEdges" fill="#d9d9d9" d="m111.46457 95.15354l100.68767 0l0 41.196846l-100.68767 0l0 -41.196846z" fill-rule="nonzero"/><path shape-rendering="crispEdges" fill="#d9d9d9" d="m212.15224 95.15354l94.598434 0l0 41.196846l-94.598434 0l0 -41.196846z" fill-rule="nonzero"/><path shape-rendering="crispEdges" fill="#d9d9d9" d="m306.75067 95.15354l103.71652 0l0 41.196846l-103.71652 0l0 -41.196846z" fill-rule="nonzero"/><path shape-rendering="crispEdges" fill="#d9d9d9" d="m410.4672 95.15354l117.67978 0l0 41.196846l-117.67978 0l0 -41.196846z" fill-rule="nonzero"/><path shape-rendering="crispEdges" fill="#ffffff" d="m11.136483 136.35039l100.32809 0l0 41.196854l-100.32809 0l0 -41.196854z" fill-rule="nonzero"/><path shape-rendering="crispEdges" fill="#ffffff" d="m111.46457 136.35039l100.68767 0l0 41.196854l-100.68767 0l0 -41.196854z" fill-rule="nonzero"/><path shape-rendering="crispEdges" fill="#ffffff" d="m212.15224 136.35039l94.598434 0l0 41.196854l-94.598434 0l0 -41.196854z" fill-rule="nonzero"/><path shape-rendering="crispEdges" fill="#ffffff" d="m306.75067 136.35039l103.71652 0l0 41.196854l-103.71652 0l0 -41.196854z" fill-rule="nonzero"/><path shape-rendering="crispEdges" fill="#ffffff" d="m410.4672 136.35039l117.67978 0l0 41.196854l-117.67978 0l0 -41.196854z" fill-rule="nonzero"/><path shape-rendering="crispEdges" fill="#d9d9d9" d="m11.136483 177.54724l100.32809 0l0 41.196854l-100.32809 0l0 -41.196854z" fill-rule="nonzero"/><path shape-rendering="crispEdges" fill="#d9d9d9" d="m111.46457 177.54724l100.68767 0l0 41.196854l-100.68767 0l0 -41.196854z" fill-rule="nonzero"/><path shape-rendering="crispEdges" fill="#d9d9d9" d="m212.15224 177.54724l94.598434 0l0 41.196854l-94.598434 0l0 -41.196854z" fill-rule="nonzero"/><path shape-rendering="crispEdges" fill="#d9d9d9" d="m306.75067 177.54724l103.71652 0l0 41.196854l-103.71652 0l0 -41.196854z" fill-rule="nonzero"/><path shape-rendering="crispEdges" fill="#d9d9d9" d="m410.4672 177.54724l117.67978 0l0 41.196854l-117.67978 0l0 -41.196854z" fill-rule="nonzero"/><path stroke="#434343" stroke-width="2.0" stroke-linecap="butt" d="m11.136483 11.759843l0 207.98425" fill-rule="nonzero"/><path stroke="#434343" stroke-width="2.0" stroke-linecap="butt" d="m111.46457 11.759843l0 207.98425" fill-rule="nonzero"/><path stroke="#434343" stroke-width="2.0" stroke-linecap="butt" d="m212.15224 11.759843l0 207.98425" fill-rule="nonzero"/><path stroke="#434343" stroke-width="2.0" stroke-linecap="butt" d="m306.75067 11.759843l0 207.98425" fill-rule="nonzero"/><path stroke="#434343" stroke-width="2.0" stroke-linecap="butt" d="m410.4672 11.759843l0 207.98425" fill-rule="nonzero"/><path stroke="#434343" stroke-width="2.0" stroke-linecap="butt" d="m528.147 11.759843l0 207.98425" fill-rule="nonzero"/><path stroke="#434343" stroke-width="2.0" stroke-linecap="butt" d="m10.136483 12.759843l519.0105 0" fill-rule="nonzero"/><path stroke="#434343" stroke-width="2.0" stroke-linecap="butt" d="m10.136483 53.95669l519.0105 0" fill-rule="nonzero"/><path stroke="#434343" stroke-width="2.0" stroke-linecap="butt" d="m10.136483 95.15354l519.0105 0" fill-rule="nonzero"/><path stroke="#434343" stroke-width="2.0" stroke-linecap="butt" d="m10.136483 136.35039l519.0105 0" fill-rule="nonzero"/><path stroke="#434343" stroke-width="2.0" stroke-linecap="butt" d="m10.136483 177.54724l519.0105 0" fill-rule="nonzero"/><path stroke="#434343" stroke-width="2.0" stroke-linecap="butt" d="m10.136483 218.7441l519.0105 0" fill-rule="nonzero"/><path fill="#ffffff" d="m27.404186 26.320465l4.9375 0q1.65625 0 2.53125 0.265625q1.1875 0.34375 2.015625 1.234375q0.84375 0.875 1.28125 2.15625q0.4375 1.28125 0.4375 3.15625q0 1.640625 -0.40625 2.84375q-0.5 1.453125 -1.4375 2.359375q-0.703125 0.671875 -1.890625 1.0625q-0.890625 0.28125 -2.390625 0.28125l-5.078125 0l0 -13.359375zm2.703125 2.265625l0 8.84375l2.015625 0q1.125 0 1.625 -0.125q0.65625 -0.171875 1.078125 -0.5625q0.4375 -0.390625 0.703125 -1.28125q0.28125 -0.90625 0.28125 -2.453125q0 -1.546875 -0.28125 -2.375q-0.265625 -0.828125 -0.765625 -1.28125q-0.484375 -0.46875 -1.234375 -0.640625q-0.5625 -0.125 -2.21875 -0.125l-1.203125 0zm10.769821 0.109375l0 -2.375l2.5625 0l0 2.375l-2.5625 0zm0 10.984375l0 -9.671875l2.5625 0l0 9.671875l-2.5625 0zm4.948929 0.640625l2.921875 0.359375q0.0625 0.5 0.328125 0.6875q0.375 0.28125 1.15625 0.28125q1.0 0 1.5 -0.296875q0.328125 -0.203125 0.515625 -0.65625q0.109375 -0.3125 0.109375 -1.171875l0 -1.40625q-1.140625 1.5625 -2.890625 1.5625q-1.953125 0 -3.09375 -1.65625q-0.890625 -1.296875 -0.890625 -3.234375q0 -2.4375 1.171875 -3.71875q1.171875 -1.28125 2.90625 -1.28125q1.796875 0 2.96875 1.578125l0 -1.359375l2.390625 0l0 8.671875q0 1.71875 -0.28125 2.5625q-0.28125 0.84375 -0.796875 1.328125q-0.5 0.484375 -1.359375 0.75q-0.84375 0.28125 -2.15625 0.28125q-2.453125 0 -3.484375 -0.84375q-1.03125 -0.84375 -1.03125 -2.125q0 -0.140625 0.015625 -0.3125zm2.28125 -5.671875q0 1.53125 0.59375 2.25q0.59375 0.71875 1.46875 0.71875q0.9375 0 1.578125 -0.734375q0.65625 -0.734375 0.65625 -2.171875q0 -1.515625 -0.625 -2.234375q-0.609375 -0.734375 -1.5625 -0.734375q-0.921875 0 -1.515625 0.71875q-0.59375 0.71875 -0.59375 2.1875zm11.802231 5.03125l-2.5625 0l0 -9.671875l2.375 0l0 1.375q0.609375 -0.984375 1.09375 -1.28125q0.484375 -0.3125 1.109375 -0.3125q0.875 0 1.6875 0.484375l-0.796875 2.234375q-0.640625 -0.421875 -1.203125 -0.421875q-0.53125 0 -0.90625 0.296875q-0.375 0.296875 -0.59375 1.078125q-0.203125 0.765625 -0.203125 3.234375l0 2.984375zm6.713398 -6.71875l-2.328125 -0.421875q0.40625 -1.40625 1.359375 -2.078125q0.953125 -0.671875 2.84375 -0.671875q1.703125 0 2.546875 0.40625q0.84375 0.40625 1.171875 1.03125q0.34375 0.625 0.34375 2.28125l-0.015625 3.0q0 1.265625 0.109375 1.875q0.125 0.609375 0.46875 1.296875l-2.53125 0q-0.109375 -0.25 -0.25 -0.75q-0.0625 -0.234375 -0.09375 -0.3125q-0.65625 0.640625 -1.40625 0.96875q-0.734375 0.3125 -1.59375 0.3125q-1.484375 0 -2.34375 -0.8125q-0.859375 -0.8125 -0.859375 -2.046875q0 -0.828125 0.390625 -1.46875q0.390625 -0.640625 1.09375 -0.96875q0.703125 -0.34375 2.03125 -0.609375q1.796875 -0.328125 2.484375 -0.625l0 -0.25q0 -0.75 -0.359375 -1.0625q-0.359375 -0.3125 -1.375 -0.3125q-0.6875 0 -1.078125 0.28125q-0.375 0.265625 -0.609375 0.9375zm3.421875 2.078125q-0.484375 0.15625 -1.5625 0.390625q-1.0625 0.21875 -1.390625 0.4375q-0.5 0.359375 -0.5 0.90625q0 0.53125 0.40625 0.9375q0.40625 0.390625 1.015625 0.390625q0.703125 0 1.328125 -0.46875q0.46875 -0.34375 0.609375 -0.84375q0.09375 -0.328125 0.09375 -1.25l0 -0.5zm4.969467 -5.03125l2.3906174 0l0 1.421875q0.46875 -0.734375 1.25 -1.1875q0.796875 -0.453125 1.765625 -0.453125q1.6875 0 2.859375 1.328125q1.171875 1.3125 1.171875 3.671875q0 2.421875 -1.1875 3.765625q-1.1875 1.34375 -2.859375 1.34375q-0.8125 0 -1.46875 -0.3125q-0.640625 -0.328125 -1.359375 -1.09375l0 4.875l-2.5624924 0l0 -13.359375zm2.5312424 4.671875q0 1.625 0.640625 2.40625q0.65625 0.78125 1.578125 0.78125q0.90625 0 1.484375 -0.71875q0.59375 -0.71875 0.59375 -2.34375q0 -1.515625 -0.609375 -2.25q-0.609375 -0.75 -1.515625 -0.75q-0.9375 0 -1.5625 0.734375q-0.609375 0.71875 -0.609375 2.140625zm11.489731 -8.359375l0 4.921875q1.234375 -1.453125 2.953125 -1.453125q0.890625 0 1.59375 0.328125q0.71875 0.328125 1.078125 0.84375q0.359375 0.5 0.484375 1.125q0.140625 0.609375 0.140625 1.921875l0 5.671875l-2.5625 0l0 -5.109375q0 -1.515625 -0.15625 -1.921875q-0.140625 -0.421875 -0.515625 -0.65625q-0.359375 -0.25 -0.90625 -0.25q-0.640625 0 -1.140625 0.3125q-0.5 0.3125 -0.734375 0.9375q-0.234375 0.625 -0.234375 1.84375l0 4.84375l-2.5625 0l0 -13.359375l2.5625 0z" fill-rule="nonzero"/><path fill="#ffffff" d="m137.59312 35.33609l2.625 -0.25q0.234375 1.3125 0.953125 1.9375q0.734375 0.609375 1.96875 0.609375q1.296875 0 1.953125 -0.546875q0.671875 -0.546875 0.671875 -1.28125q0 -0.484375 -0.28125 -0.8125q-0.28125 -0.328125 -0.96875 -0.578125q-0.484375 -0.15625 -2.171875 -0.578125q-2.15625 -0.546875 -3.03125 -1.328125q-1.234375 -1.09375 -1.234375 -2.6875q0 -1.015625 0.578125 -1.90625q0.578125 -0.890625 1.65625 -1.34375q1.09375 -0.46875 2.640625 -0.46875q2.515625 0 3.78125 1.109375q1.28125 1.09375 1.34375 2.9375l-2.703125 0.109375q-0.171875 -1.03125 -0.75 -1.46875q-0.5625 -0.453125 -1.703125 -0.453125q-1.171875 0 -1.84375 0.46875q-0.421875 0.3125 -0.421875 0.84375q0 0.46875 0.40625 0.796875q0.5 0.4375 2.46875 0.90625q1.96875 0.453125 2.90625 0.953125q0.953125 0.5 1.484375 1.359375q0.53125 0.859375 0.53125 2.125q0 1.15625 -0.640625 2.15625q-0.640625 1.0 -1.8125 1.484375q-1.15625 0.484375 -2.890625 0.484375q-2.53125 0 -3.890625 -1.171875q-1.359375 -1.171875 -1.625 -3.40625zm12.912323 -5.328125l2.359375 0l0 1.3125q1.265625 -1.53125 3.015625 -1.53125q0.9375 0 1.609375 0.390625q0.6875 0.375 1.125 1.140625q0.640625 -0.765625 1.375 -1.140625q0.75 -0.390625 1.578125 -0.390625q1.0625 0 1.796875 0.4375q0.75 0.421875 1.109375 1.265625q0.265625 0.625 0.265625 2.0l0 6.1875l-2.5625 0l0 -5.53125q0 -1.4375 -0.265625 -1.859375q-0.34375 -0.546875 -1.09375 -0.546875q-0.53125 0 -1.015625 0.328125q-0.46875 0.328125 -0.671875 0.96875q-0.203125 0.625 -0.203125 2.0l0 4.640625l-2.5625 0l0 -5.296875q0 -1.421875 -0.140625 -1.828125q-0.140625 -0.40625 -0.421875 -0.609375q-0.28125 -0.203125 -0.78125 -0.203125q-0.59375 0 -1.0625 0.328125q-0.46875 0.3125 -0.6875 0.921875q-0.203125 0.59375 -0.203125 1.984375l0 4.703125l-2.5625 0l0 -9.671875zm18.69777 2.953125l-2.328125 -0.421875q0.40625 -1.40625 1.359375 -2.078125q0.953125 -0.671875 2.84375 -0.671875q1.703125 0 2.546875 0.40625q0.84375 0.40625 1.171875 1.03125q0.34375 0.625 0.34375 2.28125l-0.015625 3.0q0 1.265625 0.109375 1.875q0.125 0.609375 0.46875 1.296875l-2.53125 0q-0.109375 -0.25 -0.25 -0.75q-0.0625 -0.234375 -0.09375 -0.3125q-0.65625 0.640625 -1.40625 0.96875q-0.734375 0.3125 -1.59375 0.3125q-1.484375 0 -2.34375 -0.8125q-0.859375 -0.8125 -0.859375 -2.046875q0 -0.828125 0.390625 -1.46875q0.390625 -0.640625 1.09375 -0.96875q0.703125 -0.34375 2.03125 -0.609375q1.796875 -0.328125 2.484375 -0.625l0 -0.25q0 -0.75 -0.359375 -1.0625q-0.359375 -0.3125 -1.375 -0.3125q-0.6875 0 -1.078125 0.28125q-0.375 0.265625 -0.609375 0.9375zm3.421875 2.078125q-0.484375 0.15625 -1.5625 0.390625q-1.0625 0.21875 -1.390625 0.4375q-0.5 0.359375 -0.5 0.90625q0 0.53125 0.40625 0.9375q0.40625 0.390625 1.015625 0.390625q0.703125 0 1.328125 -0.46875q0.46875 -0.34375 0.609375 -0.84375q0.09375 -0.328125 0.09375 -1.25l0 -0.5zm5.047592 4.640625l0 -13.359375l2.5625 0l0 13.359375l-2.5625 0zm5.183304 0l0 -13.359375l2.5625 0l0 13.359375l-2.5625 0z" fill-rule="nonzero"/><path fill="#ffffff" d="m245.87549 39.67984l0 -13.359375l2.6875 0l0 13.359375l-2.6875 0zm5.261429 0l0 -13.359375l4.328125 0q2.4531403 0 3.2031403 0.203125q1.140625 0.296875 1.921875 1.3125q0.78125 1.0 0.78125 2.59375q0 1.234375 -0.453125 2.078125q-0.453125 0.828125 -1.140625 1.3125q-0.6875 0.46875 -1.390625 0.625q-0.96875 0.203125 -2.7968903 0.203125l-1.765625 0l0 5.03125l-2.6875 0zm2.6875 -11.09375l0 3.78125l1.484375 0q1.5937653 0 2.1250153 -0.203125q0.546875 -0.203125 0.84375 -0.65625q0.3125 -0.453125 0.3125 -1.03125q0 -0.734375 -0.4375 -1.203125q-0.421875 -0.484375 -1.078125 -0.59375q-0.484375 -0.09375 -1.9375153 -0.09375l-1.3125 0zm20.417526 11.09375l-2.9375 0l-1.171875 -3.03125l-5.328125 0l-1.109375 3.03125l-2.859375 0l5.203125 -13.359375l2.84375 0l5.359375 13.359375zm-4.96875 -5.28125l-1.84375 -4.953125l-1.796875 4.953125l3.640625 0z" fill-rule="nonzero"/><path fill="#ffffff" d="m326.28137 39.67984l0 -13.359375l9.90625 0l0 2.265625l-7.21875 0l0 2.953125l6.71875 0l0 2.25l-6.71875 0l0 3.640625l7.46875 0l0 2.25l-10.15625 0zm21.224823 0l-2.5625 0l0 -4.9375q0 -1.5625 -0.171875 -2.015625q-0.15625 -0.46875 -0.53125 -0.71875q-0.359375 -0.265625 -0.875 -0.265625q-0.671875 0 -1.203125 0.375q-0.53125 0.359375 -0.734375 0.96875q-0.1875 0.59375 -0.1875 2.21875l0 4.375l-2.546875 0l0 -9.671875l2.375 0l0 1.421875q1.265625 -1.640625 3.1875 -1.640625q0.84375 0 1.546875 0.3125q0.703125 0.296875 1.0625 0.78125q0.359375 0.46875 0.5 1.078125q0.140625 0.59375 0.140625 1.703125l0 6.015625zm2.364746 0.640625l2.921875 0.359375q0.0625 0.5 0.328125 0.6875q0.375 0.28125 1.15625 0.28125q1.0 0 1.5 -0.296875q0.328125 -0.203125 0.515625 -0.65625q0.109375 -0.3125 0.109375 -1.171875l0 -1.40625q-1.140625 1.5625 -2.890625 1.5625q-1.953125 0 -3.09375 -1.65625q-0.890625 -1.296875 -0.890625 -3.234375q0 -2.4375 1.171875 -3.71875q1.171875 -1.28125 2.90625 -1.28125q1.796875 0 2.96875 1.578125l0 -1.359375l2.390625 0l0 8.671875q0 1.71875 -0.28125 2.5625q-0.28125 0.84375 -0.796875 1.328125q-0.5 0.484375 -1.359375 0.75q-0.84375 0.28125 -2.15625 0.28125q-2.453125 0 -3.484375 -0.84375q-1.03125 -0.84375 -1.03125 -2.125q0 -0.140625 0.015625 -0.3125zm2.28125 -5.671875q0 1.53125 0.59375 2.25q0.59375 0.71875 1.46875 0.71875q0.9375 0 1.578125 -0.734375q0.65625 -0.734375 0.65625 -2.171875q0 -1.515625 -0.625 -2.234375q-0.609375 -0.734375 -1.5625 -0.734375q-0.921875 0 -1.515625 0.71875q-0.59375 0.71875 -0.59375 2.1875zm9.349091 5.03125l0 -13.359375l2.5625 0l0 13.359375l-2.5625 0zm5.183319 -10.984375l0 -2.375l2.5625 0l0 2.375l-2.5625 0zm0 10.984375l0 -9.671875l2.5625 0l0 9.671875l-2.5625 0zm4.2770386 -2.765625l2.5625 -0.390625q0.171875 0.75 0.671875 1.140625q0.5 0.390625 1.40625 0.390625q0.984375 0 1.484375 -0.375q0.34375 -0.25 0.34375 -0.671875q0 -0.296875 -0.1875 -0.484375q-0.1875 -0.1875 -0.859375 -0.34375q-3.09375 -0.6875 -3.921875 -1.25q-1.140625 -0.78125 -1.140625 -2.171875q0 -1.265625 0.984375 -2.109375q1.0 -0.859375 3.078125 -0.859375q1.984375 0 2.953125 0.65625q0.96875 0.640625 1.328125 1.90625l-2.40625 0.4375q-0.15625 -0.5625 -0.59375 -0.859375q-0.421875 -0.296875 -1.234375 -0.296875q-1.0 0 -1.4375 0.28125q-0.296875 0.203125 -0.296875 0.515625q0 0.265625 0.25 0.46875q0.34375 0.25 2.390625 0.71875q2.046875 0.453125 2.859375 1.140625q0.796875 0.671875 0.796875 1.890625q0 1.34375 -1.109375 2.296875q-1.109375 0.953125 -3.28125 0.953125q-1.984375 0 -3.140625 -0.796875q-1.140625 -0.8125 -1.5 -2.1875zm13.828857 -10.59375l0 4.921875q1.234375 -1.453125 2.953125 -1.453125q0.890625 0 1.59375 0.328125q0.71875 0.328125 1.078125 0.84375q0.359375 0.5 0.484375 1.125q0.140625 0.609375 0.140625 1.921875l0 5.671875l-2.5625 0l0 -5.109375q0 -1.515625 -0.15625 -1.921875q-0.140625 -0.421875 -0.515625 -0.65625q-0.359375 -0.25 -0.90625 -0.25q-0.640625 0 -1.140625 0.3125q-0.5 0.3125 -0.734375 0.9375q-0.234375 0.625 -0.234375 1.84375l0 4.84375l-2.5625 0l0 -13.359375l2.5625 0z" fill-rule="nonzero"/><path fill="#ffffff" d="m425.57446 39.67984l0 -13.359375l5.6875 0q2.140625 0 3.109375 0.359375q0.96875 0.359375 1.546875 1.28125q0.578125 0.921875 0.578125 2.109375q0 1.5 -0.890625 2.484375q-0.875 0.96875 -2.625 1.234375q0.875 0.5 1.4375 1.125q0.578125 0.609375 1.53125 2.15625l1.640625 2.609375l-3.234375 0l-1.9375 -2.90625q-1.046875 -1.5625 -1.4375 -1.96875q-0.375 -0.40625 -0.8125 -0.546875q-0.421875 -0.15625 -1.34375 -0.15625l-0.546875 0l0 5.578125l-2.703125 0zm2.703125 -7.703125l2.0 0q1.9375 0 2.421875 -0.15625q0.484375 -0.171875 0.75 -0.578125q0.28125 -0.40625 0.28125 -1.0q0 -0.671875 -0.359375 -1.078125q-0.359375 -0.421875 -1.015625 -0.53125q-0.328125 -0.046875 -1.96875 -0.046875l-2.109375 0l0 3.390625zm10.160431 2.734375q0 -1.28125 0.625 -2.46875q0.625 -1.203125 1.78125 -1.828125q1.15625 -0.625 2.578125 -0.625q2.1875 0 3.59375 1.421875q1.40625 1.421875 1.40625 3.609375q0 2.1875 -1.421875 3.640625q-1.421875 1.4375 -3.5625 1.4375q-1.328125 0 -2.546875 -0.59375q-1.203125 -0.609375 -1.828125 -1.765625q-0.625 -1.171875 -0.625 -2.828125zm2.625 0.125q0 1.453125 0.671875 2.21875q0.6875 0.75 1.6875 0.75q1.0 0 1.671875 -0.75q0.6875 -0.765625 0.6875 -2.234375q0 -1.421875 -0.6875 -2.1875q-0.671875 -0.765625 -1.671875 -0.765625q-1.0 0 -1.6875 0.765625q-0.671875 0.765625 -0.671875 2.203125zm9.161621 -4.828125l2.359375 0l0 1.3125q1.265625 -1.53125 3.015625 -1.53125q0.9375 0 1.609375 0.390625q0.6875 0.375 1.125 1.140625q0.640625 -0.765625 1.375 -1.140625q0.75 -0.390625 1.578125 -0.390625q1.0625 0 1.796875 0.4375q0.75 0.421875 1.109375 1.265625q0.265625 0.625 0.265625 2.0l0 6.1875l-2.5625 0l0 -5.53125q0 -1.4375 -0.265625 -1.859375q-0.34375 -0.546875 -1.09375 -0.546875q-0.53125 0 -1.015625 0.328125q-0.46875 0.328125 -0.671875 0.96875q-0.203125 0.625 -0.203125 2.0l0 4.640625l-2.5625 0l0 -5.296875q0 -1.421875 -0.140625 -1.828125q-0.140625 -0.40625 -0.421875 -0.609375q-0.28125 -0.203125 -0.78125 -0.203125q-0.59375 0 -1.0625 0.328125q-0.46875 0.3125 -0.6875 0.921875q-0.203125 0.59375 -0.203125 1.984375l0 4.703125l-2.5625 0l0 -9.671875zm18.697754 2.953125l-2.328125 -0.421875q0.40625 -1.40625 1.359375 -2.078125q0.953125 -0.671875 2.84375 -0.671875q1.703125 0 2.546875 0.40625q0.84375 0.40625 1.171875 1.03125q0.34375 0.625 0.34375 2.28125l-0.015625 3.0q0 1.265625 0.109375 1.875q0.125 0.609375 0.46875 1.296875l-2.53125 0q-0.109375 -0.25 -0.25 -0.75q-0.0625 -0.234375 -0.09375 -0.3125q-0.65625 0.640625 -1.40625 0.96875q-0.734375 0.3125 -1.59375 0.3125q-1.484375 0 -2.34375 -0.8125q-0.859375 -0.8125 -0.859375 -2.046875q0 -0.828125 0.390625 -1.46875q0.390625 -0.640625 1.09375 -0.96875q0.703125 -0.34375 2.03125 -0.609375q1.796875 -0.328125 2.484375 -0.625l0 -0.25q0 -0.75 -0.359375 -1.0625q-0.359375 -0.3125 -1.375 -0.3125q-0.6875 0 -1.078125 0.28125q-0.375 0.265625 -0.609375 0.9375zm3.421875 2.078125q-0.484375 0.15625 -1.5625 0.390625q-1.0625 0.21875 -1.390625 0.4375q-0.5 0.359375 -0.5 0.90625q0 0.53125 0.40625 0.9375q0.40625 0.390625 1.015625 0.390625q0.703125 0 1.328125 -0.46875q0.46875 -0.34375 0.609375 -0.84375q0.09375 -0.328125 0.09375 -1.25l0 -0.5zm13.844452 4.640625l-2.5625 0l0 -4.9375q0 -1.5625 -0.171875 -2.015625q-0.15625 -0.46875 -0.53125 -0.71875q-0.359375 -0.265625 -0.875 -0.265625q-0.671875 0 -1.203125 0.375q-0.53125 0.359375 -0.734375 0.96875q-0.1875 0.59375 -0.1875 2.21875l0 4.375l-2.546875 0l0 -9.671875l2.375 0l0 1.421875q1.265625 -1.640625 3.1875 -1.640625q0.84375 0 1.546875 0.3125q0.703125 0.296875 1.0625 0.78125q0.359375 0.46875 0.5 1.078125q0.140625 0.59375 0.140625 1.703125l0 6.015625zm2.599121 -10.984375l0 -2.375l2.5625 0l0 2.375l-2.5625 0zm0 10.984375l0 -9.671875l2.5625 0l0 9.671875l-2.5625 0zm7.0895386 -6.71875l-2.328125 -0.421875q0.40625 -1.40625 1.359375 -2.078125q0.953125 -0.671875 2.84375 -0.671875q1.703125 0 2.546875 0.40625q0.84375 0.40625 1.171875 1.03125q0.34375 0.625 0.34375 2.28125l-0.015625 3.0q0 1.265625 0.109375 1.875q0.125 0.609375 0.46875 1.296875l-2.53125 0q-0.109375 -0.25 -0.25 -0.75q-0.0625 -0.234375 -0.09375 -0.3125q-0.65625 0.640625 -1.40625 0.96875q-0.734375 0.3125 -1.59375 0.3125q-1.484375 0 -2.34375 -0.8125q-0.859375 -0.8125 -0.859375 -2.046875q0 -0.828125 0.390625 -1.46875q0.390625 -0.640625 1.09375 -0.96875q0.703125 -0.34375 2.03125 -0.609375q1.796875 -0.328125 2.484375 -0.625l0 -0.25q0 -0.75 -0.359375 -1.0625q-0.359375 -0.3125 -1.375 -0.3125q-0.6875 0 -1.078125 0.28125q-0.375 0.265625 -0.609375 0.9375zm3.421875 2.078125q-0.484375 0.15625 -1.5625 0.390625q-1.0625 0.21875 -1.390625 0.4375q-0.5 0.359375 -0.5 0.90625q0 0.53125 0.40625 0.9375q0.40625 0.390625 1.015625 0.390625q0.703125 0 1.328125 -0.46875q0.46875 -0.34375 0.609375 -0.84375q0.09375 -0.328125 0.09375 -1.25l0 -0.5zm13.844482 4.640625l-2.5625 0l0 -4.9375q0 -1.5625 -0.171875 -2.015625q-0.15625 -0.46875 -0.53125 -0.71875q-0.359375 -0.265625 -0.875 -0.265625q-0.671875 0 -1.203125 0.375q-0.53125 0.359375 -0.734375 0.96875q-0.1875 0.59375 -0.1875 2.21875l0 4.375l-2.546875 0l0 -9.671875l2.375 0l0 1.421875q1.265625 -1.640625 3.1875 -1.640625q0.84375 0 1.546875 0.3125q0.703125 0.296875 1.0625 0.78125q0.359375 0.46875 0.5 1.078125q0.140625 0.59375 0.140625 1.703125l0 6.015625z" fill-rule="nonzero"/><path fill="#000000" d="m55.466763 81.47511l0 -11.09375l-3.953125 0l0 -2.265625l10.609375 0l0 2.265625l-3.953125 0l0 11.09375l-2.703125 0zm15.432438 -6.8125l-2.53125 0.453125q-0.125 -0.75 -0.578125 -1.125q-0.453125 -0.390625 -1.171875 -0.390625q-0.953125 0 -1.53125 0.65625q-0.5625 0.65625 -0.5625 2.203125q0 1.734375 0.578125 2.4375q0.578125 0.703125 1.546875 0.703125q0.734375 0 1.203125 -0.40625q0.46875 -0.421875 0.65625 -1.421875l2.515625 0.421875q-0.390625 1.734375 -1.515625 2.625q-1.109375 0.875 -2.96875 0.875q-2.125 0 -3.3906288 -1.328125q-1.25 -1.34375 -1.25 -3.71875q0 -2.390625 1.265625 -3.71875q1.2656288 -1.34375 3.4218788 -1.34375q1.765625 0 2.796875 0.765625q1.046875 0.75 1.515625 2.3125z" fill-rule="nonzero"/><path fill="#000000" d="m159.29546 71.80324l0 2.03125l-1.75 0l0 3.90625q0 1.1875 0.046875 1.390625q0.046875 0.1875 0.21875 0.3125q0.1875 0.125 0.4375 0.125q0.359375 0 1.03125 -0.25l0.21875 2.0q-0.890625 0.375 -2.015625 0.375q-0.703125 0 -1.265625 -0.234375q-0.546875 -0.234375 -0.8125 -0.59375q-0.25 -0.375 -0.34375 -1.0q-0.09375 -0.453125 -0.09375 -1.8125l0 -4.21875l-1.171875 0l0 -2.03125l1.171875 0l0 -1.921875l2.578125 -1.5l0 3.421875l1.75 0zm10.212677 2.859375l-2.53125 0.453125q-0.125 -0.75 -0.578125 -1.125q-0.453125 -0.390625 -1.171875 -0.390625q-0.953125 0 -1.53125 0.65625q-0.5625 0.65625 -0.5625 2.203125q0 1.734375 0.578125 2.4375q0.578125 0.703125 1.546875 0.703125q0.734375 0 1.203125 -0.40625q0.46875 -0.421875 0.65625 -1.421875l2.515625 0.421875q-0.390625 1.734375 -1.515625 2.625q-1.109375 0.875 -2.96875 0.875q-2.125 0 -3.390625 -1.328125q-1.25 -1.34375 -1.25 -3.71875q0 -2.390625 1.265625 -3.71875q1.265625 -1.34375 3.421875 -1.34375q1.765625 0 2.796875 0.765625q1.046875 0.75 1.515625 2.3125z" fill-rule="nonzero"/><path fill="#000000" d="m248.02422 81.70949l3.3125 -13.8125l1.921875 0l-3.34375 13.8125l-1.890625 0zm10.995804 -9.90625l0 2.03125l-1.75 0l0 3.90625q0 1.1875 0.046875 1.390625q0.046875 0.1875 0.21875 0.3125q0.1875 0.125 0.4375 0.125q0.359375 0 1.03125 -0.25l0.21875 2.0q-0.890625 0.375 -2.015625 0.375q-0.703125 0 -1.265625 -0.234375q-0.546875 -0.234375 -0.8125 -0.59375q-0.25 -0.375 -0.34375 -1.0q-0.09375 -0.453125 -0.09375 -1.8125l0 -4.21875l-1.171875 0l0 -2.03125l1.171875 0l0 -1.921875l2.578125 -1.5l0 3.421875l1.75 0zm7.5130005 -5.4583282l-1.484375 0q-1.828125 -2.125 -5.75 -2.125q-2.140625 0 -3.4374847 0.515625q-1.234375 0.46875 -2.296875 1.609375l-1.484375 0q2.1875 -3.4687462 7.2343597 -3.4687462q5.03125 0 7.21875 3.4687462zm0.043426514 1.8802032l-0.34375 1.78125q-0.609375 -0.140625 -1.171875 -0.140625q-0.546875 0 -0.796875 0.265625q-0.234375 0.25 -0.234375 1.0l0 11.078125q0 1.078125 -0.1875 1.609375q-0.25 0.765625 -1.03125 1.1875q-0.703125 0.375 -1.765625 0.375q-1.09375 0 -2.140625 -0.328125l0.34375 -1.78125q0.609375 0.140625 1.171875 0.140625q0.625 0 0.859375 -0.328125q0.1875 -0.265625 0.1875 -0.921875l0 -11.078125q0 -1.078125 0.1875 -1.609375q0.25 -0.796875 1.03125 -1.203125q0.6875 -0.375 1.75 -0.375q1.09375 0 2.140625 0.328125zm-0.943573 13.484375l3.3125 -13.8125l1.921875 0l-3.34375 13.8125l-1.890625 0z" fill-rule="nonzero"/><path fill="#000000" d="m357.50433 74.66261l-2.53125 0.453125q-0.125 -0.75 -0.578125 -1.125q-0.453125 -0.390625 -1.171875 -0.390625q-0.953125 0 -1.53125 0.65625q-0.5625 0.65625 -0.5625 2.203125q0 1.734375 0.578125 2.4375q0.578125 0.703125 1.546875 0.703125q0.734375 0 1.203125 -0.40625q0.46875 -0.421875 0.65625 -1.421875l2.515625 0.421875q-0.390625 1.734375 -1.515625 2.625q-1.109375 0.875 -2.96875 0.875q-2.125 0 -3.390625 -1.328125q-1.25 -1.34375 -1.25 -3.71875q0 -2.390625 1.265625 -3.71875q1.265625 -1.34375 3.421875 -1.34375q1.765625 0 2.796875 0.765625q1.046875 0.75 1.515625 2.3125zm4.485077 -6.546875l0 4.921875q1.234375 -1.453125 2.953125 -1.453125q0.890625 0 1.59375 0.328125q0.71875 0.328125 1.078125 0.84375q0.359375 0.5 0.484375 1.125q0.140625 0.609375 0.140625 1.921875l0 5.671875l-2.5625 0l0 -5.109375q0 -1.515625 -0.15625 -1.921875q-0.140625 -0.421875 -0.515625 -0.65625q-0.359375 -0.25 -0.90625 -0.25q-0.640625 0 -1.140625 0.3125q-0.5 0.3125 -0.734375 0.9375q-0.234375 0.625 -0.234375 1.84375l0 4.84375l-2.5625 0l0 -13.359375l2.5625 0z" fill-rule="nonzero"/><path fill="#000000" d="m455.74982 74.66261l-2.53125 0.453125q-0.125 -0.75 -0.578125 -1.125q-0.453125 -0.390625 -1.171875 -0.390625q-0.953125 0 -1.53125 0.65625q-0.5625 0.65625 -0.5625 2.203125q0 1.734375 0.578125 2.4375q0.578125 0.703125 1.546875 0.703125q0.734375 0 1.203125 -0.40625q0.46875 -0.421875 0.65625 -1.421875l2.515625 0.421875q-0.390625 1.734375 -1.515625 2.625q-1.109375 0.875 -2.96875 0.875q-2.125 0 -3.390625 -1.328125q-1.25 -1.34375 -1.25 -3.71875q0 -2.390625 1.265625 -3.71875q1.265625 -1.34375 3.421875 -1.34375q1.765625 0 2.796875 0.765625q1.046875 0.75 1.515625 2.3125zm7.531952 3.734375l2.546875 0.421875q-0.484375 1.40625 -1.546875 2.140625q-1.0625 0.734375 -2.65625 0.734375q-2.515625 0 -3.734375 -1.65625q-0.953125 -1.3125 -0.953125 -3.328125q0 -2.40625 1.25 -3.765625q1.265625 -1.359375 3.1875 -1.359375q2.15625 0 3.40625 1.421875q1.25 1.421875 1.1875 4.375l-6.40625 0q0.03125 1.140625 0.609375 1.78125q0.59375 0.625 1.484375 0.625q0.59375 0 1.0 -0.328125q0.421875 -0.328125 0.625 -1.0625zm0.15625 -2.59375q-0.03125 -1.109375 -0.578125 -1.6875q-0.546875 -0.578125 -1.328125 -0.578125q-0.84375 0 -1.390625 0.609375q-0.546875 0.609375 -0.53125 1.65625l3.828125 0zm4.5632324 3.109375l2.546875 0l0 1.828125q0 1.109375 -0.1875 1.75q-0.1875 0.65625 -0.71875 1.15625q-0.53125 0.515625 -1.359375 0.8125l-0.5 -1.0625q0.78125 -0.25 1.109375 -0.703125q0.328125 -0.4375 0.34375 -1.21875l-1.234375 0l0 -2.5625zm18.866577 -4.25l-2.53125 0.453125q-0.125 -0.75 -0.578125 -1.125q-0.453125 -0.390625 -1.171875 -0.390625q-0.953125 0 -1.53125 0.65625q-0.5625 0.65625 -0.5625 2.203125q0 1.734375 0.578125 2.4375q0.578125 0.703125 1.546875 0.703125q0.734375 0 1.203125 -0.40625q0.46875 -0.421875 0.65625 -1.421875l2.515625 0.421875q-0.390625 1.734375 -1.515625 2.625q-1.109375 0.875 -2.96875 0.875q-2.125 0 -3.390625 -1.328125q-1.25 -1.34375 -1.25 -3.71875q0 -2.390625 1.265625 -3.71875q1.265625 -1.34375 3.421875 -1.34375q1.765625 0 2.796875 0.765625q1.046875 0.75 1.515625 2.3125zm1.9382324 -4.171875l0 -2.375l2.5625 0l0 2.375l-2.5625 0zm0 10.984375l0 -9.671875l2.5625 0l0 9.671875l-2.5625 0z" fill-rule="nonzero"/><path fill="#000000" d="m53.31615 109.31259l4.9375 0q1.65625 0 2.53125 0.265625q1.1875 0.34375 2.015625 1.234375q0.84375 0.875 1.2812538 2.15625q0.4375 1.28125 0.4375 3.15625q0 1.640625 -0.40625 2.84375q-0.5000038 1.453125 -1.4375038 2.359375q-0.703125 0.671875 -1.890625 1.0625q-0.890625 0.28125 -2.390625 0.28125l-5.078125 0l0 -13.359375zm2.703125 2.265625l0 8.84375l2.015625 0q1.125 0 1.625 -0.125q0.65625 -0.171875 1.078125 -0.5625q0.4375 -0.390625 0.703125 -1.28125q0.28125 -0.90625 0.28125 -2.453125q0 -1.546875 -0.28125 -2.375q-0.265625 -0.828125 -0.765625 -1.28125q-0.484375 -0.46875 -1.234375 -0.640625q-0.5625 -0.125 -2.21875 -0.125l-1.203125 0zm10.707325 0.109375l0 -2.375l2.5625 0l0 2.375l-2.5625 0zm2.5625 1.3125l0 9.375q0 1.84375 -0.25 2.59375q-0.234375 0.765625 -0.921875 1.1875q-0.6875 0.4375 -1.75 0.4375q-0.390625 0 -0.828125 -0.0625q-0.4375 -0.0625 -0.953125 -0.203125l0.453125 -2.1875q0.171875 0.03125 0.34375 0.046875q0.15625 0.03125 0.296875 0.03125q0.390625 0 0.640625 -0.171875q0.25 -0.15625 0.328125 -0.40625q0.078125 -0.234375 0.078125 -1.421875l0 -9.21875l2.5625 0z" fill-rule="nonzero"/><path fill="#000000" d="m163.7375 122.67197l-2.390625 0l0 -1.421875q-0.59375 0.828125 -1.40625 1.234375q-0.796875 0.40625 -1.609375 0.40625q-1.671875 0 -2.859375 -1.34375q-1.1875 -1.34375 -1.1875 -3.75q0 -2.453125 1.15625 -3.734375q1.15625 -1.28125 2.921875 -1.28125q1.625 0 2.8125 1.34375l0 -4.8125l2.5625 0l0 13.359375zm-6.84375 -5.046875q0 1.546875 0.4375 2.234375q0.609375 1.015625 1.71875 1.015625q0.890625 0 1.5 -0.75q0.625 -0.765625 0.625 -2.25q0 -1.671875 -0.609375 -2.40625q-0.59375 -0.734375 -1.53125 -0.734375q-0.90625 0 -1.53125 0.734375q-0.609375 0.71875 -0.609375 2.15625zm9.302231 -5.9375l0 -2.375l2.5625 0l0 2.375l-2.5625 0zm2.5625 1.3125l0 9.375q0 1.84375 -0.25 2.59375q-0.234375 0.765625 -0.921875 1.1875q-0.6875 0.4375 -1.75 0.4375q-0.390625 0 -0.828125 -0.0625q-0.4375 -0.0625 -0.953125 -0.203125l0.453125 -2.1875q0.171875 0.03125 0.34375 0.046875q0.15625 0.03125 0.296875 0.03125q0.390625 0 0.640625 -0.171875q0.25 -0.15625 0.328125 -0.40625q0.078125 -0.234375 0.078125 -1.421875l0 -9.21875l2.5625 0z" fill-rule="nonzero"/><path fill="#000000" d="m243.62888 122.90634l3.3125 -13.8125l1.921875 0l-3.34375 13.8125l-1.890625 0zm15.433319 -0.234375l-2.390625 0l0 -1.421875q-0.59375 0.828125 -1.4062653 1.234375q-0.796875 0.40625 -1.609375 0.40625q-1.671875 0 -2.859375 -1.34375q-1.1875 -1.34375 -1.1875 -3.75q0 -2.453125 1.15625 -3.734375q1.15625 -1.28125 2.921875 -1.28125q1.625 0 2.8125153 1.34375l0 -4.8125l2.5625 0l0 13.359375zm-6.8437653 -5.046875q0 1.546875 0.4375 2.234375q0.609375 1.015625 1.71875 1.015625q0.890625 0 1.5 -0.75q0.62501526 -0.765625 0.62501526 -2.25q0 -1.671875 -0.60939026 -2.40625q-0.59375 -0.734375 -1.53125 -0.734375q-0.90625 0 -1.53125 0.734375q-0.609375 0.71875 -0.609375 2.15625zm15.105484 -10.083328l-1.484375 0q-1.828125 -2.125 -5.75 -2.125q-2.140625 0 -3.4375 0.515625q-1.2343903 0.46875 -2.2968903 1.609375l-1.484375 0q2.1875 -3.46875 7.2343903 -3.46875q5.03125 0 7.21875 3.46875zm2.3529968 14.286453q0 2.171875 -1.171875 3.4375q-1.234375 1.328125 -3.46875 1.328125q-3.6875 0 -4.484375 -3.5l2.515625 -0.421875q0.34375 1.84375 1.84375 1.84375q2.140625 0 2.140625 -2.8125q0 -1.046875 -0.59375 -1.6875q-0.65625 -0.703125 -1.875 -0.703125l-0.90625 0l0 -1.5l2.671875 -2.75q-0.71875 0.0625 -1.171875 0.0625l-3.78125 0l0 -2.125l8.0 0l0 1.8125l-2.84375 3.0q1.171875 0.171875 1.984375 0.953125q1.140625 1.09375 1.140625 3.0625zm0.35128784 1.078125l3.3125 -13.8125l1.921875 0l-3.34375 13.8125l-1.890625 0z" fill-rule="nonzero"/><path fill="#000000" d="m351.42865 123.31259l2.921875 0.359375q0.0625 0.5 0.328125 0.6875q0.375 0.28125 1.15625 0.28125q1.0 0 1.5 -0.296875q0.328125 -0.203125 0.515625 -0.65625q0.109375 -0.3125 0.109375 -1.171875l0 -1.40625q-1.140625 1.5625 -2.890625 1.5625q-1.953125 0 -3.09375 -1.65625q-0.890625 -1.296875 -0.890625 -3.234375q0 -2.4375 1.171875 -3.71875q1.171875 -1.28125 2.90625 -1.28125q1.796875 0 2.96875 1.578125l0 -1.359375l2.390625 0l0 8.671875q0 1.71875 -0.28125 2.5625q-0.28125 0.84375 -0.796875 1.328125q-0.5 0.484375 -1.359375 0.75q-0.84375 0.28125 -2.15625 0.28125q-2.453125 0 -3.484375 -0.84375q-1.03125 -0.84375 -1.03125 -2.125q0 -0.140625 0.015625 -0.3125zm2.28125 -5.671875q0 1.53125 0.59375 2.25q0.59375 0.71875 1.46875 0.71875q0.9375 0 1.578125 -0.734375q0.65625 -0.734375 0.65625 -2.171875q0 -1.515625 -0.625 -2.234375q-0.609375 -0.734375 -1.5625 -0.734375q-0.921875 0 -1.515625 0.71875q-0.59375 0.71875 -0.59375 2.1875zm9.349121 -5.953125l0 -2.375l2.5625 0l0 2.375l-2.5625 0zm0 10.984375l0 -9.671875l2.5625 0l0 9.671875l-2.5625 0z" fill-rule="nonzero"/><path fill="#000000" d="m446.05768 123.31259l2.921875 0.359375q0.0625 0.5 0.328125 0.6875q0.375 0.28125 1.15625 0.28125q1.0 0 1.5 -0.296875q0.328125 -0.203125 0.515625 -0.65625q0.109375 -0.3125 0.109375 -1.171875l0 -1.40625q-1.140625 1.5625 -2.890625 1.5625q-1.953125 0 -3.09375 -1.65625q-0.890625 -1.296875 -0.890625 -3.234375q0 -2.4375 1.171875 -3.71875q1.171875 -1.28125 2.90625 -1.28125q1.796875 0 2.96875 1.578125l0 -1.359375l2.390625 0l0 8.671875q0 1.71875 -0.28125 2.5625q-0.28125 0.84375 -0.796875 1.328125q-0.5 0.484375 -1.359375 0.75q-0.84375 0.28125 -2.15625 0.28125q-2.453125 0 -3.484375 -0.84375q-1.03125 -0.84375 -1.03125 -2.125q0 -0.140625 0.015625 -0.3125zm2.28125 -5.671875q0 1.53125 0.59375 2.25q0.59375 0.71875 1.46875 0.71875q0.9375 0 1.578125 -0.734375q0.65625 -0.734375 0.65625 -2.171875q0 -1.515625 -0.625 -2.234375q-0.609375 -0.734375 -1.5625 -0.734375q-0.921875 0 -1.515625 0.71875q-0.59375 0.71875 -0.59375 2.1875zm14.942841 1.953125l2.546875 0.421875q-0.484375 1.40625 -1.546875 2.140625q-1.0625 0.734375 -2.65625 0.734375q-2.515625 0 -3.734375 -1.65625q-0.953125 -1.3125 -0.953125 -3.328125q0 -2.40625 1.25 -3.765625q1.265625 -1.359375 3.1875 -1.359375q2.15625 0 3.40625 1.421875q1.25 1.421875 1.1875 4.375l-6.40625 0q0.03125 1.140625 0.609375 1.78125q0.59375 0.625 1.484375 0.625q0.59375 0 1.0 -0.328125q0.421875 -0.328125 0.625 -1.0625zm0.15625 -2.59375q-0.03125 -1.109375 -0.578125 -1.6875q-0.546875 -0.578125 -1.328125 -0.578125q-0.84375 0 -1.390625 0.609375q-0.546875 0.609375 -0.53125 1.65625l3.828125 0zm4.5632324 3.109375l2.546875 0l0 1.828125q0 1.109375 -0.1875 1.75q-0.1875 0.65625 -0.71875 1.15625q-0.53125 0.515625 -1.359375 0.8125l-0.5 -1.0625q0.78125 -0.25 1.109375 -0.703125q0.328125 -0.4375 0.34375 -1.21875l-1.234375 0l0 -2.5625zm10.194702 3.203125l2.921875 0.359375q0.0625 0.5 0.328125 0.6875q0.375 0.28125 1.15625 0.28125q1.0 0 1.5 -0.296875q0.328125 -0.203125 0.515625 -0.65625q0.109375 -0.3125 0.109375 -1.171875l0 -1.40625q-1.140625 1.5625 -2.890625 1.5625q-1.953125 0 -3.09375 -1.65625q-0.890625 -1.296875 -0.890625 -3.234375q0 -2.4375 1.171875 -3.71875q1.171875 -1.28125 2.90625 -1.28125q1.796875 0 2.96875 1.578125l0 -1.359375l2.390625 0l0 8.671875q0 1.71875 -0.28125 2.5625q-0.28125 0.84375 -0.796875 1.328125q-0.5 0.484375 -1.359375 0.75q-0.84375 0.28125 -2.15625 0.28125q-2.453125 0 -3.484375 -0.84375q-1.03125 -0.84375 -1.03125 -2.125q0 -0.140625 0.015625 -0.3125zm2.28125 -5.671875q0 1.53125 0.59375 2.25q0.59375 0.71875 1.46875 0.71875q0.9375 0 1.578125 -0.734375q0.65625 -0.734375 0.65625 -2.171875q0 -1.515625 -0.625 -2.234375q-0.609375 -0.734375 -1.5625 -0.734375q-0.921875 0 -1.515625 0.71875q-0.59375 0.71875 -0.59375 2.1875zm9.349121 -5.953125l0 -2.375l2.5625 0l0 2.375l-2.5625 0zm0 10.984375l0 -9.671875l2.5625 0l0 9.671875l-2.5625 0z" fill-rule="nonzero"/><path fill="#000000" d="m55.466763 163.86882l0 -11.09375l-3.953125 0l0 -2.265625l10.609375 0l0 2.265625l-3.953125 0l0 11.09375l-2.703125 0zm6.088684 -2.765625l2.5625038 -0.390625q0.171875 0.75 0.671875 1.140625q0.5 0.390625 1.40625 0.390625q0.984375 0 1.484375 -0.375q0.34375 -0.25 0.34375 -0.671875q0 -0.296875 -0.1875 -0.484375q-0.1875 -0.1875 -0.859375 -0.34375q-3.0937538 -0.6875 -3.9218788 -1.25q-1.140625 -0.78125 -1.140625 -2.171875q0 -1.265625 0.984375 -2.109375q1.0 -0.859375 3.0781288 -0.859375q1.984375 0 2.953125 0.65625q0.96875 0.640625 1.328125 1.90625l-2.40625 0.4375q-0.15625 -0.5625 -0.59375 -0.859375q-0.421875 -0.296875 -1.234375 -0.296875q-1.0 0 -1.4375 0.28125q-0.296875 0.203125 -0.296875 0.515625q0 0.265625 0.25 0.46875q0.34375 0.25 2.390625 0.71875q2.046875 0.453125 2.859375 1.140625q0.796875 0.671875 0.796875 1.890625q0 1.34375 -1.109375 2.296875q-1.109375 0.953125 -3.28125 0.953125q-1.984375 0 -3.1406288 -0.796875q-1.140625 -0.8125 -1.5 -2.1875z" fill-rule="nonzero"/><path fill="#000000" d="m159.29546 154.19695l0 2.03125l-1.75 0l0 3.90625q0 1.1875 0.046875 1.390625q0.046875 0.1875 0.21875 0.3125q0.1875 0.125 0.4375 0.125q0.359375 0 1.03125 -0.25l0.21875 2.0q-0.890625 0.375 -2.015625 0.375q-0.703125 0 -1.265625 -0.234375q-0.546875 -0.234375 -0.8125 -0.59375q-0.25 -0.375 -0.34375 -1.0q-0.09375 -0.453125 -0.09375 -1.8125l0 -4.21875l-1.171875 0l0 -2.03125l1.171875 0l0 -1.921875l2.578125 -1.5l0 3.421875l1.75 0zm0.868927 6.90625l2.5625 -0.390625q0.171875 0.75 0.671875 1.140625q0.5 0.390625 1.40625 0.390625q0.984375 0 1.484375 -0.375q0.34375 -0.25 0.34375 -0.671875q0 -0.296875 -0.1875 -0.484375q-0.1875 -0.1875 -0.859375 -0.34375q-3.09375 -0.6875 -3.921875 -1.25q-1.140625 -0.78125 -1.140625 -2.171875q0 -1.265625 0.984375 -2.109375q1.0 -0.859375 3.078125 -0.859375q1.984375 0 2.953125 0.65625q0.96875 0.640625 1.328125 1.90625l-2.40625 0.4375q-0.15625 -0.5625 -0.59375 -0.859375q-0.421875 -0.296875 -1.234375 -0.296875q-1.0 0 -1.4375 0.28125q-0.296875 0.203125 -0.296875 0.515625q0 0.265625 0.25 0.46875q0.34375 0.25 2.390625 0.71875q2.046875 0.453125 2.859375 1.140625q0.796875 0.671875 0.796875 1.890625q0 1.34375 -1.109375 2.296875q-1.109375 0.953125 -3.28125 0.953125q-1.984375 0 -3.140625 -0.796875q-1.140625 -0.8125 -1.5 -2.1875z" fill-rule="nonzero"/><path fill="#000000" d="m245.94269 164.1032l3.3125 -13.8125l1.921875 0l-3.34375 13.8125l-1.890625 0zm10.995819 -9.90625l0 2.03125l-1.7500153 0l0 3.90625q0 1.1875 0.046875 1.390625q0.046875 0.1875 0.21875 0.3125q0.1875 0.125 0.4375 0.125q0.35939026 0 1.0312653 -0.25l0.21875 2.0q-0.890625 0.375 -2.0156403 0.375q-0.703125 0 -1.265625 -0.234375q-0.546875 -0.234375 -0.8125 -0.59375q-0.25 -0.375 -0.34375 -1.0q-0.09375 -0.453125 -0.09375 -1.8125l0 -4.21875l-1.171875 0l0 -2.03125l1.171875 0l0 -1.921875l2.578125 -1.5l0 3.421875l1.7500153 0zm7.5130005 -5.4583282l-1.484375 0q-1.828125 -2.125 -5.75 -2.125q-2.140625 0 -3.4375 0.515625q-1.234375 0.46875 -2.296875 1.609375l-1.484375 0q2.1875 -3.46875 7.234375 -3.46875q5.03125 0 7.21875 3.46875zm-6.6440735 12.364578l2.5625 -0.390625q0.171875 0.75 0.671875 1.140625q0.5 0.390625 1.40625 0.390625q0.984375 0 1.484375 -0.375q0.34375 -0.25 0.34375 -0.671875q0 -0.296875 -0.1875 -0.484375q-0.1875 -0.1875 -0.859375 -0.34375q-3.09375 -0.6875 -3.921875 -1.25q-1.140625 -0.78125 -1.140625 -2.171875q0 -1.265625 0.984375 -2.109375q1.0 -0.859375 3.078125 -0.859375q1.984375 0 2.953125 0.65625q0.96875 0.640625 1.328125 1.90625l-2.40625 0.4375q-0.15625 -0.5625 -0.59375 -0.859375q-0.421875 -0.296875 -1.234375 -0.296875q-1.0 0 -1.4375 0.28125q-0.296875 0.203125 -0.296875 0.515625q0 0.265625 0.25 0.46875q0.34375 0.25 2.390625 0.71875q2.046875 0.453125 2.859375 1.140625q0.796875 0.671875 0.796875 1.890625q0 1.34375 -1.109375 2.296875q-1.109375 0.953125 -3.28125 0.953125q-1.984375 0 -3.140625 -0.796875q-1.140625 -0.8125 -1.5 -2.1875zm9.906952 3.0l3.3125 -13.8125l1.921875 0l-3.34375 13.8125l-1.890625 0z" fill-rule="nonzero"/><path fill="#000000" d="m349.5933 163.86882l0 -2.0l3.625 -4.15625q0.890625 -1.015625 1.3125 -1.453125q-0.4375 0.03125 -1.171875 0.046875l-3.40625 0.015625l0 -2.125l7.984375 0l0 1.8125l-3.6875 4.265625l-1.3125 1.40625q1.078125 -0.0625 1.328125 -0.0625l3.96875 0l0 2.25l-8.640625 0zm9.328125 0l0 -2.0l3.625 -4.15625q0.890625 -1.015625 1.3125 -1.453125q-0.4375 0.03125 -1.171875 0.046875l-3.40625 0.015625l0 -2.125l7.984375 0l0 1.8125l-3.6875 4.265625l-1.3125 1.40625q1.078125 -0.0625 1.328125 -0.0625l3.96875 0l0 2.25l-8.640625 0z" fill-rule="nonzero"/><path fill="#000000" d="m471.982 154.19695l0 2.03125l-1.75 0l0 3.90625q0 1.1875 0.046875 1.390625q0.046875 0.1875 0.21875 0.3125q0.1875 0.125 0.4375 0.125q0.359375 0 1.03125 -0.25l0.21875 2.0q-0.890625 0.375 -2.015625 0.375q-0.703125 0 -1.265625 -0.234375q-0.546875 -0.234375 -0.8125 -0.59375q-0.25 -0.375 -0.34375 -1.0q-0.09375 -0.453125 -0.09375 -1.8125l0 -4.21875l-1.171875 0l0 -2.03125l1.171875 0l0 -1.921875l2.578125 -1.5l0 3.421875l1.75 0zm-3.40625 10.703125l2.71875 0l0 0.8125q0 1.078125 -0.1875 1.625q-0.1875 0.5625 -0.734375 1.0q-0.546875 0.4375 -1.484375 0.6875l-0.328125 -1.21875q1.21875 -0.328125 1.21875 -1.234375l-1.203125 0l0 -1.671875z" fill-rule="nonzero"/><path fill="#000000" d="m55.90932 200.15942l0 -2.25l5.8125 0l0 5.3125q-0.84375 0.828125 -2.453125 1.453125q-1.609375 0.625 -3.25 0.625q-2.09375 0 -3.65625 -0.875q-1.5625 -0.890625 -2.34375 -2.515625q-0.78125 -1.640625 -0.78125 -3.5625q0 -2.09375 0.875 -3.703125q0.875 -1.625 2.5625 -2.5q1.28125 -0.65625 3.203125 -0.65625q2.484375 0 3.875 1.046875q1.40625 1.03125 1.796875 2.875l-2.671875 0.5q-0.28125 -0.984375 -1.0625 -1.546875q-0.78125 -0.578125 -1.9375 -0.578125q-1.78125 0 -2.828125 1.125q-1.03125 1.125 -1.03125 3.328125q0 2.375 1.046875 3.5625q1.0625 1.1875 2.78125 1.1875q0.84375 0 1.6875 -0.328125q0.859375 -0.328125 1.46875 -0.8125l0 -1.6875l-3.09375 0zm17.089558 4.90625l-2.5625 0l0 -4.9375q0 -1.5625 -0.171875 -2.015625q-0.15625 -0.46875 -0.53125 -0.71875q-0.359375 -0.265625 -0.875 -0.265625q-0.671875 0 -1.203125 0.375q-0.53125 0.359375 -0.734375 0.96875q-0.1875 0.59375 -0.1875 2.21875l0 4.375l-2.546875 0l0 -9.671875l2.375 0l0 1.421875q1.265625 -1.640625 3.1875 -1.640625q0.84375 0 1.546875 0.3125q0.703125 0.296875 1.0625 0.78125q0.359375 0.46875 0.5 1.078125q0.140625 0.59375 0.140625 1.703125l0 6.015625z" fill-rule="nonzero"/><path fill="#000000" d="m151.52179 205.7063l2.921875 0.359375q0.0625 0.5 0.328125 0.6875q0.375 0.28125 1.15625 0.28125q1.0 0 1.5 -0.296875q0.328125 -0.203125 0.515625 -0.65625q0.109375 -0.3125 0.109375 -1.171875l0 -1.40625q-1.140625 1.5625 -2.890625 1.5625q-1.953125 0 -3.09375 -1.65625q-0.890625 -1.296875 -0.890625 -3.234375q0 -2.4375 1.171875 -3.71875q1.171875 -1.28125 2.90625 -1.28125q1.796875 0 2.96875 1.578125l0 -1.359375l2.390625 0l0 8.671875q0 1.71875 -0.28125 2.5625q-0.28125 0.84375 -0.796875 1.328125q-0.5 0.484375 -1.359375 0.75q-0.84375 0.28125 -2.15625 0.28125q-2.453125 0 -3.484375 -0.84375q-1.03125 -0.84375 -1.03125 -2.125q0 -0.140625 0.015625 -0.3125zm2.28125 -5.671875q0 1.53125 0.59375 2.25q0.59375 0.71875 1.46875 0.71875q0.9375 0 1.578125 -0.734375q0.65625 -0.734375 0.65625 -2.171875q0 -1.515625 -0.625 -2.234375q-0.609375 -0.734375 -1.5625 -0.734375q-0.921875 0 -1.515625 0.71875q-0.59375 0.71875 -0.59375 2.1875zm18.14598 5.03125l-2.5625 0l0 -4.9375q0 -1.5625 -0.171875 -2.015625q-0.15625 -0.46875 -0.53125 -0.71875q-0.359375 -0.265625 -0.875 -0.265625q-0.671875 0 -1.203125 0.375q-0.53125 0.359375 -0.734375 0.96875q-0.1875 0.59375 -0.1875 2.21875l0 4.375l-2.546875 0l0 -9.671875l2.375 0l0 1.421875q1.265625 -1.640625 3.1875 -1.640625q0.84375 0 1.546875 0.3125q0.703125 0.296875 1.0625 0.78125q0.359375 0.46875 0.5 1.078125q0.140625 0.59375 0.140625 1.703125l0 6.015625z" fill-rule="nonzero"/><path fill="#24292e" d="m248.5389 203.30005l3.3125 -13.8125l1.921875 0l-3.34375 13.8125l-1.890625 0zm10.620804 3.421875l0.46875 -2.25q0.46875 0.140625 0.78125 0.140625q0.5 0 0.6875 -0.375q0.203125 -0.359375 0.203125 -1.234375l0 -4.875q0 -1.296875 -0.109375 -1.8125q-0.09375 -0.53125 -0.5 -0.859375q-0.390625 -0.328125 -0.984375 -0.328125q-0.640625 0 -1.203125 0.390625q-0.5625 0.390625 -0.734375 1.0625q-0.15625 0.65625 -0.15625 2.109375l0 4.375l-2.5625 0l0 -9.671875l2.375 0l0 1.421875q1.265625 -1.640625 3.203125 -1.640625q1.125 0 1.890625 0.484375q0.765625 0.484375 1.046875 1.234375q0.296875 0.75 0.296875 2.15625l0 5.53125q0 1.875 -0.1875 2.671875q-0.171875 0.796875 -0.921875 1.28125q-0.734375 0.5 -1.9375 0.5q-0.71875 0 -1.65625 -0.3125zm5.958496 -3.421875l3.3125 -13.8125l1.921875 0l-3.34375 13.8125l-1.890625 0z" fill-rule="nonzero"/><path fill="#000000" d="m348.32233 205.7063l2.921875 0.359375q0.0625 0.5 0.328125 0.6875q0.375 0.28125 1.15625 0.28125q1.0 0 1.5 -0.296875q0.328125 -0.203125 0.515625 -0.65625q0.109375 -0.3125 0.109375 -1.171875l0 -1.40625q-1.140625 1.5625 -2.890625 1.5625q-1.953125 0 -3.09375 -1.65625q-0.890625 -1.296875 -0.890625 -3.234375q0 -2.4375 1.171875 -3.71875q1.171875 -1.28125 2.90625 -1.28125q1.796875 0 2.96875 1.578125l0 -1.359375l2.390625 0l0 8.671875q0 1.71875 -0.28125 2.5625q-0.28125 0.84375 -0.796875 1.328125q-0.5 0.484375 -1.359375 0.75q-0.84375 0.28125 -2.15625 0.28125q-2.453125 0 -3.484375 -0.84375q-1.03125 -0.84375 -1.03125 -2.125q0 -0.140625 0.015625 -0.3125zm2.28125 -5.671875q0 1.53125 0.59375 2.25q0.59375 0.71875 1.46875 0.71875q0.9375 0 1.578125 -0.734375q0.65625 -0.734375 0.65625 -2.171875q0 -1.515625 -0.625 -2.234375q-0.609375 -0.734375 -1.5625 -0.734375q-0.921875 0 -1.515625 0.71875q-0.59375 0.71875 -0.59375 2.1875zm18.145966 5.03125l-2.5625 0l0 -4.9375q0 -1.5625 -0.171875 -2.015625q-0.15625 -0.46875 -0.53125 -0.71875q-0.359375 -0.265625 -0.875 -0.265625q-0.671875 0 -1.203125 0.375q-0.53125 0.359375 -0.734375 0.96875q-0.1875 0.59375 -0.1875 2.21875l0 4.375l-2.546875 0l0 -9.671875l2.375 0l0 1.421875q1.265625 -1.640625 3.1875 -1.640625q0.84375 0 1.546875 0.3125q0.703125 0.296875 1.0625 0.78125q0.359375 0.46875 0.5 1.078125q0.140625 0.59375 0.140625 1.703125l0 6.015625z" fill-rule="nonzero"/><path fill="#000000" d="m459.02048 205.7063l2.921875 0.359375q0.0625 0.5 0.328125 0.6875q0.375 0.28125 1.15625 0.28125q1.0 0 1.5 -0.296875q0.328125 -0.203125 0.515625 -0.65625q0.109375 -0.3125 0.109375 -1.171875l0 -1.40625q-1.140625 1.5625 -2.890625 1.5625q-1.953125 0 -3.09375 -1.65625q-0.890625 -1.296875 -0.890625 -3.234375q0 -2.4375 1.171875 -3.71875q1.171875 -1.28125 2.90625 -1.28125q1.796875 0 2.96875 1.578125l0 -1.359375l2.390625 0l0 8.671875q0 1.71875 -0.28125 2.5625q-0.28125 0.84375 -0.796875 1.328125q-0.5 0.484375 -1.359375 0.75q-0.84375 0.28125 -2.15625 0.28125q-2.453125 0 -3.484375 -0.84375q-1.03125 -0.84375 -1.03125 -2.125q0 -0.140625 0.015625 -0.3125zm2.28125 -5.671875q0 1.53125 0.59375 2.25q0.59375 0.71875 1.46875 0.71875q0.9375 0 1.578125 -0.734375q0.65625 -0.734375 0.65625 -2.171875q0 -1.515625 -0.625 -2.234375q-0.609375 -0.734375 -1.5625 -0.734375q-0.921875 0 -1.515625 0.71875q-0.59375 0.71875 -0.59375 2.1875zm18.145966 5.03125l-2.5625 0l0 -4.9375q0 -1.5625 -0.171875 -2.015625q-0.15625 -0.46875 -0.53125 -0.71875q-0.359375 -0.265625 -0.875 -0.265625q-0.671875 0 -1.2030945 0.375q-0.53125 0.359375 -0.734375 0.96875q-0.1875 0.59375 -0.1875 2.21875l0 4.375l-2.546875 0l0 -9.671875l2.375 0l0 1.421875q1.265625 -1.640625 3.1874695 -1.640625q0.84375 0 1.546875 0.3125q0.703125 0.296875 1.0625 0.78125q0.359375 0.46875 0.5 1.078125q0.140625 0.59375 0.140625 1.703125l0 6.015625z" fill-rule="nonzero"/></g></svg>