<svg version="1.1" viewBox="0.0 0.0 522.9343832020998 330.23359580052494" fill="none" stroke="none" stroke-linecap="square" stroke-miterlimit="10" xmlns:xlink="http://www.w3.org/1999/xlink" xmlns="http://www.w3.org/2000/svg"><clipPath id="p.0"><path d="m0 0l522.9344 0l0 330.23358l-522.9344 0l0 -330.23358z" clip-rule="nonzero"/></clipPath><g clip-path="url(#p.0)"><path fill="#000000" fill-opacity="0.0" d="m0 0l522.9344 0l0 330.23358l-522.9344 0z" fill-rule="evenodd"/><path shape-rendering="crispEdges" fill="#38761d" d="m9.910761 10.845144l74.0 0l0 26.000002l-74.0 0l0 -26.000002z" fill-rule="nonzero"/><path shape-rendering="crispEdges" fill="#38761d" d="m83.91076 10.845144l98.00001 0l0 26.000002l-98.00001 0l0 -26.000002z" fill-rule="nonzero"/><path shape-rendering="crispEdges" fill="#38761d" d="m181.91077 10.845144l98.0 0l0 26.000002l-98.0 0l0 -26.000002z" fill-rule="nonzero"/><path shape-rendering="crispEdges" fill="#38761d" d="m279.91077 10.845144l116.0 0l0 26.000002l-116.0 0l0 -26.000002z" fill-rule="nonzero"/><path shape-rendering="crispEdges" fill="#38761d" d="m395.91077 10.845144l116.0 0l0 26.000002l-116.0 0l0 -26.000002z" fill-rule="nonzero"/><path shape-rendering="crispEdges" fill="#38761d" d="m9.910761 36.845146l74.0 0l0 26.0l-74.0 0l0 -26.0z" fill-rule="nonzero"/><path shape-rendering="crispEdges" fill="#38761d" d="m9.910761 62.845146l74.0 0l0 26.0l-74.0 0l0 -26.0z" fill-rule="nonzero"/><path shape-rendering="crispEdges" fill="#38761d" d="m9.910761 88.845146l74.0 0l0 26.0l-74.0 0l0 -26.0z" fill-rule="nonzero"/><path shape-rendering="crispEdges" fill="#38761d" d="m9.910761 114.845146l74.0 0l0 25.999992l-74.0 0l0 -25.999992z" fill-rule="nonzero"/><path shape-rendering="crispEdges" fill="#38761d" d="m9.910761 140.84514l74.0 0l0 26.0l-74.0 0l0 -26.0z" fill-rule="nonzero"/><path shape-rendering="crispEdges" fill="#38761d" d="m9.910761 166.84514l74.0 0l0 26.0l-74.0 0l0 -26.0z" fill-rule="nonzero"/><path shape-rendering="crispEdges" fill="#38761d" d="m9.910761 192.84514l74.0 0l0 26.0l-74.0 0l0 -26.0z" fill-rule="nonzero"/><path shape-rendering="crispEdges" fill="#38761d" d="m9.910761 218.84514l74.0 0l0 26.0l-74.0 0l0 -26.0z" fill-rule="nonzero"/><path shape-rendering="crispEdges" fill="#38761d" d="m9.910761 244.84514l74.0 0l0 26.000015l-74.0 0l0 -26.000015z" fill-rule="nonzero"/><path shape-rendering="crispEdges" fill="#38761d" d="m9.910761 270.84515l74.0 0l0 26.0l-74.0 0l0 -26.0z" fill-rule="nonzero"/><path shape-rendering="crispEdges" fill="#38761d" d="m9.910761 296.84515l74.0 0l0 26.0l-74.0 0l0 -26.0z" fill-rule="nonzero"/><path stroke="#cccccc" stroke-width="1.0" stroke-linecap="butt" d="m9.910761 10.346457l0 312.99738" fill-rule="nonzero"/><path stroke="#cccccc" stroke-width="1.0" stroke-linecap="butt" d="m83.91076 10.346457l0 312.99738" fill-rule="nonzero"/><path stroke="#cccccc" stroke-width="1.0" stroke-linecap="butt" d="m181.91077 10.346457l0 312.99738" fill-rule="nonzero"/><path stroke="#cccccc" stroke-width="1.0" stroke-linecap="butt" d="m279.91077 10.346457l0 312.99738" fill-rule="nonzero"/><path stroke="#cccccc" stroke-width="1.0" stroke-linecap="butt" d="m395.91077 10.346457l0 312.99738" fill-rule="nonzero"/><path stroke="#cccccc" stroke-width="1.0" stroke-linecap="butt" d="m511.91077 10.346457l0 312.99738" fill-rule="nonzero"/><path stroke="#cccccc" stroke-width="1.0" stroke-linecap="butt" d="m9.412073 10.845144l502.99734 0" fill-rule="nonzero"/><path stroke="#cccccc" stroke-width="1.0" stroke-linecap="butt" d="m9.412073 36.845146l502.99734 0" fill-rule="nonzero"/><path stroke="#cccccc" stroke-width="1.0" stroke-linecap="butt" d="m9.412073 62.845146l502.99734 0" fill-rule="nonzero"/><path stroke="#cccccc" stroke-width="1.0" stroke-linecap="butt" d="m9.412073 88.845146l502.99734 0" fill-rule="nonzero"/><path stroke="#cccccc" stroke-width="1.0" stroke-linecap="butt" d="m9.412073 114.845146l502.99734 0" fill-rule="nonzero"/><path stroke="#cccccc" stroke-width="1.0" stroke-linecap="butt" d="m9.412073 140.84514l502.99734 0" fill-rule="nonzero"/><path stroke="#cccccc" stroke-width="1.0" stroke-linecap="butt" d="m9.412073 166.84514l502.99734 0" fill-rule="nonzero"/><path stroke="#cccccc" stroke-width="1.0" stroke-linecap="butt" d="m9.412073 192.84514l502.99734 0" fill-rule="nonzero"/><path stroke="#cccccc" stroke-width="1.0" stroke-linecap="butt" d="m9.412073 218.84514l502.99734 0" fill-rule="nonzero"/><path stroke="#cccccc" stroke-width="1.0" stroke-linecap="butt" d="m9.412073 244.84514l502.99734 0" fill-rule="nonzero"/><path stroke="#cccccc" stroke-width="1.0" stroke-linecap="butt" d="m9.412073 270.84515l502.99734 0" fill-rule="nonzero"/><path stroke="#cccccc" stroke-width="1.0" stroke-linecap="butt" d="m9.412073 296.84515l502.99734 0" fill-rule="nonzero"/><path stroke="#cccccc" stroke-width="1.0" stroke-linecap="butt" d="m9.412073 322.84515l502.99734 0" fill-rule="nonzero"/><path fill="#ffffff" d="m13.488886 24.47077l2.25 -0.21875q0.203125 1.140625 0.828125 1.671875q0.625 0.53125 1.671875 0.53125q1.125 0 1.6875 -0.46875q0.5625 -0.484375 0.5625 -1.109375q0 -0.40625 -0.234375 -0.6875q-0.234375 -0.296875 -0.828125 -0.5q-0.40625 -0.140625 -1.859375 -0.5q-1.859375 -0.46875 -2.609375 -1.140625q-1.046875 -0.9375 -1.046875 -2.296875q0 -0.875 0.484375 -1.640625q0.5 -0.765625 1.4375 -1.15625q0.9375 -0.40625 2.25 -0.40625q2.15625 0 3.25 0.953125q1.09375 0.9375 1.140625 2.515625l-2.3125 0.109375q-0.140625 -0.890625 -0.640625 -1.265625q-0.484375 -0.390625 -1.453125 -0.390625q-1.015625 0 -1.578125 0.40625q-0.375 0.265625 -0.375 0.71875q0 0.40625 0.34375 0.6875q0.4375 0.375 2.125 0.78125q1.6875 0.390625 2.5 0.8125q0.8125 0.421875 1.265625 1.171875q0.453125 0.734375 0.453125 1.8125q0 0.984375 -0.546875 1.84375q-0.546875 0.859375 -1.546875 1.28125q-1.0 0.421875 -2.484375 0.421875q-2.171875 0 -3.34375 -1.0q-1.15625 -1.015625 -1.390625 -2.9375zm10.203125 -4.5625l2.34375 0l1.984375 5.890625l1.9375 -5.890625l2.265627 0l-2.921877 7.984375l-0.53125 1.453125q-0.28125 0.71875 -0.546875 1.09375q-0.265625 0.390625 -0.609375 0.625q-0.328125 0.25 -0.828125 0.375q-0.5 0.140625 -1.125 0.140625q-0.625 0 -1.234375 -0.140625l-0.203125 -1.71875q0.515625 0.109375 0.9375 0.109375q0.765625 0 1.125 -0.453125q0.375 -0.453125 0.5625 -1.140625l-3.15625 -8.328125zm9.773439 0l2.03125 0l0 1.125q1.078125 -1.3125 2.578125 -1.3125q0.796875 0 1.375 0.328125q0.59375 0.328125 0.96875 0.984375q0.546875 -0.65625 1.171875 -0.984375q0.640625 -0.328125 1.359375 -0.328125q0.921875 0 1.546875 0.375q0.640625 0.359375 0.953125 1.078125q0.21875 0.53125 0.21875 1.71875l0 5.3125l-2.1875 0l0 -4.75q0 -1.234375 -0.234375 -1.59375q-0.296875 -0.46875 -0.9375 -0.46875q-0.453125 0 -0.859375 0.28125q-0.40625 0.28125 -0.59375 0.828125q-0.171875 0.546875 -0.171875 1.71875l0 3.984375l-2.203125 0l0 -4.546875q0 -1.21875 -0.125 -1.5625q-0.109375 -0.359375 -0.359375 -0.53125q-0.234375 -0.171875 -0.65625 -0.171875q-0.515625 0 -0.921875 0.28125q-0.40625 0.265625 -0.578125 0.78125q-0.171875 0.515625 -0.171875 1.71875l0 4.03125l-2.203125 0l0 -8.296875zm14.3046875 8.296875l0 -11.453125l2.1875 0l0 4.125q1.015625 -1.15625 2.40625 -1.15625q1.515625 0 2.5 1.09375q1.0 1.09375 1.0 3.15625q0 2.125 -1.015625 3.28125q-1.0 1.140625 -2.453125 1.140625q-0.703125 0 -1.40625 -0.359375q-0.6875 -0.359375 -1.1875 -1.046875l0 1.21875l-2.03125 0zm2.171875 -4.328125q0 1.28125 0.40625 1.90625q0.578125 0.875 1.515625 0.875q0.734375 0 1.234375 -0.625q0.515625 -0.625 0.515625 -1.953125q0 -1.421875 -0.515625 -2.046875q-0.515625 -0.640625 -1.3125 -0.640625q-0.796875 0 -1.328125 0.625q-0.515625 0.609375 -0.515625 1.859375zm7.1796875 0.0625q0 -1.09375 0.53125 -2.109375q0.546875 -1.03125 1.53125 -1.5625q1.0 -0.546875 2.21875 -0.546875q1.875 0 3.0781212 1.21875q1.203125 1.21875 1.203125 3.09375q0 1.875 -1.21875 3.125q-1.2031212 1.234375 -3.0468712 1.234375q-1.140625 0 -2.1875 -0.515625q-1.03125 -0.515625 -1.578125 -1.515625q-0.53125 -1.0 -0.53125 -2.421875zm2.25 0.109375q0 1.234375 0.578125 1.890625q0.59375 0.65625 1.453125 0.65625q0.859375 0 1.4375 -0.65625q0.59375 -0.65625 0.59375 -1.90625q0 -1.21875 -0.59375 -1.875q-0.578125 -0.65625 -1.4375 -0.65625q-0.859375 0 -1.453125 0.65625q-0.578125 0.65625 -0.578125 1.890625zm8.039059 4.15625l0 -11.453125l2.1875 0l0 11.453125l-2.1875 0z" fill-rule="nonzero"/><path fill="#ffffff" d="m88.09826 28.205145l0 -11.453125l2.25 0l4.6875 7.640625l0 -7.640625l2.15625 0l0 11.453125l-2.328125 0l-4.609375 -7.46875l0 7.46875l-2.15625 0zm16.976562 0l0 -1.25q-0.453125 0.671875 -1.1875 1.0625q-0.734375 0.375 -1.5625 0.375q-0.828125 0 -1.5 -0.359375q-0.65625 -0.375 -0.953125 -1.03125q-0.296875 -0.671875 -0.296875 -1.84375l0 -5.25l2.1875 0l0 3.8125q0 1.75 0.125 2.140625q0.125 0.390625 0.4375 0.625q0.328125 0.234375 0.8125 0.234375q0.5625 0 1.0 -0.3125q0.453125 -0.3125 0.609375 -0.765625q0.171875 -0.453125 0.171875 -2.234375l0 -3.5l2.203125 0l0 8.296875l-2.046875 0zm4.1484375 -8.296875l2.03125 0l0 1.125q1.078125 -1.3125 2.578125 -1.3125q0.796875 0 1.375 0.328125q0.59375 0.328125 0.96875 0.984375q0.546875 -0.65625 1.171875 -0.984375q0.640625 -0.328125 1.359375 -0.328125q0.921875 0 1.546875 0.375q0.640625 0.359375 0.953125 1.078125q0.21875 0.53125 0.21875 1.71875l0 5.3125l-2.1875 0l0 -4.75q0 -1.234375 -0.234375 -1.59375q-0.296875 -0.46875 -0.9375 -0.46875q-0.453125 0 -0.859375 0.28125q-0.40625 0.28125 -0.59375 0.828125q-0.171875 0.546875 -0.171875 1.71875l0 3.984375l-2.203125 0l0 -4.546875q0 -1.21875 -0.125 -1.5625q-0.109375 -0.359375 -0.359375 -0.53125q-0.234375 -0.171875 -0.65625 -0.171875q-0.515625 0 -0.921875 0.28125q-0.40625 0.265625 -0.578125 0.78125q-0.171875 0.515625 -0.171875 1.71875l0 4.03125l-2.203125 0l0 -8.296875zm19.19532 5.65625l2.1875 0.359375q-0.421875 1.203125 -1.328125 1.84375q-0.90625 0.625 -2.2812576 0.625q-2.15625 0 -3.203125 -1.421875q-0.8125 -1.125 -0.8125 -2.859375q0 -2.0625 1.078125 -3.21875q1.078125 -1.171875 2.71875 -1.171875q1.8593826 0 2.9218826 1.21875q1.078125 1.21875 1.03125 3.75l-5.5000076 0q0.015625 0.96875 0.515625 1.515625q0.515625 0.546875 1.28125 0.546875q0.515625 0 0.859375 -0.28125q0.35938263 -0.28125 0.5312576 -0.90625zm0.125 -2.21875q-0.015625 -0.953125 -0.484375 -1.453125q-0.46875763 -0.5 -1.1406326 -0.5q-0.71875 0 -1.1875 0.53125q-0.46875 0.515625 -0.46875 1.421875l3.2812576 0zm6.0703125 4.859375l-2.1875 0l0 -8.296875l2.03125 0l0 1.171875q0.53125 -0.828125 0.9375 -1.09375q0.421875 -0.265625 0.953125 -0.265625q0.75 0 1.453125 0.40625l-0.6875 1.921875q-0.546875 -0.359375 -1.03125 -0.359375q-0.453125 0 -0.78125 0.25q-0.3125 0.25 -0.5 0.921875q-0.1875 0.65625 -0.1875 2.78125l0 2.5625zm5.7734375 -5.765625l-2.0 -0.359375q0.34375 -1.203125 1.15625 -1.78125q0.828125 -0.578125 2.4375 -0.578125q1.46875 0 2.1875 0.34375q0.71875 0.34375 1.015625 0.890625q0.296875 0.53125 0.296875 1.953125l-0.03125 2.5625q0 1.09375 0.109375 1.625q0.109375 0.515625 0.390625 1.109375l-2.171875 0q-0.078125 -0.21875 -0.203125 -0.65625q-0.0625 -0.1875 -0.078125 -0.25q-0.5625 0.546875 -1.203125 0.828125q-0.640625 0.265625 -1.375 0.265625q-1.28125 0 -2.015625 -0.6875q-0.734375 -0.703125 -0.734375 -1.765625q0 -0.703125 0.328125 -1.25q0.34375 -0.5625 0.9375 -0.84375q0.609375 -0.296875 1.75 -0.515625q1.546875 -0.296875 2.140625 -0.546875l0 -0.21875q0 -0.625 -0.3125 -0.890625q-0.3125 -0.28125 -1.1875 -0.28125q-0.578125 0 -0.90625 0.234375q-0.328125 0.234375 -0.53125 0.8125zm2.9375 1.78125q-0.421875 0.140625 -1.34375 0.34375q-0.90625 0.1875 -1.1875 0.375q-0.4375 0.296875 -0.4375 0.765625q0 0.46875 0.34375 0.8125q0.34375 0.328125 0.875 0.328125q0.59375 0 1.140625 -0.390625q0.390625 -0.296875 0.515625 -0.734375q0.09375 -0.28125 0.09375 -1.0625l0 -0.4375zm4.3203125 3.984375l0 -11.453125l2.1875 0l0 11.453125l-2.1875 0z" fill-rule="nonzero"/><path fill="#ffffff" d="m186.00452 28.205145l0 -11.453125l2.3125 0l0 11.453125l-2.3125 0zm4.5234375 0l0 -11.453125l3.703125 0q2.109375 0 2.75 0.171875q0.984375 0.25 1.640625 1.125q0.671875 0.859375 0.671875 2.21875q0 1.0625 -0.390625 1.78125q-0.375 0.71875 -0.96875 1.125q-0.578125 0.40625 -1.1875 0.546875q-0.828125 0.15625 -2.40625 0.15625l-1.5 0l0 4.328125l-2.3125 0zm2.3125 -9.515625l0 3.25l1.265625 0q1.359375 0 1.8125 -0.171875q0.46875 -0.1875 0.734375 -0.5625q0.265625 -0.390625 0.265625 -0.90625q0 -0.625 -0.375 -1.03125q-0.359375 -0.40625 -0.921875 -0.5q-0.421875 -0.078125 -1.671875 -0.078125l-1.109375 0zm17.5 9.515625l-2.515625 0l-1.0 -2.609375l-4.578125 0l-0.953125 2.609375l-2.453125 0l4.46875 -11.453125l2.4375 0l4.59375 11.453125zm-4.265625 -4.53125l-1.578125 -4.25l-1.546875 4.25l3.125 0z" fill-rule="nonzero"/><path fill="#ffffff" d="m284.08264 28.205145l0 -11.453125l8.484375 0l0 1.9375l-6.171875 0l0 2.53125l5.75 0l0 1.9375l-5.75 0l0 3.109375l6.390625 0l0 1.9375l-8.703125 0zm18.203125 0l-2.203125 0l0 -4.234375q0 -1.34375 -0.140625 -1.734375q-0.140625 -0.40625 -0.453125 -0.625q-0.3125 -0.21875 -0.765625 -0.21875q-0.5625 0 -1.015625 0.3125q-0.453125 0.3125 -0.625 0.828125q-0.171875 0.515625 -0.171875 1.90625l0 3.765625l-2.1875 0l0 -8.296875l2.03125 0l0 1.21875q1.09375 -1.40625 2.734375 -1.40625q0.734375 0 1.328125 0.265625q0.609375 0.25 0.90625 0.65625q0.3125 0.40625 0.4375 0.921875q0.125 0.515625 0.125 1.484375l0 5.15625zm2.0234375 0.546875l2.5 0.3125q0.0625 0.4375 0.296875 0.59375q0.3125 0.234375 0.984375 0.234375q0.859375 0 1.28125 -0.25q0.296875 -0.171875 0.4375 -0.5625q0.109375 -0.265625 0.109375 -1.015625l0 -1.203125q-0.984375 1.34375 -2.484375 1.34375q-1.671875 0 -2.65625 -1.421875q-0.765625 -1.109375 -0.765625 -2.78125q0 -2.078125 1.0 -3.171875q1.015625 -1.109375 2.5 -1.109375q1.546875 0 2.546875 1.34375l0 -1.15625l2.046875 0l0 7.4375q0 1.484375 -0.25 2.203125q-0.234375 0.734375 -0.671875 1.140625q-0.4375 0.421875 -1.171875 0.65625q-0.71875 0.234375 -1.84375 0.234375q-2.109375 0 -3.0 -0.734375q-0.875 -0.71875 -0.875 -1.828125q0 -0.109375 0.015625 -0.265625zm1.953125 -4.875q0 1.328125 0.515625 1.9375q0.515625 0.609375 1.265625 0.609375q0.796875 0 1.34375 -0.625q0.5625 -0.625 0.5625 -1.859375q0 -1.296875 -0.53125 -1.921875q-0.53125 -0.625 -1.34375 -0.625q-0.78125 0 -1.296875 0.625q-0.515625 0.609375 -0.515625 1.859375zm8.0234375 4.328125l0 -11.453125l2.1875 0l0 11.453125l-2.1875 0zm4.4453125 -9.421875l0 -2.03125l2.1875 0l0 2.03125l-2.1875 0zm0 9.421875l0 -8.296875l2.1875 0l0 8.296875l-2.1875 0zm3.6640625 -2.375l2.203125 -0.328125q0.140625 0.640625 0.5625 0.96875q0.4375 0.328125 1.21875 0.328125q0.84375 0 1.28125 -0.3125q0.28125 -0.21875 0.28125 -0.578125q0 -0.25 -0.15625 -0.421875q-0.15625 -0.15625 -0.734375 -0.28125q-2.65625 -0.59375 -3.359375 -1.078125q-0.984375 -0.671875 -0.984375 -1.859375q0 -1.078125 0.84375 -1.8125q0.859375 -0.734375 2.640625 -0.734375q1.703125 0 2.53125 0.5625q0.828125 0.546875 1.140625 1.625l-2.0625 0.390625q-0.140625 -0.484375 -0.515625 -0.734375q-0.359375 -0.265625 -1.046875 -0.265625q-0.875 0 -1.25 0.234375q-0.25 0.171875 -0.25 0.453125q0 0.234375 0.21875 0.390625q0.296875 0.21875 2.046875 0.625q1.765625 0.390625 2.453125 0.96875q0.6875 0.59375 0.6875 1.640625q0 1.140625 -0.953125 1.96875q-0.953125 0.8125 -2.8125 0.8125q-1.703125 0 -2.6875 -0.6875q-0.984375 -0.6875 -1.296875 -1.875zm11.8671875 -9.078125l0 4.203125q1.0625 -1.234375 2.53125 -1.234375q0.765625 0 1.375 0.28125q0.609375 0.28125 0.90625 0.71875q0.3125 0.4375 0.421875 0.96875q0.125 0.53125 0.125 1.640625l0 4.875l-2.203125 0l0 -4.390625q0 -1.296875 -0.125 -1.640625q-0.125 -0.359375 -0.4375 -0.5625q-0.3125 -0.21875 -0.796875 -0.21875q-0.546875 0 -0.984375 0.265625q-0.421875 0.265625 -0.625 0.8125q-0.1875 0.53125 -0.1875 1.578125l0 4.15625l-2.203125 0l0 -11.453125l2.203125 0z" fill-rule="nonzero"/><path fill="#ffffff" d="m399.4889 24.47077l2.25 -0.21875q0.203125 1.140625 0.828125 1.671875q0.625 0.53125 1.671875 0.53125q1.125 0 1.6875 -0.46875q0.5625 -0.484375 0.5625 -1.109375q0 -0.40625 -0.234375 -0.6875q-0.234375 -0.296875 -0.828125 -0.5q-0.40625 -0.140625 -1.859375 -0.5q-1.859375 -0.46875 -2.609375 -1.140625q-1.046875 -0.9375 -1.046875 -2.296875q0 -0.875 0.484375 -1.640625q0.5 -0.765625 1.4375 -1.15625q0.9375 -0.40625 2.25 -0.40625q2.15625 0 3.25 0.953125q1.09375 0.9375 1.140625 2.515625l-2.3125 0.109375q-0.140625 -0.890625 -0.640625 -1.265625q-0.484375 -0.390625 -1.453125 -0.390625q-1.015625 0 -1.578125 0.40625q-0.375 0.265625 -0.375 0.71875q0 0.40625 0.34375 0.6875q0.4375 0.375 2.125 0.78125q1.6875 0.390625 2.5 0.8125q0.8125 0.421875 1.265625 1.171875q0.453125 0.734375 0.453125 1.8125q0 0.984375 -0.546875 1.84375q-0.546875 0.859375 -1.546875 1.28125q-1.0 0.421875 -2.484375 0.421875q-2.171875 0 -3.34375 -1.0q-1.15625 -1.015625 -1.390625 -2.9375zm11.1875 -4.5625l2.046875 0l0 1.21875q0.390625 -0.625 1.0625 -1.015625q0.6875 -0.390625 1.515625 -0.390625q1.453125 0 2.453125 1.140625q1.015625 1.125 1.015625 3.140625q0 2.078125 -1.015625 3.234375q-1.015625 1.15625 -2.46875 1.15625q-0.6875 0 -1.25 -0.265625q-0.546875 -0.28125 -1.171875 -0.953125l0 4.1875l-2.1875 0l0 -11.453125zm2.171875 4.0q0 1.40625 0.546875 2.078125q0.5625 0.65625 1.359375 0.65625q0.765625 0 1.265625 -0.609375q0.515625 -0.609375 0.515625 -2.015625q0 -1.296875 -0.53125 -1.921875q-0.515625 -0.640625 -1.296875 -0.640625q-0.796875 0 -1.328125 0.625q-0.53125 0.609375 -0.53125 1.828125zm9.3046875 -1.46875l-2.0 -0.359375q0.34375 -1.203125 1.15625 -1.78125q0.828125 -0.578125 2.4375 -0.578125q1.46875 0 2.1875 0.34375q0.71875 0.34375 1.015625 0.890625q0.296875 0.53125 0.296875 1.953125l-0.03125 2.5625q0 1.09375 0.109375 1.625q0.109375 0.515625 0.390625 1.109375l-2.171875 0q-0.078125 -0.21875 -0.203125 -0.65625q-0.0625 -0.1875 -0.078125 -0.25q-0.5625 0.546875 -1.203125 0.828125q-0.640625 0.265625 -1.375 0.265625q-1.28125 0 -2.015625 -0.6875q-0.734375 -0.703125 -0.734375 -1.765625q0 -0.703125 0.328125 -1.25q0.34375 -0.5625 0.9375 -0.84375q0.609375 -0.296875 1.75 -0.515625q1.546875 -0.296875 2.140625 -0.546875l0 -0.21875q0 -0.625 -0.3125 -0.890625q-0.3125 -0.28125 -1.1875 -0.28125q-0.578125 0 -0.90625 0.234375q-0.328125 0.234375 -0.53125 0.8125zm2.9375 1.78125q-0.421875 0.140625 -1.34375 0.34375q-0.90625 0.1875 -1.1875 0.375q-0.4375 0.296875 -0.4375 0.765625q0 0.46875 0.34375 0.8125q0.34375 0.328125 0.875 0.328125q0.59375 0 1.140625 -0.390625q0.390625 -0.296875 0.515625 -0.734375q0.09375 -0.28125 0.09375 -1.0625l0 -0.4375zm11.8671875 3.984375l-2.203125 0l0 -4.234375q0 -1.34375 -0.140625 -1.734375q-0.140625 -0.40625 -0.453125 -0.625q-0.3125 -0.21875 -0.765625 -0.21875q-0.5625 0 -1.015625 0.3125q-0.453125 0.3125 -0.625 0.828125q-0.171875 0.515625 -0.171875 1.90625l0 3.765625l-2.1875 0l0 -8.296875l2.03125 0l0 1.21875q1.09375 -1.40625 2.734375 -1.40625q0.734375 0 1.328125 0.265625q0.609375 0.25 0.90625 0.65625q0.3125 0.40625 0.4375 0.921875q0.125 0.515625 0.125 1.484375l0 5.15625zm2.2265625 -9.421875l0 -2.03125l2.1875 0l0 2.03125l-2.1875 0zm0 9.421875l0 -8.296875l2.1875 0l0 8.296875l-2.1875 0zm3.6640625 -2.375l2.203125 -0.328125q0.140625 0.640625 0.5625 0.96875q0.4375 0.328125 1.21875 0.328125q0.84375 0 1.28125 -0.3125q0.28125 -0.21875 0.28125 -0.578125q0 -0.25 -0.15625 -0.421875q-0.15625 -0.15625 -0.734375 -0.28125q-2.65625 -0.59375 -3.359375 -1.078125q-0.984375 -0.671875 -0.984375 -1.859375q0 -1.078125 0.84375 -1.8125q0.859375 -0.734375 2.640625 -0.734375q1.703125 0 2.53125 0.5625q0.828125 0.546875 1.140625 1.625l-2.0625 0.390625q-0.140625 -0.484375 -0.515625 -0.734375q-0.359375 -0.265625 -1.046875 -0.265625q-0.875 0 -1.25 0.234375q-0.25 0.171875 -0.25 0.453125q0 0.234375 0.21875 0.390625q0.296875 0.21875 2.046875 0.625q1.765625 0.390625 2.453125 0.96875q0.6875 0.59375 0.6875 1.640625q0 1.140625 -0.953125 1.96875q-0.953125 0.8125 -2.8125 0.8125q-1.703125 0 -2.6875 -0.6875q-0.984375 -0.6875 -1.296875 -1.875zm11.8671875 -9.078125l0 4.203125q1.0625 -1.234375 2.53125 -1.234375q0.765625 0 1.375 0.28125q0.609375 0.28125 0.90625 0.71875q0.3125 0.4375 0.421875 0.96875q0.125 0.53125 0.125 1.640625l0 4.875l-2.203125 0l0 -4.390625q0 -1.296875 -0.125 -1.640625q-0.125 -0.359375 -0.4375 -0.5625q-0.3125 -0.21875 -0.796875 -0.21875q-0.546875 0 -0.984375 0.265625q-0.421875 0.265625 -0.625 0.8125q-0.1875 0.53125 -0.1875 1.578125l0 4.15625l-2.203125 0l0 -11.453125l2.203125 0z" fill-rule="nonzero"/><path fill="#ffff00" d="m46.85217 42.705147q1.671875 0 2.609375 1.1875q1.109375 1.40625 1.109375 4.65625q0 3.25 -1.125 4.671875q-0.921875 1.1875 -2.59375 1.1875q-1.671875 0 -2.703125 -1.28125q-1.015625 -1.296875 -1.015625 -4.59375q0 -3.234375 1.125 -4.65625q0.9375 -1.171875 2.59375 -1.171875zm0 1.8125q-0.390625 0 -0.703125 0.265625q-0.3125 0.25 -0.484375 0.90625q-0.234375 0.84375 -0.234375 2.859375q0 2.015625 0.203125 2.78125q0.203125 0.75 0.515625 1.0q0.3125 0.25 0.703125 0.25q0.40625 0 0.71875 -0.25q0.3125 -0.265625 0.484375 -0.921875q0.21875 -0.84375 0.21875 -2.859375q0 -2.015625 -0.203125 -2.765625q-0.203125 -0.75 -0.515625 -1.0q-0.296875 -0.265625 -0.703125 -0.265625z" fill-rule="nonzero"/><path fill="#000000" d="m93.84826 54.205147l0 -5.859375q0 -1.703125 -1.53125 -1.703125q-2.078125 0 -2.078125 2.78125l0 4.78125l-2.078125 0l0 -9.234375l1.765625 0l0 1.390625l-0.078125 -0.046875q0.703125 -1.5 2.703125 -1.5q3.375 0 3.375 3.453125l0 5.9375l-2.078125 0zm7.9453125 -12.765625q1.15625 0 1.15625 1.21875q0 0.609375 -0.359375 0.921875q-0.34375 0.296875 -0.796875 0.296875q-1.171875 0 -1.171875 -1.21875q0 -1.21875 1.171875 -1.21875zm-1.046875 5.28125l-2.109375 -0.171875l0 -1.578125l4.1875 0l0 7.46875l2.75 0.15625l0 1.609375l-7.515625 0l0 -1.609375l2.6875 -0.15625l0 -5.71875z" fill-rule="nonzero"/><path fill="#cc0000" d="m193.67639 42.12702l-5.171875 12.078125l-2.109375 0l5.171875 -12.078125l2.109375 0zm7.7734375 12.078125l0 -5.859375q0 -1.703125 -1.53125 -1.703125q-2.078125 0 -2.078125 2.78125l0 4.78125l-2.078125 0l0 -9.234375l1.765625 0l0 1.390625l-0.078125 -0.046875q0.703125 -1.5 2.703125 -1.5q3.375 0 3.375 3.453125l0 5.9375l-2.078125 0zm7.9453125 -12.765625q1.15625 0 1.15625 1.21875q0 0.609375 -0.359375 0.921875q-0.34375 0.296875 -0.796875 0.296875q-1.171875 0 -1.171875 -1.21875q0 -1.21875 1.171875 -1.21875zm-1.046875 5.28125l-2.109375 -0.171875l0 -1.578125l4.1875 0l0 7.46875l2.75 0.15625l0 1.609375l-7.515625 0l0 -1.609375l2.6875 -0.15625l0 -5.71875zm14.1328125 -4.59375l-5.171875 12.078125l-2.109375 0l5.171875 -12.078125l2.109375 0z" fill-rule="nonzero"/><path fill="#000000" d="m291.72327 54.205147l-7.390625 0l0 -1.421875l4.8125 -6.09375l-4.546875 0l0 -1.71875l6.984375 0l0 1.578125l-4.703125 5.921875l4.84375 0l0 1.734375zm10.0078125 -4.015625l-6.046875 0q0.0625 2.265625 2.359375 2.265625q1.46875 0 3.21875 -0.765625l0 1.953125q-1.546875 0.71875 -3.171875 0.71875q-2.046875 0 -3.296875 -1.265625q-1.234375 -1.265625 -1.234375 -3.453125q0 -2.203125 1.140625 -3.515625q1.140625 -1.3125 3.078125 -1.3125q1.796875 0 2.875 1.15625q1.078125 1.140625 1.078125 3.0l0 1.21875zm-5.984375 -1.8125l3.796875 0q0 -1.734375 -1.796875 -1.734375q-1.859375 0 -2.0 1.734375zm15.3828125 -3.09375l-0.578125 1.921875q-1.234375 -0.4375 -1.96875 -0.4375q-1.125 0 -1.734375 0.625q-0.59375 0.609375 -0.59375 1.859375l0 4.953125l-2.078125 0l0 -9.234375l1.78125 0l-0.0625 1.828125l-0.0625 -0.046875q0.421875 -1.0625 1.171875 -1.5q0.75 -0.4375 1.84375 -0.4375q0.984375 0 2.28125 0.46875zm5.6796875 9.078125q-1.828125 0 -3.015625 -1.3125q-1.171875 -1.328125 -1.171875 -3.484375q0 -2.171875 1.140625 -3.453125q1.15625 -1.296875 3.09375 -1.296875q1.84375 0 3.015625 1.3125q1.1875 1.3125 1.1875 3.4375q0 2.203125 -1.171875 3.5q-1.15625 1.296875 -3.078125 1.296875zm0.03125 -1.84375q2.09375 0 2.09375 -2.953125q0 -2.921875 -2.109375 -2.921875q-2.078125 0 -2.078125 2.921875q0 2.953125 2.09375 2.953125z" fill-rule="nonzero"/><path fill="#38761d" d="m407.95764 45.40827l-0.71875 1.84375q-1.421875 -0.53125 -2.28125 -0.53125q-2.578125 0 -2.578125 2.890625q0 2.84375 2.5 2.84375q1.15625 0 2.828125 -0.625l0 1.921875q-1.296875 0.609375 -2.890625 0.609375q-2.15625 0 -3.359375 -1.234375q-1.203125 -1.234375 -1.203125 -3.5q0 -2.328125 1.21875 -3.5625q1.234375 -1.25 3.4375 -1.25q1.453125 0 3.046875 0.59375zm9.7734375 4.78125l-6.046875 0q0.0625 2.265625 2.359375 2.265625q1.46875 0 3.21875 -0.765625l0 1.953125q-1.546875 0.71875 -3.171875 0.71875q-2.046875 0 -3.296875 -1.265625q-1.234375 -1.265625 -1.234375 -3.453125q0 -2.203125 1.140625 -3.515625q1.140625 -1.3125 3.078125 -1.3125q1.796875 0 2.875 1.15625q1.078125 1.140625 1.078125 3.0l0 1.21875zm-5.984375 -1.8125l3.796875 0q0 -1.734375 -1.796875 -1.734375q-1.859375 0 -2.0 1.734375zm15.3828125 -3.09375l-0.578125 1.921875q-1.234375 -0.4375 -1.96875 -0.4375q-1.125 0 -1.734375 0.625q-0.59375 0.609375 -0.59375 1.859375l0 4.953125l-2.078125 0l0 -9.234375l1.78125 0l-0.0625 1.828125l-0.0625 -0.046875q0.421875 -1.0625 1.171875 -1.5q0.75 -0.4375 1.84375 -0.4375q0.984375 0 2.28125 0.46875zm5.6796875 9.078125q-1.828125 0 -3.015625 -1.3125q-1.171875 -1.328125 -1.171875 -3.484375q0 -2.171875 1.140625 -3.453125q1.15625 -1.296875 3.09375 -1.296875q1.84375 0 3.015625 1.3125q1.1875 1.3125 1.1875 3.4375q0 2.203125 -1.171875 3.5q-1.15625 1.296875 -3.078125 1.296875zm0.03125 -1.84375q2.09375 0 2.09375 -2.953125q0 -2.921875 -2.109375 -2.921875q-2.078125 0 -2.078125 2.921875q0 2.953125 2.09375 2.953125z" fill-rule="nonzero"/><path fill="#ffff00" d="m48.75842 80.20515l-2.1875 0l0 -8.28125q-1.203125 1.125 -2.84375 1.671875l0 -2.0q0.859375 -0.28125 1.859375 -1.0625q1.015625 -0.78125 1.390625 -1.828125l1.78125 0l0 11.5z" fill-rule="nonzero"/><path fill="#000000" d="m94.16076 80.20515l0 -1.390625l0.078125 0.046875q-0.71875 1.5 -2.6875 1.5q-3.390625 0 -3.390625 -3.46875l0 -5.921875l2.078125 0l0 5.84375q0 1.703125 1.515625 1.703125q1.109375 0 1.59375 -0.609375q0.5 -0.609375 0.5 -2.15625l0 -4.78125l2.078125 0l0 9.234375l-1.765625 0zm9.2890625 0l0 -5.859375q0 -1.703125 -1.53125 -1.703125q-2.078125 0 -2.078125 2.78125l0 4.78125l-2.078125 0l0 -9.234375l1.765625 0l0 1.390625l-0.078125 -0.046875q0.703125 -1.5 2.703125 -1.5q3.375 0 3.375 3.453125l0 5.9375l-2.078125 0z" fill-rule="nonzero"/><path fill="#cc0000" d="m193.67639 68.12702l-5.171875 12.078125l-2.109375 0l5.171875 -12.078125l2.109375 0zm8.0859375 12.078125l0 -1.390625l0.078125 0.046875q-0.71875 1.5 -2.6875 1.5q-3.390625 0 -3.390625 -3.46875l0 -5.921875l2.078125 0l0 5.84375q0 1.703125 1.515625 1.703125q1.109375 0 1.59375 -0.609375q0.5 -0.609375 0.5 -2.15625l0 -4.78125l2.078125 0l0 9.234375l-1.765625 0zm9.2890625 0l0 -5.859375q0 -1.703125 -1.53125 -1.703125q-2.078125 0 -2.078125 2.78125l0 4.78125l-2.078125 0l0 -9.234375l1.765625 0l0 1.390625l-0.078125 -0.046875q0.703125 -1.5 2.703125 -1.5q3.375 0 3.375 3.453125l0 5.9375l-2.078125 0zm11.4296875 -12.078125l-5.171875 12.078125l-2.109375 0l5.171875 -12.078125l2.109375 0z" fill-rule="nonzero"/><path fill="#000000" d="m288.00452 80.3614q-1.828125 0 -3.015625 -1.3125q-1.171875 -1.328125 -1.171875 -3.484375q0 -2.171875 1.140625 -3.453125q1.15625 -1.296875 3.09375 -1.296875q1.84375 0 3.015625 1.3125q1.1875 1.3125 1.1875 3.4375q0 2.203125 -1.171875 3.5q-1.15625 1.296875 -3.078125 1.296875zm0.03125 -1.84375q2.09375 0 2.09375 -2.953125q0 -2.921875 -2.109375 -2.921875q-2.078125 0 -2.078125 2.921875q0 2.953125 2.09375 2.953125zm11.4140625 1.6875l0 -5.859375q0 -1.703125 -1.53125 -1.703125q-2.078125 0 -2.078125 2.78125l0 4.78125l-2.078125 0l0 -9.234375l1.765625 0l0 1.390625l-0.078125 -0.046875q0.703125 -1.5 2.703125 -1.5q3.375 0 3.375 3.453125l0 5.9375l-2.078125 0zm11.8828125 -4.015625l-6.046875 0q0.0625 2.265625 2.359375 2.265625q1.46875 0 3.21875 -0.765625l0 1.953125q-1.546875 0.71875 -3.171875 0.71875q-2.046875 0 -3.296875 -1.265625q-1.234375 -1.265625 -1.234375 -3.453125q0 -2.203125 1.140625 -3.515625q1.140625 -1.3125 3.078125 -1.3125q1.796875 0 2.875 1.15625q1.078125 1.140625 1.078125 3.0l0 1.21875zm-5.984375 -1.8125l3.796875 0q0 -1.734375 -1.796875 -1.734375q-1.859375 0 -2.0 1.734375z" fill-rule="nonzero"/><path fill="#38761d" d="m406.16077 80.20515l0 -1.390625l0.078125 0.046875q-0.71875 1.5 -2.6875 1.5q-3.390625 0 -3.390625 -3.46875l0 -5.921875l2.078125 0l0 5.84375q0 1.703125 1.515625 1.703125q1.109375 0 1.59375 -0.609375q0.5 -0.609375 0.5 -2.15625l0 -4.78125l2.078125 0l0 9.234375l-1.765625 0zm9.2890625 0l0 -5.859375q0 -1.703125 -1.53125 -1.703125q-2.078125 0 -2.078125 2.78125l0 4.78125l-2.078125 0l0 -9.234375l1.765625 0l0 1.390625l-0.078125 -0.046875q0.703125 -1.5 2.703125 -1.5q3.375 0 3.375 3.453125l0 5.9375l-2.078125 0zm7.7578125 0.15625q-1.828125 0 -3.015625 -1.3125q-1.171875 -1.328125 -1.171875 -3.484375q0 -2.171875 1.140625 -3.453125q1.15625 -1.296875 3.09375 -1.296875q1.84375 0 3.015625 1.3125q1.1875 1.3125 1.1875 3.4375q0 2.203125 -1.171875 3.5q-1.15625 1.296875 -3.078125 1.296875zm0.03125 -1.84375q2.09375 0 2.09375 -2.953125q0 -2.921875 -2.109375 -2.921875q-2.078125 0 -2.078125 2.921875q0 2.953125 2.09375 2.953125z" fill-rule="nonzero"/><path fill="#ffff00" d="m50.555294 104.15827l0 2.046875l-7.6875 0q0.125 -1.15625 0.75 -2.1875q0.625 -1.046875 2.46875 -2.75q1.484375 -1.390625 1.8125 -1.875q0.453125 -0.6875 0.453125 -1.34375q0 -0.734375 -0.390625 -1.125q-0.390625 -0.40625 -1.09375 -0.40625q-0.6875 0 -1.09375 0.421875q-0.40625 0.40625 -0.46875 1.375l-2.1875 -0.21875q0.203125 -1.8125 1.234375 -2.59375q1.03125 -0.796875 2.578125 -0.796875q1.6875 0 2.65625 0.921875q0.96875 0.90625 0.96875 2.265625q0 0.765625 -0.28125 1.46875q-0.265625 0.703125 -0.875 1.46875q-0.390625 0.5 -1.4375 1.453125q-1.03125 0.953125 -1.3125 1.265625q-0.28125 0.3125 -0.453125 0.609375l4.359375 0z" fill-rule="nonzero"/><path fill="#000000" d="m89.801384 104.97077l0.09375 -0.0625l-0.125 1.296875l-1.625 0l0 -12.8125l2.078125 0l0 3.265625q0 0.640625 -0.328125 1.703125l-0.0625 -0.046875q0.734375 -1.5 2.578125 -1.5q1.734375 0 2.703125 1.28125q0.984375 1.265625 0.984375 3.46875q0 2.21875 -0.984375 3.515625q-0.984375 1.28125 -2.703125 1.28125q-1.78125 0 -2.609375 -1.390625zm0.421875 -3.40625q0 1.671875 0.46875 2.3125q0.46875 0.640625 1.484375 0.640625q1.796875 0 1.796875 -2.96875q0 -2.90625 -1.8125 -2.90625q-1.046875 0 -1.5 0.625q-0.4375 0.625 -0.4375 2.296875zm15.5078125 0.625l-6.046875 0q0.0625 2.265625 2.359375 2.265625q1.46875 0 3.21875 -0.765625l0 1.953125q-1.546875 0.71875 -3.171875 0.71875q-2.046875 0 -3.296875 -1.265625q-1.234375 -1.265625 -1.234375 -3.453125q0 -2.203125 1.140625 -3.515625q1.140625 -1.3125 3.078125 -1.3125q1.796875 0 2.875 1.15625q1.078125 1.140625 1.078125 3.0l0 1.21875zm-5.984375 -1.8125l3.796875 0q0 -1.734375 -1.796875 -1.734375q-1.859375 0 -2.0 1.734375z" fill-rule="nonzero"/><path fill="#cc0000" d="m193.67639 94.12702l-5.171875 12.078125l-2.109375 0l5.171875 -12.078125l2.109375 0zm3.7265625 10.84375l0.09375 -0.0625l-0.125 1.296875l-1.625 0l0 -12.8125l2.078125 0l0 3.265625q0 0.640625 -0.328125 1.703125l-0.0625 -0.046875q0.734375 -1.5 2.578125 -1.5q1.734375 0 2.703125 1.28125q0.984375 1.265625 0.984375 3.46875q0 2.21875 -0.984375 3.515625q-0.984375 1.28125 -2.703125 1.28125q-1.78125 0 -2.609375 -1.390625zm0.421875 -3.40625q0 1.671875 0.46875 2.3125q0.46875 0.640625 1.484375 0.640625q1.796875 0 1.796875 -2.96875q0 -2.90625 -1.8125 -2.90625q-1.046875 0 -1.5 0.625q-0.4375 0.625 -0.4375 2.296875zm15.5078125 0.625l-6.046875 0q0.0625 2.265625 2.359375 2.265625q1.46875 0 3.21875 -0.765625l0 1.953125q-1.546875 0.71875 -3.171875 0.71875q-2.046875 0 -3.296875 -1.265625q-1.234375 -1.265625 -1.234375 -3.453125q0 -2.203125 1.140625 -3.515625q1.140625 -1.3125 3.078125 -1.3125q1.796875 0 2.875 1.15625q1.078125 1.140625 1.078125 3.0l0 1.21875zm-5.984375 -1.8125l3.796875 0q0 -1.734375 -1.796875 -1.734375q-1.859375 0 -2.0 1.734375zm15.1328125 -6.25l-5.171875 12.078125l-2.109375 0l5.171875 -12.078125l2.109375 0z" fill-rule="nonzero"/><path fill="#000000" d="m291.53577 104.33015l0 1.703125q-1.296875 0.328125 -2.296875 0.328125q-3.15625 0 -3.15625 -3.015625l0 -4.65625l-2.078125 0l0 -1.34375l2.140625 -0.375l0.625 -2.296875l1.390625 0l0 2.296875l3.421875 0l0 1.71875l-3.421875 0l0 4.65625q0 1.1875 1.171875 1.1875q0.71875 0 2.203125 -0.203125zm7.3984375 1.875l-1.09375 -4.921875l-0.25 -2.578125l0.046875 0l-0.21875 2.609375l-1.125 4.890625l-2.0 0l-1.890625 -9.234375l1.953125 0l0.8125 4.5q0.265625 1.46875 0.171875 3.09375l-0.046875 -0.015625q-0.046875 -1.453125 0.265625 -2.8125l1.078125 -4.765625l2.046875 0l1.03125 4.765625q0.359375 1.53125 0.265625 2.828125l-0.046875 0q-0.046875 -1.890625 0.1875 -3.09375l0.859375 -4.5l1.90625 0l-1.90625 9.234375l-2.046875 0zm8.2734375 0.15625q-1.828125 0 -3.015625 -1.3125q-1.171875 -1.328125 -1.171875 -3.484375q0 -2.171875 1.140625 -3.453125q1.15625 -1.296875 3.09375 -1.296875q1.84375 0 3.015625 1.3125q1.1875 1.3125 1.1875 3.4375q0 2.203125 -1.171875 3.5q-1.15625 1.296875 -3.078125 1.296875zm0.03125 -1.84375q2.09375 0 2.09375 -2.953125q0 -2.921875 -2.109375 -2.921875q-2.078125 0 -2.078125 2.921875q0 2.953125 2.09375 2.953125z" fill-rule="nonzero"/><path fill="#38761d" d="m406.19202 104.7989l0.0625 0.046875q-0.78125 1.515625 -2.578125 1.515625q-1.734375 0 -2.71875 -1.28125q-0.96875 -1.28125 -0.96875 -3.484375q0 -2.21875 0.984375 -3.5q0.984375 -1.28125 2.703125 -1.28125q1.78125 0 2.609375 1.390625l-0.09375 0.109375q-0.328125 -0.921875 -0.328125 -1.1875l0 -3.734375l2.078125 0l0 12.8125l-1.765625 0l0.015625 -1.40625zm-0.328125 -2.875l0 -0.328125q0 -1.65625 -0.46875 -2.296875q-0.46875 -0.65625 -1.484375 -0.65625q-1.796875 0 -1.796875 2.96875q0 2.90625 1.8125 2.90625q1.03125 0 1.46875 -0.578125q0.4375 -0.578125 0.46875 -2.015625zm7.7421875 4.4375q-1.828125 0 -3.015625 -1.3125q-1.171875 -1.328125 -1.171875 -3.484375q0 -2.171875 1.140625 -3.453125q1.15625 -1.296875 3.09375 -1.296875q1.84375 0 3.015625 1.3125q1.1875 1.3125 1.1875 3.4375q0 2.203125 -1.171875 3.5q-1.15625 1.296875 -3.078125 1.296875zm0.03125 -1.84375q2.09375 0 2.09375 -2.953125q0 -2.921875 -2.109375 -2.921875q-2.078125 0 -2.078125 2.921875q0 2.953125 2.09375 2.953125zm6.0703125 1.15625l0 -1.984375q1.890625 0.84375 3.21875 0.84375q1.8125 0 1.8125 -0.9375q0 -0.28125 -0.3125 -0.546875q-0.296875 -0.265625 -1.609375 -0.734375q-1.921875 -0.71875 -2.453125 -1.359375q-0.53125 -0.640625 -0.53125 -1.546875q0 -1.234375 0.96875 -1.90625q0.984375 -0.6875 2.640625 -0.6875q1.609375 0 3.296875 0.734375l-0.703125 1.75q-1.671875 -0.65625 -2.671875 -0.65625q-1.515625 0 -1.515625 0.71875q0 0.296875 0.296875 0.53125q0.3125 0.21875 1.6875 0.703125q1.734375 0.640625 2.34375 1.296875q0.609375 0.65625 0.609375 1.625q0 1.34375 -1.03125 2.09375q-1.015625 0.75 -2.796875 0.75q-2.015625 0 -3.25 -0.6875z" fill-rule="nonzero"/><path fill="#ffff00" d="m43.07092 129.15826l2.125 -0.25q0.09375 0.8125 0.53125 1.25q0.453125 0.421875 1.09375 0.421875q0.671875 0 1.140625 -0.515625q0.46875 -0.515625 0.46875 -1.390625q0 -0.8281174 -0.453125 -1.3124924q-0.4375 -0.484375 -1.078125 -0.484375q-0.421875 0 -1.015625 0.15625l0.25 -1.78125q0.890625 0.015625 1.359375 -0.390625q0.46875 -0.40625 0.46875 -1.09375q0 -0.578125 -0.34375 -0.921875q-0.34375 -0.34375 -0.921875 -0.34375q-0.5625 0 -0.96875 0.390625q-0.390625 0.390625 -0.46875 1.140625l-2.03125 -0.34375q0.21875 -1.03125 0.640625 -1.65625q0.421875 -0.625 1.1875 -0.96875q0.765625 -0.359375 1.703125 -0.359375q1.625 0 2.59375 1.03125q0.8125 0.84375 0.8125 1.90625q0 1.5 -1.65625 2.40625q0.984375 0.203125 1.578125 0.9375q0.59375 0.734375 0.59375 1.7812424q0 1.5 -1.109375 2.578125q-1.09375 1.0625 -2.734375 1.0625q-1.5625 0 -2.59375 -0.890625q-1.015625 -0.90625 -1.171875 -2.359375z" fill-rule="nonzero"/><path fill="#000000" d="m95.926384 123.28327l-0.578125 1.921875q-1.234375 -0.4375 -1.96875 -0.4375q-1.125 0 -1.734375 0.625q-0.59375 0.609375 -0.59375 1.859375l0 4.9531174l-2.078125 0l0 -9.234367l1.78125 0l-0.0625 1.828125l-0.0625 -0.046875q0.421875 -1.0625 1.171875 -1.5q0.75 -0.4375 1.84375 -0.4375q0.984375 0 2.28125 0.46875zm9.8046875 4.9062424l-6.046875 0q0.0625 2.265625 2.359375 2.265625q1.46875 0 3.21875 -0.765625l0 1.953125q-1.546875 0.71875 -3.171875 0.71875q-2.046875 0 -3.296875 -1.265625q-1.234375 -1.265625 -1.234375 -3.4531174q0 -2.203125 1.140625 -3.515625q1.140625 -1.3125 3.078125 -1.3125q1.796875 0 2.875 1.15625q1.078125 1.140625 1.078125 3.0l0 1.2187424zm-5.984375 -1.8124924l3.796875 0q0 -1.734375 -1.796875 -1.734375q-1.859375 0 -2.0 1.734375z" fill-rule="nonzero"/><path fill="#cc0000" d="m193.67639 120.12702l-5.171875 12.078117l-2.109375 0l5.171875 -12.078117l2.109375 0zm9.8515625 3.15625l-0.578125 1.921875q-1.234375 -0.4375 -1.96875 -0.4375q-1.125 0 -1.734375 0.625q-0.59375 0.609375 -0.59375 1.859375l0 4.9531174l-2.078125 0l0 -9.234367l1.78125 0l-0.0625 1.828125l-0.0625 -0.046875q0.421875 -1.0625 1.171875 -1.5q0.75 -0.4375 1.84375 -0.4375q0.984375 0 2.28125 0.46875zm9.8046875 4.9062424l-6.046875 0q0.0625 2.265625 2.359375 2.265625q1.46875 0 3.21875 -0.765625l0 1.953125q-1.546875 0.71875 -3.171875 0.71875q-2.046875 0 -3.296875 -1.265625q-1.234375 -1.265625 -1.234375 -3.4531174q0 -2.203125 1.140625 -3.515625q1.140625 -1.3125 3.078125 -1.3125q1.796875 0 2.875 1.15625q1.078125 1.140625 1.078125 3.0l0 1.2187424zm-5.984375 -1.8124924l3.796875 0q0 -1.734375 -1.796875 -1.734375q-1.859375 0 -2.0 1.734375zm15.1328125 -6.25l-5.171875 12.078117l-2.109375 0l5.171875 -12.078117l2.109375 0z" fill-rule="nonzero"/><path fill="#000000" d="m291.53577 130.33014l0 1.703125q-1.296875 0.328125 -2.296875 0.328125q-3.15625 0 -3.15625 -3.015625l0 -4.6562424l-2.078125 0l0 -1.34375l2.140625 -0.375l0.625 -2.296875l1.390625 0l0 2.296875l3.421875 0l0 1.71875l-3.421875 0l0 4.6562424q0 1.1875 1.171875 1.1875q0.71875 0 2.203125 -0.203125zm7.9140625 1.875l0 -5.8593674q0 -1.703125 -1.53125 -1.703125q-2.078125 0 -2.078125 2.78125l0 4.7812424l-2.078125 0l0 -12.812492l2.078125 0l0 3.953125l-0.3125 1.03125l-0.078125 -0.0625q0.703125 -1.5 2.703125 -1.5q3.375 0 3.375 3.453125l0 5.9374924l-2.078125 0zm11.6796875 -8.921867l-0.578125 1.921875q-1.234375 -0.4375 -1.96875 -0.4375q-1.125 0 -1.734375 0.625q-0.59375 0.609375 -0.59375 1.859375l0 4.9531174l-2.078125 0l0 -9.234367l1.78125 0l-0.0625 1.828125l-0.0625 -0.046875q0.421875 -1.0625 1.171875 -1.5q0.75 -0.4375 1.84375 -0.4375q0.984375 0 2.28125 0.46875zm9.8046875 4.9062424l-6.046875 0q0.0625 2.265625 2.359375 2.265625q1.46875 0 3.21875 -0.765625l0 1.953125q-1.546875 0.71875 -3.171875 0.71875q-2.046875 0 -3.296875 -1.265625q-1.234375 -1.265625 -1.234375 -3.4531174q0 -2.203125 1.140625 -3.515625q1.140625 -1.3125 3.078125 -1.3125q1.796875 0 2.875 1.15625q1.078125 1.140625 1.078125 3.0l0 1.2187424zm-5.984375 -1.8124924l3.796875 0q0 -1.734375 -1.796875 -1.734375q-1.859375 0 -2.0 1.734375zm15.5859375 1.8124924l-6.046875 0q0.0625 2.265625 2.359375 2.265625q1.46875 0 3.21875 -0.765625l0 1.953125q-1.546875 0.71875 -3.171875 0.71875q-2.046875 0 -3.296875 -1.265625q-1.234375 -1.265625 -1.234375 -3.4531174q0 -2.203125 1.140625 -3.515625q1.140625 -1.3125 3.078125 -1.3125q1.796875 0 2.875 1.15625q1.078125 1.140625 1.078125 3.0l0 1.2187424zm-5.984375 -1.8124924l3.796875 0q0 -1.734375 -1.796875 -1.734375q-1.859375 0 -2.0 1.734375z" fill-rule="nonzero"/><path fill="#38761d" d="m407.53577 130.33014l0 1.703125q-1.296875 0.328125 -2.296875 0.328125q-3.15625 0 -3.15625 -3.015625l0 -4.6562424l-2.078125 0l0 -1.34375l2.140625 -0.375l0.625 -2.296875l1.390625 0l0 2.296875l3.421875 0l0 1.71875l-3.421875 0l0 4.6562424q0 1.1875 1.171875 1.1875q0.71875 0 2.203125 -0.203125zm9.9921875 -7.0468674l-0.578125 1.921875q-1.234375 -0.4375 -1.96875 -0.4375q-1.125 0 -1.734375 0.625q-0.59375 0.609375 -0.59375 1.859375l0 4.9531174l-2.078125 0l0 -9.234367l1.78125 0l-0.0625 1.828125l-0.0625 -0.046875q0.421875 -1.0625 1.171875 -1.5q0.75 -0.4375 1.84375 -0.4375q0.984375 0 2.28125 0.46875zm9.8046875 4.9062424l-6.046875 0q0.0625 2.265625 2.359375 2.265625q1.46875 0 3.21875 -0.765625l0 1.953125q-1.546875 0.71875 -3.171875 0.71875q-2.046875 0 -3.296875 -1.265625q-1.234375 -1.265625 -1.234375 -3.4531174q0 -2.203125 1.140625 -3.515625q1.140625 -1.3125 3.078125 -1.3125q1.796875 0 2.875 1.15625q1.078125 1.140625 1.078125 3.0l0 1.2187424zm-5.984375 -1.8124924l3.796875 0q0 -1.734375 -1.796875 -1.734375q-1.859375 0 -2.0 1.734375zm7.9609375 5.2968674l0 -1.984375q1.890625 0.84375 3.21875 0.84375q1.8125 0 1.8125 -0.9375q0 -0.28125 -0.3125 -0.546875q-0.296875 -0.265625 -1.609375 -0.734375q-1.921875 -0.7187424 -2.453125 -1.3593674q-0.53125 -0.640625 -0.53125 -1.546875q0 -1.234375 0.96875 -1.90625q0.984375 -0.6875 2.640625 -0.6875q1.609375 0 3.296875 0.734375l-0.703125 1.75q-1.671875 -0.65625 -2.671875 -0.65625q-1.515625 0 -1.515625 0.71875q0 0.296875 0.296875 0.53125q0.3125 0.21875 1.6875 0.703125q1.734375 0.640625 2.34375 1.296875q0.609375 0.6562424 0.609375 1.6249924q0 1.34375 -1.03125 2.09375q-1.015625 0.75 -2.796875 0.75q-2.015625 0 -3.25 -0.6875z" fill-rule="nonzero"/><path fill="#ffff00" d="m47.44592 158.20514l0 -2.3125l-4.6875 0l0 -1.921875l4.96875 -7.265625l1.84375 0l0 7.265625l1.421875 0l0 1.921875l-1.421875 0l0 2.3125l-2.125 0zm0 -4.234375l0 -3.921875l-2.625 3.921875l2.625 0z" fill-rule="nonzero"/><path fill="#000000" d="m90.895134 158.20514l-3.484375 -9.234375l2.171875 0l1.953125 5.3125q0.671875 1.828125 0.515625 2.59375l-0.046875 -0.015625q-0.203125 -0.359375 0.53125 -2.578125l1.9375 -5.3125l2.1875 0l-3.484375 9.234375l-2.28125 0zm10.8984375 -12.765625q1.15625 0 1.15625 1.21875q0 0.609375 -0.359375 0.921875q-0.34375 0.296875 -0.796875 0.296875q-1.171875 0 -1.171875 -1.21875q0 -1.21875 1.171875 -1.21875zm-1.046875 5.28125l-2.109375 -0.171875l0 -1.578125l4.1875 0l0 7.46875l2.75 0.15625l0 1.609375l-7.515625 0l0 -1.609375l2.6875 -0.15625l0 -5.71875z" fill-rule="nonzero"/><path fill="#cc0000" d="m193.67639 146.12701l-5.171875 12.078125l-2.109375 0l5.171875 -12.078125l2.109375 0zm4.8203125 12.078125l-3.484375 -9.234375l2.171875 0l1.953125 5.3125q0.671875 1.828125 0.515625 2.59375l-0.046875 -0.015625q-0.203125 -0.359375 0.53125 -2.578125l1.9375 -5.3125l2.1875 0l-3.484375 9.234375l-2.28125 0zm10.8984375 -12.765625q1.15625 0 1.15625 1.21875q0 0.609375 -0.359375 0.921875q-0.34375 0.296875 -0.796875 0.296875q-1.171875 0 -1.171875 -1.21875q0 -1.21875 1.171875 -1.21875zm-1.046875 5.28125l-2.109375 -0.171875l0 -1.578125l4.1875 0l0 7.46875l2.75 0.15625l0 1.609375l-7.515625 0l0 -1.609375l2.6875 -0.15625l0 -5.71875zm14.1328125 -4.59375l-5.171875 12.078125l-2.109375 0l5.171875 -12.078125l2.109375 0z" fill-rule="nonzero"/><path fill="#000000" d="m291.72327 150.68951l-3.03125 0l0 7.515625l-2.078125 0l0 -7.515625l-2.484375 0l0 -1.484375l2.484375 -0.25l0 -0.453125q0 -1.65625 0.796875 -2.421875q0.8125 -0.78125 2.5625 -0.78125q1.0625 0 2.375 0.390625l-0.484375 1.734375q-1.09375 -0.296875 -1.859375 -0.296875q-0.8125 0 -1.0625 0.296875q-0.25 0.28125 -0.25 1.0625l0 0.484375l3.03125 0l0 1.71875zm5.8828125 7.671875q-1.828125 0 -3.015625 -1.3125q-1.171875 -1.328125 -1.171875 -3.484375q0 -2.171875 1.140625 -3.453125q1.15625 -1.296875 3.09375 -1.296875q1.84375 0 3.015625 1.3125q1.1875 1.3125 1.1875 3.4375q0 2.203125 -1.171875 3.5q-1.15625 1.296875 -3.078125 1.296875zm0.03125 -1.84375q2.09375 0 2.09375 -2.953125q0 -2.921875 -2.109375 -2.921875q-2.078125 0 -2.078125 2.921875q0 2.953125 2.09375 2.953125zm11.7265625 1.6875l0 -1.390625l0.078125 0.046875q-0.71875 1.5 -2.6875 1.5q-3.390625 0 -3.390625 -3.46875l0 -5.921875l2.078125 0l0 5.84375q0 1.703125 1.515625 1.703125q1.109375 0 1.59375 -0.609375q0.5 -0.609375 0.5 -2.15625l0 -4.78125l2.078125 0l0 9.234375l-1.765625 0zm11.3671875 -8.921875l-0.578125 1.921875q-1.234375 -0.4375 -1.96875 -0.4375q-1.125 0 -1.734375 0.625q-0.59375 0.609375 -0.59375 1.859375l0 4.953125l-2.078125 0l0 -9.234375l1.78125 0l-0.0625 1.828125l-0.0625 -0.046875q0.421875 -1.0625 1.171875 -1.5q0.75 -0.4375 1.84375 -0.4375q0.984375 0 2.28125 0.46875z" fill-rule="nonzero"/><path fill="#38761d" d="m407.95764 149.40826l-0.71875 1.84375q-1.421875 -0.53125 -2.28125 -0.53125q-2.578125 0 -2.578125 2.890625q0 2.84375 2.5 2.84375q1.15625 0 2.828125 -0.625l0 1.921875q-1.296875 0.609375 -2.890625 0.609375q-2.15625 0 -3.359375 -1.234375q-1.203125 -1.234375 -1.203125 -3.5q0 -2.328125 1.21875 -3.5625q1.234375 -1.25 3.4375 -1.25q1.453125 0 3.046875 0.59375zm7.8046875 8.796875l0 -1.390625l0.078125 0.046875q-0.71875 1.5 -2.6875 1.5q-3.390625 0 -3.390625 -3.46875l0 -5.921875l2.078125 0l0 5.84375q0 1.703125 1.515625 1.703125q1.109375 0 1.59375 -0.609375q0.5 -0.609375 0.5 -2.15625l0 -4.78125l2.078125 0l0 9.234375l-1.765625 0zm9.4296875 0l-0.109375 -1.4375l0.0625 0.046875q-0.453125 0.890625 -1.15625 1.21875q-0.6875 0.328125 -1.765625 0.328125q-1.40625 0 -2.234375 -0.765625q-0.8125 -0.765625 -0.8125 -2.125q0 -2.90625 4.296875 -3.046875l1.265625 -0.03125l0 -0.234375q0 -1.515625 -1.578125 -1.515625q-1.0625 0 -2.71875 0.75l-0.765625 -1.65625q1.890625 -0.921875 3.421875 -0.921875q1.90625 0 2.796875 0.765625q0.890625 0.765625 0.890625 2.421875l0 6.203125l-1.59375 0zm-0.46875 -4.1875l-0.921875 0.046875q-1.4375 0.0625 -1.96875 0.40625q-0.53125 0.328125 -0.53125 1.015625q0 1.0625 1.234375 1.0625q1.03125 0 1.609375 -0.53125q0.578125 -0.546875 0.578125 -1.5625l0 -0.4375zm11.6171875 2.3125l0 1.703125q-1.296875 0.328125 -2.296875 0.328125q-3.15625 0 -3.15625 -3.015625l0 -4.65625l-2.078125 0l0 -1.34375l2.140625 -0.375l0.625 -2.296875l1.390625 0l0 2.296875l3.421875 0l0 1.71875l-3.421875 0l0 4.65625q0 1.1875 1.171875 1.1875q0.71875 0 2.203125 -0.203125zm9.9921875 -7.046875l-0.578125 1.921875q-1.234375 -0.4375 -1.96875 -0.4375q-1.125 0 -1.734375 0.625q-0.59375 0.609375 -0.59375 1.859375l0 4.953125l-2.078125 0l0 -9.234375l1.78125 0l-0.0625 1.828125l-0.0625 -0.046875q0.421875 -1.0625 1.171875 -1.5q0.75 -0.4375 1.84375 -0.4375q0.984375 0 2.28125 0.46875zm5.6796875 9.078125q-1.828125 0 -3.015625 -1.3125q-1.171875 -1.328125 -1.171875 -3.484375q0 -2.171875 1.140625 -3.453125q1.15625 -1.296875 3.09375 -1.296875q1.84375 0 3.015625 1.3125q1.1875 1.3125 1.1875 3.4375q0 2.203125 -1.171875 3.5q-1.15625 1.296875 -3.078125 1.296875zm0.03125 -1.84375q2.09375 0 2.09375 -2.953125q0 -2.921875 -2.109375 -2.921875q-2.078125 0 -2.078125 2.921875q0 2.953125 2.09375 2.953125z" fill-rule="nonzero"/><path fill="#ffff00" d="m43.180294 181.25201l2.1875 -0.21875q0.09375 0.734375 0.546875 1.171875q0.46875 0.4375 1.0625 0.4375q0.6875 0 1.15625 -0.5625q0.484375 -0.5625 0.484375 -1.6875q0 -1.046875 -0.46875 -1.578125q-0.46875 -0.53125 -1.234375 -0.53125q-0.9375 0 -1.6875 0.84375l-1.78125 -0.265625l1.125 -5.953125l5.796875 0l0 2.046875l-4.140625 0l-0.34375 1.953125q0.734375 -0.375 1.5 -0.375q1.46875 0 2.484375 1.0625q1.015625 1.0625 1.015625 2.765625q0 1.40625 -0.828125 2.515625q-1.109375 1.53125 -3.09375 1.53125q-1.59375 0 -2.59375 -0.859375q-1.0 -0.859375 -1.1875 -2.296875z" fill-rule="nonzero"/><path fill="#000000" d="m95.72326 176.68951l-3.03125 0l0 7.515625l-2.078125 0l0 -7.515625l-2.484375 0l0 -1.484375l2.484375 -0.25l0 -0.453125q0 -1.65625 0.796875 -2.421875q0.8125 -0.78125 2.5625 -0.78125q1.0625 0 2.375 0.390625l-0.484375 1.734375q-1.09375 -0.296875 -1.859375 -0.296875q-0.8125 0 -1.0625 0.296875q-0.25 0.28125 -0.25 1.0625l0 0.484375l3.03125 0l0 1.71875zm7.8671875 7.515625l-0.109375 -1.4375l0.0625 0.046875q-0.453125 0.890625 -1.15625 1.21875q-0.6875 0.328125 -1.765625 0.328125q-1.40625 0 -2.234375 -0.765625q-0.8125 -0.765625 -0.8125 -2.125q0 -2.90625 4.296875 -3.046875l1.265625 -0.03125l0 -0.234375q0 -1.515625 -1.578125 -1.515625q-1.0625 0 -2.71875 0.75l-0.765625 -1.65625q1.890625 -0.921875 3.421875 -0.921875q1.90625 0 2.796875 0.765625q0.890625 0.765625 0.890625 2.421875l0 6.203125l-1.59375 0zm-0.46875 -4.1875l-0.921875 0.046875q-1.4375 0.0625 -1.96875 0.40625q-0.53125 0.328125 -0.53125 1.015625q0 1.0625 1.234375 1.0625q1.03125 0 1.609375 -0.53125q0.578125 -0.546875 0.578125 -1.5625l0 -0.4375z" fill-rule="nonzero"/><path fill="#cc0000" d="m193.67639 172.12701l-5.171875 12.078125l-2.109375 0l5.171875 -12.078125l2.109375 0zm9.6484375 4.5625l-3.03125 0l0 7.515625l-2.078125 0l0 -7.515625l-2.484375 0l0 -1.484375l2.484375 -0.25l0 -0.453125q0 -1.65625 0.796875 -2.421875q0.8125 -0.78125 2.5625 -0.78125q1.0625 0 2.375 0.390625l-0.484375 1.734375q-1.09375 -0.296875 -1.859375 -0.296875q-0.8125 0 -1.0625 0.296875q-0.25 0.28125 -0.25 1.0625l0 0.484375l3.03125 0l0 1.71875zm7.8671875 7.515625l-0.109375 -1.4375l0.0625 0.046875q-0.453125 0.890625 -1.15625 1.21875q-0.6875 0.328125 -1.765625 0.328125q-1.40625 0 -2.234375 -0.765625q-0.8125 -0.765625 -0.8125 -2.125q0 -2.90625 4.296875 -3.046875l1.265625 -0.03125l0 -0.234375q0 -1.515625 -1.578125 -1.515625q-1.0625 0 -2.71875 0.75l-0.765625 -1.65625q1.890625 -0.921875 3.421875 -0.921875q1.90625 0 2.796875 0.765625q0.890625 0.765625 0.890625 2.421875l0 6.203125l-1.59375 0zm-0.46875 -4.1875l-0.921875 0.046875q-1.4375 0.0625 -1.96875 0.40625q-0.53125 0.328125 -0.53125 1.015625q0 1.0625 1.234375 1.0625q1.03125 0 1.609375 -0.53125q0.578125 -0.546875 0.578125 -1.5625l0 -0.4375zm11.7578125 -7.890625l-5.171875 12.078125l-2.109375 0l5.171875 -12.078125l2.109375 0z" fill-rule="nonzero"/><path fill="#000000" d="m291.72327 176.68951l-3.03125 0l0 7.515625l-2.078125 0l0 -7.515625l-2.484375 0l0 -1.484375l2.484375 -0.25l0 -0.453125q0 -1.65625 0.796875 -2.421875q0.8125 -0.78125 2.5625 -0.78125q1.0625 0 2.375 0.390625l-0.484375 1.734375q-1.09375 -0.296875 -1.859375 -0.296875q-0.8125 0 -1.0625 0.296875q-0.25 0.28125 -0.25 1.0625l0 0.484375l3.03125 0l0 1.71875zm6.0703125 -5.25q1.15625 0 1.15625 1.21875q0 0.609375 -0.359375 0.921875q-0.34375 0.296875 -0.796875 0.296875q-1.171875 0 -1.171875 -1.21875q0 -1.21875 1.171875 -1.21875zm-1.046875 5.28125l-2.109375 -0.171875l0 -1.578125l4.1875 0l0 7.46875l2.75 0.15625l0 1.609375l-7.515625 0l0 -1.609375l2.6875 -0.15625l0 -5.71875zm9.3515625 7.484375l-3.484375 -9.234375l2.171875 0l1.953125 5.3125q0.671875 1.828125 0.515625 2.59375l-0.046875 -0.015625q-0.203125 -0.359375 0.53125 -2.578125l1.9375 -5.3125l2.1875 0l-3.484375 9.234375l-2.28125 0zm14.8359375 -4.015625l-6.046875 0q0.0625 2.265625 2.359375 2.265625q1.46875 0 3.21875 -0.765625l0 1.953125q-1.546875 0.71875 -3.171875 0.71875q-2.046875 0 -3.296875 -1.265625q-1.234375 -1.265625 -1.234375 -3.453125q0 -2.203125 1.140625 -3.515625q1.140625 -1.3125 3.078125 -1.3125q1.796875 0 2.875 1.15625q1.078125 1.140625 1.078125 3.0l0 1.21875zm-5.984375 -1.8125l3.796875 0q0 -1.734375 -1.796875 -1.734375q-1.859375 0 -2.0 1.734375z" fill-rule="nonzero"/><path fill="#38761d" d="m407.95764 175.40826l-0.71875 1.84375q-1.421875 -0.53125 -2.28125 -0.53125q-2.578125 0 -2.578125 2.890625q0 2.84375 2.5 2.84375q1.15625 0 2.828125 -0.625l0 1.921875q-1.296875 0.609375 -2.890625 0.609375q-2.15625 0 -3.359375 -1.234375q-1.203125 -1.234375 -1.203125 -3.5q0 -2.328125 1.21875 -3.5625q1.234375 -1.25 3.4375 -1.25q1.453125 0 3.046875 0.59375zm5.8359375 -3.96875q1.15625 0 1.15625 1.21875q0 0.609375 -0.359375 0.921875q-0.34375 0.296875 -0.796875 0.296875q-1.171875 0 -1.171875 -1.21875q0 -1.21875 1.171875 -1.21875zm-1.046875 5.28125l-2.109375 -0.171875l0 -1.578125l4.1875 0l0 7.46875l2.75 0.15625l0 1.609375l-7.515625 0l0 -1.609375l2.6875 -0.15625l0 -5.71875zm12.3046875 7.484375l0 -5.859375q0 -1.703125 -1.53125 -1.703125q-2.078125 0 -2.078125 2.78125l0 4.78125l-2.078125 0l0 -9.234375l1.765625 0l0 1.390625l-0.078125 -0.046875q0.703125 -1.5 2.703125 -1.5q3.375 0 3.375 3.453125l0 5.9375l-2.078125 0zm11.7109375 -8.796875l-0.71875 1.84375q-1.421875 -0.53125 -2.28125 -0.53125q-2.578125 0 -2.578125 2.890625q0 2.84375 2.5 2.84375q1.15625 0 2.828125 -0.625l0 1.921875q-1.296875 0.609375 -2.890625 0.609375q-2.15625 0 -3.359375 -1.234375q-1.203125 -1.234375 -1.203125 -3.5q0 -2.328125 1.21875 -3.5625q1.234375 -1.25 3.4375 -1.25q1.453125 0 3.046875 0.59375zm5.6484375 8.953125q-1.828125 0 -3.015625 -1.3125q-1.171875 -1.328125 -1.171875 -3.484375q0 -2.171875 1.140625 -3.453125q1.15625 -1.296875 3.09375 -1.296875q1.84375 0 3.015625 1.3125q1.1875 1.3125 1.1875 3.4375q0 2.203125 -1.171875 3.5q-1.15625 1.296875 -3.078125 1.296875zm0.03125 -1.84375q2.09375 0 2.09375 -2.953125q0 -2.921875 -2.109375 -2.921875q-2.078125 0 -2.078125 2.921875q0 2.953125 2.09375 2.953125z" fill-rule="nonzero"/><path fill="#ffff00" d="m50.586544 201.54889l-2.125 0.234375q-0.078125 -0.65625 -0.40625 -0.96875q-0.328125 -0.3125 -0.859375 -0.3125q-0.6875 0 -1.171875 0.625q-0.484375 0.625 -0.609375 2.609375q0.828125 -0.96875 2.046875 -0.96875q1.375 0 2.34375 1.046875q0.984375 1.046875 0.984375 2.703125q0 1.75 -1.03125 2.828125q-1.03125 1.0625 -2.640625 1.0625q-1.734375 0 -2.859375 -1.34375q-1.109375 -1.359375 -1.109375 -4.4375q0 -3.140625 1.15625 -4.53125q1.171875 -1.390625 3.03125 -1.390625q1.296875 0 2.15625 0.734375q0.859375 0.71875 1.09375 2.109375zm-4.984375 4.796875q0 1.0625 0.484375 1.65625q0.5 0.578125 1.140625 0.578125q0.609375 0 1.015625 -0.46875q0.40625 -0.484375 0.40625 -1.578125q0 -1.109375 -0.4375 -1.625q-0.4375 -0.53125 -1.09375 -0.53125q-0.640625 0 -1.078125 0.5q-0.4375 0.5 -0.4375 1.46875z" fill-rule="nonzero"/><path fill="#000000" d="m95.72326 210.20514l-7.390625 0l0 -1.421875l4.8125 -6.09375l-4.546875 0l0 -1.71875l6.984375 0l0 1.578125l-4.703125 5.921875l4.84375 0l0 1.734375zm10.0078125 -4.015625l-6.046875 0q0.0625 2.265625 2.359375 2.265625q1.46875 0 3.21875 -0.765625l0 1.953125q-1.546875 0.71875 -3.171875 0.71875q-2.046875 0 -3.296875 -1.265625q-1.234375 -1.265625 -1.234375 -3.453125q0 -2.203125 1.140625 -3.515625q1.140625 -1.3125 3.078125 -1.3125q1.796875 0 2.875 1.15625q1.078125 1.140625 1.078125 3.0l0 1.21875zm-5.984375 -1.8125l3.796875 0q0 -1.734375 -1.796875 -1.734375q-1.859375 0 -2.0 1.734375z" fill-rule="nonzero"/><path fill="#cc0000" d="m193.67639 198.12701l-5.171875 12.078125l-2.109375 0l5.171875 -12.078125l2.109375 0zm9.6484375 12.078125l-7.390625 0l0 -1.421875l4.8125 -6.09375l-4.546875 0l0 -1.71875l6.984375 0l0 1.578125l-4.703125 5.921875l4.84375 0l0 1.734375zm10.0078125 -4.015625l-6.046875 0q0.0625 2.265625 2.359375 2.265625q1.46875 0 3.21875 -0.765625l0 1.953125q-1.546875 0.71875 -3.171875 0.71875q-2.046875 0 -3.296875 -1.265625q-1.234375 -1.265625 -1.234375 -3.453125q0 -2.203125 1.140625 -3.515625q1.140625 -1.3125 3.078125 -1.3125q1.796875 0 2.875 1.15625q1.078125 1.140625 1.078125 3.0l0 1.21875zm-5.984375 -1.8125l3.796875 0q0 -1.734375 -1.796875 -1.734375q-1.859375 0 -2.0 1.734375zm15.1328125 -6.25l-5.171875 12.078125l-2.109375 0l5.171875 -12.078125l2.109375 0z" fill-rule="nonzero"/><path fill="#000000" d="m284.50452 209.67389l0 -1.984375q1.890625 0.84375 3.21875 0.84375q1.8125 0 1.8125 -0.9375q0 -0.28125 -0.3125 -0.546875q-0.296875 -0.265625 -1.609375 -0.734375q-1.921875 -0.71875 -2.453125 -1.359375q-0.53125 -0.640625 -0.53125 -1.546875q0 -1.234375 0.96875 -1.90625q0.984375 -0.6875 2.640625 -0.6875q1.609375 0 3.296875 0.734375l-0.703125 1.75q-1.671875 -0.65625 -2.671875 -0.65625q-1.515625 0 -1.515625 0.71875q0 0.296875 0.296875 0.53125q0.3125 0.21875 1.6875 0.703125q1.734375 0.640625 2.34375 1.296875q0.609375 0.65625 0.609375 1.625q0 1.34375 -1.03125 2.09375q-1.015625 0.75 -2.796875 0.75q-2.015625 0 -3.25 -0.6875zm13.2890625 -12.234375q1.15625 0 1.15625 1.21875q0 0.609375 -0.359375 0.921875q-0.34375 0.296875 -0.796875 0.296875q-1.171875 0 -1.171875 -1.21875q0 -1.21875 1.171875 -1.21875zm-1.046875 5.28125l-2.109375 -0.171875l0 -1.578125l4.1875 0l0 7.46875l2.75 0.15625l0 1.609375l-7.515625 0l0 -1.609375l2.6875 -0.15625l0 -5.71875zm9.2734375 2.75l-3.296875 -4.5l2.421875 0l2.09375 2.96875l2.109375 -2.96875l2.4375 0l-3.328125 4.5l3.453125 4.734375l-2.421875 0l-2.25 -3.171875l-2.25 3.171875l-2.4375 0l3.46875 -4.734375z" fill-rule="nonzero"/><path fill="#38761d" d="m400.50452 209.67389l0 -1.984375q1.890625 0.84375 3.21875 0.84375q1.8125 0 1.8125 -0.9375q0 -0.28125 -0.3125 -0.546875q-0.296875 -0.265625 -1.609375 -0.734375q-1.921875 -0.71875 -2.453125 -1.359375q-0.53125 -0.640625 -0.53125 -1.546875q0 -1.234375 0.96875 -1.90625q0.984375 -0.6875 2.640625 -0.6875q1.609375 0 3.296875 0.734375l-0.703125 1.75q-1.671875 -0.65625 -2.671875 -0.65625q-1.515625 0 -1.515625 0.71875q0 0.296875 0.296875 0.53125q0.3125 0.21875 1.6875 0.703125q1.734375 0.640625 2.34375 1.296875q0.609375 0.65625 0.609375 1.625q0 1.34375 -1.03125 2.09375q-1.015625 0.75 -2.796875 0.75q-2.015625 0 -3.25 -0.6875zm17.226562 -3.484375l-6.046875 0q0.0625 2.265625 2.359375 2.265625q1.46875 0 3.21875 -0.765625l0 1.953125q-1.546875 0.71875 -3.171875 0.71875q-2.046875 0 -3.296875 -1.265625q-1.234375 -1.265625 -1.234375 -3.453125q0 -2.203125 1.140625 -3.515625q1.140625 -1.3125 3.078125 -1.3125q1.796875 0 2.875 1.15625q1.078125 1.140625 1.078125 3.0l0 1.21875zm-5.984375 -1.8125l3.796875 0q0 -1.734375 -1.796875 -1.734375q-1.859375 0 -2.0 1.734375zm11.6484375 -6.9375q1.15625 0 1.15625 1.21875q0 0.609375 -0.359375 0.921875q-0.34375 0.296875 -0.796875 0.296875q-1.171875 0 -1.171875 -1.21875q0 -1.21875 1.171875 -1.21875zm-1.046875 5.28125l-2.109375 -0.171875l0 -1.578125l4.1875 0l0 7.46875l2.75 0.15625l0 1.609375l-7.515625 0l0 -1.609375l2.6875 -0.15625l0 -5.71875zm6.9609375 6.953125l0 -1.984375q1.890625 0.84375 3.21875 0.84375q1.8125 0 1.8125 -0.9375q0 -0.28125 -0.3125 -0.546875q-0.296875 -0.265625 -1.609375 -0.734375q-1.921875 -0.71875 -2.453125 -1.359375q-0.53125 -0.640625 -0.53125 -1.546875q0 -1.234375 0.96875 -1.90625q0.984375 -0.6875 2.640625 -0.6875q1.609375 0 3.296875 0.734375l-0.703125 1.75q-1.671875 -0.65625 -2.671875 -0.65625q-1.515625 0 -1.515625 0.71875q0 0.296875 0.296875 0.53125q0.3125 0.21875 1.6875 0.703125q1.734375 0.640625 2.34375 1.296875q0.609375 0.65625 0.609375 1.625q0 1.34375 -1.03125 2.09375q-1.015625 0.75 -2.796875 0.75q-2.015625 0 -3.25 -0.6875z" fill-rule="nonzero"/><path fill="#ffff00" d="m43.149044 226.93951l0 -2.03125l7.5 0l0 1.59375q-0.921875 0.90625 -1.890625 2.625q-0.953125 1.703125 -1.46875 3.640625q-0.5 1.921875 -0.484375 3.4375l-2.125 0q0.0625 -2.375 0.984375 -4.84375q0.921875 -2.46875 2.46875 -4.421875l-4.984375 0z" fill-rule="nonzero"/><path fill="#000000" d="m95.957634 227.40826l-0.71875 1.84375q-1.421875 -0.53125 -2.28125 -0.53125q-2.578125 0 -2.578125 2.890625q0 2.84375 2.5 2.84375q1.15625 0 2.828125 -0.625l0 1.921875q-1.296875 0.609375 -2.890625 0.609375q-2.15625 0 -3.359375 -1.234375q-1.203125 -1.234375 -1.203125 -3.5q0 -2.328125 1.21875 -3.5625q1.234375 -1.25 3.4375 -1.25q1.453125 0 3.046875 0.59375zm9.7734375 4.78125l-6.046875 0q0.0625 2.265625 2.359375 2.265625q1.46875 0 3.21875 -0.765625l0 1.953125q-1.546875 0.71875 -3.171875 0.71875q-2.046875 0 -3.296875 -1.265625q-1.234375 -1.265625 -1.234375 -3.453125q0 -2.203125 1.140625 -3.515625q1.140625 -1.3125 3.078125 -1.3125q1.796875 0 2.875 1.15625q1.078125 1.140625 1.078125 3.0l0 1.21875zm-5.984375 -1.8125l3.796875 0q0 -1.734375 -1.796875 -1.734375q-1.859375 0 -2.0 1.734375z" fill-rule="nonzero"/><path fill="#cc0000" d="m193.67639 224.12701l-5.171875 12.078125l-2.109375 0l5.171875 -12.078125l2.109375 0z" fill-rule="nonzero"/><path fill="#cc0000" d="m197.94983 226.40826q0.265625 -1.796875 0.828125 -2.4375q0.671875 -0.734375 1.9375 -0.734375q1.015625 0 1.625 0.6875q0.578125 0.78125 0.671875 2.09375l-1.96875 0q-0.078125 -0.703125 -0.203125 -0.859375q-0.078125 -0.078125 -0.25 -0.078125q-0.28125 0 -0.4375 0.1875q-0.171875 0.234375 -0.234375 1.0625l-0.3125 8.546875q0 1.546875 -0.6875 2.453125q-0.65625 0.875 -1.890625 0.875q-1.140625 0 -1.671875 -0.53125q-0.65625 -0.65625 -0.65625 -2.25l1.90625 0q0 0.625 0.171875 0.8125q0.046875 0.0625 0.1875 0.0625q0.234375 0 0.453125 -0.203125q0.28125 -0.34375 0.34375 -1.296875l0.1875 -8.390625z" fill-rule="nonzero"/><path fill="#cc0000" d="m211.73108 232.18951l-6.046875 0q0.0625 2.265625 2.359375 2.265625q1.46875 0 3.21875 -0.765625l0 1.953125q-1.546875 0.71875 -3.171875 0.71875q-2.046875 0 -3.296875 -1.265625q-1.234375 -1.265625 -1.234375 -3.453125q0 -2.203125 1.140625 -3.515625q1.140625 -1.3125 3.078125 -1.3125q1.796875 0 2.875 1.15625q1.078125 1.140625 1.078125 3.0l0 1.21875zm-5.984375 -1.8125l3.796875 0q0 -1.734375 -1.796875 -1.734375q-1.859375 0 -2.0 1.734375zm15.1328125 -6.25l-5.171875 12.078125l-2.109375 0l5.171875 -12.078125l2.109375 0z" fill-rule="nonzero"/><path fill="#000000" d="m284.50452 235.67389l0 -1.984375q1.890625 0.84375 3.21875 0.84375q1.8125 0 1.8125 -0.9375q0 -0.28125 -0.3125 -0.546875q-0.296875 -0.265625 -1.609375 -0.734375q-1.921875 -0.71875 -2.453125 -1.359375q-0.53125 -0.640625 -0.53125 -1.546875q0 -1.234375 0.96875 -1.90625q0.984375 -0.6875 2.640625 -0.6875q1.609375 0 3.296875 0.734375l-0.703125 1.75q-1.671875 -0.65625 -2.671875 -0.65625q-1.515625 0 -1.515625 0.71875q0 0.296875 0.296875 0.53125q0.3125 0.21875 1.6875 0.703125q1.734375 0.640625 2.34375 1.296875q0.609375 0.65625 0.609375 1.625q0 1.34375 -1.03125 2.09375q-1.015625 0.75 -2.796875 0.75q-2.015625 0 -3.25 -0.6875zm17.226562 -3.484375l-6.046875 0q0.0625 2.265625 2.359375 2.265625q1.46875 0 3.21875 -0.765625l0 1.953125q-1.546875 0.71875 -3.171875 0.71875q-2.046875 0 -3.296875 -1.265625q-1.234375 -1.265625 -1.234375 -3.453125q0 -2.203125 1.140625 -3.515625q1.140625 -1.3125 3.078125 -1.3125q1.796875 0 2.875 1.15625q1.078125 1.140625 1.078125 3.0l0 1.21875zm-5.984375 -1.8125l3.796875 0q0 -1.734375 -1.796875 -1.734375q-1.859375 0 -2.0 1.734375zm10.3515625 5.828125l-3.484375 -9.234375l2.171875 0l1.953125 5.3125q0.671875 1.828125 0.515625 2.59375l-0.046875 -0.015625q-0.203125 -0.359375 0.53125 -2.578125l1.9375 -5.3125l2.1875 0l-3.484375 9.234375l-2.28125 0zm14.8359375 -4.015625l-6.046875 0q0.0625 2.265625 2.359375 2.265625q1.46875 0 3.21875 -0.765625l0 1.953125q-1.546875 0.71875 -3.171875 0.71875q-2.046875 0 -3.296875 -1.265625q-1.234375 -1.265625 -1.234375 -3.453125q0 -2.203125 1.140625 -3.515625q1.140625 -1.3125 3.078125 -1.3125q1.796875 0 2.875 1.15625q1.078125 1.140625 1.078125 3.0l0 1.21875zm-5.984375 -1.8125l3.796875 0q0 -1.734375 -1.796875 -1.734375q-1.859375 0 -2.0 1.734375zm13.3046875 5.828125l0 -5.859375q0 -1.703125 -1.53125 -1.703125q-2.078125 0 -2.078125 2.78125l0 4.78125l-2.078125 0l0 -9.234375l1.765625 0l0 1.390625l-0.078125 -0.046875q0.703125 -1.5 2.703125 -1.5q3.375 0 3.375 3.453125l0 5.9375l-2.078125 0z" fill-rule="nonzero"/><path fill="#38761d" d="m400.50452 235.67389l0 -1.984375q1.890625 0.84375 3.21875 0.84375q1.8125 0 1.8125 -0.9375q0 -0.28125 -0.3125 -0.546875q-0.296875 -0.265625 -1.609375 -0.734375q-1.921875 -0.71875 -2.453125 -1.359375q-0.53125 -0.640625 -0.53125 -1.546875q0 -1.234375 0.96875 -1.90625q0.984375 -0.6875 2.640625 -0.6875q1.609375 0 3.296875 0.734375l-0.703125 1.75q-1.671875 -0.65625 -2.671875 -0.65625q-1.515625 0 -1.515625 0.71875q0 0.296875 0.296875 0.53125q0.3125 0.21875 1.6875 0.703125q1.734375 0.640625 2.34375 1.296875q0.609375 0.65625 0.609375 1.625q0 1.34375 -1.03125 2.09375q-1.015625 0.75 -2.796875 0.75q-2.015625 0 -3.25 -0.6875zm13.2890625 -12.234375q1.15625 0 1.15625 1.21875q0 0.609375 -0.359375 0.921875q-0.34375 0.296875 -0.796875 0.296875q-1.171875 0 -1.171875 -1.21875q0 -1.21875 1.171875 -1.21875zm-1.046875 5.28125l-2.109375 -0.171875l0 -1.578125l4.1875 0l0 7.46875l2.75 0.15625l0 1.609375l-7.515625 0l0 -1.609375l2.6875 -0.15625l0 -5.71875zm14.5859375 3.46875l-6.046875 0q0.0625 2.265625 2.359375 2.265625q1.46875 0 3.21875 -0.765625l0 1.953125q-1.546875 0.71875 -3.171875 0.71875q-2.046875 0 -3.296875 -1.265625q-1.234375 -1.265625 -1.234375 -3.453125q0 -2.203125 1.140625 -3.515625q1.140625 -1.3125 3.078125 -1.3125q1.796875 0 2.875 1.15625q1.078125 1.140625 1.078125 3.0l0 1.21875zm-5.984375 -1.8125l3.796875 0q0 -1.734375 -1.796875 -1.734375q-1.859375 0 -2.0 1.734375zm14.9921875 3.953125l0 1.703125q-1.296875 0.328125 -2.296875 0.328125q-3.15625 0 -3.15625 -3.015625l0 -4.65625l-2.078125 0l0 -1.34375l2.140625 -0.375l0.625 -2.296875l1.390625 0l0 2.296875l3.421875 0l0 1.71875l-3.421875 0l0 4.65625q0 1.1875 1.171875 1.1875q0.71875 0 2.203125 -0.203125zm10.1953125 -2.140625l-6.046875 0q0.0625 2.265625 2.359375 2.265625q1.46875 0 3.21875 -0.765625l0 1.953125q-1.546875 0.71875 -3.171875 0.71875q-2.046875 0 -3.296875 -1.265625q-1.234375 -1.265625 -1.234375 -3.453125q0 -2.203125 1.140625 -3.515625q1.140625 -1.3125 3.078125 -1.3125q1.796875 0 2.875 1.15625q1.078125 1.140625 1.078125 3.0l0 1.21875zm-5.984375 -1.8125l3.796875 0q0 -1.734375 -1.796875 -1.734375q-1.859375 0 -2.0 1.734375z" fill-rule="nonzero"/><path fill="#ffff00" d="m45.024044 256.01764q-0.84375 -0.359375 -1.234375 -0.984375q-0.390625 -0.625 -0.390625 -1.375q0 -1.28125 0.890625 -2.109375q0.90625 -0.84375 2.546875 -0.84375q1.640625 0 2.53125 0.84375q0.90625 0.828125 0.90625 2.109375q0 0.796875 -0.421875 1.421875q-0.40625 0.609375 -1.15625 0.9375q0.953125 0.390625 1.453125 1.125q0.5 0.734375 0.5 1.6875q0 1.59375 -1.015625 2.59375q-1.015625 0.984375 -2.6875 0.984375q-1.5625 0 -2.609375 -0.828125q-1.21875 -0.96875 -1.21875 -2.65625q0 -0.921875 0.453125 -1.703125q0.46875 -0.78125 1.453125 -1.203125zm0.453125 -2.203125q0 0.65625 0.375 1.03125q0.375 0.359375 0.984375 0.359375q0.625 0 1.0 -0.375q0.375 -0.375 0.375 -1.03125q0 -0.609375 -0.375 -0.984375q-0.359375 -0.375 -0.96875 -0.375q-0.640625 0 -1.015625 0.375q-0.375 0.375 -0.375 1.0zm-0.203125 4.90625q0 0.90625 0.46875 1.421875q0.46875 0.5 1.15625 0.5q0.6875 0 1.125 -0.484375q0.453125 -0.5 0.453125 -1.421875q0 -0.796875 -0.453125 -1.28125q-0.453125 -0.5 -1.15625 -0.5q-0.796875 0 -1.203125 0.5625q-0.390625 0.546875 -0.390625 1.203125z" fill-rule="nonzero"/><path fill="#000000" d="m92.00451 262.3614q-1.828125 0 -3.015625 -1.3125q-1.171875 -1.328125 -1.171875 -3.484375q0 -2.171875 1.140625 -3.453125q1.15625 -1.296875 3.09375 -1.296875q1.84375 0 3.015625 1.3125q1.1875 1.3125 1.1875 3.4375q0 2.203125 -1.171875 3.5q-1.15625 1.296875 -3.078125 1.296875zm0.03125 -1.84375q2.09375 0 2.09375 -2.953125q0 -2.921875 -2.109375 -2.921875q-2.078125 0 -2.078125 2.921875q0 2.953125 2.09375 2.953125zm7.7734375 -3.03125l0.84375 -1.34375l3.1875 -3.171875l2.6875 0l-4.21875 4.0625l4.328125 5.171875l-2.53125 0l-3.234375 -3.828125l-0.609375 0.375l0 3.453125l-2.0625 0l0 -12.8125l2.0625 0l0 5.921875l-0.421875 2.203125l-0.03125 -0.03125z" fill-rule="nonzero"/><path fill="#cc0000" d="m193.67639 250.12701l-5.171875 12.078125l-2.109375 0l5.171875 -12.078125l2.109375 0zm5.9296875 12.234375q-1.828125 0 -3.015625 -1.3125q-1.171875 -1.328125 -1.171875 -3.484375q0 -2.171875 1.140625 -3.453125q1.15625 -1.296875 3.09375 -1.296875q1.84375 0 3.015625 1.3125q1.1875 1.3125 1.1875 3.4375q0 2.203125 -1.171875 3.5q-1.15625 1.296875 -3.078125 1.296875zm0.03125 -1.84375q2.09375 0 2.09375 -2.953125q0 -2.921875 -2.109375 -2.921875q-2.078125 0 -2.078125 2.921875q0 2.953125 2.09375 2.953125zm7.7734375 -3.03125l0.84375 -1.34375l3.1875 -3.171875l2.6875 0l-4.21875 4.0625l4.328125 5.171875l-2.53125 0l-3.234375 -3.828125l-0.609375 0.375l0 3.453125l-2.0625 0l0 -12.8125l2.0625 0l0 5.921875l-0.421875 2.203125l-0.03125 -0.03125zm15.0703125 -7.359375l-5.171875 12.078125l-2.109375 0l5.171875 -12.078125l2.109375 0z" fill-rule="nonzero"/><path fill="#000000" d="m292.12952 258.1895l-6.046875 0q0.0625 2.265625 2.359375 2.265625q1.46875 0 3.21875 -0.765625l0 1.953125q-1.546875 0.71875 -3.171875 0.71875q-2.046875 0 -3.296875 -1.265625q-1.234375 -1.265625 -1.234375 -3.453125q0 -2.203125 1.140625 -3.515625q1.140625 -1.3125 3.078125 -1.3125q1.796875 0 2.875 1.15625q1.078125 1.140625 1.078125 3.0l0 1.21875zm-5.984375 -1.8125l3.796875 0q0 -1.734375 -1.796875 -1.734375q-1.859375 0 -2.0 1.734375zm11.6484375 -6.9375q1.15625 0 1.15625 1.21875q0 0.609375 -0.359375 0.921875q-0.34375 0.296875 -0.796875 0.296875q-1.171875 0 -1.171875 -1.21875q0 -1.21875 1.171875 -1.21875zm-1.046875 5.28125l-2.109375 -0.171875l0 -1.578125l4.1875 0l0 7.46875l2.75 0.15625l0 1.609375l-7.515625 0l0 -1.609375l2.6875 -0.15625l0 -5.71875zm14.8203125 -1.75l0 1.484375l-1.25 0.1875q0.234375 0.296875 0.234375 1.40625q0 1.40625 -0.9375 2.25q-0.9375 0.828125 -2.546875 0.828125q-0.453125 0 -0.609375 -0.03125q-0.515625 0.28125 -0.515625 0.703125q0 0.328125 0.9375 0.328125l1.453125 0q1.484375 0 2.296875 0.6875q0.828125 0.6875 0.828125 1.96875q0 3.265625 -4.734375 3.265625q-1.8125 0 -2.8125 -0.703125q-1.0 -0.703125 -1.0 -2.015625q0 -1.921875 1.3125 -2.203125q-0.1875 -0.078125 -0.1875 -1.109375q0 -1.0625 0.65625 -1.453125q-0.203125 -0.078125 -0.65625 -0.828125q-0.453125 -0.75 -0.453125 -1.640625q0 -1.5625 0.9375 -2.421875q0.9375 -0.859375 2.59375 -0.859375q0.71875 0 1.21875 0.15625l3.234375 0zm-4.484375 4.53125q1.421875 0 1.421875 -1.46875q0 -1.546875 -1.4375 -1.546875q-1.421875 0 -1.421875 1.5625q0 1.453125 1.4375 1.453125zm0.765625 4.5625l-1.46875 0q-1.46875 0 -1.46875 1.21875q0 1.03125 1.796875 1.03125q2.75 0 2.75 -1.40625q0 -0.5 -0.28125 -0.671875q-0.265625 -0.171875 -1.328125 -0.171875zm10.8046875 0.140625l0 -5.859375q0 -1.703125 -1.53125 -1.703125q-2.078125 0 -2.078125 2.78125l0 4.78125l-2.078125 0l0 -12.8125l2.078125 0l0 3.953125l-0.3125 1.03125l-0.078125 -0.0625q0.703125 -1.5 2.703125 -1.5q3.375 0 3.375 3.453125l0 5.9375l-2.078125 0zm11.2890625 -1.875l0 1.703125q-1.296875 0.328125 -2.296875 0.328125q-3.15625 0 -3.15625 -3.015625l0 -4.65625l-2.078125 0l0 -1.34375l2.140625 -0.375l0.625 -2.296875l1.390625 0l0 2.296875l3.421875 0l0 1.71875l-3.421875 0l0 4.65625q0 1.1875 1.171875 1.1875q0.71875 0 2.203125 -0.203125z" fill-rule="nonzero"/><path fill="#38761d" d="m404.00452 262.3614q-1.828125 0 -3.015625 -1.3125q-1.171875 -1.328125 -1.171875 -3.484375q0 -2.171875 1.140625 -3.453125q1.15625 -1.296875 3.09375 -1.296875q1.84375 0 3.015625 1.3125q1.1875 1.3125 1.1875 3.4375q0 2.203125 -1.171875 3.5q-1.15625 1.296875 -3.078125 1.296875zm0.03125 -1.84375q2.09375 0 2.09375 -2.953125q0 -2.921875 -2.109375 -2.921875q-2.078125 0 -2.078125 2.921875q0 2.953125 2.09375 2.953125zm13.5234375 -7.109375l-0.71875 1.84375q-1.421875 -0.53125 -2.28125 -0.53125q-2.578125 0 -2.578125 2.890625q0 2.84375 2.5 2.84375q1.15625 0 2.828125 -0.625l0 1.921875q-1.296875 0.609375 -2.890625 0.609375q-2.15625 0 -3.359375 -1.234375q-1.203125 -1.234375 -1.203125 -3.5q0 -2.328125 1.21875 -3.5625q1.234375 -1.25 3.4375 -1.25q1.453125 0 3.046875 0.59375zm7.4921875 8.796875l0 -5.859375q0 -1.703125 -1.53125 -1.703125q-2.078125 0 -2.078125 2.78125l0 4.78125l-2.078125 0l0 -12.8125l2.078125 0l0 3.953125l-0.3125 1.03125l-0.078125 -0.0625q0.703125 -1.5 2.703125 -1.5q3.375 0 3.375 3.453125l0 5.9375l-2.078125 0zm7.7578125 0.15625q-1.828125 0 -3.015625 -1.3125q-1.171875 -1.328125 -1.171875 -3.484375q0 -2.171875 1.140625 -3.453125q1.15625 -1.296875 3.09375 -1.296875q1.84375 0 3.015625 1.3125q1.1875 1.3125 1.1875 3.4375q0 2.203125 -1.171875 3.5q-1.15625 1.296875 -3.078125 1.296875zm0.03125 -1.84375q2.09375 0 2.09375 -2.953125q0 -2.921875 -2.109375 -2.921875q-2.078125 0 -2.078125 2.921875q0 2.953125 2.09375 2.953125z" fill-rule="nonzero"/><path fill="#ffff00" d="m43.19592 285.5489l2.125 -0.234375q0.078125 0.65625 0.40625 0.96875q0.328125 0.3125 0.859375 0.3125q0.6875 0 1.15625 -0.625q0.484375 -0.625 0.609375 -2.59375q-0.828125 0.953125 -2.0625 0.953125q-1.359375 0 -2.34375 -1.03125q-0.96875 -1.046875 -0.96875 -2.71875q0 -1.75 1.03125 -2.8125q1.03125 -1.0625 2.640625 -1.0625q1.734375 0 2.84375 1.34375q1.125 1.34375 1.125 4.4375q0 3.140625 -1.171875 4.53125q-1.15625 1.390625 -3.015625 1.390625q-1.34375 0 -2.171875 -0.71875q-0.828125 -0.71875 -1.0625 -2.140625zm4.96875 -4.796875q0 -1.0625 -0.5 -1.640625q-0.484375 -0.59375 -1.125 -0.59375q-0.609375 0 -1.015625 0.484375q-0.390625 0.484375 -0.390625 1.578125q0 1.109375 0.4375 1.625q0.4375 0.515625 1.09375 0.515625q0.625 0 1.0625 -0.5q0.4375 -0.5 0.4375 -1.46875z" fill-rule="nonzero"/><path fill="#000000" d="m93.84826 288.20514l0 -5.859375q0 -1.703125 -1.53125 -1.703125q-2.078125 0 -2.078125 2.78125l0 4.78125l-2.078125 0l0 -9.234375l1.765625 0l0 1.390625l-0.078125 -0.046875q0.703125 -1.5 2.703125 -1.5q3.375 0 3.375 3.453125l0 5.9375l-2.078125 0zm9.7421875 0l-0.109375 -1.4375l0.0625 0.046875q-0.453125 0.890625 -1.15625 1.21875q-0.6875 0.328125 -1.765625 0.328125q-1.40625 0 -2.234375 -0.765625q-0.8125 -0.765625 -0.8125 -2.125q0 -2.90625 4.296875 -3.046875l1.265625 -0.03125l0 -0.234375q0 -1.515625 -1.578125 -1.515625q-1.0625 0 -2.71875 0.75l-0.765625 -1.65625q1.890625 -0.921875 3.421875 -0.921875q1.90625 0 2.796875 0.765625q0.890625 0.765625 0.890625 2.421875l0 6.203125l-1.59375 0zm-0.46875 -4.1875l-0.921875 0.046875q-1.4375 0.0625 -1.96875 0.40625q-0.53125 0.328125 -0.53125 1.015625q0 1.0625 1.234375 1.0625q1.03125 0 1.609375 -0.53125q0.578125 -0.546875 0.578125 -1.5625l0 -0.4375z" fill-rule="nonzero"/><path fill="#cc0000" d="m193.67639 276.127l-5.171875 12.078125l-2.109375 0l5.171875 -12.078125l2.109375 0zm7.7734375 12.078125l0 -5.859375q0 -1.703125 -1.53125 -1.703125q-2.078125 0 -2.078125 2.78125l0 4.78125l-2.078125 0l0 -9.234375l1.765625 0l0 1.390625l-0.078125 -0.046875q0.703125 -1.5 2.703125 -1.5q3.375 0 3.375 3.453125l0 5.9375l-2.078125 0zm9.7421875 0l-0.109375 -1.4375l0.0625 0.046875q-0.453125 0.890625 -1.15625 1.21875q-0.6875 0.328125 -1.765625 0.328125q-1.40625 0 -2.234375 -0.765625q-0.8125 -0.765625 -0.8125 -2.125q0 -2.90625 4.296875 -3.046875l1.265625 -0.03125l0 -0.234375q0 -1.515625 -1.578125 -1.515625q-1.0625 0 -2.71875 0.75l-0.765625 -1.65625q1.890625 -0.921875 3.421875 -0.921875q1.90625 0 2.796875 0.765625q0.890625 0.765625 0.890625 2.421875l0 6.203125l-1.59375 0zm-0.46875 -4.1875l-0.921875 0.046875q-1.4375 0.0625 -1.96875 0.40625q-0.53125 0.328125 -0.53125 1.015625q0 1.0625 1.234375 1.0625q1.03125 0 1.609375 -0.53125q0.578125 -0.546875 0.578125 -1.5625l0 -0.4375zm11.7578125 -7.890625l-5.171875 12.078125l-2.109375 0l5.171875 -12.078125l2.109375 0z" fill-rule="nonzero"/><path fill="#000000" d="m289.84827 288.20514l0 -5.859375q0 -1.703125 -1.53125 -1.703125q-2.078125 0 -2.078125 2.78125l0 4.78125l-2.078125 0l0 -9.234375l1.765625 0l0 1.390625l-0.078125 -0.046875q0.703125 -1.5 2.703125 -1.5q3.375 0 3.375 3.453125l0 5.9375l-2.078125 0zm7.9453125 -12.765625q1.15625 0 1.15625 1.21875q0 0.609375 -0.359375 0.921875q-0.34375 0.296875 -0.796875 0.296875q-1.171875 0 -1.171875 -1.21875q0 -1.21875 1.171875 -1.21875zm-1.046875 5.28125l-2.109375 -0.171875l0 -1.578125l4.1875 0l0 7.46875l2.75 0.15625l0 1.609375l-7.515625 0l0 -1.609375l2.6875 -0.15625l0 -5.71875zm12.3046875 7.484375l0 -5.859375q0 -1.703125 -1.53125 -1.703125q-2.078125 0 -2.078125 2.78125l0 4.78125l-2.078125 0l0 -9.234375l1.765625 0l0 1.390625l-0.078125 -0.046875q0.703125 -1.5 2.703125 -1.5q3.375 0 3.375 3.453125l0 5.9375l-2.078125 0zm11.8828125 -4.015625l-6.046875 0q0.0625 2.265625 2.359375 2.265625q1.46875 0 3.21875 -0.765625l0 1.953125q-1.546875 0.71875 -3.171875 0.71875q-2.046875 0 -3.296875 -1.265625q-1.234375 -1.265625 -1.234375 -3.453125q0 -2.203125 1.140625 -3.515625q1.140625 -1.3125 3.078125 -1.3125q1.796875 0 2.875 1.15625q1.078125 1.140625 1.078125 3.0l0 1.21875zm-5.984375 -1.8125l3.796875 0q0 -1.734375 -1.796875 -1.734375q-1.859375 0 -2.0 1.734375z" fill-rule="nonzero"/><path fill="#38761d" d="m405.84827 288.20514l0 -5.859375q0 -1.703125 -1.53125 -1.703125q-2.078125 0 -2.078125 2.78125l0 4.78125l-2.078125 0l0 -9.234375l1.765625 0l0 1.390625l-0.078125 -0.046875q0.703125 -1.5 2.703125 -1.5q3.375 0 3.375 3.453125l0 5.9375l-2.078125 0zm9.9140625 0l0 -1.390625l0.078125 0.046875q-0.71875 1.5 -2.6875 1.5q-3.390625 0 -3.390625 -3.46875l0 -5.921875l2.078125 0l0 5.84375q0 1.703125 1.515625 1.703125q1.109375 0 1.59375 -0.609375q0.5 -0.609375 0.5 -2.15625l0 -4.78125l2.078125 0l0 9.234375l-1.765625 0zm11.5703125 -4.015625l-6.046875 0q0.0625 2.265625 2.359375 2.265625q1.46875 0 3.21875 -0.765625l0 1.953125q-1.546875 0.71875 -3.171875 0.71875q-2.046875 0 -3.296875 -1.265625q-1.234375 -1.265625 -1.234375 -3.453125q0 -2.203125 1.140625 -3.515625q1.140625 -1.3125 3.078125 -1.3125q1.796875 0 2.875 1.15625q1.078125 1.140625 1.078125 3.0l0 1.21875zm-5.984375 -1.8125l3.796875 0q0 -1.734375 -1.796875 -1.734375q-1.859375 0 -2.0 1.734375zm10.3515625 5.828125l-3.484375 -9.234375l2.171875 0l1.953125 5.3125q0.671875 1.828125 0.515625 2.59375l-0.046875 -0.015625q-0.203125 -0.359375 0.53125 -2.578125l1.9375 -5.3125l2.1875 0l-3.484375 9.234375l-2.28125 0zm10.7109375 0.15625q-1.828125 0 -3.015625 -1.3125q-1.171875 -1.328125 -1.171875 -3.484375q0 -2.171875 1.140625 -3.453125q1.15625 -1.296875 3.09375 -1.296875q1.84375 0 3.015625 1.3125q1.1875 1.3125 1.1875 3.4375q0 2.203125 -1.171875 3.5q-1.15625 1.296875 -3.078125 1.296875zm0.03125 -1.84375q2.09375 0 2.09375 -2.953125q0 -2.921875 -2.109375 -2.921875q-2.078125 0 -2.078125 2.921875q0 2.953125 2.09375 2.953125z" fill-rule="nonzero"/><path fill="#ffff00" d="m44.3092 314.20514l-2.1875 0l0 -8.28125q-1.203125 1.125 -2.84375 1.671875l0 -2.0q0.859375 -0.28125 1.859375 -1.0625q1.015625 -0.78125 1.390625 -1.828125l1.78125 0l0 11.5zm6.9921875 -11.5q1.671875 0 2.609375 1.1875q1.109375 1.40625 1.109375 4.65625q0 3.25 -1.125 4.671875q-0.921875 1.1875 -2.59375 1.1875q-1.671875 0 -2.703125 -1.28125q-1.015625 -1.296875 -1.015625 -4.59375q0 -3.234375 1.125 -4.65625q0.9375 -1.171875 2.59375 -1.171875zm0 1.8125q-0.390625 0 -0.703125 0.265625q-0.3125 0.25 -0.484375 0.90625q-0.234375 0.84375 -0.234375 2.859375q0 2.015625 0.203125 2.78125q0.203125 0.75 0.515625 1.0q0.3125 0.25 0.703125 0.25q0.40625 0 0.71875 -0.25q0.3125 -0.265625 0.484375 -0.921875q0.21875 -0.84375 0.21875 -2.859375q0 -2.015625 -0.203125 -2.765625q-0.203125 -0.75 -0.515625 -1.0q-0.296875 -0.265625 -0.703125 -0.265625z" fill-rule="nonzero"/><path fill="#000000" d="m94.19201 312.7989l0.0625 0.046875q-0.78125 1.515625 -2.578125 1.515625q-1.734375 0 -2.71875 -1.28125q-0.96875 -1.28125 -0.96875 -3.484375q0 -2.21875 0.984375 -3.5q0.984375 -1.28125 2.703125 -1.28125q1.78125 0 2.609375 1.390625l-0.09375 0.109375q-0.328125 -0.921875 -0.328125 -1.1875l0 -3.734375l2.078125 0l0 12.8125l-1.765625 0l0.015625 -1.40625zm-0.328125 -2.875l0 -0.328125q0 -1.65625 -0.46875 -2.296875q-0.46875 -0.65625 -1.484375 -0.65625q-1.796875 0 -1.796875 2.96875q0 2.90625 1.8125 2.90625q1.03125 0 1.46875 -0.578125q0.4375 -0.578125 0.46875 -2.015625zm7.9296875 -8.484375q1.15625 0 1.15625 1.21875q0 0.609375 -0.359375 0.921875q-0.34375 0.296875 -0.796875 0.296875q-1.171875 0 -1.171875 -1.21875q0 -1.21875 1.171875 -1.21875zm-1.046875 5.28125l-2.109375 -0.171875l0 -1.578125l4.1875 0l0 7.46875l2.75 0.15625l0 1.609375l-7.515625 0l0 -1.609375l2.6875 -0.15625l0 -5.71875z" fill-rule="nonzero"/><path fill="#cc0000" d="m193.67639 302.127l-5.171875 12.078125l-2.109375 0l5.171875 -12.078125l2.109375 0zm8.1171875 10.671875l0.0625 0.046875q-0.78125 1.515625 -2.578125 1.515625q-1.734375 0 -2.71875 -1.28125q-0.96875 -1.28125 -0.96875 -3.484375q0 -2.21875 0.984375 -3.5q0.984375 -1.28125 2.703125 -1.28125q1.78125 0 2.609375 1.390625l-0.09375 0.109375q-0.328125 -0.921875 -0.328125 -1.1875l0 -3.734375l2.078125 0l0 12.8125l-1.765625 0l0.015625 -1.40625zm-0.328125 -2.875l0 -0.328125q0 -1.65625 -0.46875 -2.296875q-0.46875 -0.65625 -1.484375 -0.65625q-1.796875 0 -1.796875 2.96875q0 2.90625 1.8125 2.90625q1.03125 0 1.46875 -0.578125q0.4375 -0.578125 0.46875 -2.015625zm7.9296875 -8.484375q1.15625 0 1.15625 1.21875q0 0.609375 -0.359375 0.921875q-0.34375 0.296875 -0.796875 0.296875q-1.171875 0 -1.171875 -1.21875q0 -1.21875 1.171875 -1.21875zm-1.046875 5.28125l-2.109375 -0.171875l0 -1.578125l4.1875 0l0 7.46875l2.75 0.15625l0 1.609375l-7.515625 0l0 -1.609375l2.6875 -0.15625l0 -5.71875zm14.1328125 -4.59375l-5.171875 12.078125l-2.109375 0l5.171875 -12.078125l2.109375 0z" fill-rule="nonzero"/><path fill="#000000" d="m291.53577 312.33014l0 1.703125q-1.296875 0.328125 -2.296875 0.328125q-3.15625 0 -3.15625 -3.015625l0 -4.65625l-2.078125 0l0 -1.34375l2.140625 -0.375l0.625 -2.296875l1.390625 0l0 2.296875l3.421875 0l0 1.71875l-3.421875 0l0 4.65625q0 1.1875 1.171875 1.1875q0.71875 0 2.203125 -0.203125zm10.1953125 -2.140625l-6.046875 0q0.0625 2.265625 2.359375 2.265625q1.46875 0 3.21875 -0.765625l0 1.953125q-1.546875 0.71875 -3.171875 0.71875q-2.046875 0 -3.296875 -1.265625q-1.234375 -1.265625 -1.234375 -3.453125q0 -2.203125 1.140625 -3.515625q1.140625 -1.3125 3.078125 -1.3125q1.796875 0 2.875 1.15625q1.078125 1.140625 1.078125 3.0l0 1.21875zm-5.984375 -1.8125l3.796875 0q0 -1.734375 -1.796875 -1.734375q-1.859375 0 -2.0 1.734375zm13.3046875 5.828125l0 -5.859375q0 -1.703125 -1.53125 -1.703125q-2.078125 0 -2.078125 2.78125l0 4.78125l-2.078125 0l0 -9.234375l1.765625 0l0 1.390625l-0.078125 -0.046875q0.703125 -1.5 2.703125 -1.5q3.375 0 3.375 3.453125l0 5.9375l-2.078125 0z" fill-rule="nonzero"/><path fill="#38761d" d="m406.19202 312.7989l0.0625 0.046875q-0.78125 1.515625 -2.578125 1.515625q-1.734375 0 -2.71875 -1.28125q-0.96875 -1.28125 -0.96875 -3.484375q0 -2.21875 0.984375 -3.5q0.984375 -1.28125 2.703125 -1.28125q1.78125 0 2.609375 1.390625l-0.09375 0.109375q-0.328125 -0.921875 -0.328125 -1.1875l0 -3.734375l2.078125 0l0 12.8125l-1.765625 0l0.015625 -1.40625zm-0.328125 -2.875l0 -0.328125q0 -1.65625 -0.46875 -2.296875q-0.46875 -0.65625 -1.484375 -0.65625q-1.796875 0 -1.796875 2.96875q0 2.90625 1.8125 2.90625q1.03125 0 1.46875 -0.578125q0.4375 -0.578125 0.46875 -2.015625zm7.9296875 -8.484375q1.15625 0 1.15625 1.21875q0 0.609375 -0.359375 0.921875q-0.34375 0.296875 -0.796875 0.296875q-1.171875 0 -1.171875 -1.21875q0 -1.21875 1.171875 -1.21875zm-1.046875 5.28125l-2.109375 -0.171875l0 -1.578125l4.1875 0l0 7.46875l2.75 0.15625l0 1.609375l-7.515625 0l0 -1.609375l2.6875 -0.15625l0 -5.71875zm14.5859375 3.46875l-6.046875 0q0.0625 2.265625 2.359375 2.265625q1.46875 0 3.21875 -0.765625l0 1.953125q-1.546875 0.71875 -3.171875 0.71875q-2.046875 0 -3.296875 -1.265625q-1.234375 -1.265625 -1.234375 -3.453125q0 -2.203125 1.140625 -3.515625q1.140625 -1.3125 3.078125 -1.3125q1.796875 0 2.875 1.15625q1.078125 1.140625 1.078125 3.0l0 1.21875zm-5.984375 -1.8125l3.796875 0q0 -1.734375 -1.796875 -1.734375q-1.859375 0 -2.0 1.734375zm15.1796875 5.828125l-7.390625 0l0 -1.421875l4.8125 -6.09375l-4.546875 0l0 -1.71875l6.984375 0l0 1.578125l-4.703125 5.921875l4.84375 0l0 1.734375z" fill-rule="nonzero"/></g></svg>