<svg version="1.1" viewBox="0.0 0.0 574.3438320209974 447.6745406824147" fill="none" stroke="none" stroke-linecap="square" stroke-miterlimit="10" xmlns:xlink="http://www.w3.org/1999/xlink" xmlns="http://www.w3.org/2000/svg"><clipPath id="p.0"><path d="m0 0l574.3438 0l0 447.67453l-574.3438 0l0 -447.67453z" clip-rule="nonzero"/></clipPath><g clip-path="url(#p.0)"><path fill="#000000" fill-opacity="0.0" d="m0 0l574.3438 0l0 447.67453l-574.3438 0z" fill-rule="evenodd"/><path shape-rendering="crispEdges" fill="#38761d" d="m15.328084 15.238845l151.23622 0l0 26.398949l-151.23622 0l0 -26.398949z" fill-rule="nonzero"/><path shape-rendering="crispEdges" fill="#38761d" d="m166.5643 15.238845l189.50394 0l0 26.398949l-189.50394 0l0 -26.398949z" fill-rule="nonzero"/><path shape-rendering="crispEdges" fill="#38761d" d="m356.06824 15.238845l202.94751 0l0 26.398949l-202.94751 0l0 -26.398949z" fill-rule="nonzero"/><path shape-rendering="crispEdges" fill="#38761d" d="m15.328084 119.637794l151.23622 0l0 26.398949l-151.23622 0l0 -26.398949z" fill-rule="nonzero"/><path shape-rendering="crispEdges" fill="#38761d" d="m166.5643 119.637794l189.50394 0l0 26.398949l-189.50394 0l0 -26.398949z" fill-rule="nonzero"/><path shape-rendering="crispEdges" fill="#38761d" d="m356.06824 119.637794l202.94751 0l0 26.398949l-202.94751 0l0 -26.398949z" fill-rule="nonzero"/><path shape-rendering="crispEdges" fill="#38761d" d="m15.328084 224.03674l151.23622 0l0 26.398956l-151.23622 0l0 -26.398956z" fill-rule="nonzero"/><path shape-rendering="crispEdges" fill="#38761d" d="m166.5643 224.03674l189.50394 0l0 26.398956l-189.50394 0l0 -26.398956z" fill-rule="nonzero"/><path shape-rendering="crispEdges" fill="#38761d" d="m356.06824 224.03674l202.94751 0l0 26.398956l-202.94751 0l0 -26.398956z" fill-rule="nonzero"/><path shape-rendering="crispEdges" fill="#38761d" d="m15.328084 328.4357l151.23622 0l0 26.0l-151.23622 0l0 -26.0z" fill-rule="nonzero"/><path shape-rendering="crispEdges" fill="#38761d" d="m166.5643 328.4357l189.50394 0l0 26.0l-189.50394 0l0 -26.0z" fill-rule="nonzero"/><path shape-rendering="crispEdges" fill="#38761d" d="m356.06824 328.4357l202.94751 0l0 26.0l-202.94751 0l0 -26.0z" fill-rule="nonzero"/><path stroke="#000000" stroke-width="1.0" stroke-linecap="butt" d="m15.328084 14.740157l0 418.19424" fill-rule="nonzero"/><path stroke="#000000" stroke-width="1.0" stroke-linecap="butt" d="m166.5643 14.740157l0 418.19424" fill-rule="nonzero"/><path stroke="#000000" stroke-width="1.0" stroke-linecap="butt" d="m356.06824 14.740157l0 418.19424" fill-rule="nonzero"/><path stroke="#000000" stroke-width="1.0" stroke-linecap="butt" d="m559.01575 14.740157l0 418.19424" fill-rule="nonzero"/><path stroke="#000000" stroke-width="1.0" stroke-linecap="butt" d="m14.829396 15.238845l544.68506 0" fill-rule="nonzero"/><path stroke="#000000" stroke-width="1.0" stroke-linecap="butt" d="m14.829396 41.637794l544.68506 0" fill-rule="nonzero"/><path stroke="#000000" stroke-width="1.0" stroke-linecap="butt" d="m14.829396 67.637794l544.68506 0" fill-rule="nonzero"/><path stroke="#000000" stroke-width="1.0" stroke-linecap="butt" d="m14.829396 93.637794l544.68506 0" fill-rule="nonzero"/><path stroke="#000000" stroke-width="1.0" stroke-linecap="butt" d="m14.829396 119.637794l544.68506 0" fill-rule="nonzero"/><path stroke="#000000" stroke-width="1.0" stroke-linecap="butt" d="m14.829396 146.03674l544.68506 0" fill-rule="nonzero"/><path stroke="#000000" stroke-width="1.0" stroke-linecap="butt" d="m14.829396 172.03674l544.68506 0" fill-rule="nonzero"/><path stroke="#000000" stroke-width="1.0" stroke-linecap="butt" d="m14.829396 198.03674l544.68506 0" fill-rule="nonzero"/><path stroke="#000000" stroke-width="1.0" stroke-linecap="butt" d="m14.829396 224.03674l544.68506 0" fill-rule="nonzero"/><path stroke="#000000" stroke-width="1.0" stroke-linecap="butt" d="m14.829396 250.4357l544.68506 0" fill-rule="nonzero"/><path stroke="#000000" stroke-width="1.0" stroke-linecap="butt" d="m14.829396 276.4357l544.68506 0" fill-rule="nonzero"/><path stroke="#000000" stroke-width="1.0" stroke-linecap="butt" d="m14.829396 302.4357l544.68506 0" fill-rule="nonzero"/><path stroke="#000000" stroke-width="1.0" stroke-linecap="butt" d="m14.829396 328.4357l544.68506 0" fill-rule="nonzero"/><path stroke="#000000" stroke-width="1.0" stroke-linecap="butt" d="m14.829396 354.4357l544.68506 0" fill-rule="nonzero"/><path stroke="#000000" stroke-width="1.0" stroke-linecap="butt" d="m14.829396 380.4357l544.68506 0" fill-rule="nonzero"/><path stroke="#000000" stroke-width="1.0" stroke-linecap="butt" d="m14.829396 406.4357l544.68506 0" fill-rule="nonzero"/><path stroke="#000000" stroke-width="1.0" stroke-linecap="butt" d="m14.829396 432.4357l544.68506 0" fill-rule="nonzero"/><path fill="#ffff00" d="m26.218708 20.91967l2.234375 0l-4.03125 12.078125l-1.9375 0l-4.015625 -12.078125l2.21875 0l2.375 7.46875q0.328125 1.0 0.375 1.515625q-0.0625 -0.015625 0.421875 -1.5625l2.359375 -7.421875zm14.890625 7.359375l0 4.71875l-2.125 0l0 -12.078125l3.125 0q4.390625 0 4.390625 3.5625q0 2.484375 -2.109375 3.234375l3.203125 5.28125l-2.484375 0l-2.734375 -4.71875l-1.265625 0zm0 -1.890625l0.953125 0q1.21875 0 1.734375 -0.421875q0.53125 -0.4375 0.53125 -1.40625q0 -0.953125 -0.515625 -1.34375q-0.515625 -0.40625 -1.796875 -0.40625l-0.90625 0l0 3.578125zm15.2421875 2.59375l-6.046875 0q0.0625 2.265625 2.359375 2.265625q1.46875 0 3.21875 -0.765625l0 1.953125q-1.546875 0.71875 -3.171875 0.71875q-2.046875 0 -3.296875 -1.265625q-1.234375 -1.265625 -1.234375 -3.453125q0 -2.203125 1.140625 -3.515625q1.140625 -1.3125 3.078125 -1.3125q1.796875 0 2.875 1.15625q1.078125 1.140625 1.078125 3.0l0 1.21875zm-5.984375 -1.8125l3.796875 0q0 -1.734375 -1.796875 -1.734375q-1.859375 0 -2.0 1.734375zm15.179691 -1.6875l-3.0312538 0l0 7.515625l-2.078125 0l0 -7.515625l-2.484375 0l0 -1.484375l2.484375 -0.25l0 -0.453125q0 -1.65625 0.796875 -2.421875q0.8125 -0.78125 2.5625 -0.78125q1.0625038 0 2.3750038 0.390625l-0.484375 1.734375q-1.09375 -0.296875 -1.8593788 -0.296875q-0.8125 0 -1.0625 0.296875q-0.25 0.28125 -0.25 1.0625l0 0.484375l3.0312538 0l0 1.71875zm4.9453125 -3.5625l-2.09375 -0.15625l0 -1.578125l4.1875 0l0 11.046875l2.75 0.15625l0 1.609375l-7.53125 0l0 -1.609375l2.6875 -0.15625l0 -9.3125zm14.6640625 7.0625l-6.046875 0q0.0625 2.265625 2.359375 2.265625q1.46875 0 3.21875 -0.765625l0 1.953125q-1.546875 0.71875 -3.171875 0.71875q-2.046875 0 -3.296875 -1.265625q-1.234375 -1.265625 -1.234375 -3.453125q0 -2.203125 1.140625 -3.515625q1.140625 -1.3125 3.078125 -1.3125q1.796875 0 2.875 1.15625q1.078125 1.140625 1.078125 3.0l0 1.21875zm-5.984375 -1.8125l3.796875 0q0 -1.734375 -1.796875 -1.734375q-1.859375 0 -2.0 1.734375zm10.2734375 1.09375l-3.296875 -4.5l2.421875 0l2.09375 2.96875l2.109375 -2.96875l2.4375 0l-3.328125 4.5l3.453125 4.734375l-2.421875 0l-2.25 -3.171875l-2.25 3.171875l-2.4375 0l3.46875 -4.734375zm10.9765625 -8.03125q1.15625 0 1.15625 1.21875q0 0.609375 -0.359375 0.921875q-0.34375 0.296875 -0.796875 0.296875q-1.171875 0 -1.171875 -1.21875q0 -1.21875 1.171875 -1.21875zm-1.046875 5.28125l-2.109375 -0.171875l0 -1.578125l4.1875 0l0 7.46875l2.75 0.15625l0 1.609375l-7.515625 0l0 -1.609375l2.6875 -0.15625l0 -5.71875zm9.3515625 7.484375l-3.484375 -9.234375l2.171875 0l1.953125 5.3125q0.671875 1.828125 0.515625 2.59375l-0.046875 -0.015625q-0.203125 -0.359375 0.53125 -2.578125l1.9375 -5.3125l2.1875 0l-3.484375 9.234375l-2.28125 0zm14.8359375 -4.015625l-6.046875 0q0.0625 2.265625 2.359375 2.265625q1.46875 0 3.21875 -0.765625l0 1.953125q-1.546875 0.71875 -3.171875 0.71875q-2.046875 0 -3.296875 -1.265625q-1.234375 -1.265625 -1.234375 -3.453125q0 -2.203125 1.140625 -3.515625q1.140625 -1.3125 3.078125 -1.3125q1.796875 0 2.875 1.15625q1.078125 1.140625 1.078125 3.0l0 1.21875zm-5.984375 -1.8125l3.796875 0q0 -1.734375 -1.796875 -1.734375q-1.859375 0 -2.0 1.734375zm18.203117 2.1875l0 -1.96875l5.796875 0l0 1.96875l-5.796875 0z" fill-rule="nonzero"/><path fill="#ffff00" d="m176.5018 32.997795l0 -5.859375q0 -1.703125 -1.53125 -1.703125q-2.078125 0 -2.078125 2.78125l0 4.78125l-2.078125 0l0 -9.234375l1.765625 0l0 1.390625l-0.078125 -0.046875q0.703125 -1.5 2.703125 -1.5q3.375 0 3.375 3.453125l0 5.9375l-2.078125 0zm7.7578125 0.15625q-1.828125 0 -3.015625 -1.3125q-1.171875 -1.328125 -1.171875 -3.484375q0 -2.171875 1.140625 -3.453125q1.15625 -1.296875 3.09375 -1.296875q1.84375 0 3.015625 1.3125q1.1875 1.3125 1.1875 3.4375q0 2.203125 -1.171875 3.5q-1.15625 1.296875 -3.078125 1.296875zm0.03125 -1.84375q2.09375 0 2.09375 -2.953125q0 -2.921875 -2.109375 -2.921875q-2.078125 0 -2.078125 2.921875q0 2.953125 2.09375 2.953125zm12.1171875 1.6875l0 -5.859375q0 -1.0625 -0.15625 -1.375q-0.140625 -0.328125 -0.421875 -0.328125q-0.46875 0 -0.71875 0.53125q-0.25 0.515625 -0.25 1.96875l0 5.0625l-1.90625 0l0 -5.859375q0 -1.703125 -0.65625 -1.703125q-0.4375 0 -0.671875 0.5q-0.21875 0.5 -0.21875 2.28125l0 4.78125l-1.921875 0l0 -9.234375l1.609375 0l0 1.390625l-0.078125 -0.015625q0.390625 -1.53125 1.65625 -1.53125q1.515625 0 1.703125 1.6875l-0.046875 -0.015625q0.421875 -1.671875 1.765625 -1.671875q1.1875 0 1.703125 0.84375q0.53125 0.828125 0.53125 2.609375l0 5.9375l-1.921875 0zm7.2421875 -12.765625q1.15625 0 1.15625 1.21875q0 0.609375 -0.359375 0.921875q-0.34375 0.296875 -0.796875 0.296875q-1.171875 0 -1.171875 -1.21875q0 -1.21875 1.171875 -1.21875zm-1.046875 5.28125l-2.109375 -0.171875l0 -1.578125l4.1875 0l0 7.46875l2.75 0.15625l0 1.609375l-7.515625 0l0 -1.609375l2.6875 -0.15625l0 -5.71875zm12.3046875 7.484375l0 -5.859375q0 -1.703125 -1.53125 -1.703125q-2.078125 0 -2.078125 2.78125l0 4.78125l-2.078125 0l0 -9.234375l1.765625 0l0 1.390625l-0.078125 -0.046875q0.703125 -1.5 2.703125 -1.5q3.375 0 3.375 3.453125l0 5.9375l-2.078125 0zm9.7421875 0l-0.109375 -1.4375l0.0625 0.046875q-0.453125 0.890625 -1.15625 1.21875q-0.6875 0.328125 -1.765625 0.328125q-1.40625 0 -2.234375 -0.765625q-0.8125 -0.765625 -0.8125 -2.125q0 -2.90625 4.296875 -3.046875l1.265625 -0.03125l0 -0.234375q0 -1.515625 -1.578125 -1.515625q-1.0625 0 -2.71875 0.75l-0.765625 -1.65625q1.890625 -0.921875 3.421875 -0.921875q1.90625 0 2.796875 0.765625q0.890625 0.765625 0.890625 2.421875l0 6.203125l-1.59375 0zm-0.46875 -4.1875l-0.921875 0.046875q-1.4375 0.0625 -1.96875 0.40625q-0.53125 0.328125 -0.53125 1.015625q0 1.0625 1.234375 1.0625q1.03125 0 1.609375 -0.53125q0.578125 -0.546875 0.578125 -1.5625l0 -0.4375zm11.6171875 2.3125l0 1.703125q-1.296875 0.328125 -2.296875 0.328125q-3.15625 0 -3.15625 -3.015625l0 -4.65625l-2.078125 0l0 -1.34375l2.140625 -0.375l0.625 -2.296875l1.390625 0l0 2.296875l3.421875 0l0 1.71875l-3.421875 0l0 4.65625q0 1.1875 1.171875 1.1875q0.71875 0 2.203125 -0.203125zm6.2578125 -10.890625q1.15625 0 1.15625 1.21875q0 0.609375 -0.359375 0.921875q-0.34375 0.296875 -0.796875 0.296875q-1.171875 0 -1.171875 -1.21875q0 -1.21875 1.171875 -1.21875zm-1.046875 5.28125l-2.109375 -0.171875l0 -1.578125l4.1875 0l0 7.46875l2.75 0.15625l0 1.609375l-7.515625 0l0 -1.609375l2.6875 -0.15625l0 -5.71875zm9.3515625 7.484375l-3.484375 -9.234375l2.171875 0l1.953125 5.3125q0.671875 1.828125 0.515625 2.59375l-0.046875 -0.015625q-0.203125 -0.359375 0.53125 -2.578125l1.9375 -5.3125l2.1875 0l-3.484375 9.234375l-2.28125 0zm14.8359375 -4.015625l-6.046875 0q0.0625 2.265625 2.359375 2.265625q1.46875 0 3.21875 -0.765625l0 1.953125q-1.546875 0.71875 -3.171875 0.71875q-2.046875 0 -3.296875 -1.265625q-1.234375 -1.265625 -1.234375 -3.453125q0 -2.203125 1.140625 -3.515625q1.140625 -1.3125 3.078125 -1.3125q1.796875 0 2.875 1.15625q1.078125 1.140625 1.078125 3.0l0 1.21875zm-5.984375 -1.8125l3.796875 0q0 -1.734375 -1.796875 -1.734375q-1.859375 0 -2.0 1.734375z" fill-rule="nonzero"/><path fill="#ffff00" d="m361.95886 31.76342l0.09375 -0.109375q0.328125 0.921875 0.328125 1.203125l0 3.984375l-2.078125 0l0 -13.078125l1.765625 0l-0.015625 1.40625l-0.0625 -0.03125q0.75 -1.53125 2.578125 -1.53125q1.734375 0 2.703125 1.28125q0.984375 1.265625 0.984375 3.46875q0 2.21875 -0.984375 3.515625q-0.984375 1.28125 -2.703125 1.28125q-1.78125 0 -2.609375 -1.390625zm0.421875 -3.71875l0 0.3125q0 1.671875 0.46875 2.3125q0.46875 0.640625 1.484375 0.640625q1.796875 0 1.796875 -2.96875q0 -2.90625 -1.8125 -2.90625q-1.03125 0 -1.46875 0.578125q-0.4375 0.578125 -0.46875 2.03125zm10.4453125 -6.125l-2.09375 -0.15625l0 -1.578125l4.1875 0l0 11.046875l2.75 0.15625l0 1.609375l-7.53125 0l0 -1.609375l2.6875 -0.15625l0 -9.3125zm12.6953125 11.078125l0 -1.390625l0.078125 0.046875q-0.71875 1.5 -2.6875 1.5q-3.390625 0 -3.390625 -3.46875l0 -5.921875l2.078125 0l0 5.84375q0 1.703125 1.515625 1.703125q1.109375 0 1.59375 -0.609375q0.5 -0.609375 0.5 -2.15625l0 -4.78125l2.078125 0l0 9.234375l-1.765625 0zm11.3671875 -8.921875l-0.578125 1.921875q-1.234375 -0.4375 -1.96875 -0.4375q-1.125 0 -1.734375 0.625q-0.59375 0.609375 -0.59375 1.859375l0 4.953125l-2.078125 0l0 -9.234375l1.78125 0l-0.0625 1.828125l-0.0625 -0.046875q0.421875 -1.0625 1.171875 -1.5q0.75 -0.4375 1.84375 -0.4375q0.984375 0 2.28125 0.46875zm7.6640625 8.921875l-0.109375 -1.4375l0.0625 0.046875q-0.453125 0.890625 -1.15625 1.21875q-0.6875 0.328125 -1.765625 0.328125q-1.40625 0 -2.234375 -0.765625q-0.8125 -0.765625 -0.8125 -2.125q0 -2.90625 4.296875 -3.046875l1.265625 -0.03125l0 -0.234375q0 -1.515625 -1.578125 -1.515625q-1.0625 0 -2.71875 0.75l-0.765625 -1.65625q1.890625 -0.921875 3.421875 -0.921875q1.90625 0 2.796875 0.765625q0.890625 0.765625 0.890625 2.421875l0 6.203125l-1.59375 0zm-0.46875 -4.1875l-0.921875 0.046875q-1.4375 0.0625 -1.96875 0.40625q-0.53125 0.328125 -0.53125 1.015625q0 1.0625 1.234375 1.0625q1.03125 0 1.609375 -0.53125q0.578125 -0.546875 0.578125 -1.5625l0 -0.4375zm7.1484375 -6.890625l-2.09375 -0.15625l0 -1.578125l4.1875 0l0 11.046875l2.75 0.15625l0 1.609375l-7.53125 0l0 -1.609375l2.6875 -0.15625l0 -9.3125z" fill-rule="nonzero"/><path fill="#000000" d="m92.72354 58.997795l-2.03125 0l0 -7.46875q0 -0.953125 0.21875 -2.375q0.109375 0.125 -0.5625 0.6875l-1.40625 1.171875l-1.15625 -1.5l3.328125 -2.59375l1.609375 0l0 12.078125z" fill-rule="nonzero"/><path fill="#000000" d="m177.20493 58.997795l0 -5.859375q0 -1.0625 -0.15625 -1.375q-0.140625 -0.328125 -0.421875 -0.328125q-0.46875 0 -0.71875 0.53125q-0.25 0.515625 -0.25 1.96875l0 5.0625l-1.90625 0l0 -5.859375q0 -1.703125 -0.65625 -1.703125q-0.4375 0 -0.671875 0.5q-0.21875 0.5 -0.21875 2.28125l0 4.78125l-1.921875 0l0 -9.234375l1.609375 0l0 1.390625l-0.078125 -0.015625q0.390625 -1.53125 1.65625 -1.53125q1.515625 0 1.703125 1.6875l-0.046875 -0.015625q0.421875 -1.671875 1.765625 -1.671875q1.1875 0 1.703125 0.84375q0.53125 0.828125 0.53125 2.609375l0 5.9375l-1.921875 0zm7.2421875 -12.765625q1.15625 0 1.15625 1.21875q0 0.609375 -0.359375 0.921875q-0.34375 0.296875 -0.796875 0.296875q-1.171875 0 -1.171875 -1.21875q0 -1.21875 1.171875 -1.21875zm-1.046875 5.28125l-2.109375 -0.171875l0 -1.578125l4.1875 0l0 7.46875l2.75 0.15625l0 1.609375l-7.515625 0l0 -1.609375l2.6875 -0.15625l0 -5.71875zm15.453125 -1.75l2.171875 0l2.125 5.3125q0.671875 1.640625 0.453125 2.34375l-0.046875 -0.015625q-0.09375 -0.90625 0.4375 -2.328125l1.9375 -5.3125l2.203125 0l-3.890625 10.140625q-0.546875 1.4375 -1.3125 2.1875q-0.765625 0.75 -2.140625 0.75q-0.703125 0 -1.640625 -0.1875l0 -1.796875q0.84375 0.15625 1.390625 0.15625q0.640625 0 0.984375 -0.265625q0.34375 -0.25 0.640625 -0.953125l0.390625 -1.046875l-3.703125 -8.984375zm16.757812 9.234375l0 -5.859375q0 -1.0625 -0.15625 -1.375q-0.140625 -0.328125 -0.421875 -0.328125q-0.46875 0 -0.71875 0.53125q-0.25 0.515625 -0.25 1.96875l0 5.0625l-1.90625 0l0 -5.859375q0 -1.703125 -0.65625 -1.703125q-0.4375 0 -0.671875 0.5q-0.21875 0.5 -0.21875 2.28125l0 4.78125l-1.921875 0l0 -9.234375l1.609375 0l0 1.390625l-0.078125 -0.015625q0.390625 -1.53125 1.65625 -1.53125q1.515625 0 1.703125 1.6875l-0.046875 -0.015625q0.421875 -1.671875 1.765625 -1.671875q1.1875 0 1.703125 0.84375q0.53125 0.828125 0.53125 2.609375l0 5.9375l-1.921875 0zm7.2421875 -12.765625q1.15625 0 1.15625 1.21875q0 0.609375 -0.359375 0.921875q-0.34375 0.296875 -0.796875 0.296875q-1.171875 0 -1.171875 -1.21875q0 -1.21875 1.171875 -1.21875zm-1.046875 5.28125l-2.109375 -0.171875l0 -1.578125l4.1875 0l0 7.46875l2.75 0.15625l0 1.609375l-7.515625 0l0 -1.609375l2.6875 -0.15625l0 -5.71875z" fill-rule="nonzero"/><path fill="#000000" d="m366.00574 58.997795l0 -5.859375q0 -1.703125 -1.53125 -1.703125q-2.078125 0 -2.078125 2.78125l0 4.78125l-2.078125 0l0 -9.234375l1.765625 0l0 1.390625l-0.078125 -0.046875q0.703125 -1.5 2.703125 -1.5q3.375 0 3.375 3.453125l0 5.9375l-2.078125 0zm7.7578125 0.15625q-1.828125 0 -3.015625 -1.3125q-1.171875 -1.328125 -1.171875 -3.484375q0 -2.171875 1.140625 -3.453125q1.15625 -1.296875 3.09375 -1.296875q1.84375 0 3.015625 1.3125q1.1875 1.3125 1.1875 3.4375q0 2.203125 -1.171875 3.5q-1.15625 1.296875 -3.078125 1.296875zm0.03125 -1.84375q2.09375 0 2.09375 -2.953125q0 -2.921875 -2.109375 -2.921875q-2.078125 0 -2.078125 2.921875q0 2.953125 2.09375 2.953125zm11.4140625 1.6875l0 -5.859375q0 -1.703125 -1.53125 -1.703125q-2.078125 0 -2.078125 2.78125l0 4.78125l-2.078125 0l0 -12.8125l2.078125 0l0 3.953125l-0.3125 1.03125l-0.078125 -0.0625q0.703125 -1.5 2.703125 -1.5q3.375 0 3.375 3.453125l0 5.9375l-2.078125 0zm19.203125 0l0 -5.859375q0 -1.703125 -1.53125 -1.703125q-2.078125 0 -2.078125 2.78125l0 4.78125l-2.078125 0l0 -9.234375l1.765625 0l0 1.390625l-0.078125 -0.046875q0.703125 -1.5 2.703125 -1.5q3.375 0 3.375 3.453125l0 5.9375l-2.078125 0zm11.8828125 -4.015625l-6.046875 0q0.0625 2.265625 2.359375 2.265625q1.46875 0 3.21875 -0.765625l0 1.953125q-1.546875 0.71875 -3.171875 0.71875q-2.046875 0 -3.296875 -1.265625q-1.234375 -1.265625 -1.234375 -3.453125q0 -2.203125 1.140625 -3.515625q1.140625 -1.3125 3.078125 -1.3125q1.796875 0 2.875 1.15625q1.078125 1.140625 1.078125 3.0l0 1.21875zm-5.984375 -1.8125l3.796875 0q0 -1.734375 -1.796875 -1.734375q-1.859375 0 -2.0 1.734375z" fill-rule="nonzero"/><path fill="#000000" d="m95.16104 84.997795l-7.78125 0l0 -1.671875l2.828125 -3.078125q1.5 -1.640625 1.953125 -2.40625q0.453125 -0.765625 0.453125 -1.65625q0 -0.734375 -0.40625 -1.15625q-0.40625 -0.421875 -1.109375 -0.421875q-1.125 0 -2.515625 1.21875l-1.21875 -1.4375q1.828125 -1.640625 3.75 -1.640625q1.640625 0 2.609375 0.921875q0.984375 0.921875 0.984375 2.46875q0 1.0 -0.484375 2.03125q-0.484375 1.03125 -2.34375 3.015625l-2.265625 2.1875l-0.09375 -0.0625l5.640625 -0.265625l0 1.953125z" fill-rule="nonzero"/><path fill="#000000" d="m178.1893 83.122795l0 1.703125q-1.296875 0.328125 -2.296875 0.328125q-3.15625 0 -3.15625 -3.015625l0 -4.65625l-2.078125 0l0 -1.34375l2.140625 -0.375l0.625 -2.296875l1.390625 0l0 2.296875l3.421875 0l0 1.71875l-3.421875 0l0 4.65625q0 1.1875 1.171875 1.1875q0.71875 0 2.203125 -0.203125zm6.2578125 -10.890625q1.15625 0 1.15625 1.21875q0 0.609375 -0.359375 0.921875q-0.34375 0.296875 -0.796875 0.296875q-1.171875 0 -1.171875 -1.21875q0 -1.21875 1.171875 -1.21875zm-1.046875 5.28125l-2.109375 -0.171875l0 -1.578125l4.1875 0l0 7.46875l2.75 0.15625l0 1.609375l-7.515625 0l0 -1.609375l2.6875 -0.15625l0 -5.71875zm15.453125 -1.75l2.171875 0l2.125 5.3125q0.671875 1.640625 0.453125 2.34375l-0.046875 -0.015625q-0.09375 -0.90625 0.4375 -2.328125l1.9375 -5.3125l2.203125 0l-3.890625 10.140625q-0.546875 1.4375 -1.3125 2.1875q-0.765625 0.75 -2.140625 0.75q-0.703125 0 -1.640625 -0.1875l0 -1.796875q0.84375 0.15625 1.390625 0.15625q0.640625 0 0.984375 -0.265625q0.34375 -0.25 0.640625 -0.953125l0.390625 -1.046875l-3.703125 -8.984375zm17.742188 7.359375l0 1.703125q-1.296875 0.328125 -2.296875 0.328125q-3.15625 0 -3.15625 -3.015625l0 -4.65625l-2.078125 0l0 -1.34375l2.140625 -0.375l0.625 -2.296875l1.390625 0l0 2.296875l3.421875 0l0 1.71875l-3.421875 0l0 4.65625q0 1.1875 1.171875 1.1875q0.71875 0 2.203125 -0.203125zm2.5703125 1.34375l0 -1.984375q1.890625 0.84375 3.21875 0.84375q1.8125 0 1.8125 -0.9375q0 -0.28125 -0.3125 -0.546875q-0.296875 -0.265625 -1.609375 -0.734375q-1.921875 -0.71875 -2.453125 -1.359375q-0.53125 -0.640625 -0.53125 -1.546875q0 -1.234375 0.96875 -1.90625q0.984375 -0.6875 2.640625 -0.6875q1.609375 0 3.296875 0.734375l-0.703125 1.75q-1.671875 -0.65625 -2.671875 -0.65625q-1.515625 0 -1.515625 0.71875q0 0.296875 0.296875 0.53125q0.3125 0.21875 1.6875 0.703125q1.734375 0.640625 2.34375 1.296875q0.609375 0.65625 0.609375 1.625q0 1.34375 -1.03125 2.09375q-1.015625 0.75 -2.796875 0.75q-2.015625 0 -3.25 -0.6875z" fill-rule="nonzero"/><path fill="#000000" d="m363.0526 84.997795l-3.484375 -9.234375l2.171875 0l1.953125 5.3125q0.671875 1.828125 0.515625 2.59375l-0.046875 -0.015625q-0.203125 -0.359375 0.53125 -2.578125l1.9375 -5.3125l2.1875 0l-3.484375 9.234375l-2.28125 0zm10.7109375 0.15625q-1.828125 0 -3.015625 -1.3125q-1.171875 -1.328125 -1.171875 -3.484375q0 -2.171875 1.140625 -3.453125q1.15625 -1.296875 3.09375 -1.296875q1.84375 0 3.015625 1.3125q1.1875 1.3125 1.1875 3.4375q0 2.203125 -1.171875 3.5q-1.15625 1.296875 -3.078125 1.296875zm0.03125 -1.84375q2.09375 0 2.09375 -2.953125q0 -2.921875 -2.109375 -2.921875q-2.078125 0 -2.078125 2.921875q0 2.953125 2.09375 2.953125zm11.4140625 1.6875l0 -5.859375q0 -1.703125 -1.53125 -1.703125q-2.078125 0 -2.078125 2.78125l0 4.78125l-2.078125 0l0 -12.8125l2.078125 0l0 3.953125l-0.3125 1.03125l-0.078125 -0.0625q0.703125 -1.5 2.703125 -1.5q3.375 0 3.375 3.453125l0 5.9375l-2.078125 0zm16.25 0l-3.484375 -9.234375l2.171875 0l1.953125 5.3125q0.671875 1.828125 0.515625 2.59375l-0.046875 -0.015625q-0.203125 -0.359375 0.53125 -2.578125l1.9375 -5.3125l2.1875 0l-3.484375 9.234375l-2.28125 0zm12.5546875 0l0 -5.859375q0 -1.703125 -1.53125 -1.703125q-2.078125 0 -2.078125 2.78125l0 4.78125l-2.078125 0l0 -12.8125l2.078125 0l0 3.953125l-0.3125 1.03125l-0.078125 -0.0625q0.703125 -1.5 2.703125 -1.5q3.375 0 3.375 3.453125l0 5.9375l-2.078125 0z" fill-rule="nonzero"/><path fill="#000000" d="m91.95792 104.70092l-0.015625 -0.046875q3.109375 0.109375 3.109375 2.765625q0 1.734375 -1.1875 2.734375q-1.171875 1.0 -3.34375 1.0q-1.96875 0 -3.34375 -0.765625l0 -2.0625q1.84375 0.96875 3.3125 0.96875q2.4375 0 2.4375 -1.921875q0 -1.6875 -2.640625 -1.6875l-1.375 0l0 -1.84375l1.375 0q1.125 0 1.703125 -0.5q0.59375 -0.515625 0.59375 -1.328125q0 -0.65625 -0.4375 -1.03125q-0.421875 -0.375 -1.1875 -0.375q-1.28125 0 -2.765625 1.078125l-1.09375 -1.5q1.796875 -1.4375 3.859375 -1.4375q1.734375 0 2.734375 0.859375q1.0 0.859375 1.0 2.3125q0 1.203125 -0.71875 2.015625q-0.71875 0.8125 -2.015625 0.765625z" fill-rule="nonzero"/><path fill="#000000" d="m171.15805 110.466545l0 -1.984375q1.890625 0.84375 3.21875 0.84375q1.8125 0 1.8125 -0.9375q0 -0.28125 -0.3125 -0.546875q-0.296875 -0.265625 -1.609375 -0.734375q-1.921875 -0.71875 -2.453125 -1.359375q-0.53125 -0.640625 -0.53125 -1.546875q0 -1.234375 0.96875 -1.90625q0.984375 -0.6875 2.640625 -0.6875q1.609375 0 3.296875 0.734375l-0.703125 1.75q-1.671875 -0.65625 -2.671875 -0.65625q-1.515625 0 -1.515625 0.71875q0 0.296875 0.296875 0.53125q0.3125 0.21875 1.6875 0.703125q1.734375 0.640625 2.34375 1.296875q0.609375 0.65625 0.609375 1.625q0 1.34375 -1.03125 2.09375q-1.015625 0.75 -2.796875 0.75q-2.015625 0 -3.25 -0.6875zm15.2578125 0.53125l0 -1.390625l0.078125 0.046875q-0.71875 1.5 -2.6875 1.5q-3.390625 0 -3.390625 -3.46875l0 -5.921875l2.078125 0l0 5.84375q0 1.703125 1.515625 1.703125q1.109375 0 1.59375 -0.609375q0.5 -0.609375 0.5 -2.15625l0 -4.78125l2.078125 0l0 9.234375l-1.765625 0zm12.4375 -9.234375l2.171875 0l2.125 5.3125q0.671875 1.640625 0.453125 2.34375l-0.046875 -0.015625q-0.09375 -0.90625 0.4375 -2.328125l1.9375 -5.3125l2.203125 0l-3.890625 10.140625q-0.546875 1.4375 -1.3125 2.1875q-0.765625 0.75 -2.140625 0.75q-0.703125 0 -1.640625 -0.1875l0 -1.796875q0.84375 0.15625 1.390625 0.15625q0.640625 0 0.984375 -0.265625q0.34375 -0.25 0.640625 -0.953125l0.390625 -1.046875l-3.703125 -8.984375zm18.164062 0.4375l-0.71875 1.84375q-1.421875 -0.53125 -2.28125 -0.53125q-2.578125 0 -2.578125 2.890625q0 2.84375 2.5 2.84375q1.15625 0 2.828125 -0.625l0 1.921875q-1.296875 0.609375 -2.890625 0.609375q-2.15625 0 -3.359375 -1.234375q-1.203125 -1.234375 -1.203125 -3.5q0 -2.328125 1.21875 -3.5625q1.234375 -1.25 3.4375 -1.25q1.453125 0 3.046875 0.59375zm5.8359375 -3.96875q1.15625 0 1.15625 1.21875q0 0.609375 -0.359375 0.921875q-0.34375 0.296875 -0.796875 0.296875q-1.171875 0 -1.171875 -1.21875q0 -1.21875 1.171875 -1.21875zm-1.046875 5.28125l-2.109375 -0.171875l0 -1.578125l4.1875 0l0 7.46875l2.75 0.15625l0 1.609375l-7.515625 0l0 -1.609375l2.6875 -0.15625l0 -5.71875z" fill-rule="nonzero"/><path fill="#000000" d="m367.88074 110.997795l-7.390625 0l0 -1.421875l4.8125 -6.09375l-4.546875 0l0 -1.71875l6.984375 0l0 1.578125l-4.703125 5.921875l4.84375 0l0 1.734375zm7.7265625 0l0 -5.859375q0 -1.703125 -1.53125 -1.703125q-2.078125 0 -2.078125 2.78125l0 4.78125l-2.078125 0l0 -12.8125l2.078125 0l0 3.953125l-0.3125 1.03125l-0.078125 -0.0625q0.703125 -1.5 2.703125 -1.5q3.375 0 3.375 3.453125l0 5.9375l-2.078125 0zm7.9453125 -12.765625q1.15625 0 1.15625 1.21875q0 0.609375 -0.359375 0.921875q-0.34375 0.296875 -0.796875 0.296875q-1.171875 0 -1.171875 -1.21875q0 -1.21875 1.171875 -1.21875zm-1.046875 5.28125l-2.109375 -0.171875l0 -1.578125l4.1875 0l0 7.46875l2.75 0.15625l0 1.609375l-7.515625 0l0 -1.609375l2.6875 -0.15625l0 -5.71875zm15.453125 -1.75l2.171875 0l2.125 5.3125q0.671875 1.640625 0.453125 2.34375l-0.046875 -0.015625q-0.09375 -0.90625 0.4375 -2.328125l1.9375 -5.3125l2.203125 0l-3.890625 10.140625q-0.546875 1.4375 -1.3125 2.1875q-0.765625 0.75 -2.140625 0.75q-0.703125 0 -1.640625 -0.1875l0 -1.796875q0.84375 0.15625 1.390625 0.15625q0.640625 0 0.984375 -0.265625q0.34375 -0.25 0.640625 -0.953125l0.390625 -1.046875l-3.703125 -8.984375zm18.164062 0.4375l-0.71875 1.84375q-1.421875 -0.53125 -2.28125 -0.53125q-2.578125 0 -2.578125 2.890625q0 2.84375 2.5 2.84375q1.15625 0 2.828125 -0.625l0 1.921875q-1.296875 0.609375 -2.890625 0.609375q-2.15625 0 -3.359375 -1.234375q-1.203125 -1.234375 -1.203125 -3.5q0 -2.328125 1.21875 -3.5625q1.234375 -1.25 3.4375 -1.25q1.453125 0 3.046875 0.59375z" fill-rule="nonzero"/><path fill="#ffff00" d="m26.218708 125.31862l2.234375 0l-4.03125 12.078125l-1.9375 0l-4.015625 -12.078125l2.21875 0l2.375 7.46875q0.328125 1.0 0.375 1.515625q-0.0625 -0.015625 0.421875 -1.5625l2.359375 -7.421875zm14.890625 7.359375l0 4.71875l-2.125 0l0 -12.078125l3.125 0q4.390625 0 4.390625 3.5625q0 2.484375 -2.109375 3.234375l3.203125 5.28125l-2.484375 0l-2.734375 -4.71875l-1.265625 0zm0 -1.890625l0.953125 0q1.21875 0 1.734375 -0.421875q0.53125 -0.4375 0.53125 -1.40625q0 -0.953125 -0.515625 -1.34375q-0.515625 -0.40625 -1.796875 -0.40625l-0.90625 0l0 3.578125zm15.2421875 2.59375l-6.046875 0q0.0625 2.265625 2.359375 2.265625q1.46875 0 3.21875 -0.765625l0 1.953125q-1.546875 0.71875 -3.171875 0.71875q-2.046875 0 -3.296875 -1.265625q-1.234375 -1.265625 -1.234375 -3.453125q0 -2.203125 1.140625 -3.515625q1.140625 -1.3125 3.078125 -1.3125q1.796875 0 2.875 1.15625q1.078125 1.140625 1.078125 3.0l0 1.21875zm-5.984375 -1.8125l3.796875 0q0 -1.734375 -1.796875 -1.734375q-1.859375 0 -2.0 1.734375zm15.179691 -1.6875l-3.0312538 0l0 7.515625l-2.078125 0l0 -7.515625l-2.484375 0l0 -1.484375l2.484375 -0.25l0 -0.453125q0 -1.65625 0.796875 -2.421875q0.8125 -0.78125 2.5625 -0.78125q1.0625038 0 2.3750038 0.390625l-0.484375 1.734375q-1.09375 -0.296875 -1.8593788 -0.296875q-0.8125 0 -1.0625 0.296875q-0.25 0.28125 -0.25 1.0625l0 0.484375l3.0312538 0l0 1.71875zm4.9453125 -3.5625l-2.09375 -0.15625l0 -1.578125l4.1875 0l0 11.046875l2.75 0.15625l0 1.609375l-7.53125 0l0 -1.609375l2.6875 -0.15625l0 -9.3125zm14.6640625 7.0625l-6.046875 0q0.0625 2.265625 2.359375 2.265625q1.46875 0 3.21875 -0.765625l0 1.953125q-1.546875 0.71875 -3.171875 0.71875q-2.046875 0 -3.296875 -1.265625q-1.234375 -1.265625 -1.234375 -3.453125q0 -2.203125 1.140625 -3.515625q1.140625 -1.3125 3.078125 -1.3125q1.796875 0 2.875 1.15625q1.078125 1.140625 1.078125 3.0l0 1.21875zm-5.984375 -1.8125l3.796875 0q0 -1.734375 -1.796875 -1.734375q-1.859375 0 -2.0 1.734375zm10.2734375 1.09375l-3.296875 -4.5l2.421875 0l2.09375 2.96875l2.109375 -2.96875l2.4375 0l-3.328125 4.5l3.453125 4.734375l-2.421875 0l-2.25 -3.171875l-2.25 3.171875l-2.4375 0l3.46875 -4.734375zm10.9765625 -8.03125q1.15625 0 1.15625 1.21875q0 0.609375 -0.359375 0.921875q-0.34375 0.296875 -0.796875 0.296875q-1.171875 0 -1.171875 -1.21875q0 -1.21875 1.171875 -1.21875zm-1.046875 5.28125l-2.109375 -0.171875l0 -1.578125l4.1875 0l0 7.46875l2.75 0.15625l0 1.609375l-7.515625 0l0 -1.609375l2.6875 -0.15625l0 -5.71875zm9.3515625 7.484375l-3.484375 -9.234375l2.171875 0l1.953125 5.3125q0.671875 1.828125 0.515625 2.59375l-0.046875 -0.015625q-0.203125 -0.359375 0.53125 -2.578125l1.9375 -5.3125l2.1875 0l-3.484375 9.234375l-2.28125 0zm14.8359375 -4.015625l-6.046875 0q0.0625 2.265625 2.359375 2.265625q1.46875 0 3.21875 -0.765625l0 1.953125q-1.546875 0.71875 -3.171875 0.71875q-2.046875 0 -3.296875 -1.265625q-1.234375 -1.265625 -1.234375 -3.453125q0 -2.203125 1.140625 -3.515625q1.140625 -1.3125 3.078125 -1.3125q1.796875 0 2.875 1.15625q1.078125 1.140625 1.078125 3.0l0 1.21875zm-5.984375 -1.8125l3.796875 0q0 -1.734375 -1.796875 -1.734375q-1.859375 0 -2.0 1.734375zm18.203117 2.1875l0 -1.96875l5.796875 0l0 1.96875l-5.796875 0z" fill-rule="nonzero"/><path fill="#ffff00" d="m176.64243 137.39674l-0.109375 -1.4375l0.0625 0.046875q-0.453125 0.890625 -1.15625 1.21875q-0.6875 0.328125 -1.765625 0.328125q-1.40625 0 -2.234375 -0.765625q-0.8125 -0.765625 -0.8125 -2.125q0 -2.90625 4.296875 -3.046875l1.265625 -0.03125l0 -0.234375q0 -1.515625 -1.578125 -1.515625q-1.0625 0 -2.71875 0.75l-0.765625 -1.65625q1.890625 -0.921875 3.421875 -0.921875q1.90625 0 2.796875 0.765625q0.890625 0.765625 0.890625 2.421875l0 6.203125l-1.59375 0zm-0.46875 -4.1875l-0.921875 0.046875q-1.4375 0.0625 -1.96875 0.40625q-0.53125 0.328125 -0.53125 1.015625q0 1.0625 1.234375 1.0625q1.03125 0 1.609375 -0.53125q0.578125 -0.546875 0.578125 -1.5625l0 -0.4375zm12.0390625 -4.609375l-0.71875 1.84375q-1.421875 -0.53125 -2.28125 -0.53125q-2.578125 0 -2.578125 2.890625q0 2.84375 2.5 2.84375q1.15625 0 2.828125 -0.625l0 1.921875q-1.296875 0.609375 -2.890625 0.609375q-2.15625 0 -3.359375 -1.234375q-1.203125 -1.234375 -1.203125 -3.5q0 -2.328125 1.21875 -3.5625q1.234375 -1.25 3.4375 -1.25q1.453125 0 3.046875 0.59375zm9.6015625 0l-0.71875 1.84375q-1.421875 -0.53125 -2.28125 -0.53125q-2.578125 0 -2.578125 2.890625q0 2.84375 2.5 2.84375q1.15625 0 2.828125 -0.625l0 1.921875q-1.296875 0.609375 -2.890625 0.609375q-2.15625 0 -3.359375 -1.234375q-1.203125 -1.234375 -1.203125 -3.5q0 -2.328125 1.21875 -3.5625q1.234375 -1.25 3.4375 -1.25q1.453125 0 3.046875 0.59375zm7.8046875 8.796875l0 -1.390625l0.078125 0.046875q-0.71875 1.5 -2.6875 1.5q-3.390625 0 -3.390625 -3.46875l0 -5.921875l2.078125 0l0 5.84375q0 1.703125 1.515625 1.703125q1.109375 0 1.59375 -0.609375q0.5 -0.609375 0.5 -2.15625l0 -4.78125l2.078125 0l0 9.234375l-1.765625 0zm3.9453125 -0.53125l0 -1.984375q1.890625 0.84375 3.21875 0.84375q1.8125 0 1.8125 -0.9375q0 -0.28125 -0.3125 -0.546875q-0.296875 -0.265625 -1.609375 -0.734375q-1.921875 -0.71875 -2.453125 -1.359375q-0.53125 -0.640625 -0.53125 -1.546875q0 -1.234375 0.96875 -1.90625q0.984375 -0.6875 2.640625 -0.6875q1.609375 0 3.296875 0.734375l-0.703125 1.75q-1.671875 -0.65625 -2.671875 -0.65625q-1.515625 0 -1.515625 0.71875q0 0.296875 0.296875 0.53125q0.3125 0.21875 1.6875 0.703125q1.734375 0.640625 2.34375 1.296875q0.609375 0.65625 0.609375 1.625q0 1.34375 -1.03125 2.09375q-1.015625 0.75 -2.796875 0.75q-2.015625 0 -3.25 -0.6875zm15.0859375 0.53125l-0.109375 -1.4375l0.0625 0.046875q-0.453125 0.890625 -1.15625 1.21875q-0.6875 0.328125 -1.765625 0.328125q-1.40625 0 -2.234375 -0.765625q-0.8125 -0.765625 -0.8125 -2.125q0 -2.90625 4.296875 -3.046875l1.265625 -0.03125l0 -0.234375q0 -1.515625 -1.578125 -1.515625q-1.0625 0 -2.71875 0.75l-0.765625 -1.65625q1.890625 -0.921875 3.421875 -0.921875q1.90625 0 2.796875 0.765625q0.890625 0.765625 0.890625 2.421875l0 6.203125l-1.59375 0zm-0.46875 -4.1875l-0.921875 0.046875q-1.4375 0.0625 -1.96875 0.40625q-0.53125 0.328125 -0.53125 1.015625q0 1.0625 1.234375 1.0625q1.03125 0 1.609375 -0.53125q0.578125 -0.546875 0.578125 -1.5625l0 -0.4375zm11.6171875 2.3125l0 1.703125q-1.296875 0.328125 -2.296875 0.328125q-3.15625 0 -3.15625 -3.015625l0 -4.65625l-2.078125 0l0 -1.34375l2.140625 -0.375l0.625 -2.296875l1.390625 0l0 2.296875l3.421875 0l0 1.71875l-3.421875 0l0 4.65625q0 1.1875 1.171875 1.1875q0.71875 0 2.203125 -0.203125zm6.2578125 -10.890625q1.15625 0 1.15625 1.21875q0 0.609375 -0.359375 0.921875q-0.34375 0.296875 -0.796875 0.296875q-1.171875 0 -1.171875 -1.21875q0 -1.21875 1.171875 -1.21875zm-1.046875 5.28125l-2.109375 -0.171875l0 -1.578125l4.1875 0l0 7.46875l2.75 0.15625l0 1.609375l-7.515625 0l0 -1.609375l2.6875 -0.15625l0 -5.71875zm9.3515625 7.484375l-3.484375 -9.234375l2.171875 0l1.953125 5.3125q0.671875 1.828125 0.515625 2.59375l-0.046875 -0.015625q-0.203125 -0.359375 0.53125 -2.578125l1.9375 -5.3125l2.1875 0l-3.484375 9.234375l-2.28125 0zm14.8359375 -4.015625l-6.046875 0q0.0625 2.265625 2.359375 2.265625q1.46875 0 3.21875 -0.765625l0 1.953125q-1.546875 0.71875 -3.171875 0.71875q-2.046875 0 -3.296875 -1.265625q-1.234375 -1.265625 -1.234375 -3.453125q0 -2.203125 1.140625 -3.515625q1.140625 -1.3125 3.078125 -1.3125q1.796875 0 2.875 1.15625q1.078125 1.140625 1.078125 3.0l0 1.21875zm-5.984375 -1.8125l3.796875 0q0 -1.734375 -1.796875 -1.734375q-1.859375 0 -2.0 1.734375z" fill-rule="nonzero"/><path fill="#ffff00" d="m361.95886 136.16237l0.09375 -0.109375q0.328125 0.921875 0.328125 1.203125l0 3.984375l-2.078125 0l0 -13.078125l1.765625 0l-0.015625 1.40625l-0.0625 -0.03125q0.75 -1.53125 2.578125 -1.53125q1.734375 0 2.703125 1.28125q0.984375 1.265625 0.984375 3.46875q0 2.21875 -0.984375 3.515625q-0.984375 1.28125 -2.703125 1.28125q-1.78125 0 -2.609375 -1.390625zm0.421875 -3.71875l0 0.3125q0 1.671875 0.46875 2.3125q0.46875 0.640625 1.484375 0.640625q1.796875 0 1.796875 -2.96875q0 -2.90625 -1.8125 -2.90625q-1.03125 0 -1.46875 0.578125q-0.4375 0.578125 -0.46875 2.03125zm10.4453125 -6.125l-2.09375 -0.15625l0 -1.578125l4.1875 0l0 11.046875l2.75 0.15625l0 1.609375l-7.53125 0l0 -1.609375l2.6875 -0.15625l0 -9.3125zm12.6953125 11.078125l0 -1.390625l0.078125 0.046875q-0.71875 1.5 -2.6875 1.5q-3.390625 0 -3.390625 -3.46875l0 -5.921875l2.078125 0l0 5.84375q0 1.703125 1.515625 1.703125q1.109375 0 1.59375 -0.609375q0.5 -0.609375 0.5 -2.15625l0 -4.78125l2.078125 0l0 9.234375l-1.765625 0zm11.3671875 -8.921875l-0.578125 1.921875q-1.234375 -0.4375 -1.96875 -0.4375q-1.125 0 -1.734375 0.625q-0.59375 0.609375 -0.59375 1.859375l0 4.953125l-2.078125 0l0 -9.234375l1.78125 0l-0.0625 1.828125l-0.0625 -0.046875q0.421875 -1.0625 1.171875 -1.5q0.75 -0.4375 1.84375 -0.4375q0.984375 0 2.28125 0.46875zm7.6640625 8.921875l-0.109375 -1.4375l0.0625 0.046875q-0.453125 0.890625 -1.15625 1.21875q-0.6875 0.328125 -1.765625 0.328125q-1.40625 0 -2.234375 -0.765625q-0.8125 -0.765625 -0.8125 -2.125q0 -2.90625 4.296875 -3.046875l1.265625 -0.03125l0 -0.234375q0 -1.515625 -1.578125 -1.515625q-1.0625 0 -2.71875 0.75l-0.765625 -1.65625q1.890625 -0.921875 3.421875 -0.921875q1.90625 0 2.796875 0.765625q0.890625 0.765625 0.890625 2.421875l0 6.203125l-1.59375 0zm-0.46875 -4.1875l-0.921875 0.046875q-1.4375 0.0625 -1.96875 0.40625q-0.53125 0.328125 -0.53125 1.015625q0 1.0625 1.234375 1.0625q1.03125 0 1.609375 -0.53125q0.578125 -0.546875 0.578125 -1.5625l0 -0.4375zm7.1484375 -6.890625l-2.09375 -0.15625l0 -1.578125l4.1875 0l0 11.046875l2.75 0.15625l0 1.609375l-7.53125 0l0 -1.609375l2.6875 -0.15625l0 -9.3125z" fill-rule="nonzero"/><path fill="#000000" d="m92.72354 163.39674l-2.03125 0l0 -7.46875q0 -0.953125 0.21875 -2.375q0.109375 0.125 -0.5625 0.6875l-1.40625 1.171875l-1.15625 -1.5l3.328125 -2.59375l1.609375 0l0 12.078125z" fill-rule="nonzero"/><path fill="#000000" d="m172.45493 162.16237l0.09375 -0.109375q0.328125 0.921875 0.328125 1.203125l0 3.984375l-2.078125 0l0 -13.078125l1.765625 0l-0.015625 1.40625l-0.0625 -0.03125q0.75 -1.53125 2.578125 -1.53125q1.734375 0 2.703125 1.28125q0.984375 1.265625 0.984375 3.46875q0 2.21875 -0.984375 3.515625q-0.984375 1.28125 -2.703125 1.28125q-1.78125 0 -2.609375 -1.390625zm0.421875 -3.71875l0 0.3125q0 1.671875 0.46875 2.3125q0.46875 0.640625 1.484375 0.640625q1.796875 0 1.796875 -2.96875q0 -2.90625 -1.8125 -2.90625q-1.03125 0 -1.46875 0.578125q-0.4375 0.578125 -0.46875 2.03125zm15.5078125 0.9375l-6.046875 0q0.0625 2.265625 2.359375 2.265625q1.46875 0 3.21875 -0.765625l0 1.953125q-1.546875 0.71875 -3.171875 0.71875q-2.046875 0 -3.296875 -1.265625q-1.234375 -1.265625 -1.234375 -3.453125q0 -2.203125 1.140625 -3.515625q1.140625 -1.3125 3.078125 -1.3125q1.796875 0 2.875 1.15625q1.078125 1.140625 1.078125 3.0l0 1.21875zm-5.984375 -1.8125l3.796875 0q0 -1.734375 -1.796875 -1.734375q-1.859375 0 -2.0 1.734375zm23.609375 5.828125l0 -5.859375q0 -1.0625 -0.15625 -1.375q-0.140625 -0.328125 -0.421875 -0.328125q-0.46875 0 -0.71875 0.53125q-0.25 0.515625 -0.25 1.96875l0 5.0625l-1.90625 0l0 -5.859375q0 -1.703125 -0.65625 -1.703125q-0.4375 0 -0.671875 0.5q-0.21875 0.5 -0.21875 2.28125l0 4.78125l-1.921875 0l0 -9.234375l1.609375 0l0 1.390625l-0.078125 -0.015625q0.390625 -1.53125 1.65625 -1.53125q1.515625 0 1.703125 1.6875l-0.046875 -0.015625q0.421875 -1.671875 1.765625 -1.671875q1.1875 0 1.703125 0.84375q0.53125 0.828125 0.53125 2.609375l0 5.9375l-1.921875 0zm7.2421875 -12.765625q1.15625 0 1.15625 1.21875q0 0.609375 -0.359375 0.921875q-0.34375 0.296875 -0.796875 0.296875q-1.171875 0 -1.171875 -1.21875q0 -1.21875 1.171875 -1.21875zm-1.046875 5.28125l-2.109375 -0.171875l0 -1.578125l4.1875 0l0 7.46875l2.75 0.15625l0 1.609375l-7.515625 0l0 -1.609375l2.6875 -0.15625l0 -5.71875zm22.609375 7.484375l0 -5.859375q0 -1.0625 -0.15625 -1.375q-0.140625 -0.328125 -0.421875 -0.328125q-0.46875 0 -0.71875 0.53125q-0.25 0.515625 -0.25 1.96875l0 5.0625l-1.90625 0l0 -5.859375q0 -1.703125 -0.65625 -1.703125q-0.4375 0 -0.671875 0.5q-0.21875 0.5 -0.21875 2.28125l0 4.78125l-1.921875 0l0 -9.234375l1.609375 0l0 1.390625l-0.078125 -0.015625q0.390625 -1.53125 1.65625 -1.53125q1.515625 0 1.703125 1.6875l-0.046875 -0.015625q0.421875 -1.671875 1.765625 -1.671875q1.1875 0 1.703125 0.84375q0.53125 0.828125 0.53125 2.609375l0 5.9375l-1.921875 0zm8.8984375 0l0 -5.859375q0 -1.703125 -1.53125 -1.703125q-2.078125 0 -2.078125 2.78125l0 4.78125l-2.078125 0l0 -12.8125l2.078125 0l0 3.953125l-0.3125 1.03125l-0.078125 -0.0625q0.703125 -1.5 2.703125 -1.5q3.375 0 3.375 3.453125l0 5.9375l-2.078125 0z" fill-rule="nonzero"/><path fill="#000000" d="m361.95886 162.16237l0.09375 -0.109375q0.328125 0.921875 0.328125 1.203125l0 3.984375l-2.078125 0l0 -13.078125l1.765625 0l-0.015625 1.40625l-0.0625 -0.03125q0.75 -1.53125 2.578125 -1.53125q1.734375 0 2.703125 1.28125q0.984375 1.265625 0.984375 3.46875q0 2.21875 -0.984375 3.515625q-0.984375 1.28125 -2.703125 1.28125q-1.78125 0 -2.609375 -1.390625zm0.421875 -3.71875l0 0.3125q0 1.671875 0.46875 2.3125q0.46875 0.640625 1.484375 0.640625q1.796875 0 1.796875 -2.96875q0 -2.90625 -1.8125 -2.90625q-1.03125 0 -1.46875 0.578125q-0.4375 0.578125 -0.46875 2.03125zm15.5078125 0.9375l-6.046875 0q0.0625 2.265625 2.359375 2.265625q1.46875 0 3.21875 -0.765625l0 1.953125q-1.546875 0.71875 -3.171875 0.71875q-2.046875 0 -3.296875 -1.265625q-1.234375 -1.265625 -1.234375 -3.453125q0 -2.203125 1.140625 -3.515625q1.140625 -1.3125 3.078125 -1.3125q1.796875 0 2.875 1.15625q1.078125 1.140625 1.078125 3.0l0 1.21875zm-5.984375 -1.8125l3.796875 0q0 -1.734375 -1.796875 -1.734375q-1.859375 0 -2.0 1.734375zm22.90625 5.828125l0 -5.859375q0 -1.703125 -1.53125 -1.703125q-2.078125 0 -2.078125 2.78125l0 4.78125l-2.078125 0l0 -9.234375l1.765625 0l0 1.390625l-0.078125 -0.046875q0.703125 -1.5 2.703125 -1.5q3.375 0 3.375 3.453125l0 5.9375l-2.078125 0zm7.7578125 0.15625q-1.828125 0 -3.015625 -1.3125q-1.171875 -1.328125 -1.171875 -3.484375q0 -2.171875 1.140625 -3.453125q1.15625 -1.296875 3.09375 -1.296875q1.84375 0 3.015625 1.3125q1.1875 1.3125 1.1875 3.4375q0 2.203125 -1.171875 3.5q-1.15625 1.296875 -3.078125 1.296875zm0.03125 -1.84375q2.09375 0 2.09375 -2.953125q0 -2.921875 -2.109375 -2.921875q-2.078125 0 -2.078125 2.921875q0 2.953125 2.09375 2.953125zm9.7578125 -11.078125q1.15625 0 1.15625 1.21875q0 0.609375 -0.359375 0.921875q-0.34375 0.296875 -0.796875 0.296875q-1.171875 0 -1.171875 -1.21875q0 -1.21875 1.171875 -1.21875zm-1.046875 5.28125l-2.109375 -0.171875l0 -1.578125l4.1875 0l0 7.46875l2.75 0.15625l0 1.609375l-7.515625 0l0 -1.609375l2.6875 -0.15625l0 -5.71875zm21.90625 7.484375l0 -5.859375q0 -1.703125 -1.53125 -1.703125q-2.078125 0 -2.078125 2.78125l0 4.78125l-2.078125 0l0 -9.234375l1.765625 0l0 1.390625l-0.078125 -0.046875q0.703125 -1.5 2.703125 -1.5q3.375 0 3.375 3.453125l0 5.9375l-2.078125 0zm11.8828125 -4.015625l-6.046875 0q0.0625 2.265625 2.359375 2.265625q1.46875 0 3.21875 -0.765625l0 1.953125q-1.546875 0.71875 -3.171875 0.71875q-2.046875 0 -3.296875 -1.265625q-1.234375 -1.265625 -1.234375 -3.453125q0 -2.203125 1.140625 -3.515625q1.140625 -1.3125 3.078125 -1.3125q1.796875 0 2.875 1.15625q1.078125 1.140625 1.078125 3.0l0 1.21875zm-5.984375 -1.8125l3.796875 0q0 -1.734375 -1.796875 -1.734375q-1.859375 0 -2.0 1.734375z" fill-rule="nonzero"/><path fill="#000000" d="m95.16104 189.39674l-7.78125 0l0 -1.671875l2.828125 -3.078125q1.5 -1.640625 1.953125 -2.40625q0.453125 -0.765625 0.453125 -1.65625q0 -0.734375 -0.40625 -1.15625q-0.40625 -0.421875 -1.109375 -0.421875q-1.125 0 -2.515625 1.21875l-1.21875 -1.4375q1.828125 -1.640625 3.75 -1.640625q1.640625 0 2.609375 0.921875q0.984375 0.921875 0.984375 2.46875q0 1.0 -0.484375 2.03125q-0.484375 1.03125 -2.34375 3.015625l-2.265625 2.1875l-0.09375 -0.0625l5.640625 -0.265625l0 1.953125z" fill-rule="nonzero"/><path fill="#000000" d="m172.45493 188.16237l0.09375 -0.109375q0.328125 0.921875 0.328125 1.203125l0 3.984375l-2.078125 0l0 -13.078125l1.765625 0l-0.015625 1.40625l-0.0625 -0.03125q0.75 -1.53125 2.578125 -1.53125q1.734375 0 2.703125 1.28125q0.984375 1.265625 0.984375 3.46875q0 2.21875 -0.984375 3.515625q-0.984375 1.28125 -2.703125 1.28125q-1.78125 0 -2.609375 -1.390625zm0.421875 -3.71875l0 0.3125q0 1.671875 0.46875 2.3125q0.46875 0.640625 1.484375 0.640625q1.796875 0 1.796875 -2.96875q0 -2.90625 -1.8125 -2.90625q-1.03125 0 -1.46875 0.578125q-0.4375 0.578125 -0.46875 2.03125zm15.5078125 0.9375l-6.046875 0q0.0625 2.265625 2.359375 2.265625q1.46875 0 3.21875 -0.765625l0 1.953125q-1.546875 0.71875 -3.171875 0.71875q-2.046875 0 -3.296875 -1.265625q-1.234375 -1.265625 -1.234375 -3.453125q0 -2.203125 1.140625 -3.515625q1.140625 -1.3125 3.078125 -1.3125q1.796875 0 2.875 1.15625q1.078125 1.140625 1.078125 3.0l0 1.21875zm-5.984375 -1.8125l3.796875 0q0 -1.734375 -1.796875 -1.734375q-1.859375 0 -2.0 1.734375zm24.59375 3.953125l0 1.703125q-1.296875 0.328125 -2.296875 0.328125q-3.15625 0 -3.15625 -3.015625l0 -4.65625l-2.078125 0l0 -1.34375l2.140625 -0.375l0.625 -2.296875l1.390625 0l0 2.296875l3.421875 0l0 1.71875l-3.421875 0l0 4.65625q0 1.1875 1.171875 1.1875q0.71875 0 2.203125 -0.203125zm6.2578125 -10.890625q1.15625 0 1.15625 1.21875q0 0.609375 -0.359375 0.921875q-0.34375 0.296875 -0.796875 0.296875q-1.171875 0 -1.171875 -1.21875q0 -1.21875 1.171875 -1.21875zm-1.046875 5.28125l-2.109375 -0.171875l0 -1.578125l4.1875 0l0 7.46875l2.75 0.15625l0 1.609375l-7.515625 0l0 -1.609375l2.6875 -0.15625l0 -5.71875zm23.59375 5.609375l0 1.703125q-1.296875 0.328125 -2.296875 0.328125q-3.15625 0 -3.15625 -3.015625l0 -4.65625l-2.078125 0l0 -1.34375l2.140625 -0.375l0.625 -2.296875l1.390625 0l0 2.296875l3.421875 0l0 1.71875l-3.421875 0l0 4.65625q0 1.1875 1.171875 1.1875q0.71875 0 2.203125 -0.203125zm10.1953125 -2.140625l-6.046875 0q0.0625 2.265625 2.359375 2.265625q1.46875 0 3.21875 -0.765625l0 1.953125q-1.546875 0.71875 -3.171875 0.71875q-2.046875 0 -3.296875 -1.265625q-1.234375 -1.265625 -1.234375 -3.453125q0 -2.203125 1.140625 -3.515625q1.140625 -1.3125 3.078125 -1.3125q1.796875 0 2.875 1.15625q1.078125 1.140625 1.078125 3.0l0 1.21875zm-5.984375 -1.8125l3.796875 0q0 -1.734375 -1.796875 -1.734375q-1.859375 0 -2.0 1.734375z" fill-rule="nonzero"/><path fill="#000000" d="m361.95886 188.16237l0.09375 -0.109375q0.328125 0.921875 0.328125 1.203125l0 3.984375l-2.078125 0l0 -13.078125l1.765625 0l-0.015625 1.40625l-0.0625 -0.03125q0.75 -1.53125 2.578125 -1.53125q1.734375 0 2.703125 1.28125q0.984375 1.265625 0.984375 3.46875q0 2.21875 -0.984375 3.515625q-0.984375 1.28125 -2.703125 1.28125q-1.78125 0 -2.609375 -1.390625zm0.421875 -3.71875l0 0.3125q0 1.671875 0.46875 2.3125q0.46875 0.640625 1.484375 0.640625q1.796875 0 1.796875 -2.96875q0 -2.90625 -1.8125 -2.90625q-1.03125 0 -1.46875 0.578125q-0.4375 0.578125 -0.46875 2.03125zm15.5078125 0.9375l-6.046875 0q0.0625 2.265625 2.359375 2.265625q1.46875 0 3.21875 -0.765625l0 1.953125q-1.546875 0.71875 -3.171875 0.71875q-2.046875 0 -3.296875 -1.265625q-1.234375 -1.265625 -1.234375 -3.453125q0 -2.203125 1.140625 -3.515625q1.140625 -1.3125 3.078125 -1.3125q1.796875 0 2.875 1.15625q1.078125 1.140625 1.078125 3.0l0 1.21875zm-5.984375 -1.8125l3.796875 0q0 -1.734375 -1.796875 -1.734375q-1.859375 0 -2.0 1.734375zm19.953125 5.828125l-3.484375 -9.234375l2.171875 0l1.953125 5.3125q0.671875 1.828125 0.515625 2.59375l-0.046875 -0.015625q-0.203125 -0.359375 0.53125 -2.578125l1.9375 -5.3125l2.1875 0l-3.484375 9.234375l-2.28125 0zm10.7109375 0.15625q-1.828125 0 -3.015625 -1.3125q-1.171875 -1.328125 -1.171875 -3.484375q0 -2.171875 1.140625 -3.453125q1.15625 -1.296875 3.09375 -1.296875q1.84375 0 3.015625 1.3125q1.1875 1.3125 1.1875 3.4375q0 2.203125 -1.171875 3.5q-1.15625 1.296875 -3.078125 1.296875zm0.03125 -1.84375q2.09375 0 2.09375 -2.953125q0 -2.921875 -2.109375 -2.921875q-2.078125 0 -2.078125 2.921875q0 2.953125 2.09375 2.953125zm9.7578125 -11.078125q1.15625 0 1.15625 1.21875q0 0.609375 -0.359375 0.921875q-0.34375 0.296875 -0.796875 0.296875q-1.171875 0 -1.171875 -1.21875q0 -1.21875 1.171875 -1.21875zm-1.046875 5.28125l-2.109375 -0.171875l0 -1.578125l4.1875 0l0 7.46875l2.75 0.15625l0 1.609375l-7.515625 0l0 -1.609375l2.6875 -0.15625l0 -5.71875zm18.953125 7.484375l-3.484375 -9.234375l2.171875 0l1.953125 5.3125q0.671875 1.828125 0.515625 2.59375l-0.046875 -0.015625q-0.203125 -0.359375 0.53125 -2.578125l1.9375 -5.3125l2.1875 0l-3.484375 9.234375l-2.28125 0zm12.5546875 0l0 -5.859375q0 -1.703125 -1.53125 -1.703125q-2.078125 0 -2.078125 2.78125l0 4.78125l-2.078125 0l0 -12.8125l2.078125 0l0 3.953125l-0.3125 1.03125l-0.078125 -0.0625q0.703125 -1.5 2.703125 -1.5q3.375 0 3.375 3.453125l0 5.9375l-2.078125 0z" fill-rule="nonzero"/><path fill="#000000" d="m91.95792 209.09987l-0.015625 -0.046875q3.109375 0.109375 3.109375 2.765625q0 1.734375 -1.1875 2.734375q-1.171875 1.0 -3.34375 1.0q-1.96875 0 -3.34375 -0.765625l0 -2.0625q1.84375 0.96875 3.3125 0.96875q2.4375 0 2.4375 -1.921875q0 -1.6875 -2.640625 -1.6875l-1.375 0l0 -1.84375l1.375 0q1.125 0 1.703125 -0.5q0.59375 -0.515625 0.59375 -1.328125q0 -0.65625 -0.4375 -1.03125q-0.421875 -0.375 -1.1875 -0.375q-1.28125 0 -2.765625 1.078125l-1.09375 -1.5q1.796875 -1.4375 3.859375 -1.4375q1.734375 0 2.734375 0.859375q1.0 0.859375 1.0 2.3125q0 1.203125 -0.71875 2.015625q-0.71875 0.8125 -2.015625 0.765625z" fill-rule="nonzero"/><path fill="#000000" d="m172.45493 214.16237l0.09375 -0.109375q0.328125 0.921875 0.328125 1.203125l0 3.984375l-2.078125 0l0 -13.078125l1.765625 0l-0.015625 1.40625l-0.0625 -0.03125q0.75 -1.53125 2.578125 -1.53125q1.734375 0 2.703125 1.28125q0.984375 1.265625 0.984375 3.46875q0 2.21875 -0.984375 3.515625q-0.984375 1.28125 -2.703125 1.28125q-1.78125 0 -2.609375 -1.390625zm0.421875 -3.71875l0 0.3125q0 1.671875 0.46875 2.3125q0.46875 0.640625 1.484375 0.640625q1.796875 0 1.796875 -2.96875q0 -2.90625 -1.8125 -2.90625q-1.03125 0 -1.46875 0.578125q-0.4375 0.578125 -0.46875 2.03125zm15.5078125 0.9375l-6.046875 0q0.0625 2.265625 2.359375 2.265625q1.46875 0 3.21875 -0.765625l0 1.953125q-1.546875 0.71875 -3.171875 0.71875q-2.046875 0 -3.296875 -1.265625q-1.234375 -1.265625 -1.234375 -3.453125q0 -2.203125 1.140625 -3.515625q1.140625 -1.3125 3.078125 -1.3125q1.796875 0 2.875 1.15625q1.078125 1.140625 1.078125 3.0l0 1.21875zm-5.984375 -1.8125l3.796875 0q0 -1.734375 -1.796875 -1.734375q-1.859375 0 -2.0 1.734375zm17.5625 5.296875l0 -1.984375q1.890625 0.84375 3.21875 0.84375q1.8125 0 1.8125 -0.9375q0 -0.28125 -0.3125 -0.546875q-0.296875 -0.265625 -1.609375 -0.734375q-1.921875 -0.71875 -2.453125 -1.359375q-0.53125 -0.640625 -0.53125 -1.546875q0 -1.234375 0.96875 -1.90625q0.984375 -0.6875 2.640625 -0.6875q1.609375 0 3.296875 0.734375l-0.703125 1.75q-1.671875 -0.65625 -2.671875 -0.65625q-1.515625 0 -1.515625 0.71875q0 0.296875 0.296875 0.53125q0.3125 0.21875 1.6875 0.703125q1.734375 0.640625 2.34375 1.296875q0.609375 0.65625 0.609375 1.625q0 1.34375 -1.03125 2.09375q-1.015625 0.75 -2.796875 0.75q-2.015625 0 -3.25 -0.6875zm15.2578125 0.53125l0 -1.390625l0.078125 0.046875q-0.71875 1.5 -2.6875 1.5q-3.390625 0 -3.390625 -3.46875l0 -5.921875l2.078125 0l0 5.84375q0 1.703125 1.515625 1.703125q1.109375 0 1.59375 -0.609375q0.5 -0.609375 0.5 -2.15625l0 -4.78125l2.078125 0l0 9.234375l-1.765625 0zm12.4375 -9.234375l2.171875 0l2.125 5.3125q0.671875 1.640625 0.453125 2.34375l-0.046875 -0.015625q-0.09375 -0.90625 0.4375 -2.328125l1.9375 -5.3125l2.203125 0l-3.890625 10.140625q-0.546875 1.4375 -1.3125 2.1875q-0.765625 0.75 -2.140625 0.75q-0.703125 0 -1.640625 -0.1875l0 -1.796875q0.84375 0.15625 1.390625 0.15625q0.640625 0 0.984375 -0.265625q0.34375 -0.25 0.640625 -0.953125l0.390625 -1.046875l-3.703125 -8.984375zm13.2734375 -1.84375l-2.09375 -0.15625l0 -1.578125l4.1875 0l0 11.046875l2.75 0.15625l0 1.609375l-7.53125 0l0 -1.609375l2.6875 -0.15625l0 -9.3125z" fill-rule="nonzero"/><path fill="#000000" d="m361.95886 214.16237l0.09375 -0.109375q0.328125 0.921875 0.328125 1.203125l0 3.984375l-2.078125 0l0 -13.078125l1.765625 0l-0.015625 1.40625l-0.0625 -0.03125q0.75 -1.53125 2.578125 -1.53125q1.734375 0 2.703125 1.28125q0.984375 1.265625 0.984375 3.46875q0 2.21875 -0.984375 3.515625q-0.984375 1.28125 -2.703125 1.28125q-1.78125 0 -2.609375 -1.390625zm0.421875 -3.71875l0 0.3125q0 1.671875 0.46875 2.3125q0.46875 0.640625 1.484375 0.640625q1.796875 0 1.796875 -2.96875q0 -2.90625 -1.8125 -2.90625q-1.03125 0 -1.46875 0.578125q-0.4375 0.578125 -0.46875 2.03125zm15.5078125 0.9375l-6.046875 0q0.0625 2.265625 2.359375 2.265625q1.46875 0 3.21875 -0.765625l0 1.953125q-1.546875 0.71875 -3.171875 0.71875q-2.046875 0 -3.296875 -1.265625q-1.234375 -1.265625 -1.234375 -3.453125q0 -2.203125 1.140625 -3.515625q1.140625 -1.3125 3.078125 -1.3125q1.796875 0 2.875 1.15625q1.078125 1.140625 1.078125 3.0l0 1.21875zm-5.984375 -1.8125l3.796875 0q0 -1.734375 -1.796875 -1.734375q-1.859375 0 -2.0 1.734375zm24.78125 5.828125l-7.390625 0l0 -1.421875l4.8125 -6.09375l-4.546875 0l0 -1.71875l6.984375 0l0 1.578125l-4.703125 5.921875l4.84375 0l0 1.734375zm7.7265625 0l0 -5.859375q0 -1.703125 -1.53125 -1.703125q-2.078125 0 -2.078125 2.78125l0 4.78125l-2.078125 0l0 -12.8125l2.078125 0l0 3.953125l-0.3125 1.03125l-0.078125 -0.0625q0.703125 -1.5 2.703125 -1.5q3.375 0 3.375 3.453125l0 5.9375l-2.078125 0zm7.9453125 -12.765625q1.15625 0 1.15625 1.21875q0 0.609375 -0.359375 0.921875q-0.34375 0.296875 -0.796875 0.296875q-1.171875 0 -1.171875 -1.21875q0 -1.21875 1.171875 -1.21875zm-1.046875 5.28125l-2.109375 -0.171875l0 -1.578125l4.1875 0l0 7.46875l2.75 0.15625l0 1.609375l-7.515625 0l0 -1.609375l2.6875 -0.15625l0 -5.71875zm15.453125 -1.75l2.171875 0l2.125 5.3125q0.671875 1.640625 0.453125 2.34375l-0.046875 -0.015625q-0.09375 -0.90625 0.4375 -2.328125l1.9375 -5.3125l2.203125 0l-3.890625 10.140625q-0.546875 1.4375 -1.3125 2.1875q-0.765625 0.75 -2.140625 0.75q-0.703125 0 -1.640625 -0.1875l0 -1.796875q0.84375 0.15625 1.390625 0.15625q0.640625 0 0.984375 -0.265625q0.34375 -0.25 0.640625 -0.953125l0.390625 -1.046875l-3.703125 -8.984375zm14.3984375 -3.53125q1.15625 0 1.15625 1.21875q0 0.609375 -0.359375 0.921875q-0.34375 0.296875 -0.796875 0.296875q-1.171875 0 -1.171875 -1.21875q0 -1.21875 1.171875 -1.21875zm-1.046875 5.28125l-2.109375 -0.171875l0 -1.578125l4.1875 0l0 7.46875l2.75 0.15625l0 1.609375l-7.515625 0l0 -1.609375l2.6875 -0.15625l0 -5.71875z" fill-rule="nonzero"/><path fill="#ffff00" d="m26.218708 229.71758l2.234375 0l-4.03125 12.078125l-1.9375 0l-4.015625 -12.078125l2.21875 0l2.375 7.46875q0.328125 1.0 0.375 1.515625q-0.0625 -0.015625 0.421875 -1.5625l2.359375 -7.421875zm10.1953125 12.078125l-6.71875 0l0 -1.609375l2.296875 -0.15625l0 -8.5625l-2.296875 -0.15625l0 -1.59375l6.71875 0l0 1.59375l-2.296875 0.15625l0 8.5625l2.296875 0.15625l0 1.609375zm11.828125 -0.515625l0 -2.078125q2.03125 0.828125 3.5625 0.828125q2.40625 0 2.40625 -1.546875q0 -0.65625 -0.46875 -1.015625q-0.46875 -0.375 -2.09375 -0.953125q-1.703125 -0.609375 -2.484375 -1.46875q-0.78125 -0.875 -0.78125 -2.265625q0 -1.515625 1.109375 -2.375q1.125 -0.859375 2.984375 -0.859375q1.84375 0 3.671875 0.75l-0.734375 1.890625q-1.765625 -0.703125 -3.0 -0.703125q-1.96875 0 -1.96875 1.3125q0 0.65625 0.4375 1.078125q0.4375 0.40625 1.96875 0.921875q2.0 0.71875 2.71875 1.53125q0.71875 0.8125 0.71875 2.078125q0 1.65625 -1.203125 2.609375q-1.1875 0.9375 -3.28125 0.9375q-2.15625 0 -3.5625 -0.671875zm15.7421875 0.515625l0 -1.390625l0.078128815 0.046875q-0.7187538 1.5 -2.6875038 1.5q-3.390625 0 -3.390625 -3.46875l0 -5.921875l2.078125 0l0 5.84375q0 1.703125 1.515625 1.703125q1.109375 0 1.59375 -0.609375q0.5 -0.609375 0.5 -2.15625l0 -4.78125l2.0781288 0l0 9.234375l-1.7656288 0zm5.2421913 -1.234375l0.09375 -0.0625l-0.125 1.296875l-1.625 0l0 -12.8125l2.078125 0l0 3.265625q0 0.640625 -0.328125 1.703125l-0.0625 -0.046875q0.734375 -1.5 2.578125 -1.5q1.734375 0 2.703125 1.28125q0.984375 1.265625 0.984375 3.46875q0 2.21875 -0.984375 3.515625q-0.984375 1.28125 -2.703125 1.28125q-1.78125 0 -2.609375 -1.390625zm0.421875 -3.40625q0 1.671875 0.46875 2.3125q0.46875 0.640625 1.484375 0.640625q1.796875 0 1.796875 -2.96875q0 -2.90625 -1.8125 -2.90625q-1.046875 0 -1.5 0.625q-0.4375 0.625 -0.4375 2.296875zm12.4296875 -8.125q1.15625 0 1.15625 1.21875q0 1.21875 -1.15625 1.21875q-1.15625 0 -1.15625 -1.21875q0 -1.21875 1.15625 -1.21875zm-5.078125 16.265625l0 -1.890625q1.421875 0.40625 2.578125 0.40625q0.796875 0 1.203125 -0.359375q0.40625 -0.359375 0.40625 -0.984375l0 -8.140625l-3.28125 -0.171875l0 -1.59375l5.359375 0l0 9.828125q0 1.5625 -0.984375 2.40625q-0.984375 0.84375 -2.71875 0.84375q-1.328125 0 -2.5625 -0.34375zm13.6328125 -3.34375q-1.828125 0 -3.015625 -1.3125q-1.171875 -1.328125 -1.171875 -3.484375q0 -2.171875 1.140625 -3.453125q1.15625 -1.296875 3.09375 -1.296875q1.84375 0 3.015625 1.3125q1.1875 1.3125 1.1875 3.4375q0 2.203125 -1.171875 3.5q-1.15625 1.296875 -3.078125 1.296875zm0.03125 -1.84375q2.09375 0 2.09375 -2.953125q0 -2.921875 -2.109375 -2.921875q-2.078125 0 -2.078125 2.921875q0 2.953125 2.09375 2.953125zm11.4140625 1.6875l0 -5.859375q0 -1.703125 -1.53125 -1.703125q-2.078125 0 -2.078125 2.78125l0 4.78125l-2.078125 0l0 -9.234375l1.765625 0l0 1.390625l-0.078125 -0.046875q0.703125 -1.5 2.703125 -1.5q3.375 0 3.375 3.453125l0 5.9375l-2.078125 0zm11.7109375 -8.796875l-0.71875 1.84375q-1.421875 -0.53125 -2.28125 -0.53125q-2.578125 0 -2.578125 2.890625q0 2.84375 2.5 2.84375q1.15625 0 2.828125 -0.625l0 1.921875q-1.296875 0.609375 -2.890625 0.609375q-2.15625 0 -3.359375 -1.234375q-1.203125 -1.234375 -1.203125 -3.5q0 -2.328125 1.21875 -3.5625q1.234375 -1.25 3.4375 -1.25q1.453125 0 3.046875 0.59375zm9.1796875 6.921875l0 1.703125q-1.296875 0.328125 -2.296875 0.328125q-3.15625 0 -3.15625 -3.015625l0 -4.65625l-2.078125 0l0 -1.34375l2.140625 -0.375l0.625 -2.296875l1.390625 0l0 2.296875l3.421875 0l0 1.71875l-3.421875 0l0 4.65625q0 1.1875 1.171875 1.1875q0.71875 0 2.203125 -0.203125zm6.257805 -10.890625q1.15625 0 1.15625 1.21875q0 0.609375 -0.359375 0.921875q-0.34375 0.296875 -0.796875 0.296875q-1.171875 0 -1.171875 -1.21875q0 -1.21875 1.171875 -1.21875zm-1.046875 5.28125l-2.1093674 -0.171875l0 -1.578125l4.1874924 0l0 7.46875l2.75 0.15625l0 1.609375l-7.5156174 0l0 -1.609375l2.6874924 -0.15625l0 -5.71875zm9.3515625 7.484375l-3.484375 -9.234375l2.171875 0l1.953125 5.3125q0.671875 1.828125 0.515625 2.59375l-0.046875 -0.015625q-0.203125 -0.359375 0.53125 -2.578125l1.9375 -5.3125l2.1875 0l-3.484375 9.234375l-2.28125 0z" fill-rule="nonzero"/><path fill="#ffff00" d="m171.15805 241.26445l0 -1.984375q1.890625 0.84375 3.21875 0.84375q1.8125 0 1.8125 -0.9375q0 -0.28125 -0.3125 -0.546875q-0.296875 -0.265625 -1.609375 -0.734375q-1.921875 -0.71875 -2.453125 -1.359375q-0.53125 -0.640625 -0.53125 -1.546875q0 -1.234375 0.96875 -1.90625q0.984375 -0.6875 2.640625 -0.6875q1.609375 0 3.296875 0.734375l-0.703125 1.75q-1.671875 -0.65625 -2.671875 -0.65625q-1.515625 0 -1.515625 0.71875q0 0.296875 0.296875 0.53125q0.3125 0.21875 1.6875 0.703125q1.734375 0.640625 2.34375 1.296875q0.609375 0.65625 0.609375 1.625q0 1.34375 -1.03125 2.09375q-1.015625 0.75 -2.796875 0.75q-2.015625 0 -3.25 -0.6875zm13.2890625 -12.234375q1.15625 0 1.15625 1.21875q0 0.609375 -0.359375 0.921875q-0.34375 0.296875 -0.796875 0.296875q-1.171875 0 -1.171875 -1.21875q0 -1.21875 1.171875 -1.21875zm-1.046875 5.28125l-2.109375 -0.171875l0 -1.578125l4.1875 0l0 7.46875l2.75 0.15625l0 1.609375l-7.515625 0l0 -1.609375l2.6875 -0.15625l0 -5.71875zm12.3046875 7.484375l0 -5.859375q0 -1.703125 -1.53125 -1.703125q-2.078125 0 -2.078125 2.78125l0 4.78125l-2.078125 0l0 -9.234375l1.765625 0l0 1.390625l-0.078125 -0.046875q0.703125 -1.5 2.703125 -1.5q3.375 0 3.375 3.453125l0 5.9375l-2.078125 0zm12.1171875 -9.234375l0 1.484375l-1.25 0.1875q0.234375 0.296875 0.234375 1.40625q0 1.40625 -0.9375 2.25q-0.9375 0.828125 -2.546875 0.828125q-0.453125 0 -0.609375 -0.03125q-0.515625 0.28125 -0.515625 0.703125q0 0.328125 0.9375 0.328125l1.453125 0q1.484375 0 2.296875 0.6875q0.828125 0.6875 0.828125 1.96875q0 3.265625 -4.734375 3.265625q-1.8125 0 -2.8125 -0.703125q-1.0 -0.703125 -1.0 -2.015625q0 -1.921875 1.3125 -2.203125q-0.1875 -0.078125 -0.1875 -1.109375q0 -1.0625 0.65625 -1.453125q-0.203125 -0.078125 -0.65625 -0.828125q-0.453125 -0.75 -0.453125 -1.640625q0 -1.5625 0.9375 -2.421875q0.9375 -0.859375 2.59375 -0.859375q0.71875 0 1.21875 0.15625l3.234375 0zm-4.484375 4.53125q1.421875 0 1.421875 -1.46875q0 -1.546875 -1.4375 -1.546875q-1.421875 0 -1.421875 1.5625q0 1.453125 1.4375 1.453125zm0.765625 4.5625l-1.46875 0q-1.46875 0 -1.46875 1.21875q0 1.03125 1.796875 1.03125q2.75 0 2.75 -1.40625q0 -0.5 -0.28125 -0.671875q-0.265625 -0.171875 -1.328125 -0.171875zm11.1171875 0.140625l0 -1.390625l0.078125 0.046875q-0.71875 1.5 -2.6875 1.5q-3.390625 0 -3.390625 -3.46875l0 -5.921875l2.078125 0l0 5.84375q0 1.703125 1.515625 1.703125q1.109375 0 1.59375 -0.609375q0.5 -0.609375 0.5 -2.15625l0 -4.78125l2.078125 0l0 9.234375l-1.765625 0zm6.5078125 -11.078125l-2.09375 -0.15625l0 -1.578125l4.1875 0l0 11.046875l2.75 0.15625l0 1.609375l-7.53125 0l0 -1.609375l2.6875 -0.15625l0 -9.3125zm12.5234375 11.078125l-0.109375 -1.4375l0.0625 0.046875q-0.453125 0.890625 -1.15625 1.21875q-0.6875 0.328125 -1.765625 0.328125q-1.40625 0 -2.234375 -0.765625q-0.8125 -0.765625 -0.8125 -2.125q0 -2.90625 4.296875 -3.046875l1.265625 -0.03125l0 -0.234375q0 -1.515625 -1.578125 -1.515625q-1.0625 0 -2.71875 0.75l-0.765625 -1.65625q1.890625 -0.921875 3.421875 -0.921875q1.90625 0 2.796875 0.765625q0.890625 0.765625 0.890625 2.421875l0 6.203125l-1.59375 0zm-0.46875 -4.1875l-0.921875 0.046875q-1.4375 0.0625 -1.96875 0.40625q-0.53125 0.328125 -0.53125 1.015625q0 1.0625 1.234375 1.0625q1.03125 0 1.609375 -0.53125q0.578125 -0.546875 0.578125 -1.5625l0 -0.4375zm12.0078125 -4.734375l-0.578125 1.921875q-1.234375 -0.4375 -1.96875 -0.4375q-1.125 0 -1.734375 0.625q-0.59375 0.609375 -0.59375 1.859375l0 4.953125l-2.078125 0l0 -9.234375l1.78125 0l-0.0625 1.828125l-0.0625 -0.046875q0.421875 -1.0625 1.171875 -1.5q0.75 -0.4375 1.84375 -0.4375q0.984375 0 2.28125 0.46875z" fill-rule="nonzero"/><path fill="#ffff00" d="m361.95886 240.56133l0.09375 -0.109375q0.328125 0.921875 0.328125 1.203125l0 3.984375l-2.078125 0l0 -13.078125l1.765625 0l-0.015625 1.40625l-0.0625 -0.03125q0.75 -1.53125 2.578125 -1.53125q1.734375 0 2.703125 1.28125q0.984375 1.265625 0.984375 3.46875q0 2.21875 -0.984375 3.515625q-0.984375 1.28125 -2.703125 1.28125q-1.78125 0 -2.609375 -1.390625zm0.421875 -3.71875l0 0.3125q0 1.671875 0.46875 2.3125q0.46875 0.640625 1.484375 0.640625q1.796875 0 1.796875 -2.96875q0 -2.90625 -1.8125 -2.90625q-1.03125 0 -1.46875 0.578125q-0.4375 0.578125 -0.46875 2.03125zm10.4453125 -6.125l-2.09375 -0.15625l0 -1.578125l4.1875 0l0 11.046875l2.75 0.15625l0 1.609375l-7.53125 0l0 -1.609375l2.6875 -0.15625l0 -9.3125zm12.6953125 11.078125l0 -1.390625l0.078125 0.046875q-0.71875 1.5 -2.6875 1.5q-3.390625 0 -3.390625 -3.46875l0 -5.921875l2.078125 0l0 5.84375q0 1.703125 1.515625 1.703125q1.109375 0 1.59375 -0.609375q0.5 -0.609375 0.5 -2.15625l0 -4.78125l2.078125 0l0 9.234375l-1.765625 0zm11.3671875 -8.921875l-0.578125 1.921875q-1.234375 -0.4375 -1.96875 -0.4375q-1.125 0 -1.734375 0.625q-0.59375 0.609375 -0.59375 1.859375l0 4.953125l-2.078125 0l0 -9.234375l1.78125 0l-0.0625 1.828125l-0.0625 -0.046875q0.421875 -1.0625 1.171875 -1.5q0.75 -0.4375 1.84375 -0.4375q0.984375 0 2.28125 0.46875zm7.6640625 8.921875l-0.109375 -1.4375l0.0625 0.046875q-0.453125 0.890625 -1.15625 1.21875q-0.6875 0.328125 -1.765625 0.328125q-1.40625 0 -2.234375 -0.765625q-0.8125 -0.765625 -0.8125 -2.125q0 -2.90625 4.296875 -3.046875l1.265625 -0.03125l0 -0.234375q0 -1.515625 -1.578125 -1.515625q-1.0625 0 -2.71875 0.75l-0.765625 -1.65625q1.890625 -0.921875 3.421875 -0.921875q1.90625 0 2.796875 0.765625q0.890625 0.765625 0.890625 2.421875l0 6.203125l-1.59375 0zm-0.46875 -4.1875l-0.921875 0.046875q-1.4375 0.0625 -1.96875 0.40625q-0.53125 0.328125 -0.53125 1.015625q0 1.0625 1.234375 1.0625q1.03125 0 1.609375 -0.53125q0.578125 -0.546875 0.578125 -1.5625l0 -0.4375zm7.1484375 -6.890625l-2.09375 -0.15625l0 -1.578125l4.1875 0l0 11.046875l2.75 0.15625l0 1.609375l-7.53125 0l0 -1.609375l2.6875 -0.15625l0 -9.3125z" fill-rule="nonzero"/><path fill="#000000" d="m92.72354 267.7957l-2.03125 0l0 -7.46875q0 -0.953125 0.21875 -2.375q0.109375 0.125 -0.5625 0.6875l-1.40625 1.171875l-1.15625 -1.5l3.328125 -2.5937347l1.609375 0l0 12.07811z" fill-rule="nonzero"/><path fill="#000000" d="m171.15805 267.26443l0 -1.984375q1.890625 0.84375 3.21875 0.84375q1.8125 0 1.8125 -0.9375q0 -0.28125 -0.3125 -0.546875q-0.296875 -0.265625 -1.609375 -0.734375q-1.921875 -0.71875 -2.453125 -1.359375q-0.53125 -0.640625 -0.53125 -1.546875q0 -1.234375 0.96875 -1.90625q0.984375 -0.6875 2.640625 -0.6875q1.609375 0 3.296875 0.734375l-0.703125 1.75q-1.671875 -0.65625 -2.671875 -0.65625q-1.515625 0 -1.515625 0.71875q0 0.296875 0.296875 0.53125q0.3125 0.21875 1.6875 0.703125q1.734375 0.640625 2.34375 1.296875q0.609375 0.65625 0.609375 1.625q0 1.34375 -1.03125 2.09375q-1.015625 0.75 -2.796875 0.75q-2.015625 0 -3.25 -0.6875zm14.9453125 0.53125l0 -5.859375q0 -1.703125 -1.53125 -1.703125q-2.078125 0 -2.078125 2.78125l0 4.78125l-2.078125 0l0 -12.812485l2.078125 0l0 3.9531097l-0.3125 1.03125l-0.078125 -0.0625q0.703125 -1.5 2.703125 -1.5q3.375 0 3.375 3.453125l0 5.9375l-2.078125 0zm19.90625 0l0 -5.859375q0 -1.0625 -0.15625 -1.375q-0.140625 -0.328125 -0.421875 -0.328125q-0.46875 0 -0.71875 0.53125q-0.25 0.515625 -0.25 1.96875l0 5.0625l-1.90625 0l0 -5.859375q0 -1.703125 -0.65625 -1.703125q-0.4375 0 -0.671875 0.5q-0.21875 0.5 -0.21875 2.28125l0 4.78125l-1.921875 0l0 -9.234375l1.609375 0l0 1.390625l-0.078125 -0.015625q0.390625 -1.53125 1.65625 -1.53125q1.515625 0 1.703125 1.6875l-0.046875 -0.015625q0.421875 -1.671875 1.765625 -1.671875q1.1875 0 1.703125 0.84375q0.53125 0.828125 0.53125 2.609375l0 5.9375l-1.921875 0zm8.8984375 0l0 -5.859375q0 -1.703125 -1.53125 -1.703125q-2.078125 0 -2.078125 2.78125l0 4.78125l-2.078125 0l0 -12.812485l2.078125 0l0 3.9531097l-0.3125 1.03125l-0.078125 -0.0625q0.703125 -1.5 2.703125 -1.5q3.375 0 3.375 3.453125l0 5.9375l-2.078125 0z" fill-rule="nonzero"/><path fill="#000000" d="m360.662 267.26443l0 -1.984375q1.890625 0.84375 3.21875 0.84375q1.8125 0 1.8125 -0.9375q0 -0.28125 -0.3125 -0.546875q-0.296875 -0.265625 -1.609375 -0.734375q-1.921875 -0.71875 -2.453125 -1.359375q-0.53125 -0.640625 -0.53125 -1.546875q0 -1.234375 0.96875 -1.90625q0.984375 -0.6875 2.640625 -0.6875q1.609375 0 3.296875 0.734375l-0.703125 1.75q-1.671875 -0.65625 -2.671875 -0.65625q-1.515625 0 -1.515625 0.71875q0 0.296875 0.296875 0.53125q0.3125 0.21875 1.6875 0.703125q1.734375 0.640625 2.34375 1.296875q0.609375 0.65625 0.609375 1.625q0 1.34375 -1.03125 2.09375q-1.015625 0.75 -2.796875 0.75q-2.015625 0 -3.25 -0.6875zm14.9453125 0.53125l0 -5.859375q0 -1.703125 -1.53125 -1.703125q-2.078125 0 -2.078125 2.78125l0 4.78125l-2.078125 0l0 -12.812485l2.078125 0l0 3.9531097l-0.3125 1.03125l-0.078125 -0.0625q0.703125 -1.5 2.703125 -1.5q3.375 0 3.375 3.453125l0 5.9375l-2.078125 0zm19.203125 0l0 -5.859375q0 -1.703125 -1.53125 -1.703125q-2.078125 0 -2.078125 2.78125l0 4.78125l-2.078125 0l0 -9.234375l1.765625 0l0 1.390625l-0.078125 -0.046875q0.703125 -1.5 2.703125 -1.5q3.375 0 3.375 3.453125l0 5.9375l-2.078125 0zm11.8828125 -4.015625l-6.046875 0q0.0625 2.265625 2.359375 2.265625q1.46875 0 3.21875 -0.765625l0 1.953125q-1.546875 0.71875 -3.171875 0.71875q-2.046875 0 -3.296875 -1.265625q-1.234375 -1.265625 -1.234375 -3.453125q0 -2.203125 1.140625 -3.515625q1.140625 -1.3125 3.078125 -1.3125q1.796875 0 2.875 1.15625q1.078125 1.140625 1.078125 3.0l0 1.21875zm-5.984375 -1.8125l3.796875 0q0 -1.734375 -1.796875 -1.734375q-1.859375 0 -2.0 1.734375z" fill-rule="nonzero"/><path fill="#000000" d="m95.16104 293.7957l-7.78125 0l0 -1.671875l2.828125 -3.078125q1.5 -1.640625 1.953125 -2.40625q0.453125 -0.765625 0.453125 -1.65625q0 -0.734375 -0.40625 -1.15625q-0.40625 -0.421875 -1.109375 -0.421875q-1.125 0 -2.515625 1.21875l-1.21875 -1.4375q1.828125 -1.640625 3.75 -1.640625q1.640625 0 2.609375 0.921875q0.984375 0.921875 0.984375 2.46875q0 1.0 -0.484375 2.03125q-0.484375 1.03125 -2.34375 3.015625l-2.265625 2.1875l-0.09375 -0.0625l5.640625 -0.265625l0 1.953125z" fill-rule="nonzero"/><path fill="#000000" d="m171.15805 293.26443l0 -1.984375q1.890625 0.84375 3.21875 0.84375q1.8125 0 1.8125 -0.9375q0 -0.28125 -0.3125 -0.546875q-0.296875 -0.265625 -1.609375 -0.734375q-1.921875 -0.71875 -2.453125 -1.359375q-0.53125 -0.640625 -0.53125 -1.546875q0 -1.234375 0.96875 -1.90625q0.984375 -0.6875 2.640625 -0.6875q1.609375 0 3.296875 0.734375l-0.703125 1.75q-1.671875 -0.65625 -2.671875 -0.65625q-1.515625 0 -1.515625 0.71875q0 0.296875 0.296875 0.53125q0.3125 0.21875 1.6875 0.703125q1.734375 0.640625 2.34375 1.296875q0.609375 0.65625 0.609375 1.625q0 1.34375 -1.03125 2.09375q-1.015625 0.75 -2.796875 0.75q-2.015625 0 -3.25 -0.6875zm14.9453125 0.53125l0 -5.859375q0 -1.703125 -1.53125 -1.703125q-2.078125 0 -2.078125 2.78125l0 4.78125l-2.078125 0l0 -12.8125l2.078125 0l0 3.953125l-0.3125 1.03125l-0.078125 -0.0625q0.703125 -1.5 2.703125 -1.5q3.375 0 3.375 3.453125l0 5.9375l-2.078125 0zm20.890625 -1.875l0 1.703125q-1.296875 0.328125 -2.296875 0.328125q-3.15625 0 -3.15625 -3.015625l0 -4.65625l-2.078125 0l0 -1.34375l2.140625 -0.375l0.625 -2.296875l1.390625 0l0 2.296875l3.421875 0l0 1.71875l-3.421875 0l0 4.65625q0 1.1875 1.171875 1.1875q0.71875 0 2.203125 -0.203125zm10.1953125 -2.140625l-6.046875 0q0.0625 2.265625 2.359375 2.265625q1.46875 0 3.21875 -0.765625l0 1.953125q-1.546875 0.71875 -3.171875 0.71875q-2.046875 0 -3.296875 -1.265625q-1.234375 -1.265625 -1.234375 -3.453125q0 -2.203125 1.140625 -3.515625q1.140625 -1.3125 3.078125 -1.3125q1.796875 0 2.875 1.15625q1.078125 1.140625 1.078125 3.0l0 1.21875zm-5.984375 -1.8125l3.796875 0q0 -1.734375 -1.796875 -1.734375q-1.859375 0 -2.0 1.734375z" fill-rule="nonzero"/><path fill="#000000" d="m360.662 293.26443l0 -1.984375q1.890625 0.84375 3.21875 0.84375q1.8125 0 1.8125 -0.9375q0 -0.28125 -0.3125 -0.546875q-0.296875 -0.265625 -1.609375 -0.734375q-1.921875 -0.71875 -2.453125 -1.359375q-0.53125 -0.640625 -0.53125 -1.546875q0 -1.234375 0.96875 -1.90625q0.984375 -0.6875 2.640625 -0.6875q1.609375 0 3.296875 0.734375l-0.703125 1.75q-1.671875 -0.65625 -2.671875 -0.65625q-1.515625 0 -1.515625 0.71875q0 0.296875 0.296875 0.53125q0.3125 0.21875 1.6875 0.703125q1.734375 0.640625 2.34375 1.296875q0.609375 0.65625 0.609375 1.625q0 1.34375 -1.03125 2.09375q-1.015625 0.75 -2.796875 0.75q-2.015625 0 -3.25 -0.6875zm14.9453125 0.53125l0 -5.859375q0 -1.703125 -1.53125 -1.703125q-2.078125 0 -2.078125 2.78125l0 4.78125l-2.078125 0l0 -12.8125l2.078125 0l0 3.953125l-0.3125 1.03125l-0.078125 -0.0625q0.703125 -1.5 2.703125 -1.5q3.375 0 3.375 3.453125l0 5.9375l-2.078125 0zm16.25 0l-3.484375 -9.234375l2.171875 0l1.953125 5.3125q0.671875 1.828125 0.515625 2.59375l-0.046875 -0.015625q-0.203125 -0.359375 0.53125 -2.578125l1.9375 -5.3125l2.1875 0l-3.484375 9.234375l-2.28125 0zm12.5546875 0l0 -5.859375q0 -1.703125 -1.53125 -1.703125q-2.078125 0 -2.078125 2.78125l0 4.78125l-2.078125 0l0 -12.8125l2.078125 0l0 3.953125l-0.3125 1.03125l-0.078125 -0.0625q0.703125 -1.5 2.703125 -1.5q3.375 0 3.375 3.453125l0 5.9375l-2.078125 0z" fill-rule="nonzero"/><path fill="#000000" d="m91.95792 313.4988l-0.015625 -0.046875q3.109375 0.109375 3.109375 2.765625q0 1.734375 -1.1875 2.734375q-1.171875 1.0 -3.34375 1.0q-1.96875 0 -3.34375 -0.765625l0 -2.0625q1.84375 0.96875 3.3125 0.96875q2.4375 0 2.4375 -1.921875q0 -1.6875 -2.640625 -1.6875l-1.375 0l0 -1.84375l1.375 0q1.125 0 1.703125 -0.5q0.59375 -0.515625 0.59375 -1.328125q0 -0.65625 -0.4375 -1.03125q-0.421875 -0.375 -1.1875 -0.375q-1.28125 0 -2.765625 1.078125l-1.09375 -1.5q1.796875 -1.4375 3.859375 -1.4375q1.734375 0 2.734375 0.859375q1.0 0.859375 1.0 2.3125q0 1.203125 -0.71875 2.015625q-0.71875 0.8125 -2.015625 0.765625z" fill-rule="nonzero"/><path fill="#000000" d="m171.15805 319.26443l0 -1.984375q1.890625 0.84375 3.21875 0.84375q1.8125 0 1.8125 -0.9375q0 -0.28125 -0.3125 -0.546875q-0.296875 -0.265625 -1.609375 -0.734375q-1.921875 -0.71875 -2.453125 -1.359375q-0.53125 -0.640625 -0.53125 -1.546875q0 -1.234375 0.96875 -1.90625q0.984375 -0.6875 2.640625 -0.6875q1.609375 0 3.296875 0.734375l-0.703125 1.75q-1.671875 -0.65625 -2.671875 -0.65625q-1.515625 0 -1.515625 0.71875q0 0.296875 0.296875 0.53125q0.3125 0.21875 1.6875 0.703125q1.734375 0.640625 2.34375 1.296875q0.609375 0.65625 0.609375 1.625q0 1.34375 -1.03125 2.09375q-1.015625 0.75 -2.796875 0.75q-2.015625 0 -3.25 -0.6875zm14.9453125 0.53125l0 -5.859375q0 -1.703125 -1.53125 -1.703125q-2.078125 0 -2.078125 2.78125l0 4.78125l-2.078125 0l0 -12.8125l2.078125 0l0 3.953125l-0.3125 1.03125l-0.078125 -0.0625q0.703125 -1.5 2.703125 -1.5q3.375 0 3.375 3.453125l0 5.9375l-2.078125 0zm13.859375 -0.53125l0 -1.984375q1.890625 0.84375 3.21875 0.84375q1.8125 0 1.8125 -0.9375q0 -0.28125 -0.3125 -0.546875q-0.296875 -0.265625 -1.609375 -0.734375q-1.921875 -0.71875 -2.453125 -1.359375q-0.53125 -0.640625 -0.53125 -1.546875q0 -1.234375 0.96875 -1.90625q0.984375 -0.6875 2.640625 -0.6875q1.609375 0 3.296875 0.734375l-0.703125 1.75q-1.671875 -0.65625 -2.671875 -0.65625q-1.515625 0 -1.515625 0.71875q0 0.296875 0.296875 0.53125q0.3125 0.21875 1.6875 0.703125q1.734375 0.640625 2.34375 1.296875q0.609375 0.65625 0.609375 1.625q0 1.34375 -1.03125 2.09375q-1.015625 0.75 -2.796875 0.75q-2.015625 0 -3.25 -0.6875zm17.226562 -3.484375l-6.046875 0q0.0625 2.265625 2.359375 2.265625q1.46875 0 3.21875 -0.765625l0 1.953125q-1.546875 0.71875 -3.171875 0.71875q-2.046875 0 -3.296875 -1.265625q-1.234375 -1.265625 -1.234375 -3.453125q0 -2.203125 1.140625 -3.515625q1.140625 -1.3125 3.078125 -1.3125q1.796875 0 2.875 1.15625q1.078125 1.140625 1.078125 3.0l0 1.21875zm-5.984375 -1.8125l3.796875 0q0 -1.734375 -1.796875 -1.734375q-1.859375 0 -2.0 1.734375z" fill-rule="nonzero"/><path fill="#000000" d="m360.662 319.26443l0 -1.984375q1.890625 0.84375 3.21875 0.84375q1.8125 0 1.8125 -0.9375q0 -0.28125 -0.3125 -0.546875q-0.296875 -0.265625 -1.609375 -0.734375q-1.921875 -0.71875 -2.453125 -1.359375q-0.53125 -0.640625 -0.53125 -1.546875q0 -1.234375 0.96875 -1.90625q0.984375 -0.6875 2.640625 -0.6875q1.609375 0 3.296875 0.734375l-0.703125 1.75q-1.671875 -0.65625 -2.671875 -0.65625q-1.515625 0 -1.515625 0.71875q0 0.296875 0.296875 0.53125q0.3125 0.21875 1.6875 0.703125q1.734375 0.640625 2.34375 1.296875q0.609375 0.65625 0.609375 1.625q0 1.34375 -1.03125 2.09375q-1.015625 0.75 -2.796875 0.75q-2.015625 0 -3.25 -0.6875zm14.9453125 0.53125l0 -5.859375q0 -1.703125 -1.53125 -1.703125q-2.078125 0 -2.078125 2.78125l0 4.78125l-2.078125 0l0 -12.8125l2.078125 0l0 3.953125l-0.3125 1.03125l-0.078125 -0.0625q0.703125 -1.5 2.703125 -1.5q3.375 0 3.375 3.453125l0 5.9375l-2.078125 0zm13.859375 -0.53125l0 -1.984375q1.890625 0.84375 3.21875 0.84375q1.8125 0 1.8125 -0.9375q0 -0.28125 -0.3125 -0.546875q-0.296875 -0.265625 -1.609375 -0.734375q-1.921875 -0.71875 -2.453125 -1.359375q-0.53125 -0.640625 -0.53125 -1.546875q0 -1.234375 0.96875 -1.90625q0.984375 -0.6875 2.640625 -0.6875q1.609375 0 3.296875 0.734375l-0.703125 1.75q-1.671875 -0.65625 -2.671875 -0.65625q-1.515625 0 -1.515625 0.71875q0 0.296875 0.296875 0.53125q0.3125 0.21875 1.6875 0.703125q1.734375 0.640625 2.34375 1.296875q0.609375 0.65625 0.609375 1.625q0 1.34375 -1.03125 2.09375q-1.015625 0.75 -2.796875 0.75q-2.015625 0 -3.25 -0.6875zm17.226562 -3.484375l-6.046875 0q0.0625 2.265625 2.359375 2.265625q1.46875 0 3.21875 -0.765625l0 1.953125q-1.546875 0.71875 -3.171875 0.71875q-2.046875 0 -3.296875 -1.265625q-1.234375 -1.265625 -1.234375 -3.453125q0 -2.203125 1.140625 -3.515625q1.140625 -1.3125 3.078125 -1.3125q1.796875 0 2.875 1.15625q1.078125 1.140625 1.078125 3.0l0 1.21875zm-5.984375 -1.8125l3.796875 0q0 -1.734375 -1.796875 -1.734375q-1.859375 0 -2.0 1.734375z" fill-rule="nonzero"/><path fill="#ffff00" d="m26.218708 333.71756l2.234375 0l-4.03125 12.078125l-1.9375 0l-4.015625 -12.078125l2.21875 0l2.375 7.46875q0.328125 1.0 0.375 1.515625q-0.0625 -0.015625 0.421875 -1.5625l2.359375 -7.421875zm10.1953125 12.078125l-6.71875 0l0 -1.609375l2.296875 -0.15625l0 -8.5625l-2.296875 -0.15625l0 -1.59375l6.71875 0l0 1.59375l-2.296875 0.15625l0 8.5625l2.296875 0.15625l0 1.609375zm9.6015625 0l-6.71875 0l0 -1.609375l2.296875 -0.15625l0 -8.5625l-2.296875 -0.15625l0 -1.59375l6.71875 0l0 1.59375l-2.296875 0.15625l0 8.5625l2.296875 0.15625l0 1.609375zm19.203129 0l-6.718754 0l0 -1.609375l2.296875 -0.15625l0 -8.5625l-2.296875 -0.15625l0 -1.59375l6.718754 0l0 1.59375l-2.2968788 0.15625l0 8.5625l2.2968788 0.15625l0 1.609375zm8.7578125 0l0 -5.859375q0 -1.0625 -0.15625 -1.375q-0.140625 -0.328125 -0.421875 -0.328125q-0.46875 0 -0.71875 0.53125q-0.25 0.515625 -0.25 1.96875l0 5.0625l-1.90625 0l0 -5.859375q0 -1.703125 -0.65625 -1.703125q-0.4375 0 -0.671875 0.5q-0.21875 0.5 -0.21875 2.28125l0 4.78125l-1.921875 0l0 -9.234375l1.609375 0l0 1.390625l-0.078125 -0.015625q0.390625 -1.53125 1.65625 -1.53125q1.515625 0 1.703125 1.6875l-0.046875 -0.015625q0.421875 -1.671875 1.765625 -1.671875q1.1875 0 1.703125 0.84375q0.53125 0.828125 0.53125 2.609375l0 5.9375l-1.921875 0zm4.8515625 -1.234375l0.09375 -0.109375q0.328125 0.921875 0.328125 1.203125l0 3.984375l-2.078125 0l0 -13.078125l1.765625 0l-0.015625 1.40625l-0.0625 -0.03125q0.75 -1.53125 2.578125 -1.53125q1.734375 0 2.703125 1.28125q0.984375 1.265625 0.984375 3.46875q0 2.21875 -0.984375 3.515625q-0.984375 1.28125 -2.703125 1.28125q-1.78125 0 -2.609375 -1.390625zm0.421875 -3.71875l0 0.3125q0 1.671875 0.46875 2.3125q0.46875 0.640625 1.484375 0.640625q1.796875 0 1.796875 -2.96875q0 -2.90625 -1.8125 -2.90625q-1.03125 0 -1.46875 0.578125q-0.4375 0.578125 -0.46875 2.03125zm15.5078125 0.9375l-6.046875 0q0.0625 2.265625 2.359375 2.265625q1.46875 0 3.21875 -0.765625l0 1.953125q-1.546875 0.71875 -3.171875 0.71875q-2.046875 0 -3.296875 -1.265625q-1.234375 -1.265625 -1.234375 -3.453125q0 -2.203125 1.140625 -3.515625q1.140625 -1.3125 3.078125 -1.3125q1.796875 0 2.875 1.15625q1.078125 1.140625 1.078125 3.0l0 1.21875zm-5.984375 -1.8125l3.796875 0q0 -1.734375 -1.796875 -1.734375q-1.859375 0 -2.0 1.734375zm15.3828125 -3.09375l-0.578125 1.921875q-1.234375 -0.4375 -1.96875 -0.4375q-1.125 0 -1.734375 0.625q-0.59375 0.609375 -0.59375 1.859375l0 4.953125l-2.078125 0l0 -9.234375l1.78125 0l-0.0625 1.828125l-0.0625 -0.046875q0.421875 -1.0625 1.171875 -1.5q0.75 -0.4375 1.84375 -0.4375q0.984375 0 2.28125 0.46875zm7.6640625 8.921875l-0.109375 -1.4375l0.0625 0.046875q-0.453125 0.890625 -1.15625 1.21875q-0.6875 0.328125 -1.765625 0.328125q-1.40625 0 -2.234375 -0.765625q-0.8125 -0.765625 -0.8125 -2.125q0 -2.90625 4.296875 -3.046875l1.265625 -0.03125l0 -0.234375q0 -1.515625 -1.578125 -1.515625q-1.0625 0 -2.71875 0.75l-0.765625 -1.65625q1.890625 -0.921875 3.421875 -0.921875q1.90625 0 2.796875 0.765625q0.890625 0.765625 0.890625 2.421875l0 6.203125l-1.59375 0zm-0.46875 -4.1875l-0.921875 0.046875q-1.4375 0.0625 -1.96875 0.40625q-0.53125 0.328125 -0.53125 1.015625q0 1.0625 1.234375 1.0625q1.03125 0 1.609375 -0.53125q0.578125 -0.546875 0.578125 -1.5625l0 -0.4375zm11.6171875 2.3125l0 1.703125q-1.296875 0.328125 -2.296875 0.328125q-3.15625 0 -3.15625 -3.015625l0 -4.65625l-2.078125 0l0 -1.34375l2.140625 -0.375l0.625 -2.296875l1.390625 0l0 2.296875l3.421875 0l0 1.71875l-3.421875 0l0 4.65625q0 1.1875 1.171875 1.1875q0.71875 0 2.203125 -0.203125zm6.257805 -10.890625q1.15625 0 1.15625 1.21875q0 0.609375 -0.359375 0.921875q-0.34375 0.296875 -0.796875 0.296875q-1.171875 0 -1.171875 -1.21875q0 -1.21875 1.171875 -1.21875zm-1.046875 5.28125l-2.1093674 -0.171875l0 -1.578125l4.1874924 0l0 7.46875l2.75 0.15625l0 1.609375l-7.5156174 0l0 -1.609375l2.6874924 -0.15625l0 -5.71875zm9.3515625 7.484375l-3.484375 -9.234375l2.171875 0l1.953125 5.3125q0.671875 1.828125 0.515625 2.59375l-0.046875 -0.015625q-0.203125 -0.359375 0.53125 -2.578125l1.9375 -5.3125l2.1875 0l-3.484375 9.234375l-2.28125 0zm14.8359375 -4.015625l-6.046875 0q0.0625 2.265625 2.359375 2.265625q1.46875 0 3.21875 -0.765625l0 1.953125q-1.546875 0.71875 -3.171875 0.71875q-2.046875 0 -3.296875 -1.265625q-1.234375 -1.265625 -1.234375 -3.453125q0 -2.203125 1.140625 -3.515625q1.140625 -1.3125 3.078125 -1.3125q1.796875 0 2.875 1.15625q1.078125 1.140625 1.078125 3.0l0 1.21875zm-5.984375 -1.8125l3.796875 0q0 -1.734375 -1.796875 -1.734375q-1.859375 0 -2.0 1.734375z" fill-rule="nonzero"/><path fill="#ffff00" d="m171.15805 345.26443l0 -1.984375q1.890625 0.84375 3.21875 0.84375q1.8125 0 1.8125 -0.9375q0 -0.28125 -0.3125 -0.546875q-0.296875 -0.265625 -1.609375 -0.734375q-1.921875 -0.71875 -2.453125 -1.359375q-0.53125 -0.640625 -0.53125 -1.546875q0 -1.234375 0.96875 -1.90625q0.984375 -0.6875 2.640625 -0.6875q1.609375 0 3.296875 0.734375l-0.703125 1.75q-1.671875 -0.65625 -2.671875 -0.65625q-1.515625 0 -1.515625 0.71875q0 0.296875 0.296875 0.53125q0.3125 0.21875 1.6875 0.703125q1.734375 0.640625 2.34375 1.296875q0.609375 0.65625 0.609375 1.625q0 1.34375 -1.03125 2.09375q-1.015625 0.75 -2.796875 0.75q-2.015625 0 -3.25 -0.6875zm15.2578125 0.53125l0 -1.390625l0.078125 0.046875q-0.71875 1.5 -2.6875 1.5q-3.390625 0 -3.390625 -3.46875l0 -5.921875l2.078125 0l0 5.84375q0 1.703125 1.515625 1.703125q1.109375 0 1.59375 -0.609375q0.5 -0.609375 0.5 -2.15625l0 -4.78125l2.078125 0l0 9.234375l-1.765625 0zm11.1640625 -7.515625l-3.03125 0l0 7.515625l-2.078125 0l0 -7.515625l-2.484375 0l0 -1.484375l2.484375 -0.25l0 -0.453125q0 -1.65625 0.796875 -2.421875q0.8125 -0.78125 2.5625 -0.78125q1.0625 0 2.375 0.390625l-0.484375 1.734375q-1.09375 -0.296875 -1.859375 -0.296875q-0.8125 0 -1.0625 0.296875q-0.25 0.28125 -0.25 1.0625l0 0.484375l3.03125 0l0 1.71875zm9.6015625 0l-3.03125 0l0 7.515625l-2.078125 0l0 -7.515625l-2.484375 0l0 -1.484375l2.484375 -0.25l0 -0.453125q0 -1.65625 0.796875 -2.421875q0.8125 -0.78125 2.5625 -0.78125q1.0625 0 2.375 0.390625l-0.484375 1.734375q-1.09375 -0.296875 -1.859375 -0.296875q-0.8125 0 -1.0625 0.296875q-0.25 0.28125 -0.25 1.0625l0 0.484375l3.03125 0l0 1.71875zm6.0703125 -5.25q1.15625 0 1.15625 1.21875q0 0.609375 -0.359375 0.921875q-0.34375 0.296875 -0.796875 0.296875q-1.171875 0 -1.171875 -1.21875q0 -1.21875 1.171875 -1.21875zm-1.046875 5.28125l-2.109375 -0.171875l0 -1.578125l4.1875 0l0 7.46875l2.75 0.15625l0 1.609375l-7.515625 0l0 -1.609375l2.6875 -0.15625l0 -5.71875zm9.2734375 2.75l-3.296875 -4.5l2.421875 0l2.09375 2.96875l2.109375 -2.96875l2.4375 0l-3.328125 4.5l3.453125 4.734375l-2.421875 0l-2.25 -3.171875l-2.25 3.171875l-2.4375 0l3.46875 -4.734375zm16.890625 4.203125l0 -1.984375q1.890625 0.84375 3.21875 0.84375q1.8125 0 1.8125 -0.9375q0 -0.28125 -0.3125 -0.546875q-0.296875 -0.265625 -1.609375 -0.734375q-1.921875 -0.71875 -2.453125 -1.359375q-0.53125 -0.640625 -0.53125 -1.546875q0 -1.234375 0.96875 -1.90625q0.984375 -0.6875 2.640625 -0.6875q1.609375 0 3.296875 0.734375l-0.703125 1.75q-1.671875 -0.65625 -2.671875 -0.65625q-1.515625 0 -1.515625 0.71875q0 0.296875 0.296875 0.53125q0.3125 0.21875 1.6875 0.703125q1.734375 0.640625 2.34375 1.296875q0.609375 0.65625 0.609375 1.625q0 1.34375 -1.03125 2.09375q-1.015625 0.75 -2.796875 0.75q-2.015625 0 -3.25 -0.6875zm13.2890625 -12.234375q1.15625 0 1.15625 1.21875q0 0.609375 -0.359375 0.921875q-0.34375 0.296875 -0.796875 0.296875q-1.171875 0 -1.171875 -1.21875q0 -1.21875 1.171875 -1.21875zm-1.046875 5.28125l-2.109375 -0.171875l0 -1.578125l4.1875 0l0 7.46875l2.75 0.15625l0 1.609375l-7.515625 0l0 -1.609375l2.6875 -0.15625l0 -5.71875zm12.3046875 7.484375l0 -5.859375q0 -1.703125 -1.53125 -1.703125q-2.078125 0 -2.078125 2.78125l0 4.78125l-2.078125 0l0 -9.234375l1.765625 0l0 1.390625l-0.078125 -0.046875q0.703125 -1.5 2.703125 -1.5q3.375 0 3.375 3.453125l0 5.9375l-2.078125 0zm12.1171875 -9.234375l0 1.484375l-1.25 0.1875q0.234375 0.296875 0.234375 1.40625q0 1.40625 -0.9375 2.25q-0.9375 0.828125 -2.546875 0.828125q-0.453125 0 -0.609375 -0.03125q-0.515625 0.28125 -0.515625 0.703125q0 0.328125 0.9375 0.328125l1.453125 0q1.484375 0 2.296875 0.6875q0.828125 0.6875 0.828125 1.96875q0 3.265625 -4.734375 3.265625q-1.8125 0 -2.8125 -0.703125q-1.0 -0.703125 -1.0 -2.015625q0 -1.921875 1.3125 -2.203125q-0.1875 -0.078125 -0.1875 -1.109375q0 -1.0625 0.65625 -1.453125q-0.203125 -0.078125 -0.65625 -0.828125q-0.453125 -0.75 -0.453125 -1.640625q0 -1.5625 0.9375 -2.421875q0.9375 -0.859375 2.59375 -0.859375q0.71875 0 1.21875 0.15625l3.234375 0zm-4.484375 4.53125q1.421875 0 1.421875 -1.46875q0 -1.546875 -1.4375 -1.546875q-1.421875 0 -1.421875 1.5625q0 1.453125 1.4375 1.453125zm0.765625 4.5625l-1.46875 0q-1.46875 0 -1.46875 1.21875q0 1.03125 1.796875 1.03125q2.75 0 2.75 -1.40625q0 -0.5 -0.28125 -0.671875q-0.265625 -0.171875 -1.328125 -0.171875zm11.1171875 0.140625l0 -1.390625l0.078125 0.046875q-0.71875 1.5 -2.6875 1.5q-3.390625 0 -3.390625 -3.46875l0 -5.921875l2.078125 0l0 5.84375q0 1.703125 1.515625 1.703125q1.109375 0 1.59375 -0.609375q0.5 -0.609375 0.5 -2.15625l0 -4.78125l2.078125 0l0 9.234375l-1.765625 0zm6.5078125 -11.078125l-2.09375 -0.15625l0 -1.578125l4.1875 0l0 11.046875l2.75 0.15625l0 1.609375l-7.53125 0l0 -1.609375l2.6875 -0.15625l0 -9.3125zm12.5234375 11.078125l-0.109375 -1.4375l0.0625 0.046875q-0.453125 0.890625 -1.15625 1.21875q-0.6875 0.328125 -1.765625 0.328125q-1.40625 0 -2.234375 -0.765625q-0.8125 -0.765625 -0.8125 -2.125q0 -2.90625 4.296875 -3.046875l1.265625 -0.03125l0 -0.234375q0 -1.515625 -1.578125 -1.515625q-1.0625 0 -2.71875 0.75l-0.765625 -1.65625q1.890625 -0.921875 3.421875 -0.921875q1.90625 0 2.796875 0.765625q0.890625 0.765625 0.890625 2.421875l0 6.203125l-1.59375 0zm-0.46875 -4.1875l-0.921875 0.046875q-1.4375 0.0625 -1.96875 0.40625q-0.53125 0.328125 -0.53125 1.015625q0 1.0625 1.234375 1.0625q1.03125 0 1.609375 -0.53125q0.578125 -0.546875 0.578125 -1.5625l0 -0.4375zm12.0078125 -4.734375l-0.578125 1.921875q-1.234375 -0.4375 -1.96875 -0.4375q-1.125 0 -1.734375 0.625q-0.59375 0.609375 -0.59375 1.859375l0 4.953125l-2.078125 0l0 -9.234375l1.78125 0l-0.0625 1.828125l-0.0625 -0.046875q0.421875 -1.0625 1.171875 -1.5q0.75 -0.4375 1.84375 -0.4375q0.984375 0 2.28125 0.46875z" fill-rule="nonzero"/><path fill="#ffff00" d="m360.662 345.26443l0 -1.984375q1.890625 0.84375 3.21875 0.84375q1.8125 0 1.8125 -0.9375q0 -0.28125 -0.3125 -0.546875q-0.296875 -0.265625 -1.609375 -0.734375q-1.921875 -0.71875 -2.453125 -1.359375q-0.53125 -0.640625 -0.53125 -1.546875q0 -1.234375 0.96875 -1.90625q0.984375 -0.6875 2.640625 -0.6875q1.609375 0 3.296875 0.734375l-0.703125 1.75q-1.671875 -0.65625 -2.671875 -0.65625q-1.515625 0 -1.515625 0.71875q0 0.296875 0.296875 0.53125q0.3125 0.21875 1.6875 0.703125q1.734375 0.640625 2.34375 1.296875q0.609375 0.65625 0.609375 1.625q0 1.34375 -1.03125 2.09375q-1.015625 0.75 -2.796875 0.75q-2.015625 0 -3.25 -0.6875zm15.2578125 0.53125l0 -1.390625l0.078125 0.046875q-0.71875 1.5 -2.6875 1.5q-3.390625 0 -3.390625 -3.46875l0 -5.921875l2.078125 0l0 5.84375q0 1.703125 1.515625 1.703125q1.109375 0 1.59375 -0.609375q0.5 -0.609375 0.5 -2.15625l0 -4.78125l2.078125 0l0 9.234375l-1.765625 0zm11.1640625 -7.515625l-3.03125 0l0 7.515625l-2.078125 0l0 -7.515625l-2.484375 0l0 -1.484375l2.484375 -0.25l0 -0.453125q0 -1.65625 0.796875 -2.421875q0.8125 -0.78125 2.5625 -0.78125q1.0625 0 2.375 0.390625l-0.484375 1.734375q-1.09375 -0.296875 -1.859375 -0.296875q-0.8125 0 -1.0625 0.296875q-0.25 0.28125 -0.25 1.0625l0 0.484375l3.03125 0l0 1.71875zm9.6015625 0l-3.03125 0l0 7.515625l-2.078125 0l0 -7.515625l-2.484375 0l0 -1.484375l2.484375 -0.25l0 -0.453125q0 -1.65625 0.796875 -2.421875q0.8125 -0.78125 2.5625 -0.78125q1.0625 0 2.375 0.390625l-0.484375 1.734375q-1.09375 -0.296875 -1.859375 -0.296875q-0.8125 0 -1.0625 0.296875q-0.25 0.28125 -0.25 1.0625l0 0.484375l3.03125 0l0 1.71875zm6.0703125 -5.25q1.15625 0 1.15625 1.21875q0 0.609375 -0.359375 0.921875q-0.34375 0.296875 -0.796875 0.296875q-1.171875 0 -1.171875 -1.21875q0 -1.21875 1.171875 -1.21875zm-1.046875 5.28125l-2.109375 -0.171875l0 -1.578125l4.1875 0l0 7.46875l2.75 0.15625l0 1.609375l-7.515625 0l0 -1.609375l2.6875 -0.15625l0 -5.71875zm9.2734375 2.75l-3.296875 -4.5l2.421875 0l2.09375 2.96875l2.109375 -2.96875l2.4375 0l-3.328125 4.5l3.453125 4.734375l-2.421875 0l-2.25 -3.171875l-2.25 3.171875l-2.4375 0l3.46875 -4.734375zm18.1875 3.5l0.09375 -0.109375q0.328125 0.921875 0.328125 1.203125l0 3.984375l-2.078125 0l0 -13.078125l1.765625 0l-0.015625 1.40625l-0.0625 -0.03125q0.75 -1.53125 2.578125 -1.53125q1.734375 0 2.703125 1.28125q0.984375 1.265625 0.984375 3.46875q0 2.21875 -0.984375 3.515625q-0.984375 1.28125 -2.703125 1.28125q-1.78125 0 -2.609375 -1.390625zm0.421875 -3.71875l0 0.3125q0 1.671875 0.46875 2.3125q0.46875 0.640625 1.484375 0.640625q1.796875 0 1.796875 -2.96875q0 -2.90625 -1.8125 -2.90625q-1.03125 0 -1.46875 0.578125q-0.4375 0.578125 -0.46875 2.03125zm10.4453125 -6.125l-2.09375 -0.15625l0 -1.578125l4.1875 0l0 11.046875l2.75 0.15625l0 1.609375l-7.53125 0l0 -1.609375l2.6875 -0.15625l0 -9.3125zm12.6953125 11.078125l0 -1.390625l0.078125 0.046875q-0.71875 1.5 -2.6875 1.5q-3.390625 0 -3.390625 -3.46875l0 -5.921875l2.078125 0l0 5.84375q0 1.703125 1.515625 1.703125q1.109375 0 1.59375 -0.609375q0.5 -0.609375 0.5 -2.15625l0 -4.78125l2.078125 0l0 9.234375l-1.765625 0zm11.3671875 -8.921875l-0.578125 1.921875q-1.234375 -0.4375 -1.96875 -0.4375q-1.125 0 -1.734375 0.625q-0.59375 0.609375 -0.59375 1.859375l0 4.953125l-2.078125 0l0 -9.234375l1.78125 0l-0.0625 1.828125l-0.0625 -0.046875q0.421875 -1.0625 1.171875 -1.5q0.75 -0.4375 1.84375 -0.4375q0.984375 0 2.28125 0.46875zm7.6640625 8.921875l-0.109375 -1.4375l0.0625 0.046875q-0.453125 0.890625 -1.15625 1.21875q-0.6875 0.328125 -1.765625 0.328125q-1.40625 0 -2.234375 -0.765625q-0.8125 -0.765625 -0.8125 -2.125q0 -2.90625 4.296875 -3.046875l1.265625 -0.03125l0 -0.234375q0 -1.515625 -1.578125 -1.515625q-1.0625 0 -2.71875 0.75l-0.765625 -1.65625q1.890625 -0.921875 3.421875 -0.921875q1.90625 0 2.796875 0.765625q0.890625 0.765625 0.890625 2.421875l0 6.203125l-1.59375 0zm-0.46875 -4.1875l-0.921875 0.046875q-1.4375 0.0625 -1.96875 0.40625q-0.53125 0.328125 -0.53125 1.015625q0 1.0625 1.234375 1.0625q1.03125 0 1.609375 -0.53125q0.578125 -0.546875 0.578125 -1.5625l0 -0.4375zm7.1484375 -6.890625l-2.09375 -0.15625l0 -1.578125l4.1875 0l0 11.046875l2.75 0.15625l0 1.609375l-7.53125 0l0 -1.609375l2.6875 -0.15625l0 -9.3125z" fill-rule="nonzero"/><path fill="#000000" d="m92.72354 371.7957l-2.03125 0l0 -7.46875q0 -0.953125 0.21875 -2.375q0.109375 0.125 -0.5625 0.6875l-1.40625 1.171875l-1.15625 -1.5l3.328125 -2.59375l1.609375 0l0 12.078125z" fill-rule="nonzero"/><path fill="#000000" d="m171.79868 368.15506l0 -1.96875l5.796875 0l0 1.96875l-5.796875 0zm15.0078125 3.640625l0 -5.859375q0 -1.0625 -0.15625 -1.375q-0.140625 -0.328125 -0.421875 -0.328125q-0.46875 0 -0.71875 0.53125q-0.25 0.515625 -0.25 1.96875l0 5.0625l-1.90625 0l0 -5.859375q0 -1.703125 -0.65625 -1.703125q-0.4375 0 -0.671875 0.5q-0.21875 0.5 -0.21875 2.28125l0 4.78125l-1.921875 0l0 -9.234375l1.609375 0l0 1.390625l-0.078125 -0.015625q0.390625 -1.53125 1.65625 -1.53125q1.515625 0 1.703125 1.6875l-0.046875 -0.015625q0.421875 -1.671875 1.765625 -1.671875q1.1875 0 1.703125 0.84375q0.53125 0.828125 0.53125 2.609375l0 5.9375l-1.921875 0zm8.8984375 0l0 -5.859375q0 -1.703125 -1.53125 -1.703125q-2.078125 0 -2.078125 2.78125l0 4.78125l-2.078125 0l0 -12.8125l2.078125 0l0 3.953125l-0.3125 1.03125l-0.078125 -0.0625q0.703125 -1.5 2.703125 -1.5q3.375 0 3.375 3.453125l0 5.9375l-2.078125 0z" fill-rule="nonzero"/><path fill="#000000" d="m361.3026 368.15506l0 -1.96875l5.796875 0l0 1.96875l-5.796875 0zm14.3046875 3.640625l0 -5.859375q0 -1.703125 -1.53125 -1.703125q-2.078125 0 -2.078125 2.78125l0 4.78125l-2.078125 0l0 -9.234375l1.765625 0l0 1.390625l-0.078125 -0.046875q0.703125 -1.5 2.703125 -1.5q3.375 0 3.375 3.453125l0 5.9375l-2.078125 0zm11.8828125 -4.015625l-6.046875 0q0.0625 2.265625 2.359375 2.265625q1.46875 0 3.21875 -0.765625l0 1.953125q-1.546875 0.71875 -3.171875 0.71875q-2.046875 0 -3.296875 -1.265625q-1.234375 -1.265625 -1.234375 -3.453125q0 -2.203125 1.140625 -3.515625q1.140625 -1.3125 3.078125 -1.3125q1.796875 0 2.875 1.15625q1.078125 1.140625 1.078125 3.0l0 1.21875zm-5.984375 -1.8125l3.796875 0q0 -1.734375 -1.796875 -1.734375q-1.859375 0 -2.0 1.734375z" fill-rule="nonzero"/><path fill="#000000" d="m95.16104 397.7957l-7.78125 0l0 -1.671875l2.828125 -3.078125q1.5 -1.640625 1.953125 -2.40625q0.453125 -0.765625 0.453125 -1.65625q0 -0.734375 -0.40625 -1.15625q-0.40625 -0.421875 -1.109375 -0.421875q-1.125 0 -2.515625 1.21875l-1.21875 -1.4375q1.828125 -1.640625 3.75 -1.640625q1.640625 0 2.609375 0.921875q0.984375 0.921875 0.984375 2.46875q0 1.0 -0.484375 2.03125q-0.484375 1.03125 -2.34375 3.015625l-2.265625 2.1875l-0.09375 -0.0625l5.640625 -0.265625l0 1.953125z" fill-rule="nonzero"/><path fill="#000000" d="m171.79868 394.15506l0 -1.96875l5.796875 0l0 1.96875l-5.796875 0zm15.9921875 1.765625l0 1.703125q-1.296875 0.328125 -2.296875 0.328125q-3.15625 0 -3.15625 -3.015625l0 -4.65625l-2.078125 0l0 -1.34375l2.140625 -0.375l0.625 -2.296875l1.390625 0l0 2.296875l3.421875 0l0 1.71875l-3.421875 0l0 4.65625q0 1.1875 1.171875 1.1875q0.71875 0 2.203125 -0.203125zm10.1953125 -2.140625l-6.046875 0q0.0625 2.265625 2.359375 2.265625q1.46875 0 3.21875 -0.765625l0 1.953125q-1.546875 0.71875 -3.171875 0.71875q-2.046875 0 -3.296875 -1.265625q-1.234375 -1.265625 -1.234375 -3.453125q0 -2.203125 1.140625 -3.515625q1.140625 -1.3125 3.078125 -1.3125q1.796875 0 2.875 1.15625q1.078125 1.140625 1.078125 3.0l0 1.21875zm-5.984375 -1.8125l3.796875 0q0 -1.734375 -1.796875 -1.734375q-1.859375 0 -2.0 1.734375z" fill-rule="nonzero"/><path fill="#000000" d="m361.3026 394.15506l0 -1.96875l5.796875 0l0 1.96875l-5.796875 0zm11.3515625 3.640625l-3.484375 -9.234375l2.171875 0l1.953125 5.3125q0.671875 1.828125 0.515625 2.59375l-0.046875 -0.015625q-0.203125 -0.359375 0.53125 -2.578125l1.9375 -5.3125l2.1875 0l-3.484375 9.234375l-2.28125 0zm12.5546875 0l0 -5.859375q0 -1.703125 -1.53125 -1.703125q-2.078125 0 -2.078125 2.78125l0 4.78125l-2.078125 0l0 -12.8125l2.078125 0l0 3.953125l-0.3125 1.03125l-0.078125 -0.0625q0.703125 -1.5 2.703125 -1.5q3.375 0 3.375 3.453125l0 5.9375l-2.078125 0z" fill-rule="nonzero"/><path fill="#000000" d="m91.95792 417.4988l-0.015625 -0.046875q3.109375 0.109375 3.109375 2.765625q0 1.734375 -1.1875 2.734375q-1.171875 1.0 -3.34375 1.0q-1.96875 0 -3.34375 -0.765625l0 -2.0625q1.84375 0.96875 3.3125 0.96875q2.4375 0 2.4375 -1.921875q0 -1.6875 -2.640625 -1.6875l-1.375 0l0 -1.84375l1.375 0q1.125 0 1.703125 -0.5q0.59375 -0.515625 0.59375 -1.328125q0 -0.65625 -0.4375 -1.03125q-0.421875 -0.375 -1.1875 -0.375q-1.28125 0 -2.765625 1.078125l-1.09375 -1.5q1.796875 -1.4375 3.859375 -1.4375q1.734375 0 2.734375 0.859375q1.0 0.859375 1.0 2.3125q0 1.203125 -0.71875 2.015625q-0.71875 0.8125 -2.015625 0.765625z" fill-rule="nonzero"/><path fill="#000000" d="m171.79868 420.15506l0 -1.96875l5.796875 0l0 1.96875l-5.796875 0zm8.9609375 3.109375l0 -1.984375q1.890625 0.84375 3.21875 0.84375q1.8125 0 1.8125 -0.9375q0 -0.28125 -0.3125 -0.546875q-0.296875 -0.265625 -1.609375 -0.734375q-1.921875 -0.71875 -2.453125 -1.359375q-0.53125 -0.640625 -0.53125 -1.546875q0 -1.234375 0.96875 -1.90625q0.984375 -0.6875 2.640625 -0.6875q1.609375 0 3.296875 0.734375l-0.703125 1.75q-1.671875 -0.65625 -2.671875 -0.65625q-1.515625 0 -1.515625 0.71875q0 0.296875 0.296875 0.53125q0.3125 0.21875 1.6875 0.703125q1.734375 0.640625 2.34375 1.296875q0.609375 0.65625 0.609375 1.625q0 1.34375 -1.03125 2.09375q-1.015625 0.75 -2.796875 0.75q-2.015625 0 -3.25 -0.6875zm17.226562 -3.484375l-6.046875 0q0.0625 2.265625 2.359375 2.265625q1.46875 0 3.21875 -0.765625l0 1.953125q-1.546875 0.71875 -3.171875 0.71875q-2.046875 0 -3.296875 -1.265625q-1.234375 -1.265625 -1.234375 -3.453125q0 -2.203125 1.140625 -3.515625q1.140625 -1.3125 3.078125 -1.3125q1.796875 0 2.875 1.15625q1.078125 1.140625 1.078125 3.0l0 1.21875zm-5.984375 -1.8125l3.796875 0q0 -1.734375 -1.796875 -1.734375q-1.859375 0 -2.0 1.734375z" fill-rule="nonzero"/><path fill="#000000" d="m361.3026 420.15506l0 -1.96875l5.796875 0l0 1.96875l-5.796875 0zm8.9609375 3.109375l0 -1.984375q1.890625 0.84375 3.21875 0.84375q1.8125 0 1.8125 -0.9375q0 -0.28125 -0.3125 -0.546875q-0.296875 -0.265625 -1.609375 -0.734375q-1.921875 -0.71875 -2.453125 -1.359375q-0.53125 -0.640625 -0.53125 -1.546875q0 -1.234375 0.96875 -1.90625q0.984375 -0.6875 2.640625 -0.6875q1.609375 0 3.296875 0.734375l-0.703125 1.75q-1.671875 -0.65625 -2.671875 -0.65625q-1.515625 0 -1.515625 0.71875q0 0.296875 0.296875 0.53125q0.3125 0.21875 1.6875 0.703125q1.734375 0.640625 2.34375 1.296875q0.609375 0.65625 0.609375 1.625q0 1.34375 -1.03125 2.09375q-1.015625 0.75 -2.796875 0.75q-2.015625 0 -3.25 -0.6875zm17.226562 -3.484375l-6.046875 0q0.0625 2.265625 2.359375 2.265625q1.46875 0 3.21875 -0.765625l0 1.953125q-1.546875 0.71875 -3.171875 0.71875q-2.046875 0 -3.296875 -1.265625q-1.234375 -1.265625 -1.234375 -3.453125q0 -2.203125 1.140625 -3.515625q1.140625 -1.3125 3.078125 -1.3125q1.796875 0 2.875 1.15625q1.078125 1.140625 1.078125 3.0l0 1.21875zm-5.984375 -1.8125l3.796875 0q0 -1.734375 -1.796875 -1.734375q-1.859375 0 -2.0 1.734375z" fill-rule="nonzero"/></g></svg>